<svg width="323" height="31" viewBox="0 0 323 31" fill="none" xmlns="http://www.w3.org/2000/svg">
<path d="M234.695 18.6774H231.525L229.409 20.6292V22.581H231.525V20.6292H237.868L236.529 19.391C236.032 18.9303 235.377 18.6774 234.698 18.6774H234.695Z" fill="#595757"/>
<path d="M231.525 22.5864V24.5382H237.868L236.529 23.3001C236.032 22.8394 235.377 22.5864 234.698 22.5864H231.528H231.525Z" fill="#595757"/>
<path d="M237.869 20.632L239.208 21.8702C239.705 22.3308 240.36 22.5838 241.039 22.5838H242.097V20.632H237.869Z" fill="#595757"/>
<path d="M237.869 24.5328L239.208 25.771C239.705 26.2317 240.36 26.4847 241.039 26.4847H242.097V24.5328H237.869Z" fill="#595757"/>
<path d="M248.112 25.4622C247.476 25.5181 246.864 25.558 246.284 25.5953C246.236 25.5953 246.214 25.5767 246.214 25.5154C246.255 25.2785 246.284 25.0388 246.284 24.8125C246.284 24.5861 246.284 24.1388 246.228 23.8805L245.57 24.1281C245.648 24.2719 245.694 24.5861 245.694 24.9243C245.675 25.2811 245.269 25.7631 245.087 25.8536L245.541 26.2983C245.541 26.2983 245.833 26.0933 245.941 26.0533C246.018 26.0134 246.255 25.9841 246.649 25.9628C246.923 25.9441 247.342 25.9335 247.903 25.9335L248.115 25.4622H248.112Z" fill="#595757"/>
<path d="M250.794 25.2784C250.421 25.1878 250.016 25.0201 249.584 24.7831C249.081 24.5248 248.668 24.3384 248.351 24.1973C248.351 24.0828 248.472 23.8564 248.542 23.7606L248.263 23.6061C248.461 23.5955 250.158 23.5795 250.601 23.5662V23.0789C250.147 23.0789 246.529 23.1961 246.343 23.1961C246.343 23.1774 246.354 23.1561 246.354 23.1268C246.354 23.0283 246.343 22.9298 246.343 22.81C246.563 22.6928 248.977 22.6129 249.538 22.5916V22.1709C249.116 22.1602 246.698 22.2588 246.333 22.3253C246.333 22.2268 246.322 22.1283 246.322 22.0191C246.373 21.8806 248.966 21.8008 249.535 21.7821V21.3907C249.535 21.3907 247.009 21.4333 246.311 21.5345C246.311 21.3854 246.3 21.2283 246.3 21.0685C246.418 20.9753 249.033 20.9247 249.535 20.922V20.4854C249.511 20.4854 247.404 20.5439 246.518 20.5839C246.41 20.5839 246.303 20.6025 246.196 20.6238L245.683 21.1537C245.683 21.1537 245.688 21.1644 245.691 21.1697C245.769 21.2895 245.809 21.5957 245.809 22.091C245.828 22.4478 245.839 22.794 245.82 23.1428C245.82 23.1721 245.82 23.2014 245.839 23.2413C245.358 23.2813 244.684 23.3106 244.295 23.3372V23.8964C245.049 23.6833 247.371 23.6168 247.975 23.6168C247.975 24.0481 247.578 24.4556 247.385 24.5967C247.377 24.5993 247.371 24.6047 247.363 24.6073L247.737 24.9828C247.777 24.9562 247.82 24.9215 247.865 24.8736C247.954 24.7538 248.043 24.6553 248.142 24.5754C248.249 24.5754 248.537 24.7245 249.009 25.0014C249.205 25.1399 249.441 25.3076 249.71 25.486C249.986 25.6645 250.201 25.8242 250.341 25.9414C250.451 26.0346 250.555 26.1091 250.655 26.1651L251.812 25.4088C251.449 25.3955 251.108 25.3556 250.794 25.2757V25.2784Z" fill="#595757"/>
<path d="M255.468 22.9778C255.191 23.0364 254.729 23.0763 254.453 23.0976V23.0683C254.453 22.9778 254.464 22.8606 254.482 22.7222C254.501 22.6423 254.523 22.5438 254.542 22.4346C254.678 22.4346 255.116 22.4293 255.272 22.4266V22.0378C255.272 22.0378 254.96 22.0378 254.947 22.0378C254.515 22.0485 254.061 22.0671 253.607 22.0884C253.54 22.0884 253.199 22.0938 253.135 22.1017V22.5092C253.162 22.5038 253.465 22.5012 253.5 22.4958C253.607 22.4958 253.766 22.4852 253.964 22.4665C253.964 22.4772 253.964 22.4852 253.975 22.5065C254.005 22.5864 254.023 22.6663 254.023 22.7435C254.023 22.9219 254.013 23.0497 253.994 23.1402C253.758 23.1722 253.084 23.1828 252.923 23.1775V23.6595C253.057 23.6275 253.717 23.6009 253.946 23.5663C254.482 23.5104 255.124 23.4251 255.473 23.324V22.9831L255.468 22.9778Z" fill="#595757"/>
<path d="M254.574 21.878L254.995 21.5425C254.955 21.4866 254.746 21.2177 254.695 21.1644C254.848 21.1644 255.379 21.1564 255.532 21.1458V20.7011C255.17 20.7011 254.311 20.7197 253.986 20.7597C253.986 20.7011 253.997 20.6212 253.997 20.5307C253.997 20.4907 253.989 20.4561 253.981 20.4215H253.285C253.339 20.4535 253.387 20.6106 253.377 20.6691C253.377 20.8289 253.307 20.986 253.181 21.1458C252.985 21.3348 252.695 21.452 252.507 21.452L252.598 21.9499C252.912 21.9207 253.208 21.8035 253.495 21.5825C253.632 21.484 253.75 21.3641 253.838 21.207C253.927 21.207 254.026 21.1964 254.134 21.1884C254.212 21.3269 254.563 21.8567 254.577 21.8807L254.574 21.878Z" fill="#595757"/>
<path d="M258.276 21.3936C258.244 21.3563 258.029 21.114 257.988 21.0767C258.233 21.0767 258.627 21.0687 258.899 21.0687C258.899 21.0687 258.899 20.6773 258.899 20.672C258.899 20.6666 257.231 20.7012 257.086 20.7012C257.057 20.7012 257.027 20.7119 256.987 20.7119C256.987 20.6533 256.998 20.5734 256.998 20.4935C256.998 20.4696 256.995 20.4456 256.993 20.4243H256.305C256.364 20.4509 256.388 20.5734 256.388 20.632C256.388 21.0501 255.937 21.1805 255.599 21.1805L255.661 21.6598C256.034 21.6598 256.375 21.532 256.584 21.3669C256.662 21.3084 256.743 21.2391 256.81 21.1486C256.92 21.114 257.17 21.1087 257.406 21.098C257.495 21.2258 257.868 21.6971 257.876 21.7131L258.276 21.3936Z" fill="#595757"/>
<path d="M259.065 23.0336C259.017 23.055 258.966 23.0763 258.92 23.0976C258.791 23.1561 258.684 23.1774 258.584 23.1774C258.123 23.1774 257.894 23.0097 257.894 22.6609C257.894 22.5677 257.983 22.2721 258.281 22.1469L257.929 21.8008C257.766 21.8088 257.299 21.8088 256.968 21.8088C256.63 21.8274 255.916 21.8354 255.645 21.846V22.2694C255.645 22.2694 255.927 22.2614 256.262 22.2614C256.405 22.2614 256.397 22.6236 256.397 22.6236C256.214 22.6316 255.795 22.6396 255.645 22.6475V23.0044C255.795 22.991 256.195 22.9804 256.348 22.9804C256.348 23.1828 256.192 23.3132 256.042 23.4251C256.037 23.4304 256.034 23.4331 256.031 23.4384C256.031 23.4384 256.421 23.7925 256.431 23.8032C256.461 23.8298 256.791 23.473 256.791 22.991H257.186C257.186 22.991 257.186 22.6289 257.186 22.6262C257.186 22.6209 256.899 22.6236 256.791 22.6236L256.78 22.2268C257.006 22.2268 257.194 22.2162 257.333 22.2162C257.422 22.2268 257.47 22.2561 257.47 22.3147C257.47 23.3159 257.776 23.7366 258.641 23.7686L259.065 23.0336Z" fill="#595757"/>
<path d="M258.783 24.9588L259.419 24.0588C259.221 24.0801 259.033 24.0881 258.853 24.0881C258.037 24.0881 256.703 24.0295 255.903 24.0295C255.903 23.9896 255.913 23.7499 255.922 23.71C255.927 23.6701 255.932 23.6354 255.938 23.6008H255.296C255.328 23.6727 255.352 23.9417 255.352 24.0375C255.165 24.0482 253.379 24.1574 252.901 24.1893C252.901 24.1893 252.316 25.0201 252.319 25.0201C252.477 24.9509 254.534 24.5461 255.344 24.4955C255.344 25.0121 255.326 25.9601 255.304 26.4633C255.304 26.4713 255.304 26.4766 255.307 26.4846H255.865C255.876 26.0133 255.884 25.0547 255.884 24.4742C256.021 24.4742 256.16 24.4636 256.308 24.4636C257.041 24.4636 257.535 24.4875 258.233 24.7405C258.499 24.8497 258.668 24.9189 258.746 24.9482C258.756 24.9535 258.773 24.9535 258.786 24.9562L258.783 24.9588Z" fill="#595757"/>
<path d="M254.12 25.0201C253.924 25.2864 253.398 25.6512 253.162 25.7471L253.24 25.9894C253.452 25.9814 254.131 25.9894 254.764 25.5207L254.12 25.0201Z" fill="#595757"/>
<path d="M258.249 25.5713C258.249 25.5713 258.249 25.5713 258.246 25.5713C257.857 25.4169 257.239 25.1106 256.941 24.9722L256.673 25.6991C257.175 25.8615 257.873 25.779 258.249 25.7124V25.574V25.5713Z" fill="#595757"/>
<path d="M262.614 25.084C262.461 25.4195 261.973 25.9334 261.736 26.0932L261.876 26.3382C262.104 26.2822 262.845 26.1331 263.428 25.4807L262.614 25.084Z" fill="#595757"/>
<path d="M266.869 26.0426C266.869 26.0426 266.869 26.0426 266.866 26.0399C266.485 25.7816 265.897 25.305 265.61 25.084L265.148 25.8003C265.648 26.0958 266.415 26.1731 266.834 26.1917L266.866 26.0426H266.869Z" fill="#595757"/>
<path d="M261.721 23.6169C261.721 23.6169 261.721 23.8592 261.721 23.8645H262.137C262.142 23.8432 262.153 23.4731 262.153 23.3639C262.402 23.3426 262.725 23.3293 262.921 23.3213V22.9192C262.921 22.9192 262.201 22.9671 262.161 22.9671C262.161 22.7887 262.172 22.5997 262.172 22.392C262.413 22.376 262.727 22.36 262.921 22.3547V21.894C262.69 21.9286 262.182 21.9659 262.142 21.9659C262.123 21.7183 262.094 21.5106 262.054 21.3428C262.346 21.3242 262.7 21.3056 262.921 21.3029V20.8236C262.891 20.8183 261.917 20.9061 261.847 20.9168C261.847 20.9168 261.844 20.9168 261.841 20.9141L261.192 21.3695C261.39 21.5665 261.53 21.9393 261.56 22.1177C261.659 22.5544 261.718 23.0044 261.718 23.6195L261.721 23.6169Z" fill="#595757"/>
<path d="M268.383 24.0057C267.731 24.0909 267.073 24.0136 266.421 23.9817C265.739 23.9497 265.057 23.9391 264.373 23.9391C263.253 23.9391 262.142 24.0989 261.038 24.2666L260.434 25.1267C261.669 24.6607 262.966 24.4131 264.287 24.4131C265.331 24.4131 266.359 24.429 267.371 24.7193C267.54 24.7752 267.798 24.8338 267.798 24.8338L268.386 24.0003L268.383 24.0057Z" fill="#595757"/>
<path d="M265.61 21.3056C265.777 21.2816 266.316 21.2657 266.523 21.255C266.66 21.255 266.73 21.2843 266.73 21.3349C266.719 21.5319 266.711 21.7316 266.711 21.9393C266.641 21.9287 265.761 21.926 265.61 21.9393V22.3308C265.61 22.3308 266.475 22.3254 266.692 22.3068C266.682 22.5145 266.673 22.7222 266.663 22.9299C266.614 22.9299 266.563 22.9406 266.526 22.9406C266.408 22.9406 265.613 22.9299 265.613 22.9299V23.3586C265.672 23.3506 266.488 23.3054 266.655 23.2867C266.644 23.3852 266.636 23.6169 266.636 23.6968H267.108C267.127 23.3506 267.149 22.6503 267.186 22.1151C267.232 21.721 267.261 21.4201 267.28 21.2124L266.792 20.7704C266.773 20.7757 266.754 20.7784 266.733 20.7864C266.644 20.8263 265.844 20.8849 265.613 20.8849V21.3056H265.61Z" fill="#595757"/>
<path d="M263.581 20.7384L263.114 21.1271C263.173 21.2896 263.203 21.452 263.203 21.6197C263.203 21.8567 263.203 22.1842 263.184 22.5996C263.157 22.9511 263.138 23.3905 263.127 23.6594H263.56C263.594 23.1988 263.605 22.81 263.608 22.3493C263.608 22.2482 263.552 21.0872 263.597 21.0739C263.994 20.9594 264.429 20.9461 264.837 20.9461C264.915 20.9461 264.956 20.9753 264.956 21.0259C264.956 21.4733 264.982 23.4757 264.998 23.6621C264.998 23.6621 265.425 23.6727 265.428 23.6621C265.428 23.4251 265.417 23.0097 265.417 22.7408V21.0845C265.417 21.01 265.433 20.9407 265.463 20.8848C265.28 20.7543 265.098 20.6239 264.918 20.4907C264.926 20.496 264.625 20.6212 264.598 20.6265C264.255 20.6452 263.925 20.6904 263.584 20.7357H263.578L263.581 20.7384Z" fill="#595757"/>
<path d="M264.829 21.3989C264.579 21.4256 263.766 21.4709 263.723 21.4789V21.8418C263.744 21.8364 263.763 21.8258 263.785 21.8098C263.903 21.7537 264.689 21.7004 264.829 21.6764V21.3962V21.3989Z" fill="#595757"/>
<path d="M264.781 23.055C264.77 23.0284 264.767 22.9991 264.767 22.9671C264.767 22.8446 264.775 22.5996 264.797 22.5118L264.55 22.0618C264.493 22.0884 264.44 22.107 264.383 22.107C264.324 22.1257 264.276 22.1257 264.225 22.1257C264.147 22.1257 264.088 22.115 264.037 22.0857L263.736 22.3999C263.758 22.4372 263.771 22.4798 263.771 22.5304C263.771 22.6289 263.761 22.8659 263.761 22.9538C263.761 23.0124 263.747 23.0603 263.726 23.1029L264.024 23.4784C264.042 23.4677 264.067 23.4571 264.099 23.4491C264.198 23.4304 264.265 23.4198 264.316 23.4091C264.37 23.4091 264.432 23.4145 264.512 23.4224L264.783 23.0523L264.781 23.055ZM264.365 23.1349C264.287 23.1535 264.228 23.1642 264.169 23.1642C264.11 23.1642 264.091 23.1455 264.091 23.1056C264.11 22.9272 264.12 22.6316 264.12 22.4931C264.12 22.4532 264.15 22.4239 264.22 22.4026C264.279 22.384 264.327 22.3733 264.367 22.3733C264.426 22.3733 264.467 22.4026 264.467 22.4425C264.467 22.581 264.456 22.8872 264.448 23.0443C264.448 23.1029 264.418 23.1349 264.37 23.1349H264.365Z" fill="#595757"/>
<path d="M270.813 25.3077C270.617 25.574 270.091 25.9388 269.855 26.0347L269.933 26.277C270.145 26.269 270.824 26.277 271.457 25.8083L270.813 25.3077Z" fill="#595757"/>
<path d="M274.561 20.2886C274.451 20.5682 274.075 21.0102 273.89 21.1513L274.013 21.343C274.196 21.2871 274.792 21.1327 275.237 20.5762L274.558 20.2886H274.561Z" fill="#595757"/>
<path d="M269.874 20.4987C270.035 20.717 270.462 21.0126 270.655 21.0925L270.59 21.2895C270.419 21.2842 269.863 21.2895 269.347 20.9087L269.871 20.5013L269.874 20.4987Z" fill="#595757"/>
<path d="M275.124 25.8082C275.124 25.8082 275.124 25.8082 275.122 25.8082C274.732 25.6538 274.115 25.3476 273.817 25.2091L273.548 25.936C274.05 26.0985 274.748 26.0159 275.124 25.9494V25.8109V25.8082Z" fill="#595757"/>
<path d="M275.702 22.4665L276.335 21.5692C275.336 21.6757 274.298 21.5878 273.296 21.5612C273.296 21.4014 273.307 20.8502 273.326 20.6106C273.345 20.4854 273.363 20.3549 273.382 20.2218H272.808C272.824 20.2804 272.834 20.3416 272.834 20.4029C272.834 20.7703 272.816 21.3934 272.794 21.5718C272.488 21.5905 272.174 21.6011 271.857 21.6011C271.876 21.4334 271.887 20.8609 271.887 20.5813C271.871 20.4401 271.852 20.3203 271.828 20.2218H271.21C271.226 20.2431 271.243 20.2671 271.256 20.2937C271.304 20.3736 271.334 20.4615 271.355 20.552C271.422 20.8848 271.417 21.239 271.433 21.5798C271.433 21.5931 271.433 21.6064 271.428 21.6144C271.42 21.6251 271.404 21.6277 271.388 21.6277C270.821 21.657 269.975 21.7502 269.409 21.7982L268.851 22.5917C269.001 22.5171 269.151 22.4612 269.302 22.4133C270.11 22.1603 271.235 22.0511 272.08 22.0165C273.052 21.9792 274.123 21.9313 275.06 22.2535C275.345 22.352 275.554 22.4186 275.704 22.4639L275.702 22.4665Z" fill="#595757"/>
<path d="M272.644 23.2254C273.256 23.2068 274.054 23.1961 274.719 23.1961V22.7727C274.676 22.7727 273.895 22.7887 273.637 22.7887C273.654 22.7488 273.868 22.3041 273.89 22.2615L273.407 22.0618C273.401 22.0911 273.2 22.5278 273.195 22.5624C273.184 22.581 273.176 22.621 273.154 22.6715C273.135 22.7221 273.114 22.7701 273.095 22.81C272.582 22.8286 271.587 22.8792 271.587 22.8792C271.587 22.6369 271.423 22.1044 271.382 22.1283L270.918 22.4133C270.942 22.4692 271.125 22.826 271.144 22.8979C270.918 22.9085 270.242 22.9298 270.212 22.9325V23.3878C270.293 23.3772 270.387 23.3639 270.494 23.3452C270.808 23.3266 271.391 23.2946 272.003 23.2547C272.013 23.3532 272.021 23.473 272.043 23.6115H272.032C271.53 23.6488 270.902 23.6754 270.54 23.702V24.184C270.907 24.1334 271.552 24.0908 272.08 24.0562C272.08 24.176 272.091 24.3038 272.091 24.4636C272.003 24.4636 271.914 24.4742 271.836 24.4742C271.071 24.5222 270.421 24.5701 269.868 24.61V25.1266C270.443 25.0521 271.141 24.9961 271.984 24.9402C272.013 24.9402 272.054 24.9402 272.091 24.9296C272.091 25.4089 272.097 26.229 272.11 26.4846H272.593V24.9003C273.208 24.8737 274.027 24.855 274.719 24.839V24.3837C274.456 24.3677 273.968 24.3731 273.57 24.397C273.256 24.4157 272.929 24.4263 272.585 24.4476V24.0216C272.996 24.0056 273.718 23.9896 274.177 23.971V23.5423C274.003 23.5369 272.821 23.5849 272.604 23.5849C272.615 23.4651 272.623 23.3479 272.644 23.2467V23.2281V23.2254Z" fill="#595757"/>
<path d="M196.135 19.8833H198.654C198.654 19.8833 198.713 19.8223 198.823 19.7053C198.966 19.5323 199.061 19.4432 199.105 19.4432C199.149 19.4432 199.282 19.545 199.505 19.7358C199.633 19.8554 199.713 19.9317 199.713 19.9647C199.713 20.0309 199.674 20.0614 199.605 20.0614H196.117V20.7686H198.059C198.059 20.7686 198.125 20.6974 198.256 20.5422C198.433 20.3311 198.556 20.2242 198.61 20.2242C198.664 20.2242 198.818 20.3438 199.072 20.5778C199.231 20.7254 199.315 20.8093 199.315 20.85C199.315 20.9162 199.269 20.9543 199.19 20.9543H196.117V21.6564H198.084C198.084 21.6564 198.151 21.5827 198.287 21.4377C198.461 21.2418 198.582 21.1375 198.636 21.1375C198.682 21.1375 198.831 21.252 199.084 21.4707C199.231 21.6157 199.315 21.7022 199.315 21.7328C199.315 21.8065 199.269 21.8396 199.19 21.8396H196.117V22.6206H198.972C198.992 22.613 199.072 22.5112 199.213 22.3306C199.387 22.1093 199.497 21.9922 199.523 21.9922C199.618 21.9922 199.759 22.1016 199.959 22.3128C200.162 22.5265 200.262 22.6562 200.262 22.6994C200.262 22.7758 200.215 22.8063 200.128 22.8063H197.187C197.312 23.0887 197.481 23.3431 197.694 23.5796C197.833 23.7425 198 23.8951 198.192 24.0325C198.3 23.9358 198.402 23.8289 198.51 23.7043C198.702 23.4881 198.864 23.2617 198.997 23.0149C199.233 23.1599 199.456 23.2973 199.661 23.4143C199.849 23.5517 199.949 23.6534 199.949 23.7145C199.949 23.7857 199.9 23.8213 199.81 23.8213L199.418 23.7933C199.164 23.918 198.828 24.0426 198.402 24.1622C198.479 24.2156 198.571 24.269 198.661 24.3047C199.154 24.5565 199.708 24.7473 200.315 24.8898L200.29 25.05C200.077 25.1238 199.933 25.223 199.874 25.3477C199.8 25.5105 199.741 25.5919 199.687 25.5919C199.59 25.5919 199.408 25.5206 199.154 25.3858C198.859 25.2459 198.541 25.0551 198.212 24.8007C197.959 24.6176 197.72 24.3581 197.517 24.0426C197.312 23.7577 197.138 23.3431 196.999 22.8063H196.114V24.4675C196.571 24.414 197.007 24.3428 197.428 24.2614L197.479 24.3683C196.771 24.8134 196.025 25.1263 195.24 25.3248C195.155 25.34 195.112 25.3655 195.112 25.4062C195.099 25.4316 195.091 25.4621 195.083 25.4978C195.06 25.5614 195.027 25.5919 194.986 25.5919C194.881 25.5919 194.771 25.4189 194.642 25.0856C194.604 24.9941 194.535 24.8389 194.455 24.6252C194.773 24.6048 195.081 24.5794 195.378 24.554V22.8037H195.14C194.758 22.8037 194.488 22.8088 194.327 22.8241L194.219 22.5697C194.432 22.6079 194.737 22.6206 195.14 22.6206H195.378V20.878C195.378 20.3209 195.35 19.8935 195.294 19.601C195.537 19.6544 195.812 19.7511 196.132 19.8884L196.135 19.8833Z" fill="#595757"/>
<path d="M202.426 20.0868H203.029C203.044 20.0868 203.121 20.008 203.244 19.8604C203.391 19.6849 203.486 19.5959 203.511 19.5959C203.586 19.5959 203.706 19.6798 203.868 19.8553C204.029 20.0283 204.106 20.1301 204.106 20.1632C204.147 19.9876 204.181 19.8096 204.217 19.6213C204.404 19.6874 204.578 19.7485 204.753 19.8096C204.917 19.8757 205.004 19.9418 205.004 20.0156C205.004 20.0461 204.963 20.0665 204.878 20.0741C204.801 20.0868 204.753 20.1021 204.74 20.1148C204.552 20.3845 204.337 20.6287 204.088 20.8576C204.168 20.8805 204.229 20.9162 204.283 20.939C204.391 21.023 204.452 21.1069 204.452 21.2087C204.452 21.3028 204.409 21.3817 204.34 21.4631C204.286 21.5216 204.219 21.5496 204.137 21.5496C204.055 21.5496 203.991 21.4834 203.937 21.3512C203.857 21.1578 203.724 20.9747 203.532 20.794L203.588 20.7126C203.714 20.7406 203.829 20.7762 203.924 20.8042C203.986 20.6236 204.04 20.4379 204.091 20.2471C204.07 20.2675 204.045 20.2776 204.011 20.2776H202.962C202.801 20.9594 202.657 21.4656 202.529 21.7913C202.514 21.8294 202.493 21.8727 202.478 21.8956L202.573 21.9414H202.749C202.829 21.8421 202.911 21.7582 202.993 21.6768C203.047 21.6106 203.093 21.5801 203.147 21.5801C203.188 21.5801 203.303 21.6335 203.478 21.7378C203.678 21.8752 203.775 21.9668 203.775 22.0177C203.775 22.0558 203.763 22.0991 203.737 22.1271C203.873 22.1271 203.999 22.1271 204.119 22.1194C204.399 21.5928 204.619 21.0332 204.77 20.4328C204.947 20.4913 205.117 20.5549 205.273 20.6033C205.296 20.6185 205.314 20.6261 205.335 20.6312C205.314 20.0843 205.296 19.7002 205.265 19.4738C205.468 19.5043 205.676 19.5374 205.878 19.5704C206.099 19.5984 206.214 19.6467 206.214 19.7053C206.214 19.7587 206.163 19.8019 206.066 19.8375C205.958 19.8859 205.896 19.9164 205.896 19.9367V20.4175C205.986 20.4455 206.066 20.4659 206.132 20.4888C206.245 20.1937 206.335 19.8782 206.396 19.545C206.584 19.6111 206.758 19.6722 206.933 19.7358C207.094 19.7994 207.184 19.8731 207.184 19.9367C207.184 19.9749 207.14 20.0003 207.063 20.0029C206.981 20.0182 206.933 20.0283 206.92 20.0461C206.748 20.2293 206.553 20.4048 206.322 20.5651C206.384 20.5956 206.435 20.6261 206.473 20.649C206.576 20.7381 206.63 20.8373 206.63 20.9543C206.63 21.0306 206.597 21.1095 206.53 21.1858C206.473 21.2418 206.414 21.2647 206.343 21.2647C206.276 21.2647 206.214 21.196 206.166 21.0561C206.107 20.8882 206.017 20.7304 205.902 20.5854C205.912 21.079 205.935 21.5114 205.955 21.8828C206.05 21.8828 206.145 21.8828 206.235 21.8727C206.558 21.3766 206.797 20.8449 206.974 20.2776C207.158 20.3438 207.333 20.4048 207.51 20.4659C207.671 20.532 207.761 20.5956 207.761 20.6669C207.761 20.7025 207.717 20.7254 207.64 20.7304C207.558 20.7406 207.512 20.7533 207.499 20.7686C207.204 21.1604 206.853 21.5241 206.466 21.8472C206.73 21.8294 206.979 21.8014 207.212 21.7607C207.176 21.6513 207.14 21.5369 207.086 21.4224L207.14 21.3715C207.366 21.4885 207.53 21.5954 207.62 21.692C207.728 21.8167 207.789 21.9261 207.789 22.0177C207.789 22.1372 207.761 22.2364 207.71 22.3051C207.635 22.3814 207.551 22.4094 207.474 22.4094C207.412 22.4094 207.371 22.3967 207.345 22.3611C207.31 22.3433 207.286 22.2441 207.268 22.0685C207.263 22.0329 207.256 21.9973 207.248 21.9566C207.099 22.066 206.945 22.1601 206.791 22.2314C206.894 22.2644 206.968 22.2899 207.02 22.3179C207.115 22.3789 207.158 22.4425 207.158 22.5163C207.158 22.6104 207.115 22.702 207.033 22.791C206.979 22.8521 206.904 22.8775 206.82 22.8775C206.763 22.8775 206.717 22.8215 206.684 22.7045C206.643 22.5824 206.589 22.4654 206.509 22.3509C206.471 22.3636 206.435 22.3814 206.404 22.3942C206.361 22.3993 206.343 22.412 206.343 22.4425C206.335 22.4552 206.33 22.4781 206.322 22.5086C206.309 22.5493 206.294 22.5697 206.268 22.5697C206.199 22.5697 206.12 22.4552 206.025 22.2161C206.009 22.1856 205.991 22.1398 205.971 22.0864C205.986 22.2593 206.004 22.4196 206.025 22.5595C206.035 22.7172 206.063 22.8572 206.091 22.9818H207.027C207.027 22.9818 207.092 22.9182 207.186 22.8063C207.302 22.6816 207.369 22.618 207.397 22.618C207.448 22.618 207.545 22.6816 207.669 22.8165C207.797 22.9538 207.863 23.0378 207.863 23.0658C207.863 23.1319 207.835 23.165 207.784 23.165H206.122C206.191 23.4652 206.273 23.7119 206.373 23.9027C206.507 23.7119 206.617 23.5109 206.712 23.2973C206.899 23.4066 207.038 23.4779 207.12 23.5186C207.317 23.6381 207.42 23.717 207.42 23.7679C207.42 23.8086 207.366 23.8315 207.271 23.8315C207.168 23.8442 207.117 23.8722 207.102 23.8976C206.943 24.0935 206.802 24.2589 206.666 24.3937C206.82 24.6048 206.968 24.7117 207.102 24.7117C207.156 24.7117 207.225 24.6328 207.299 24.4725C207.379 24.3148 207.471 24.1444 207.574 23.946L207.681 23.9994C207.628 24.2182 207.587 24.3861 207.563 24.4904C207.533 24.6913 207.52 24.8185 207.52 24.8592C207.52 24.8923 207.54 24.9508 207.592 25.0602C207.663 25.1518 207.704 25.2255 207.704 25.2815C207.704 25.457 207.61 25.541 207.435 25.541C207.03 25.541 206.635 25.2713 206.248 24.7549C205.984 24.9432 205.719 25.0805 205.455 25.1874C205.124 25.3197 204.783 25.4291 204.419 25.5156L204.368 25.4367C204.84 25.223 205.219 25.0119 205.514 24.8109C205.678 24.6964 205.837 24.559 205.991 24.3861C205.794 24.0655 205.655 23.6941 205.571 23.2667C205.555 23.2337 205.545 23.198 205.545 23.1701H204.888C204.873 23.3532 204.855 23.5084 204.845 23.6509C205.071 23.7246 205.235 23.7984 205.34 23.8671C205.46 23.9587 205.522 24.0655 205.522 24.1902C205.522 24.2868 205.481 24.381 205.401 24.4649C205.348 24.526 205.273 24.5514 205.183 24.5514C205.094 24.5514 205.022 24.4776 204.963 24.3174C204.924 24.1978 204.86 24.0833 204.794 23.9714C204.783 24.035 204.76 24.096 204.745 24.1495C204.681 24.3606 204.609 24.5489 204.509 24.7142C204.417 24.8694 204.288 25.0119 204.134 25.134C203.94 25.2942 203.719 25.4291 203.478 25.541L203.421 25.4087C203.532 25.3197 203.645 25.2001 203.757 25.05C203.868 24.9025 203.952 24.7371 204.037 24.5361C204.109 24.3555 204.163 24.1698 204.199 23.9714C204.237 23.7424 204.258 23.4753 204.263 23.1675C204.047 23.1752 203.893 23.1828 203.796 23.1955L203.688 22.9335C203.893 22.9742 204.201 22.9869 204.609 22.9869H205.512C205.478 22.8266 205.453 22.6689 205.432 22.5112C205.424 22.5214 205.419 22.5341 205.412 22.5392C205.345 22.6155 205.263 22.646 205.183 22.646C205.13 22.646 205.088 22.6333 205.065 22.6002C205.04 22.5799 205.014 22.4807 205.001 22.3077V22.3C204.742 22.4756 204.483 22.6002 204.209 22.6816C204.165 22.6867 204.152 22.6994 204.152 22.7274C204.145 22.7478 204.14 22.7758 204.134 22.8037C204.122 22.8572 204.099 22.8801 204.073 22.8801C203.993 22.8801 203.906 22.7503 203.804 22.4883C203.775 22.4247 203.729 22.3306 203.678 22.183H203.668C203.621 22.2415 203.604 22.3 203.604 22.3611V24.0808C203.604 24.2589 203.609 24.498 203.627 24.8058C203.627 24.8872 203.527 24.9432 203.327 24.9712C203.234 24.9864 203.17 24.994 203.129 24.994C203.019 24.994 202.97 24.933 202.97 24.8058V24.6252H202.606V25.0907C202.606 25.1645 202.506 25.2179 202.316 25.2561C202.226 25.2688 202.167 25.279 202.129 25.279C201.988 25.279 201.921 25.2128 201.921 25.0907C201.957 24.8236 201.975 24.5463 201.975 24.2589V22.7859C201.836 22.9793 201.688 23.1395 201.529 23.2718L201.506 23.193C201.654 22.8877 201.788 22.4883 201.921 21.9999C202.047 21.5038 202.157 20.9314 202.249 20.2802C201.957 20.2853 201.739 20.2929 201.606 20.3056L201.506 20.0487C201.713 20.0792 202.013 20.0919 202.416 20.0919L202.426 20.0868ZM202.98 24.442V22.122H202.616V24.442H202.98ZM205.345 21.2443C205.337 21.1044 205.337 20.9823 205.337 20.8678C205.278 20.8805 205.242 20.8856 205.24 20.8958C204.978 21.3334 204.673 21.7378 204.329 22.1067C204.56 22.1067 204.776 22.0965 204.978 22.0813C204.95 21.9388 204.901 21.8014 204.85 21.6539L204.901 21.6005C205.117 21.72 205.263 21.8269 205.345 21.9235C205.36 21.949 205.371 21.9592 205.383 21.977C205.358 21.7353 205.345 21.4962 205.345 21.2469V21.2443Z" fill="#595757"/>
<path d="M214.596 25.5488C214.442 25.5004 214.286 25.4063 214.127 25.2664C213.924 25.101 213.744 24.9102 213.591 24.694C213.126 25.0807 212.578 25.3554 211.947 25.5233L211.9 25.4317C212.457 25.1723 212.944 24.8034 213.36 24.32C213.188 23.9995 213.042 23.6077 212.921 23.1422H212.165C212.157 23.2643 212.139 23.4322 212.111 23.6408C212.375 23.707 212.575 23.8062 212.708 23.9435C212.819 24.058 212.867 24.175 212.855 24.2997C212.842 24.4193 212.785 24.4981 212.688 24.5439C212.585 24.5872 212.478 24.5668 212.362 24.4854C212.336 24.2921 212.236 24.0835 212.065 23.8545C211.893 24.5897 211.475 25.1621 210.813 25.5691L210.726 25.4775C211.057 25.1494 211.29 24.7627 211.421 24.32C211.508 24.0122 211.559 23.6205 211.572 23.1422H211.162L211.136 23.0379C211.093 23.0913 211.036 23.1168 210.969 23.1168C210.898 23.1117 210.834 23.0786 210.769 23.0176C210.751 22.7276 210.639 22.4121 210.431 22.0712V23.8138C210.439 24.3582 210.457 24.8721 210.485 25.358C210.459 25.4114 210.398 25.4597 210.3 25.503C210.197 25.5513 210.097 25.5742 209.995 25.5742C209.941 25.5742 209.9 25.5615 209.867 25.5335C209.833 25.5081 209.818 25.4775 209.818 25.4419C209.818 25.4114 209.818 25.3681 209.826 25.3096C209.856 24.7881 209.877 24.2666 209.885 23.7451V22.8319C209.664 23.2821 209.387 23.6942 209.056 24.0606L208.964 23.9817C209.338 23.3254 209.615 22.4172 209.792 21.2597H209.574C209.464 21.2648 209.343 21.2953 209.215 21.3513L209.043 21.0155C209.197 21.0409 209.387 21.0587 209.613 21.0689H209.885V20.7916C209.885 20.2396 209.856 19.7893 209.797 19.4434C210.2 19.5477 210.446 19.6265 210.539 19.6799C210.61 19.7232 210.61 19.7664 210.546 19.8122L210.433 19.8835V21.0664H210.521L210.646 20.8425C210.654 20.8298 210.667 20.8094 210.68 20.784C210.741 20.6746 210.787 20.6186 210.818 20.6186C210.859 20.6186 210.946 20.695 211.082 20.8476C211.218 21.0002 211.287 21.102 211.287 21.1503C211.275 21.2216 211.221 21.2546 211.128 21.2546H210.433V21.8931C210.759 22.056 210.987 22.2468 211.116 22.4655C211.218 22.6461 211.239 22.8064 211.182 22.9463H212.88C212.849 22.7962 212.813 22.6054 212.775 22.3689C212.734 22.4426 212.678 22.4884 212.603 22.5011C212.524 22.5139 212.447 22.4833 212.372 22.4096C212.362 22.3053 212.344 22.1959 212.313 22.0865C212.154 22.1653 211.875 22.2925 211.477 22.4681C211.446 22.5418 211.395 22.5876 211.326 22.6054L211.041 22.0203C211.098 22.0203 211.218 22.0127 211.4 22C211.439 21.9949 211.472 21.9924 211.493 21.9924C211.598 21.7558 211.706 21.4887 211.811 21.191C211.718 21.2826 211.606 21.2801 211.472 21.1834C211.449 21.0638 211.395 20.9315 211.305 20.7815C211.231 20.6492 211.144 20.5372 211.046 20.4406L211.118 20.3948C211.228 20.4202 211.334 20.4533 211.429 20.494C211.534 20.0564 211.595 19.713 211.608 19.4688C211.944 19.5858 212.154 19.6774 212.239 19.7385C212.301 19.7817 212.295 19.8173 212.226 19.8428L212.106 19.8962C211.89 20.2167 211.723 20.4457 211.608 20.5856C211.785 20.695 211.877 20.8247 211.888 20.9723C211.962 20.7611 212.024 20.5398 212.072 20.3083L212.629 20.5703C212.621 20.1048 212.616 19.7486 212.616 19.4993C212.978 19.5299 213.203 19.5629 213.293 19.5985C213.36 19.624 213.36 19.6621 213.293 19.7105L213.18 19.7817C213.157 21.1274 213.234 22.1806 213.411 22.9438H214.247L214.381 22.7454C214.393 22.7276 214.411 22.7047 214.434 22.6741C214.491 22.5876 214.534 22.5418 214.56 22.5418C214.599 22.5418 214.693 22.6105 214.842 22.7479C214.991 22.8853 215.065 22.9794 215.065 23.0277C215.047 23.099 214.993 23.132 214.899 23.132H213.467C213.547 23.3991 213.629 23.6281 213.714 23.8163L213.852 23.4678C213.86 23.4449 213.873 23.4144 213.886 23.3763C213.957 23.2007 214.006 23.1142 214.037 23.1142C214.086 23.1142 214.214 23.1676 214.422 23.272C214.637 23.3864 214.747 23.4653 214.747 23.5085C214.716 23.5747 214.634 23.6001 214.501 23.5874C214.342 23.8596 214.175 24.0936 214.003 24.2895C214.119 24.4422 214.255 24.5821 214.414 24.7042C214.463 24.7525 214.501 24.7754 214.527 24.7703C214.552 24.7652 214.583 24.7296 214.614 24.666C214.716 24.465 214.814 24.2081 214.911 23.8978L214.983 23.9105L214.87 24.9484C215.037 25.2104 215.086 25.3834 215.017 25.4673C214.924 25.5767 214.786 25.6022 214.599 25.5386L214.596 25.5488ZM211.685 21.9873C211.752 21.9796 211.854 21.9695 211.995 21.9618C212.111 21.9491 212.198 21.9389 212.26 21.9364C212.203 21.7863 212.136 21.6438 212.059 21.509L212.131 21.4709C212.395 21.593 212.59 21.7431 212.713 21.9186C212.678 21.5904 212.649 21.1987 212.626 20.7484C212.603 20.756 212.57 20.7611 212.521 20.7611C212.234 21.2292 211.954 21.6388 211.68 21.9898L211.685 21.9873ZM213.906 22.8013C213.883 22.7148 213.842 22.6233 213.783 22.5317C213.724 22.4401 213.657 22.3689 213.588 22.3205C213.562 22.346 213.532 22.3612 213.496 22.3663L213.278 21.7812H213.416C213.503 21.7761 213.575 21.7736 213.629 21.7736C213.714 21.6031 213.796 21.4174 213.88 21.2139C213.788 21.275 213.685 21.2623 213.575 21.1732C213.562 21.0562 213.519 20.9239 213.442 20.7789C213.37 20.6441 213.291 20.5296 213.203 20.438L213.27 20.3922C213.342 20.41 213.434 20.4406 213.55 20.4838C213.652 20.1124 213.716 19.769 213.742 19.4586C214.086 19.5909 214.301 19.6876 214.386 19.7486C214.447 19.797 214.442 19.8326 214.365 19.8529L214.245 19.8936C214.062 20.148 213.883 20.3744 213.701 20.5703C213.873 20.6873 213.968 20.8171 213.986 20.957C214.104 20.6594 214.186 20.4126 214.232 20.2142C214.542 20.349 214.732 20.4482 214.801 20.5093C214.858 20.5576 214.852 20.5932 214.781 20.6136L214.66 20.6517C214.378 21.0816 214.111 21.4505 213.857 21.7558C213.98 21.7481 214.183 21.7329 214.468 21.7151C214.406 21.5345 214.334 21.3844 214.255 21.2623L214.334 21.2292C214.586 21.3615 214.77 21.509 214.883 21.6769C214.976 21.8219 215.014 21.9567 214.996 22.0839C214.983 22.206 214.932 22.2849 214.84 22.3205C214.75 22.3561 214.66 22.3282 214.57 22.234C214.57 22.1425 214.55 22.0203 214.511 21.8728C214.216 22 213.929 22.117 213.657 22.2213C213.644 22.2468 213.632 22.2671 213.619 22.2798L213.644 22.2595C213.883 22.2646 214.065 22.3053 214.188 22.3841C214.286 22.4554 214.332 22.5368 214.327 22.6334C214.319 22.7199 214.27 22.7835 214.188 22.8242C214.101 22.8675 214.003 22.8573 213.903 22.7912L213.906 22.8013Z" fill="#595757"/>
<path d="M217.199 25.5816C217.143 25.5816 217.096 25.5688 217.06 25.5434C217.025 25.518 217.007 25.4874 217.007 25.4518C217.007 25.4213 217.007 25.3781 217.014 25.3195C217.045 24.798 217.066 24.2765 217.073 23.755V22.8341C216.866 23.2844 216.591 23.6991 216.253 24.0756L216.16 23.9891C216.545 23.3149 216.814 22.4068 216.968 21.2671H216.73C216.607 21.2722 216.473 21.3027 216.332 21.3587L216.165 21.0229C216.337 21.0483 216.545 21.0661 216.789 21.0763H217.073V20.7736C217.073 20.2215 217.045 19.7713 216.986 19.4253C217.391 19.527 217.645 19.6034 217.743 19.6542C217.817 19.6975 217.822 19.7407 217.756 19.7865L217.643 19.8654V21.0763H217.763L217.897 20.8601C217.904 20.8473 217.92 20.8244 217.943 20.7939C218.009 20.6922 218.056 20.6438 218.081 20.6438C218.122 20.6438 218.217 20.7176 218.368 20.8677C218.52 21.0178 218.597 21.1145 218.597 21.1628C218.584 21.234 218.527 21.2671 218.43 21.2671H217.64V21.7937C217.94 21.9158 218.166 22.0633 218.317 22.2338C218.44 22.3788 218.499 22.5212 218.489 22.6612C218.484 22.7883 218.433 22.8748 218.333 22.9181C218.233 22.9613 218.13 22.9384 218.025 22.8469C217.981 22.5848 217.853 22.2847 217.64 21.9463V23.8212C217.648 24.3656 217.666 24.8794 217.694 25.3653C217.668 25.4188 217.602 25.4671 217.499 25.5129C217.396 25.5587 217.294 25.5816 217.196 25.5816H217.199ZM218.645 25.5688C218.561 25.5688 218.52 25.5256 218.52 25.4366C218.538 25.2483 218.551 25.0066 218.561 24.7141V24.2791H218.381C218.294 24.2842 218.204 24.3147 218.117 24.3707L217.95 24.0349C218.066 24.0603 218.207 24.0781 218.374 24.0883H218.558V23.3785H218.445C218.397 23.3836 218.348 23.4142 218.299 23.4701L218.127 23.1343C218.212 23.1598 218.312 23.1776 218.433 23.1877H218.558C218.558 22.7095 218.535 22.3279 218.486 22.043L219.148 22.3381H219.797V21.8573H219.266C218.956 21.8624 218.635 21.8929 218.299 21.9489L218.127 21.6207C218.317 21.6461 218.543 21.6639 218.804 21.6741H219.123V21.1017H218.938C218.851 21.1068 218.756 21.1373 218.658 21.1933L218.486 20.8575C218.61 20.883 218.756 20.9008 218.925 20.9109H219.125V20.3793H218.874C218.738 20.3843 218.592 20.4149 218.435 20.4708L218.268 20.135C218.427 20.1605 218.622 20.1783 218.851 20.1885H219.123C219.123 19.9163 219.11 19.6822 219.084 19.4838C219.438 19.5754 219.659 19.6492 219.746 19.7C219.812 19.7382 219.815 19.7789 219.753 19.8196L219.653 19.8857V20.1885H220.382C220.382 19.9163 220.369 19.6822 220.343 19.4838C220.702 19.5805 220.923 19.6542 221.005 19.7077C221.072 19.7458 221.074 19.7891 221.013 19.8323L220.913 19.8985V20.1885H221.223L221.356 19.9977C221.364 19.985 221.379 19.9646 221.403 19.9392C221.469 19.8527 221.515 19.8069 221.541 19.8069C221.585 19.8069 221.685 19.873 221.836 20.0053C221.987 20.1376 222.064 20.2266 222.064 20.275C222.046 20.3462 221.992 20.3793 221.898 20.3793H220.91V20.9109H221.156L221.277 20.7329C221.285 20.7201 221.3 20.7023 221.315 20.6794C221.377 20.5955 221.42 20.5548 221.449 20.5548C221.492 20.5548 221.585 20.6158 221.723 20.738C221.862 20.8601 221.931 20.9466 221.931 20.9949C221.918 21.0661 221.864 21.0992 221.772 21.0992H220.91V21.6716H221.328L221.462 21.4808C221.469 21.4681 221.485 21.4452 221.508 21.4146C221.569 21.3281 221.613 21.2824 221.641 21.2824C221.685 21.2824 221.782 21.3485 221.928 21.4808C222.077 21.6131 222.151 21.7021 222.151 21.7504C222.139 21.8217 222.082 21.8547 221.985 21.8547H220.328V22.3355H220.99L221.11 22.1702C221.123 22.1575 221.138 22.1371 221.156 22.1117C221.21 22.0404 221.249 22.0074 221.277 22.0074C221.32 22.0074 221.433 22.0761 221.615 22.2134C221.797 22.3508 221.887 22.4449 221.887 22.4933C221.831 22.5594 221.736 22.6052 221.608 22.6306V23.0707L221.68 22.9461C221.68 22.9461 221.692 22.9232 221.705 22.9079C221.741 22.8519 221.772 22.8214 221.797 22.8214C221.836 22.8214 221.915 22.885 222.028 23.0097C222.144 23.1343 222.2 23.2208 222.2 23.2691C222.187 23.3404 222.133 23.3734 222.041 23.3734H221.603V24.0043L221.695 23.8466C221.703 23.8339 221.718 23.8135 221.736 23.7881C221.774 23.7169 221.808 23.6838 221.836 23.6838C221.877 23.6838 221.956 23.7525 222.074 23.8899C222.192 24.0272 222.254 24.1214 222.254 24.1697C222.241 24.2409 222.187 24.274 222.095 24.274H221.605V24.8922C221.605 25.1059 221.564 25.2585 221.479 25.345C221.377 25.4595 221.174 25.5307 220.869 25.5612C220.861 25.3806 220.823 25.2585 220.756 25.1923C220.664 25.1059 220.51 25.0448 220.292 25.0143V24.9151C220.507 24.9278 220.723 24.9405 220.936 24.9558C221.01 24.9558 221.049 24.9151 221.049 24.8311V24.2715H219.112V24.6403C219.112 24.6963 219.112 24.7701 219.12 24.8566C219.128 25.0677 219.138 25.228 219.146 25.3374C219.128 25.3857 219.071 25.434 218.974 25.4824C218.863 25.5358 218.753 25.5612 218.643 25.5612L218.645 25.5688ZM219.115 23.1903H219.797V22.534H219.115V23.1903ZM219.115 24.0908H219.797V23.3811H219.115V24.0908ZM219.653 20.9135H220.382V20.3818H219.653V20.9135ZM219.653 21.6767H220.382V21.1043H219.653V21.6767ZM220.328 23.1903H221.051V22.534H220.328V23.1903ZM220.328 24.0908H221.051V23.3811H220.328V24.0908Z" fill="#595757"/>
<path d="M191.554 26.4846V18.6774H185.732V20.0485H189.231V21.8903H182.234V23.2615H189.231V25.1135H185.732V26.4846H191.554Z" fill="#595757"/>
<path d="M180.857 21.9895V20.0485H184.358V18.6774H178.536V26.4846H184.358V25.1135H180.857V23.3633V21.9895Z" fill="#595757"/>
<path fill-rule="evenodd" clip-rule="evenodd" d="M289.234 23.5574V26.2371L289.108 26.4846H291.674L291.548 26.2371V18.9249L291.674 18.6774H283.49L283.617 18.9288V26.2371L283.49 26.4846H286.057L285.931 26.2371V23.5574C285.931 22.7008 286.6 21.9072 287.594 21.9072C288.529 21.9072 289.234 22.6655 289.234 23.5574Z" fill="#E1554B"/>
<path d="M295.43 20.2727H296.333L296.705 19.8719L297.18 20.2177C297.236 20.2649 297.264 20.312 297.264 20.3552C297.264 20.4299 297.224 20.4653 297.157 20.4653H296.654V26.025C296.654 26.0958 296.626 26.1429 296.57 26.1783C296.483 26.1979 296.396 26.2136 296.305 26.2136C296.182 26.2136 296.123 26.1783 296.123 26.1115L296.151 25.0113V24.4534C295.83 24.6105 295.485 24.7638 295.113 24.9013L295.053 25.1331C295.041 25.196 295.014 25.2235 294.958 25.2235C294.903 25.2235 294.863 25.1881 294.851 25.1056L294.614 24.473C294.756 24.4573 294.899 24.4376 295.033 24.4101V20.481C294.911 20.4967 294.804 20.5006 294.693 20.5163L294.558 20.1941C294.851 20.2491 295.14 20.2767 295.434 20.2767L295.43 20.2727ZM296.147 21.5654V20.4653H295.509V21.5654H296.147ZM296.147 22.9092V21.754H295.509V22.9092H296.147ZM296.147 24.2373V23.0939H295.509V24.3394C295.727 24.3119 295.937 24.2766 296.147 24.2373ZM298.206 20.1981C298.274 20.2256 298.313 20.2609 298.313 20.3002C298.313 20.371 298.21 20.4181 298.02 20.4377C297.85 20.6774 297.636 20.9525 297.371 21.2629C297.398 21.2904 297.43 21.3179 297.458 21.3336C297.581 21.4436 297.648 21.5458 297.648 21.644C297.648 21.8444 297.561 21.9387 297.382 21.9387C297.335 21.9387 297.295 21.8955 297.26 21.809C297.137 21.5615 296.974 21.314 296.772 21.0507L296.907 20.976C297.022 21.0468 297.125 21.1057 297.204 21.1529C297.287 20.9485 297.347 20.7796 297.402 20.6499C297.489 20.4102 297.565 20.1745 297.62 19.9466L298.202 20.1941L298.206 20.1981ZM298.67 21.1214C298.729 21.1489 298.765 21.1764 298.765 21.2197C298.765 21.2904 298.678 21.3375 298.5 21.3493C298.27 21.6597 297.977 22.0094 297.624 22.4023C297.664 22.4023 297.707 22.4023 297.747 22.3945C297.973 22.3827 298.159 22.3591 298.317 22.3473C298.278 22.2491 298.23 22.1469 298.183 22.0526L298.317 21.9701C298.48 22.1076 298.614 22.2452 298.725 22.3709C298.82 22.5006 298.876 22.6106 298.876 22.701C298.876 22.9013 298.793 22.9956 298.638 22.9956C298.555 22.9956 298.504 22.9328 298.476 22.8031C298.448 22.7206 298.428 22.6302 298.401 22.5477C298.266 22.6027 298.103 22.6656 297.913 22.7324C297.628 22.8424 297.418 22.9131 297.283 22.9406L297.204 23.1332C297.177 23.1882 297.145 23.2078 297.101 23.2078C297.046 23.2078 297.014 23.1646 297.006 23.0782L296.836 22.4573C297.01 22.4495 297.196 22.4377 297.379 22.422C297.529 22.1587 297.648 21.9544 297.739 21.7972C297.893 21.4868 298.024 21.1843 298.131 20.8975L298.674 21.1254L298.67 21.1214ZM297.482 23.3886C297.577 23.4043 297.624 23.4436 297.624 23.4986C297.624 23.5339 297.596 23.5614 297.557 23.5811L297.47 23.6282V24.5162H298.08C298.092 24.3787 298.107 24.2255 298.107 24.0604V23.9229C298.107 23.7933 298.088 23.5182 298.052 23.0899L298.654 23.1803C298.777 23.196 298.844 23.2432 298.844 23.31C298.844 23.3728 298.761 23.4318 298.607 23.4946V24.0565C298.607 24.3473 298.571 24.5987 298.519 24.8345C298.464 25.0467 298.393 25.2353 298.282 25.3846C298.167 25.5496 298.016 25.6871 297.834 25.8129C297.644 25.9425 297.367 26.0683 297.014 26.1861L296.967 26.0211C297.196 25.9189 297.379 25.8089 297.501 25.6832C297.652 25.5575 297.771 25.416 297.866 25.251C297.941 25.1213 298 24.9484 298.044 24.7363C298.044 24.7206 298.052 24.7166 298.052 24.7088H297.47V24.976C297.47 25.0467 297.43 25.0978 297.363 25.141C297.287 25.1763 297.22 25.1881 297.153 25.1881C297.05 25.1881 296.998 25.1449 296.998 25.0506L297.018 24.4101V23.9779C297.018 23.5929 296.998 23.3728 296.971 23.31L297.485 23.3846L297.482 23.3886ZM300.219 20.2256C300.286 20.2531 300.326 20.2884 300.326 20.3277C300.326 20.3985 300.223 20.4456 300.033 20.4653C299.858 20.7049 299.64 20.9878 299.367 21.31C299.403 21.3375 299.434 21.365 299.47 21.3847C299.593 21.4829 299.66 21.5772 299.66 21.6676C299.66 21.868 299.573 21.9623 299.395 21.9623C299.347 21.9623 299.308 21.919 299.268 21.8365C299.145 21.6008 298.991 21.369 298.785 21.1293L298.919 21.0468C299.026 21.1096 299.121 21.1646 299.205 21.2039C299.292 20.9839 299.359 20.811 299.415 20.6735C299.498 20.4338 299.569 20.1981 299.632 19.9702L300.215 20.2177L300.219 20.2256ZM300.754 21.1214C300.821 21.1489 300.857 21.1764 300.857 21.2197C300.857 21.2904 300.769 21.3375 300.591 21.3493C300.361 21.6244 300.076 21.9426 299.739 22.3002C299.767 22.3002 299.787 22.2923 299.807 22.2923C300.037 22.2727 300.227 22.2491 300.389 22.2295C300.349 22.1469 300.314 22.0723 300.274 21.9976L300.401 21.9151C300.579 22.0605 300.726 22.198 300.849 22.3355C300.956 22.4652 301.011 22.5752 301.011 22.6734C301.011 22.8935 300.924 22.9956 300.746 22.9956C300.658 22.9956 300.603 22.9249 300.575 22.7874C300.548 22.6617 300.508 22.5477 300.46 22.422C300.326 22.4848 300.163 22.5516 299.973 22.6224C299.716 22.7324 299.518 22.7992 299.399 22.8267L299.316 23.0192C299.288 23.0742 299.256 23.0939 299.213 23.0939C299.157 23.0939 299.125 23.0506 299.118 22.9642L298.947 22.3434C299.125 22.3355 299.292 22.3238 299.462 22.308C299.613 22.0723 299.732 21.8798 299.815 21.7383C299.977 21.4475 300.108 21.1686 300.215 20.8935L300.75 21.1214H300.754ZM299.585 23.2471C299.692 23.2628 299.747 23.3021 299.747 23.365C299.747 23.4121 299.72 23.4475 299.664 23.4671L299.557 23.53V24.5202H300.215L300.223 24.3905V24.0958C300.223 23.6832 300.203 23.4357 300.167 23.365L300.71 23.4475C300.805 23.4632 300.86 23.5025 300.86 23.5575C300.86 23.6007 300.833 23.6322 300.793 23.6557L300.698 23.7186V24.9838C300.698 25.0545 300.658 25.1056 300.591 25.1488C300.516 25.1842 300.449 25.196 300.389 25.196C300.266 25.196 300.207 25.1488 300.199 25.0388L300.215 24.7166H299.565V25.9465C299.565 26.029 299.518 26.0918 299.438 26.1311C299.355 26.1743 299.276 26.194 299.201 26.194C299.098 26.194 299.046 26.139 299.038 26.029L299.066 25.3335V23.9111C299.066 23.4789 299.046 23.2235 299.011 23.1528L299.593 23.251L299.585 23.2471Z" fill="#211816"/>
<path d="M302.913 20.4849H303.55L303.923 20.0802L304.398 20.4299C304.454 20.4731 304.481 20.5202 304.481 20.5595C304.481 20.6342 304.442 20.6695 304.374 20.6695H303.372C303.245 21.255 303.123 21.7226 303 22.0644C302.96 22.1941 302.913 22.3198 302.873 22.4298L303.028 22.5202H303.531L303.82 22.2255L304.212 22.5359C304.279 22.5831 304.319 22.6263 304.319 22.6616C304.319 22.7088 304.291 22.7442 304.252 22.7638L304.081 22.8463V24.9445L304.109 25.5378C304.109 25.5849 304.073 25.6282 304.022 25.6596C303.966 25.7028 303.899 25.7225 303.82 25.7225C303.657 25.7225 303.582 25.6753 303.582 25.5928V25.2431H303.028V25.6989C303.028 25.7932 302.98 25.8561 302.885 25.8993C302.818 25.9268 302.734 25.9425 302.655 25.9425C302.552 25.9425 302.501 25.8875 302.501 25.7853C302.501 25.6478 302.509 25.4199 302.528 25.082V23.1606C302.513 23.196 302.501 23.2235 302.489 23.2353C302.326 23.5261 302.164 23.7579 302.002 23.9504L301.918 23.8207C302.006 23.6714 302.101 23.4475 302.204 23.1606C302.33 22.7756 302.449 22.3552 302.544 21.9151C302.627 21.5418 302.707 21.1293 302.774 20.6853C302.576 20.6931 302.382 20.7049 302.184 20.7324L302.049 20.4102C302.338 20.4652 302.631 20.4927 302.925 20.4927L302.913 20.4849ZM303.578 25.0545V22.7166H303.024V25.0545H303.578ZM306.105 25.2117C306.165 25.2549 306.201 25.302 306.201 25.3492C306.201 25.4121 306.094 25.4474 305.884 25.4514C305.559 25.636 305.226 25.7971 304.889 25.9268C304.679 26.0014 304.363 26.0997 303.927 26.2097L303.844 26.0722C304.236 25.8796 304.557 25.7068 304.798 25.5574C305.091 25.3492 305.361 25.1292 305.618 24.8895L306.105 25.2117ZM305.428 20.2648H307.286L307.678 19.813L308.205 20.198C308.26 20.2531 308.288 20.3002 308.288 20.3474C308.288 20.422 308.252 20.4574 308.185 20.4574H306.581C306.43 20.7874 306.248 21.1096 306.038 21.42H307.175L307.492 21.0978L307.884 21.4279C307.951 21.475 307.991 21.5183 307.991 21.5575C307.991 21.6047 307.963 21.6401 307.924 21.6597L307.753 21.7422V24.1626L307.781 24.7559C307.781 24.8109 307.745 24.858 307.694 24.9013C307.638 24.9484 307.571 24.972 307.492 24.972C307.314 24.972 307.226 24.9288 307.226 24.8345V24.6773H305.321V24.7873C305.321 24.8698 305.282 24.9248 305.206 24.9523C305.127 25.0074 305.044 25.027 304.949 25.027C304.826 25.027 304.767 24.9641 304.767 24.8345L304.794 24.1665V21.585C304.794 21.3532 304.774 21.1921 304.739 21.1253L305.321 21.42H305.808L305.991 20.4574H305.42C305.179 20.4574 304.925 20.477 304.683 20.5045L304.549 20.1863C304.842 20.2413 305.131 20.2609 305.424 20.2609L305.428 20.2648ZM307.23 22.418V21.6126H305.325V22.418H307.23ZM307.23 23.4121V22.6066H305.325V23.4121H307.23ZM307.23 24.4926V23.6046H305.325V24.4926H307.23ZM307.92 25.3728C308.197 25.5182 308.34 25.6753 308.34 25.86C308.34 26.0447 308.237 26.1547 308.05 26.1547C307.995 26.1547 307.928 26.1075 307.848 26.025C307.535 25.7225 307.124 25.4199 306.62 25.1017L306.704 24.972C307.211 25.0899 307.619 25.2195 307.924 25.3728H307.92Z" fill="#211816"/>
<path d="M310.225 21.9269V20.4966C310.225 20.4259 310.213 20.2923 310.197 20.0801L310.819 20.1705C310.934 20.1862 310.998 20.2255 310.998 20.2962C310.998 20.3748 310.91 20.4377 310.732 20.4927V21.9229H310.867L311.188 21.5654L311.616 21.8836C311.663 21.9269 311.691 21.9661 311.691 22.0015C311.691 22.0801 311.663 22.1155 311.608 22.1155H310.728V24.2411C310.796 24.2136 310.863 24.1861 310.934 24.1586C311.188 24.0525 311.406 23.9386 311.584 23.8207L311.612 23.9897C311.469 24.139 311.311 24.2765 311.14 24.4101C310.95 24.5633 310.712 24.7284 310.419 24.8973C310.241 24.9955 310.079 25.082 309.936 25.1448L309.861 25.3334C309.825 25.4317 309.778 25.4749 309.726 25.4749C309.686 25.467 309.651 25.4238 309.631 25.3413L309.461 24.6183C309.659 24.5987 309.904 24.5398 310.19 24.4494C310.201 24.4494 310.217 24.4415 310.229 24.4337V22.1194C309.995 22.1272 309.778 22.1469 309.56 22.1744L309.429 21.8443C309.694 21.8993 309.96 21.9269 310.225 21.9269ZM314.753 21.5968L315.101 21.2117L315.632 21.5654C315.7 21.6164 315.743 21.6636 315.743 21.7068C315.743 21.7618 315.628 21.8404 315.395 21.9308C315.284 23.196 315.216 23.9072 315.185 24.0643C315.129 24.2136 315.05 24.3119 314.939 24.3669C314.824 24.4494 314.666 24.4847 314.46 24.4847C314.44 24.2333 314.4 24.0918 314.329 24.0486L314.008 23.8797L314.036 23.7186L314.515 23.8246C314.571 23.8246 314.618 23.8089 314.658 23.7736C314.697 23.7461 314.725 23.6832 314.745 23.585C314.773 23.471 314.812 22.8816 314.88 21.805L313.842 22.1508V24.5162C313.842 24.5987 313.794 24.6655 313.711 24.7048C313.628 24.7441 313.549 24.7598 313.473 24.7598C313.351 24.7598 313.291 24.6969 313.283 24.5712L313.311 23.8246V22.3276L312.515 22.5948V25.2549C312.515 25.4042 312.61 25.4945 312.808 25.5221C312.998 25.5653 313.386 25.5849 313.961 25.5849C314.535 25.5849 314.856 25.5653 315.018 25.5142C315.149 25.4867 315.236 25.4317 315.276 25.3452L315.549 24.4887H315.684V25.2549C315.684 25.3374 315.723 25.4081 315.807 25.467C315.862 25.5221 315.894 25.6006 315.894 25.6989C315.894 25.7892 315.838 25.86 315.743 25.911C315.648 25.9739 315.486 26.025 315.252 26.0603C314.959 26.0879 314.535 26.1114 313.984 26.1114C313.331 26.1114 312.879 26.0839 312.634 26.0328C312.416 26.0053 312.245 25.9346 312.135 25.8128C312.024 25.6949 311.976 25.5378 311.976 25.3413V22.7795L311.778 22.8424L311.39 23.031L311.255 22.6459L311.683 22.6262L311.976 22.528V21.2471C311.976 20.9524 311.964 20.7677 311.948 20.697L312.63 20.7795C312.725 20.7953 312.772 20.8306 312.772 20.8856C312.772 20.9367 312.737 20.976 312.669 21.0035L312.507 21.1017V22.3551L313.303 22.0958V20.752C313.303 20.2805 313.283 20.0055 313.248 19.923L313.862 20.0212C313.973 20.0408 314.024 20.0841 314.024 20.1469C314.024 20.198 313.996 20.2373 313.941 20.2648L313.83 20.3355V21.919L314.757 21.6164L314.737 21.6007L314.753 21.5968Z" fill="#211816"/>
<path d="M317.89 22.8698C317.89 23.7146 317.799 24.3982 317.613 24.9287C317.455 25.408 317.225 25.8206 316.936 26.1703L316.837 26.0603C316.979 25.7734 317.106 25.4277 317.205 25.0112C317.316 24.5318 317.375 23.8167 317.375 22.8698V22.5476C317.375 22.3433 317.363 22.1704 317.348 22.0407L317.847 22.3629H321.966L322.378 21.8836L322.905 22.2883C322.957 22.3433 322.992 22.3904 322.992 22.4454C322.992 22.5122 322.945 22.5476 322.866 22.5476H317.886V22.8698H317.89ZM320.425 19.9268C320.544 19.9465 320.608 19.9897 320.608 20.0565C320.608 20.139 320.521 20.2137 320.35 20.2687V20.5358H321.788L322.168 20.084L322.675 20.473C322.727 20.5201 322.763 20.5673 322.763 20.6184C322.763 20.693 322.731 20.7284 322.664 20.7284H321.277L321.653 20.9288C321.725 20.9641 321.764 21.0113 321.764 21.0741C321.764 21.1409 321.657 21.1763 321.455 21.1842C321.313 21.2785 321.158 21.361 321.016 21.4396C321.158 21.4946 321.293 21.5496 321.396 21.5967C321.606 21.691 321.713 21.8168 321.713 21.9621C321.713 22.1272 321.626 22.2097 321.455 22.2097C321.416 22.2097 321.317 22.1704 321.174 22.0722C320.984 21.9504 320.754 21.8168 320.493 21.6871C320.204 21.8089 319.895 21.915 319.562 21.9975C319.253 22.0879 318.793 22.1743 318.175 22.2568L318.124 22.0997C318.492 22.025 318.754 21.9621 318.912 21.9229C319.213 21.8403 319.483 21.75 319.72 21.6399C319.839 21.5928 319.95 21.5378 320.057 21.4828C319.586 21.2824 319.158 21.1331 318.77 21.0309L318.869 20.9209C319.447 21.0152 319.958 21.1213 320.406 21.2431C320.418 21.251 320.437 21.2549 320.453 21.2549L320.612 21.1527C320.81 21.0152 320.98 20.8698 321.123 20.7362H318.179C317.938 20.7362 317.7 20.7559 317.462 20.7834L317.332 20.4691C317.613 20.5241 317.898 20.5437 318.179 20.5437H319.847V20.249C319.847 20.1862 319.835 20.0565 319.819 19.8522L320.429 19.9347L320.425 19.9268ZM319.344 22.968C319.415 22.9955 319.455 23.0427 319.455 23.1134C319.455 23.1763 319.368 23.2234 319.197 23.2509C319.11 23.4159 319.035 23.5535 318.968 23.6753H320.073V23.1134C320.073 23.0505 320.061 22.9209 320.045 22.7165L320.655 22.7991C320.774 22.8187 320.837 22.8619 320.837 22.9287C320.837 23.0112 320.75 23.0859 320.58 23.1409V23.6753H321.657L322.018 23.2509L322.505 23.6203C322.557 23.6674 322.584 23.7146 322.584 23.7578C322.584 23.8324 322.545 23.8678 322.477 23.8678H320.58V24.6693H321.531L321.887 24.2371L322.374 24.6065C322.426 24.6536 322.454 24.7008 322.454 24.7519C322.454 24.8187 322.422 24.854 322.355 24.854H320.58V25.7931H322.018L322.406 25.3412L322.913 25.7263C322.965 25.7734 322.992 25.8206 322.992 25.8756C322.992 25.9424 322.961 25.9778 322.893 25.9778H318.631C318.393 25.9778 318.152 25.9895 317.914 26.0328L317.783 25.7106C318.065 25.7656 318.35 25.7931 318.631 25.7931H320.069V24.854H319.451C319.213 24.854 318.972 24.8737 318.734 24.909L318.603 24.5868C318.885 24.6418 319.17 24.6693 319.451 24.6693H320.069V23.8678H318.853C318.774 23.9896 318.702 24.0957 318.635 24.19C318.496 24.3668 318.298 24.5829 318.037 24.8265L317.91 24.7519C318.12 24.4218 318.278 24.1193 318.389 23.8481C318.52 23.5456 318.639 23.1841 318.758 22.7716L319.336 22.9719L319.344 22.968Z" fill="#211816"/>
<g clip-path="url(#clip0_493_1672)">
<path d="M12.9054 0.696896L9.43952 0.233765C9.11158 2.01554 8.58431 3.76514 7.922 5.41827H0V30.0414H22.2871V5.41827H11.4522C12.0823 3.96455 12.5775 2.38218 12.9054 0.696896ZM19.1491 27.0054H3.13793V19.6145H19.1555V27.0054H19.1491ZM19.1491 8.39003V16.6428H3.13793V8.39003H19.1555H19.1491Z" fill="black"/>
<path d="M35.7456 11.2334V9.58032H38.3563V6.57639H35.7456V0.369141H32.7106V6.57639H29.2447V9.58032H32.4212L28.0615 19.4733L30.4343 20.5218L32.7106 15.363V15.8519V30.8072H35.7456V14.6941C36.3372 15.7168 36.9995 16.9711 37.7904 18.457L39.4751 15.9805C38.2212 14.2631 36.9995 12.6807 35.7456 11.227V11.2334Z" fill="black"/>
<path d="M55.152 23.0819H58.9458V20.6376H48.4839C48.7797 20.1745 49.114 19.6792 49.5063 19.1517H57.5247V13.4076H50.5287V11.8895H56.7981V8.25525H58.9458V5.71445H56.7981V2.04799H50.5287V0.369141H47.6222V2.05443H41.3849V5.72089H39.3401V8.26168H41.3849V11.896H47.6222V13.414H40.6583V19.1581H46.4005C46.0725 19.6213 45.7382 20.1166 45.4102 20.644H39.2694V23.0883H43.6291C43.0696 23.8474 42.4716 24.6385 41.8158 25.4683C43.4683 25.8671 45.0823 26.2917 46.7348 26.8191C44.6193 27.5138 42.0151 28.0413 38.845 28.3693L40.0024 30.878C44.2914 30.3505 47.7251 29.3921 50.3036 28.0027C52.6442 28.826 54.9912 29.7844 57.3318 30.8394L59.0165 28.6588C56.8688 27.8033 54.7597 27.0057 52.7149 26.3495C53.8016 25.4233 54.6311 24.3362 55.1584 23.0819H55.152ZM50.5351 4.22857H54.0331V6.01034H50.5351V4.22857ZM50.5351 7.99152H54.0331V9.77329H50.5351V7.99152ZM50.5351 15.3566H54.7597V17.074H50.5351V15.3566ZM44.1628 4.22857H47.6286V6.01034H44.1628V4.22857ZM44.1628 9.77972V7.99795H47.6286V9.77972H44.1628ZM43.4362 17.074V15.3566H47.6286V17.074H43.4362ZM49.7763 25.4619C48.3553 25.0309 46.9728 24.6707 45.6481 24.407C45.9761 24.0082 46.3105 23.5515 46.7027 23.0883H52.2841C51.7568 23.9438 50.8952 24.7415 49.7763 25.4683V25.4619Z" fill="black"/>
<path d="M105.442 6.40908L105.468 6.50557L107.828 5.3799L107.815 5.31558C107.487 4.04197 106.426 2.2023 105.616 1.01874L105.584 0.967285L103.32 1.91928L103.372 1.99647C104.279 3.373 105.153 5.23196 105.449 6.40908H105.442Z" fill="black"/>
<path d="M122.849 23.8537V21.2807H113.628C113.705 20.7275 113.743 20.1615 113.743 19.5054V19.3832H120.958V16.8745H113.743V15.112H121.987V12.5713H118.122L119.331 9.741L119.376 9.65095L119.299 9.63165L117.595 9.18782H122.521V6.54411H116.528V0.221069H113.788V6.54411H111.396V0.221069H108.689V6.54411H102.896V9.18782H108.207L106.561 9.66381L106.471 9.68954L106.509 9.77316L107.416 12.5713H103.352V15.112H110.798V16.8745H104.375V19.3832H110.798V19.4668C110.798 19.9749 110.779 20.586 110.644 21.2743H102.683V23.8472H109.628C108.233 25.8027 105.622 27.2693 101.648 28.3306L101.513 28.3628L101.616 28.4593C102.221 29.0253 103.031 29.9773 103.359 30.5884L103.391 30.6463L103.455 30.627C108.323 29.0896 111.409 26.8705 112.882 23.8408H122.842L122.849 23.8537ZM109.564 9.18782H116.335C116.02 10.1398 115.525 11.497 115.004 12.5713H110.625L109.564 9.18782Z" fill="black"/>
<path d="M114.091 24.2333L114.046 24.214L112.104 26.0537L112.213 26.0987C115.287 27.4623 119.1 29.5979 120.907 30.9551L120.965 30.9937L122.9 28.9868L122.965 28.9161L122.887 28.8646C120.984 27.5331 117.126 25.494 114.104 24.2204L114.091 24.2333Z" fill="black"/>
<path d="M119.383 6.32548L119.421 6.27402C120.039 5.42494 120.727 4.26068 121.447 3.02566C121.659 2.67188 121.865 2.31167 122.077 1.96432L122.122 1.88713L119.447 0.86438L119.415 0.935136C118.894 2.28594 117.974 4.17706 117.267 5.32846L117.222 5.40565L119.325 6.29975L119.383 6.32548Z" fill="black"/>
<path d="M137.953 21.7954L137.105 19.0166L137.079 18.9266L136.995 18.9652C136.532 19.1967 136.076 19.4219 135.619 19.6406C135.201 19.8464 134.783 20.0522 134.359 20.2645V11.2013H137.175V8.13302H134.359V0.619995H131.324V8.13945H128.083V11.2077H131.324V21.744C129.993 22.3872 128.797 22.9211 127.897 23.307L127.826 23.3392L128.977 26.4911L129.009 26.5747L129.086 26.5361C131.388 25.3847 134.352 23.8023 137.895 21.834L137.953 21.8018V21.7954Z" fill="black"/>
<path d="M138.474 10.4871V20.3801H147.939V10.4871H138.474ZM140.982 17.8071V13.06H145.367V17.8071H140.982Z" fill="black"/>
<path d="M158.684 24.8636C158.074 24.587 157.135 23.9373 156.53 23.2298L156.395 23.0754V23.2812C156.331 25.1659 156.177 27.6746 155.508 27.6746C154.582 27.6746 153.675 25.777 153.007 22.4708C154.949 19.2932 156.492 15.453 157.604 11.0533L157.624 10.9697L154.794 10.4229L154.723 10.41L154.704 10.4808C154.035 13.266 153.232 15.6589 152.241 17.8008C151.862 14.6361 151.605 11.2076 151.483 7.86281H158.17V4.92321H151.386C151.386 4.44721 151.386 3.96478 151.38 3.47592C151.38 2.45317 151.367 1.39183 151.386 0.330485V0.253296H148.28V0.330485C148.28 1.8228 148.313 3.33441 148.345 4.80099V4.92321H137.523V7.86281H148.448C148.66 13.652 149.129 18.4312 149.83 22.072C149.38 22.7216 148.911 23.3391 148.428 23.918L148.139 21.3837L148.126 21.2936L148.036 21.3129C143.818 22.4129 139.42 23.4742 136.552 24.0982L136.475 24.1174L137.259 27.1149L137.278 27.1921L137.356 27.1664C138.847 26.7354 140.564 26.2659 142.384 25.7641C144.313 25.2303 146.313 24.6835 148.248 24.1239C146.789 25.8413 145.181 27.25 143.387 28.3821L143.284 28.4464L143.381 28.5172C144.011 28.9482 145.136 29.9774 145.586 30.4598L145.631 30.5112L145.689 30.4726C147.541 29.1604 149.232 27.5588 150.711 25.7062C151.868 29.1025 153.302 30.7557 155.109 30.7557C157.418 30.7557 158.26 29.3984 158.73 24.9537V24.8958L158.684 24.87V24.8636Z" fill="black"/>
<path d="M84.2676 9.95964C84.2676 5.57919 81.2776 2.83899 76.9308 2.83899C72.5839 2.83899 69.5618 5.68854 69.5618 9.99823H73.1948C73.1948 7.14869 75.0081 6.08091 76.9308 6.08091C79.2778 6.08091 80.6345 7.65041 80.6345 9.92748C80.6345 11.2075 80.2423 12.1338 79.2842 13.3109L69.5296 25.1722V28.4142H84.2676V25.1722H73.9407L81.882 15.4465C83.451 13.5232 84.2676 12.2045 84.2676 9.95964Z" fill="black"/>
<path d="M103.16 27.1018L102.594 24.6447L102.574 24.5739L99.1472 25.3651V15.144H101.758V12.1787H99.1472V5.27675H102.124V2.27283H92.6334V5.27675H96.2086V12.1787H92.7299V15.144H96.2086V26.0469L92.4212 26.9217L92.3441 26.941L92.9099 29.3982L92.9292 29.469L103.082 27.1211L103.16 27.1018Z" fill="black"/>
<path d="M157.058 0.29187H153.54V3.81039H157.058V0.29187Z" fill="black"/>
</g>
<defs>
<clipPath id="clip0_493_1672">
<rect width="158" height="31" fill="white"/>
</clipPath>
</defs>
</svg>
