<svg width="57" height="76" viewBox="0 0 57 76" fill="none" xmlns="http://www.w3.org/2000/svg">
<path d="M4 1.00003L53 50" stroke="#D15E52" stroke-width="1.43" stroke-miterlimit="10"/>
<path d="M53 1.00003L4 50" stroke="#D15E52" stroke-width="1.43" stroke-miterlimit="10"/>
<path d="M6.08252 75.2241C3.15452 75.2241 0.978516 72.9521 0.978516 69.1441C0.978516 65.3681 3.20252 63.0641 6.17852 63.0641C7.60252 63.0641 8.70652 63.7521 9.39452 64.5041L8.57852 65.4641C7.97052 64.8081 7.18652 64.3601 6.19452 64.3601C3.97052 64.3601 2.49852 66.1841 2.49852 69.1121C2.49852 72.0721 3.90652 73.9121 6.14652 73.9121C7.25052 73.9121 8.11452 73.4321 8.86652 72.6001L9.66652 73.5281C8.73852 74.6161 7.60252 75.2241 6.08252 75.2241Z" fill="#D15E52"/>
<path d="M13.7736 75.0001V63.2721H15.2616V73.7521H20.3816V75.0001H13.7736Z" fill="#D15E52"/>
<path d="M28.2171 75.2241C25.2571 75.2241 23.2091 72.8561 23.2091 69.0961C23.2091 65.3361 25.2571 63.0641 28.2171 63.0641C31.1611 63.0641 33.2091 65.3521 33.2091 69.0961C33.2091 72.8561 31.1611 75.2241 28.2171 75.2241ZM28.2171 73.9121C30.3131 73.9121 31.7051 72.0241 31.7051 69.0961C31.7051 66.1681 30.3131 64.3601 28.2171 64.3601C26.1051 64.3601 24.7291 66.1681 24.7291 69.0961C24.7291 72.0241 26.1051 73.9121 28.2171 73.9121Z" fill="#D15E52"/>
<path d="M40.9241 75.2241C39.2761 75.2241 37.8521 74.5521 36.8281 73.4801L37.7081 72.4561C38.5561 73.3521 39.7401 73.9121 40.9561 73.9121C42.4921 73.9121 43.4041 73.1441 43.4041 72.0081C43.4041 70.7921 42.5561 70.4081 41.4521 69.9281L39.7721 69.1921C38.6681 68.7281 37.3881 67.8961 37.3881 66.1841C37.3881 64.3761 38.9401 63.0641 41.0841 63.0641C42.4761 63.0641 43.7081 63.6561 44.5241 64.5201L43.7401 65.4641C43.0201 64.7921 42.1561 64.3601 41.0841 64.3601C39.7561 64.3601 38.8921 65.0321 38.8921 66.0721C38.8921 67.2241 39.9161 67.6401 40.8281 68.0241L42.4921 68.7441C43.8681 69.3361 44.9081 70.1521 44.9081 71.8961C44.9081 73.7521 43.3881 75.2241 40.9241 75.2241Z" fill="#D15E52"/>
<path d="M49.1274 75.0001V63.2721H55.8794V64.5201H50.6154V68.2001H55.0474V69.4641H50.6154V73.7521H56.0554V75.0001H49.1274Z" fill="#D15E52"/>
</svg>
