<?xml version="1.0" encoding="UTF-8"?>
<svg id="_圖層_1" data-name="圖層_1" xmlns="http://www.w3.org/2000/svg" version="1.1" viewBox="0 0 88.9 44.8">
  <!-- Generator: Adobe Illustrator 29.8.3, SVG Export Plug-In . SVG Version: 2.1.1 Build 3)  -->
  <defs>
    <style>
      .st0 {
        fill: #e0554c;
      }

      .st1 {
        fill: #c8c9c9;
      }

      .st2 {
        fill: none;
        stroke: #c8c9c9;
        stroke-miterlimit: 10;
      }

      .st3 {
        fill: #f6f7f7;
      }
    </style>
  </defs>
  <rect class="st3" x="328.6" y="-702.4" width="377.1" height="72.2"/>
  <g>
    <rect class="st3" x="23.1" y="-887.9" width="175.8" height="588.1"/>
    <g>
      <path class="st0" d="M65-345.2c1.7-.3,3.4-1.2,4.9-2.2,5.3-3.6,8.7-8.5,10-14.8.4-2,.4-4.1-.8-5.9-1-1.6-2.5-2.4-4.4-2.3-.6,0-.9.2-1.2.8-.6,1.5-1.2,3.1-1.8,4.6-.4,1-.3,1.2.6,1.8.7.5,1.4,1,2.1,1.5.5.3.6.7.4,1.2-1.2,3.9-3.5,6.9-6.9,9.1-.5.3-.9.3-1.4,0-.7-.6-1.4-1.2-2.1-1.8-.4-.4-.9-.5-1.4,0-1.5,1.1-2.9,2.2-4.4,3.3-.4.3-.4.8-.3,1.3.9,2.8,3.2,4.2,6.5,3.7Z"/>
      <g>
        <path class="st0" d="M94.1-352.9c.4,0,.7,0,1,0,.3,0,.5-.2.8-.3l.2.9c-.3.1-.6.2-.9.3-.3,0-.7,0-1.2,0s-1,0-1.4-.2c-.4-.2-.8-.4-1.1-.7-.3-.3-.6-.7-.8-1.2-.2-.5-.3-1-.3-1.7s0-1.2.3-1.6c.2-.5.4-.9.8-1.2.3-.3.7-.6,1.2-.7.4-.2.9-.3,1.5-.3s.9,0,1.2.1c.3,0,.6.2.9.3l-.3.9c-.2,0-.3-.1-.4-.2-.1,0-.3,0-.4-.1-.1,0-.3,0-.4,0-.1,0-.3,0-.5,0-.3,0-.7,0-1,.2-.3.1-.6.3-.8.5s-.4.5-.6.9c-.1.4-.2.8-.2,1.4s0,1,.2,1.4c.1.4.3.7.5.9.2.2.5.4.8.5s.6.2,1,.2Z"/>
        <path class="st0" d="M101.5-359.7c.5,0,1,0,1.4.2.4.2.8.4,1.1.7.3.3.6.7.7,1.2.2.5.3,1,.3,1.7s0,1.2-.3,1.7c-.2.5-.4.9-.8,1.2-.3.3-.7.6-1.1.7s-.9.2-1.4.2-1,0-1.4-.2c-.4-.2-.8-.4-1.1-.7s-.6-.7-.7-1.2c-.2-.5-.3-1-.3-1.7s0-1.2.3-1.7c.2-.5.4-.9.8-1.2.3-.3.7-.6,1.1-.7.4-.2.9-.2,1.4-.2ZM99.1-355.8c0,.5,0,.9.2,1.3.1.4.3.7.5.9s.5.4.8.5c.3.1.6.2.9.2s.6,0,.9-.2c.3-.1.5-.3.7-.5.2-.2.4-.6.5-.9.1-.4.2-.8.2-1.3s0-1-.2-1.3c-.1-.4-.3-.7-.5-.9-.2-.2-.5-.4-.8-.5s-.6-.2-.9-.2-.6,0-.9.2c-.3.1-.5.3-.7.5-.2.2-.4.6-.5.9s-.2.8-.2,1.3Z"/>
        <path class="st0" d="M107.7-359.6h1l3.4,4.7c.1.2.2.4.4.5.1.2.2.4.3.5h0c0-.3,0-.6,0-.8s0-.6,0-.8v-4.1h1.1v7.5h-1l-3.4-4.7c-.1-.2-.2-.4-.4-.6-.1-.2-.2-.4-.4-.6h0c0,.3,0,.7,0,1,0,.3,0,.7,0,1v3.9h-1.1v-7.5Z"/>
        <path class="st0" d="M121.8-359.6v.9h-2.3v6.6h-1.1v-6.6h-2.3v-.9h5.7Z"/>
        <path class="st0" d="M125.3-359.6h1l3,7.5h-1.1l-.8-2.1h-3.1l-.8,2.1h-1.1l3-7.5ZM124.6-355h2.5l-.5-1.3c-.1-.3-.3-.7-.4-1s-.2-.6-.3-1h0c-.1.3-.2.7-.3,1s-.2.6-.4,1l-.5,1.3Z"/>
        <path class="st0" d="M134.5-352.9c.4,0,.7,0,1,0,.3,0,.5-.2.8-.3l.2.9c-.3.1-.6.2-.9.3-.3,0-.7,0-1.2,0s-1,0-1.4-.2c-.4-.2-.8-.4-1.1-.7-.3-.3-.6-.7-.8-1.2-.2-.5-.3-1-.3-1.7s0-1.2.3-1.6c.2-.5.4-.9.8-1.2.3-.3.7-.6,1.2-.7.4-.2.9-.3,1.5-.3s.9,0,1.2.1c.3,0,.6.2.9.3l-.3.9c-.2,0-.3-.1-.4-.2-.1,0-.3,0-.4-.1-.1,0-.3,0-.4,0-.1,0-.3,0-.5,0-.3,0-.7,0-1,.2-.3.1-.6.3-.8.5s-.4.5-.6.9c-.1.4-.2.8-.2,1.4s0,1,.2,1.4c.1.4.3.7.5.9.2.2.5.4.8.5s.6.2,1,.2Z"/>
        <path class="st0" d="M144-359.6v.9h-2.3v6.6h-1.1v-6.6h-2.3v-.9h5.7Z"/>
        <path class="st0" d="M150-359.6h1.1v4.5c0,.8.1,1.4.4,1.7.3.3.8.5,1.4.5s1.1-.2,1.4-.6c.3-.4.4-.9.4-1.5v-4.6h1.1v4.6c0,1-.3,1.8-.8,2.3-.5.5-1.2.7-2.2.7s-1.7-.2-2.2-.7c-.5-.5-.8-1.3-.8-2.3v-4.5Z"/>
        <path class="st0" d="M161-359.7c.4,0,.7,0,1.1,0,.3,0,.7.2,1,.3l-.3.9c-.3-.2-.6-.3-.9-.3-.3,0-.6-.1-.8-.1-.5,0-.8,0-1.1.3-.3.2-.4.5-.4.8s0,.5.3.7c.2.2.5.3,1,.5l.8.2c.7.2,1.2.5,1.4.9.3.4.4.8.4,1.2s0,.6-.2.9c-.1.3-.3.5-.5.7s-.5.3-.8.4c-.3,0-.7.1-1,.1s-.8,0-1.2-.1c-.4,0-.8-.2-1.2-.4l.3-.9c.3.2.7.3,1,.4.3,0,.7.1,1,.1s.8,0,1.1-.3c.3-.2.5-.5.5-.9s0-.3,0-.4c0-.1-.1-.2-.2-.4s-.3-.2-.4-.3-.4-.2-.7-.3l-.8-.2c-.5-.2-1-.4-1.3-.7-.3-.3-.4-.7-.4-1.2s.2-1.2.6-1.6c.4-.4,1.1-.6,1.9-.6Z"/>
      </g>
    </g>
    <g>
      <path class="st0" d="M89.8-483.5c-4-5.2-12-6.1-17.5-3-3,1.7-5.1,4.7-5.8,8.1-.9,4.3,1.3,8.3,4.5,11.1v5c-.1,0,4.7-2.6,4.7-2.6.3-.2,1.9.3,2.3.3,1.8.1,3.6,0,5.3-.5,4.6-1.3,8.2-5.4,8.8-10.2.4-2.9-.5-5.9-2.2-8.3ZM80.7-472.3l-3.5-3.5-6.3,3.3,7-7,3.4,3.4,6.2-3.4-6.8,7.2Z"/>
      <g>
        <path class="st0" d="M102.7-477h1.4l1.6,4.8c0,.2.2.5.2.7,0,.2.1.4.2.7h0c0-.2.1-.4.2-.6s.1-.4.2-.7l1.5-4.8h1.4l.7,7.5h-1.1l-.3-4c0-.4,0-.8,0-1.2,0-.4,0-.8,0-1.2h0c-.1.4-.2.8-.3,1.2s-.2.8-.4,1.2l-1.3,4h-1l-1.3-4c-.1-.4-.3-.8-.4-1.2-.1-.4-.2-.8-.3-1.2h0c0,.4,0,.8,0,1.2,0,.4,0,.8,0,1.2l-.3,4h-1.1l.6-7.5Z"/>
        <path class="st0" d="M113.1-477h4.5v.9h-3.4v2.2h3.1v.9h-3.1v2.5h3.5v.9h-4.6v-7.5Z"/>
        <path class="st0" d="M122.4-477.2c.4,0,.7,0,1.1,0,.3,0,.7.2,1,.3l-.3.9c-.3-.2-.6-.3-.9-.3-.3,0-.6-.1-.8-.1-.5,0-.8,0-1.1.3-.3.2-.4.5-.4.8s0,.5.3.7c.2.2.5.3,1,.5l.8.2c.7.2,1.2.5,1.4.9.3.4.4.8.4,1.2s0,.6-.2.9c-.1.3-.3.5-.5.7s-.5.3-.8.4c-.3,0-.7.1-1,.1s-.8,0-1.2-.1c-.4,0-.8-.2-1.2-.4l.3-.9c.3.2.7.3,1,.4.3,0,.7.1,1,.1s.8,0,1.1-.3c.3-.2.5-.5.5-.9s0-.3,0-.4c0-.1-.1-.2-.2-.4s-.3-.2-.4-.3-.4-.2-.7-.3l-.8-.2c-.5-.2-1-.4-1.3-.7-.3-.3-.4-.7-.4-1.2s.2-1.2.6-1.6c.4-.4,1.1-.6,1.9-.6Z"/>
        <path class="st0" d="M129.4-477.2c.4,0,.7,0,1.1,0,.3,0,.7.2,1,.3l-.3.9c-.3-.2-.6-.3-.9-.3-.3,0-.6-.1-.8-.1-.5,0-.8,0-1.1.3-.3.2-.4.5-.4.8s0,.5.3.7c.2.2.5.3,1,.5l.8.2c.7.2,1.2.5,1.4.9.3.4.4.8.4,1.2s0,.6-.2.9c-.1.3-.3.5-.5.7s-.5.3-.8.4c-.3,0-.7.1-1,.1s-.8,0-1.2-.1c-.4,0-.8-.2-1.2-.4l.3-.9c.3.2.7.3,1,.4.3,0,.7.1,1,.1s.8,0,1.1-.3c.3-.2.5-.5.5-.9s0-.3,0-.4c0-.1-.1-.2-.2-.4s-.3-.2-.4-.3-.4-.2-.7-.3l-.8-.2c-.5-.2-1-.4-1.3-.7-.3-.3-.4-.7-.4-1.2s.2-1.2.6-1.6c.4-.4,1.1-.6,1.9-.6Z"/>
        <path class="st0" d="M136.5-477h1l3,7.5h-1.1l-.8-2.1h-3.1l-.8,2.1h-1.1l3-7.5ZM135.7-472.5h2.5l-.5-1.3c-.1-.3-.3-.7-.4-1s-.2-.6-.3-1h0c-.1.3-.2.7-.3,1s-.2.6-.4,1l-.5,1.3Z"/>
        <path class="st0" d="M145.7-477.2c.4,0,.8,0,1.2,0s.7.2,1,.3l-.3.9c-.3-.1-.6-.2-.9-.3-.3,0-.6,0-.9,0s-.7,0-1,.2c-.3.1-.6.3-.8.5-.2.2-.4.5-.6.9-.1.4-.2.8-.2,1.4,0,1,.2,1.7.7,2.2s1.1.7,1.8.7.6,0,.8,0c.2,0,.4,0,.6-.2v-2.1h-1.4v-.9h2.4v3.6c-.3.1-.7.2-1.1.3-.4,0-.8.1-1.4.1s-1,0-1.4-.2c-.4-.2-.8-.4-1.2-.7-.3-.3-.6-.7-.8-1.2-.2-.5-.3-1-.3-1.7s0-1.2.3-1.7c.2-.5.4-.9.8-1.2.3-.3.7-.6,1.2-.7.5-.2.9-.2,1.5-.2Z"/>
        <path class="st0" d="M151-477h4.5v.9h-3.4v2.2h3.1v.9h-3.1v2.5h3.5v.9h-4.6v-7.5Z"/>
      </g>
    </g>
    <g>
      <path class="st0" d="M82.8-607.6h-5s-5.3,0-5.3,5.2v5.3h-4.5v4.6h4.6v13.4h5.2v-13.5h4.6v-4.5h-4.8v-4s-.1-2.2,2.2-2.2h3.1v-4.4Z"/>
      <g>
        <path class="st0" d="M96.8-595.1v.9h-3.3v2.4h3.1v.9h-3.1v3.3h-1.1v-7.5h4.4Z"/>
        <path class="st0" d="M100.9-595.1h1l3,7.5h-1.1l-.8-2.1h-3.1l-.8,2.1h-1.1l3-7.5ZM100.1-590.6h2.5l-.5-1.3c-.1-.3-.3-.7-.4-1s-.2-.6-.3-1h0c-.1.3-.2.7-.3,1s-.2.6-.4,1l-.5,1.3Z"/>
        <path class="st0" d="M110.1-588.5c.4,0,.7,0,1,0,.3,0,.5-.2.8-.3l.2.9c-.3.1-.6.2-.9.3-.3,0-.7,0-1.2,0s-1,0-1.4-.2c-.4-.2-.8-.4-1.1-.7-.3-.3-.6-.7-.8-1.2-.2-.5-.3-1-.3-1.7s0-1.2.3-1.6c.2-.5.4-.9.8-1.2.3-.3.7-.6,1.2-.7.4-.2.9-.3,1.5-.3s.9,0,1.2.1c.3,0,.6.2.9.3l-.3.9c-.2,0-.3-.1-.4-.2-.1,0-.3,0-.4-.1-.1,0-.3,0-.4,0-.1,0-.3,0-.5,0-.3,0-.7,0-1,.2-.3.1-.6.3-.8.5s-.4.5-.6.9c-.1.4-.2.8-.2,1.4s0,1,.2,1.4c.1.4.3.7.5.9.2.2.5.4.8.5s.6.2,1,.2Z"/>
        <path class="st0" d="M114.7-595.1h4.5v.9h-3.4v2.2h3.1v.9h-3.1v2.5h3.5v.9h-4.6v-7.5Z"/>
        <path class="st0" d="M124.1-595.1c.7,0,1.3.2,1.7.5s.6.8.6,1.4-.1.8-.4,1.1c-.3.3-.6.4-1,.5.2,0,.4.1.6.2.2,0,.4.2.5.4.1.2.3.3.3.6,0,.2.1.5.1.7s0,.6-.2.8-.3.5-.6.7-.5.3-.8.4c-.3.1-.7.2-1.1.2h-2.2v-7.5h2.3ZM122.9-592h.9c.2,0,.4,0,.6,0,.2,0,.3,0,.5-.2.1,0,.2-.2.3-.4,0-.1.1-.3.1-.6,0-.4-.1-.7-.4-.8-.3-.2-.6-.3-1-.3h-1v2.2ZM122.9-588.5h1c.2,0,.4,0,.6,0,.2,0,.4-.1.5-.2.2-.1.3-.2.4-.4,0-.2.1-.4.1-.6s0-.4-.2-.6c-.1-.2-.2-.3-.4-.4-.2-.1-.4-.2-.6-.2-.2,0-.4,0-.7,0h-.8v2.6Z"/>
        <path class="st0" d="M132.6-595.3c.5,0,1,0,1.4.2.4.2.8.4,1.1.7.3.3.6.7.7,1.2.2.5.3,1,.3,1.7s0,1.2-.3,1.7c-.2.5-.4.9-.8,1.2-.3.3-.7.6-1.1.7s-.9.2-1.4.2-1,0-1.4-.2c-.4-.2-.8-.4-1.1-.7s-.6-.7-.7-1.2c-.2-.5-.3-1-.3-1.7s0-1.2.3-1.7c.2-.5.4-.9.8-1.2.3-.3.7-.6,1.1-.7.4-.2.9-.2,1.4-.2ZM130.2-591.4c0,.5,0,.9.2,1.3.1.4.3.7.5.9s.5.4.8.5c.3.1.6.2.9.2s.6,0,.9-.2c.3-.1.5-.3.7-.5.2-.2.4-.6.5-.9.1-.4.2-.8.2-1.3s0-1-.2-1.3c-.1-.4-.3-.7-.5-.9-.2-.2-.5-.4-.8-.5s-.6-.2-.9-.2-.6,0-.9.2c-.3.1-.5.3-.7.5-.2.2-.4.6-.5.9s-.2.8-.2,1.3Z"/>
        <path class="st0" d="M141.9-595.3c.5,0,1,0,1.4.2.4.2.8.4,1.1.7.3.3.6.7.7,1.2.2.5.3,1,.3,1.7s0,1.2-.3,1.7c-.2.5-.4.9-.8,1.2-.3.3-.7.6-1.1.7s-.9.2-1.4.2-1,0-1.4-.2c-.4-.2-.8-.4-1.1-.7s-.6-.7-.7-1.2c-.2-.5-.3-1-.3-1.7s0-1.2.3-1.7c.2-.5.4-.9.8-1.2.3-.3.7-.6,1.1-.7.4-.2.9-.2,1.4-.2ZM139.6-591.4c0,.5,0,.9.2,1.3.1.4.3.7.5.9s.5.4.8.5c.3.1.6.2.9.2s.6,0,.9-.2c.3-.1.5-.3.7-.5.2-.2.4-.6.5-.9.1-.4.2-.8.2-1.3s0-1-.2-1.3c-.1-.4-.3-.7-.5-.9-.2-.2-.5-.4-.8-.5s-.6-.2-.9-.2-.6,0-.9.2c-.3.1-.5.3-.7.5-.2.2-.4.6-.5.9s-.2.8-.2,1.3Z"/>
        <path class="st0" d="M148.2-587.7v-7.5h1.1v3.4l3.2-3.4h1.4l-3.1,3.3,3.3,4.2h-1.4l-2.7-3.4-.6.7v2.7h-1.1Z"/>
      </g>
    </g>
    <g>
      <path class="st0" d="M87.6-718.4c0-5.7-4.4-10.2-9.9-10.2s-9.9,4.6-9.9,10.2.3,2.6.7,3.8h0l.2.3c.3.7.6,1.3,1.1,1.9l3.4,6,4.6,8.3,4.6-8.3,3.4-6c.4-.6.8-1.2,1.1-1.9l.2-.3h0c.4-1.2.7-2.4.7-3.8ZM77.7-712.5c-3.1,0-5.7-2.6-5.7-5.9s2.5-5.9,5.7-5.9,5.7,2.6,5.7,5.9-2.5,5.9-5.7,5.9Z"/>
      <g>
        <path class="st0" d="M96.2-715.1h1.1v6.6h3.2v.9h-4.3v-7.5Z"/>
        <path class="st0" d="M105.8-715.2c.5,0,1,0,1.4.2.4.2.8.4,1.1.7.3.3.6.7.7,1.2.2.5.3,1,.3,1.7s0,1.2-.3,1.7c-.2.5-.4.9-.8,1.2-.3.3-.7.6-1.1.7s-.9.2-1.4.2-1,0-1.4-.2c-.4-.2-.8-.4-1.1-.7s-.6-.7-.7-1.2c-.2-.5-.3-1-.3-1.7s0-1.2.3-1.7c.2-.5.4-.9.8-1.2.3-.3.7-.6,1.1-.7.4-.2.9-.2,1.4-.2ZM103.4-711.4c0,.5,0,.9.2,1.3.1.4.3.7.5.9s.5.4.8.5c.3.1.6.2.9.2s.6,0,.9-.2c.3-.1.5-.3.7-.5.2-.2.4-.6.5-.9.1-.4.2-.8.2-1.3s0-1-.2-1.3c-.1-.4-.3-.7-.5-.9-.2-.2-.5-.4-.8-.5s-.6-.2-.9-.2-.6,0-.9.2c-.3.1-.5.3-.7.5-.2.2-.4.6-.5.9s-.2.8-.2,1.3Z"/>
        <path class="st0" d="M115.3-708.4c.4,0,.7,0,1,0,.3,0,.5-.2.8-.3l.2.9c-.3.1-.6.2-.9.3-.3,0-.7,0-1.2,0s-1,0-1.4-.2c-.4-.2-.8-.4-1.1-.7-.3-.3-.6-.7-.8-1.2-.2-.5-.3-1-.3-1.7s0-1.2.3-1.6c.2-.5.4-.9.8-1.2.3-.3.7-.6,1.2-.7.4-.2.9-.3,1.5-.3s.9,0,1.2.1c.3,0,.6.2.9.3l-.3.9c-.2,0-.3-.1-.4-.2-.1,0-.3,0-.4-.1-.1,0-.3,0-.4,0-.1,0-.3,0-.5,0-.3,0-.7,0-1,.2-.3.1-.6.3-.8.5s-.4.5-.6.9c-.1.4-.2.8-.2,1.4s0,1,.2,1.4c.1.4.3.7.5.9.2.2.5.4.8.5s.6.2,1,.2Z"/>
        <path class="st0" d="M122-715.1h1l3,7.5h-1.1l-.8-2.1h-3.1l-.8,2.1h-1.1l3-7.5ZM121.2-710.6h2.5l-.5-1.3c-.1-.3-.3-.7-.4-1s-.2-.6-.3-1h0c-.1.3-.2.7-.3,1s-.2.6-.4,1l-.5,1.3Z"/>
        <path class="st0" d="M132.2-715.1v.9h-2.3v6.6h-1.1v-6.6h-2.3v-.9h5.7Z"/>
        <path class="st0" d="M135.5-715.1v7.5h-1.1v-7.5h1.1Z"/>
        <path class="st0" d="M141.8-715.2c.5,0,1,0,1.4.2.4.2.8.4,1.1.7.3.3.6.7.7,1.2.2.5.3,1,.3,1.7s0,1.2-.3,1.7c-.2.5-.4.9-.8,1.2-.3.3-.7.6-1.1.7s-.9.2-1.4.2-1,0-1.4-.2c-.4-.2-.8-.4-1.1-.7s-.6-.7-.7-1.2c-.2-.5-.3-1-.3-1.7s0-1.2.3-1.7c.2-.5.4-.9.8-1.2.3-.3.7-.6,1.1-.7.4-.2.9-.2,1.4-.2ZM139.4-711.4c0,.5,0,.9.2,1.3.1.4.3.7.5.9s.5.4.8.5c.3.1.6.2.9.2s.6,0,.9-.2c.3-.1.5-.3.7-.5.2-.2.4-.6.5-.9.1-.4.2-.8.2-1.3s0-1-.2-1.3c-.1-.4-.3-.7-.5-.9-.2-.2-.5-.4-.8-.5s-.6-.2-.9-.2-.6,0-.9.2c-.3.1-.5.3-.7.5-.2.2-.4.6-.5.9s-.2.8-.2,1.3Z"/>
        <path class="st0" d="M148-715.1h1l3.4,4.7c.1.2.2.4.4.5.1.2.2.4.3.5h0c0-.3,0-.6,0-.8s0-.6,0-.8v-4.1h1.1v7.5h-1l-3.4-4.7c-.1-.2-.2-.4-.4-.6-.1-.2-.2-.4-.4-.6h0c0,.3,0,.7,0,1,0,.3,0,.7,0,1v3.9h-1.1v-7.5Z"/>
      </g>
    </g>
    <line class="st2" x1="44" y1="-652.9" x2="177.9" y2="-652.9"/>
    <line class="st2" x1="44" y1="-533.7" x2="177.9" y2="-533.7"/>
    <line class="st2" x1="177.9" y1="-416.9" x2="44" y2="-416.9"/>
  </g>
  <g>
    <path class="st0" d="M665-663.8c1.2-.2,2.3-.8,3.4-1.6,3.7-2.5,6-5.9,7-10.3.3-1.4.3-2.8-.6-4.1-.7-1.1-1.8-1.6-3.1-1.6-.4,0-.7.2-.8.5-.4,1.1-.8,2.1-1.2,3.2-.3.7-.2.8.4,1.2.5.3,1,.7,1.5,1,.3.2.4.5.3.9-.8,2.7-2.4,4.8-4.8,6.4-.3.2-.6.2-.9,0-.5-.4-1-.8-1.5-1.2-.3-.3-.6-.3-.9,0-1,.8-2,1.5-3.1,2.3-.3.2-.3.6-.2.9.6,1.9,2.3,2.9,4.5,2.6Z"/>
    <g>
      <path class="st0" d="M644.8-651.4c.3,0,.5,0,.7,0,.2,0,.4-.1.5-.2l.2.6c-.2,0-.4.2-.6.2-.2,0-.5,0-.8,0s-.7,0-1-.2-.6-.3-.8-.5-.4-.5-.5-.8c-.1-.3-.2-.7-.2-1.2s0-.8.2-1.1c.1-.3.3-.6.5-.8s.5-.4.8-.5c.3-.1.6-.2,1-.2s.6,0,.8,0c.2,0,.4.1.6.2l-.2.6c-.1,0-.2,0-.3-.1,0,0-.2,0-.3,0s-.2,0-.3,0-.2,0-.3,0c-.2,0-.5,0-.7.1-.2,0-.4.2-.6.4-.2.2-.3.4-.4.6,0,.3-.1.6-.1.9s0,.7.1.9.2.5.4.6c.2.2.3.3.5.4.2,0,.4.1.7.1Z"/>
      <path class="st0" d="M650-656.2c.4,0,.7,0,1,.2s.6.3.8.5c.2.2.4.5.5.8.1.3.2.7.2,1.2s0,.8-.2,1.2c-.1.3-.3.6-.5.8s-.5.4-.8.5c-.3.1-.6.2-1,.2s-.7,0-1-.2-.6-.3-.8-.5c-.2-.2-.4-.5-.5-.8-.1-.3-.2-.7-.2-1.2s0-.8.2-1.2c.1-.3.3-.6.5-.8s.5-.4.8-.5c.3-.1.6-.2,1-.2ZM648.3-653.5c0,.4,0,.7.1.9,0,.3.2.5.4.6s.3.3.5.4c.2,0,.4.1.6.1s.4,0,.6-.1c.2,0,.4-.2.5-.4s.3-.4.3-.6.1-.6.1-.9,0-.7-.1-.9c0-.3-.2-.5-.4-.6-.1-.2-.3-.3-.5-.4-.2,0-.4-.1-.6-.1s-.4,0-.6.1c-.2,0-.4.2-.5.4s-.3.4-.3.6-.1.6-.1.9Z"/>
      <path class="st0" d="M654.3-656.1h.7l2.4,3.3c0,.1.2.2.3.4,0,.1.2.3.2.4h0c0-.2,0-.4,0-.6,0-.2,0-.4,0-.6v-2.9h.7v5.2h-.7l-2.4-3.3c0-.1-.2-.2-.3-.4,0-.1-.2-.3-.2-.4h0c0,.2,0,.5,0,.7s0,.5,0,.7v2.7h-.7v-5.2Z"/>
      <path class="st0" d="M664.1-656.1v.6h-1.6v4.6h-.8v-4.6h-1.6v-.6h4Z"/>
      <path class="st0" d="M666.5-656.1h.7l2.1,5.2h-.8l-.6-1.4h-2.1l-.6,1.4h-.8l2.1-5.2ZM666-652.9h1.7l-.3-.9c0-.2-.2-.5-.3-.7,0-.2-.2-.4-.2-.7h0c0,.2-.2.5-.2.7,0,.2-.2.4-.3.7l-.4.9Z"/>
      <path class="st0" d="M672.9-651.4c.3,0,.5,0,.7,0,.2,0,.4-.1.5-.2l.2.6c-.2,0-.4.2-.6.2-.2,0-.5,0-.8,0s-.7,0-1-.2-.6-.3-.8-.5-.4-.5-.5-.8c-.1-.3-.2-.7-.2-1.2s0-.8.2-1.1c.1-.3.3-.6.5-.8s.5-.4.8-.5c.3-.1.6-.2,1-.2s.6,0,.8,0c.2,0,.4.1.6.2l-.2.6c-.1,0-.2,0-.3-.1,0,0-.2,0-.3,0s-.2,0-.3,0-.2,0-.3,0c-.2,0-.5,0-.7.1-.2,0-.4.2-.6.4-.2.2-.3.4-.4.6,0,.3-.1.6-.1.9s0,.7.1.9.2.5.4.6c.2.2.3.3.5.4.2,0,.4.1.7.1Z"/>
      <path class="st0" d="M679.5-656.1v.6h-1.6v4.6h-.8v-4.6h-1.6v-.6h4Z"/>
      <path class="st0" d="M683.6-656.1h.8v3.1c0,.6.1,1,.3,1.2.2.2.5.4,1,.4s.8-.1,1-.4c.2-.3.3-.6.3-1v-3.2h.8v3.2c0,.7-.2,1.2-.5,1.6-.4.3-.9.5-1.5.5s-1.2-.2-1.5-.5-.5-.9-.5-1.6v-3.1Z"/>
      <path class="st0" d="M691.3-656.2c.3,0,.5,0,.7,0s.5.1.7.2l-.2.6c-.2-.1-.5-.2-.6-.2-.2,0-.4,0-.6,0-.3,0-.6,0-.7.2-.2.1-.3.3-.3.6s0,.4.2.5c.1.1.4.2.7.3l.5.2c.5.1.8.4,1,.6s.3.5.3.9,0,.4-.1.6c0,.2-.2.3-.4.5s-.4.2-.6.3c-.2,0-.5.1-.7.1s-.5,0-.8,0-.5-.1-.8-.3l.2-.6c.2.1.5.2.7.3.2,0,.5,0,.7,0s.6,0,.8-.2c.2-.1.3-.3.3-.6s0-.2,0-.3,0-.2-.2-.2c0,0-.2-.1-.3-.2-.1,0-.3-.1-.5-.2l-.5-.2c-.4-.1-.7-.3-.9-.5s-.3-.5-.3-.9.2-.8.5-1.1.7-.4,1.3-.4Z"/>
    </g>
  </g>
  <g>
    <path class="st0" d="M600.5-678.3c-2.8-3.6-8.3-4.3-12.2-2.1-2.1,1.2-3.6,3.2-4,5.6-.6,3,.9,5.7,3.1,7.7v3.5c0,0,3.3-1.8,3.3-1.8.2-.1,1.3.2,1.6.2,1.2,0,2.5,0,3.7-.4,3.2-.9,5.7-3.7,6.1-7.1.3-2-.3-4.1-1.6-5.7ZM594.2-670.5l-2.4-2.4-4.4,2.3,4.9-4.9,2.3,2.4,4.3-2.3-4.8,5Z"/>
    <g>
      <path class="st0" d="M574.7-656.1h1l1.1,3.3c0,.2.1.3.2.5,0,.2,0,.3.1.5h0c0-.2,0-.3.1-.4s.1-.3.2-.5l1.1-3.3h1l.5,5.2h-.8l-.2-2.8c0-.3,0-.5,0-.8s0-.5,0-.8h0c0,.3-.2.5-.2.8,0,.3-.2.5-.3.8l-.9,2.8h-.7l-.9-2.8c0-.3-.2-.5-.3-.8,0-.3-.2-.5-.2-.8h0c0,.3,0,.5,0,.8,0,.3,0,.5,0,.8l-.2,2.8h-.7l.4-5.2Z"/>
      <path class="st0" d="M582-656.1h3.1v.6h-2.4v1.6h2.2v.6h-2.2v1.8h2.4v.6h-3.2v-5.2Z"/>
      <path class="st0" d="M588.4-656.2c.3,0,.5,0,.7,0,.2,0,.5.1.7.2l-.2.6c-.2-.1-.5-.2-.6-.2-.2,0-.4,0-.6,0-.3,0-.6,0-.7.2-.2.1-.3.3-.3.6s0,.4.2.5c.1.1.4.2.7.3l.5.2c.5.1.8.4,1,.6.2.3.3.5.3.9s0,.4-.1.6c0,.2-.2.3-.4.5s-.4.2-.6.3-.5.1-.7.1-.5,0-.8,0c-.3,0-.5-.1-.8-.3l.2-.6c.2.1.5.2.7.3.2,0,.5,0,.7,0s.6,0,.8-.2.3-.3.3-.6,0-.2,0-.3,0-.2-.2-.2c0,0-.2-.1-.3-.2s-.3-.1-.5-.2l-.5-.2c-.4-.1-.7-.3-.9-.5-.2-.2-.3-.5-.3-.9s.2-.8.5-1.1.7-.4,1.3-.4Z"/>
      <path class="st0" d="M593.3-656.2c.3,0,.5,0,.7,0,.2,0,.5.1.7.2l-.2.6c-.2-.1-.5-.2-.6-.2-.2,0-.4,0-.6,0-.3,0-.6,0-.7.2-.2.1-.3.3-.3.6s0,.4.2.5c.1.1.4.2.7.3l.5.2c.5.1.8.4,1,.6.2.3.3.5.3.9s0,.4-.1.6c0,.2-.2.3-.4.5s-.4.2-.6.3-.5.1-.7.1-.5,0-.8,0c-.3,0-.5-.1-.8-.3l.2-.6c.2.1.5.2.7.3.2,0,.5,0,.7,0s.6,0,.8-.2.3-.3.3-.6,0-.2,0-.3,0-.2-.2-.2c0,0-.2-.1-.3-.2s-.3-.1-.5-.2l-.5-.2c-.4-.1-.7-.3-.9-.5-.2-.2-.3-.5-.3-.9s.2-.8.5-1.1.7-.4,1.3-.4Z"/>
      <path class="st0" d="M598.2-656.1h.7l2.1,5.2h-.8l-.6-1.4h-2.1l-.6,1.4h-.8l2.1-5.2ZM597.7-652.9h1.7l-.3-.9c0-.2-.2-.5-.3-.7,0-.2-.2-.4-.2-.7h0c0,.2-.2.5-.2.7s-.2.4-.3.7l-.4.9Z"/>
      <path class="st0" d="M604.6-656.2c.3,0,.6,0,.8,0,.2,0,.5.1.7.2l-.2.6c-.2,0-.4-.2-.6-.2-.2,0-.4,0-.6,0s-.5,0-.7.1c-.2,0-.4.2-.6.4-.2.2-.3.4-.4.6,0,.3-.1.6-.1,1,0,.7.2,1.2.5,1.5.3.3.7.5,1.3.5s.4,0,.5,0c.2,0,.3,0,.4-.1v-1.4h-1v-.6h1.7v2.5c-.2,0-.5.2-.7.2-.3,0-.6,0-1,0s-.7,0-1-.2-.6-.3-.8-.5c-.2-.2-.4-.5-.5-.8-.1-.3-.2-.7-.2-1.1s0-.8.2-1.2.3-.6.5-.8c.2-.2.5-.4.8-.5s.7-.2,1-.2Z"/>
      <path class="st0" d="M608.3-656.1h3.1v.6h-2.4v1.6h2.2v.6h-2.2v1.8h2.4v.6h-3.2v-5.2Z"/>
    </g>
  </g>
  <g>
    <path class="st0" d="M449.6-676.1c0-3.9-3.1-7.1-6.9-7.1s-6.9,3.2-6.9,7.1.2,1.8.5,2.6h0v.2c.3.5.6.9.9,1.3l2.3,4.2,3.2,5.8,3.2-5.8,2.3-4.2c.3-.4.5-.9.7-1.3v-.2c.1,0,0,0,0,0,.3-.8.5-1.7.5-2.6ZM442.7-672c-2.2,0-3.9-1.8-3.9-4.1s1.8-4.1,3.9-4.1,3.9,1.8,3.9,4.1-1.8,4.1-3.9,4.1Z"/>
    <g>
      <path class="st0" d="M422.2-656.1h.8v4.6h2.2v.6h-3v-5.2Z"/>
      <path class="st0" d="M428.9-656.2c.4,0,.7,0,1,.2s.6.3.8.5c.2.2.4.5.5.8.1.3.2.7.2,1.2s0,.8-.2,1.2c-.1.3-.3.6-.5.8s-.5.4-.8.5c-.3.1-.6.2-1,.2s-.7,0-1-.2-.6-.3-.8-.5c-.2-.2-.4-.5-.5-.8-.1-.3-.2-.7-.2-1.2s0-.8.2-1.2c.1-.3.3-.6.5-.8s.5-.4.8-.5c.3-.1.6-.2,1-.2ZM427.2-653.5c0,.4,0,.7.1.9,0,.3.2.5.4.6s.3.3.5.4c.2,0,.4.1.6.1s.4,0,.6-.1c.2,0,.4-.2.5-.4s.3-.4.3-.6.1-.6.1-.9,0-.7-.1-.9c0-.3-.2-.5-.4-.6-.1-.2-.3-.3-.5-.4-.2,0-.4-.1-.6-.1s-.4,0-.6.1c-.2,0-.4.2-.5.4s-.3.4-.3.6-.1.6-.1.9Z"/>
      <path class="st0" d="M435.5-651.4c.3,0,.5,0,.7,0,.2,0,.4-.1.5-.2l.2.6c-.2,0-.4.2-.6.2-.2,0-.5,0-.8,0s-.7,0-1-.2-.6-.3-.8-.5-.4-.5-.5-.8c-.1-.3-.2-.7-.2-1.2s0-.8.2-1.1c.1-.3.3-.6.5-.8s.5-.4.8-.5c.3-.1.6-.2,1-.2s.6,0,.8,0c.2,0,.4.1.6.2l-.2.6c-.1,0-.2,0-.3-.1,0,0-.2,0-.3,0s-.2,0-.3,0-.2,0-.3,0c-.2,0-.5,0-.7.1-.2,0-.4.2-.6.4-.2.2-.3.4-.4.6,0,.3-.1.6-.1.9s0,.7.1.9.2.5.4.6c.2.2.3.3.5.4.2,0,.4.1.7.1Z"/>
      <path class="st0" d="M440.1-656.1h.7l2.1,5.2h-.8l-.6-1.4h-2.1l-.6,1.4h-.8l2.1-5.2ZM439.6-652.9h1.7l-.3-.9c0-.2-.2-.5-.3-.7,0-.2-.2-.4-.2-.7h0c0,.2-.2.5-.2.7,0,.2-.2.4-.3.7l-.4.9Z"/>
      <path class="st0" d="M447.2-656.1v.6h-1.6v4.6h-.8v-4.6h-1.6v-.6h4Z"/>
      <path class="st0" d="M449.5-656.1v5.2h-.8v-5.2h.8Z"/>
      <path class="st0" d="M453.9-656.2c.4,0,.7,0,1,.2s.6.3.8.5c.2.2.4.5.5.8.1.3.2.7.2,1.2s0,.8-.2,1.2c-.1.3-.3.6-.5.8s-.5.4-.8.5c-.3.1-.6.2-1,.2s-.7,0-1-.2-.6-.3-.8-.5c-.2-.2-.4-.5-.5-.8-.1-.3-.2-.7-.2-1.2s0-.8.2-1.2c.1-.3.3-.6.5-.8s.5-.4.8-.5c.3-.1.6-.2,1-.2ZM452.2-653.5c0,.4,0,.7.1.9,0,.3.2.5.4.6s.3.3.5.4c.2,0,.4.1.6.1s.4,0,.6-.1c.2,0,.4-.2.5-.4s.3-.4.3-.6.1-.6.1-.9,0-.7-.1-.9c0-.3-.2-.5-.4-.6-.1-.2-.3-.3-.5-.4-.2,0-.4-.1-.6-.1s-.4,0-.6.1c-.2,0-.4.2-.5.4s-.3.4-.3.6-.1.6-.1.9Z"/>
      <path class="st0" d="M458.2-656.1h.7l2.4,3.3c0,.1.2.2.3.4,0,.1.2.3.2.4h0c0-.2,0-.4,0-.6,0-.2,0-.4,0-.6v-2.9h.7v5.2h-.7l-2.4-3.3c0-.1-.2-.2-.3-.4,0-.1-.2-.3-.2-.4h0c0,.2,0,.5,0,.7s0,.5,0,.7v2.7h-.7v-5.2Z"/>
    </g>
  </g>
  <rect class="st1" x="479.4" y="-683.7" width="1" height="33.9"/>
  <rect class="st1" x="554.7" y="-683.7" width="1" height="33.9"/>
  <rect class="st1" x="629.9" y="-683.7" width="1" height="33.9"/>
  <rect class="st1" x="404.2" y="-683.7" width="1" height="33.9"/>
  <g>
    <g>
      <path class="st0" d="M346.2-650.9v-5.3h1.9c.4,0,.8,0,1,.2.3.1.5.3.6.6.1.3.2.5.2.9s0,.6-.2.9-.3.4-.6.6c-.3.1-.6.2-1,.2h-1.4v-.7h1.3c.3,0,.5,0,.6-.1s.3-.2.4-.3c0-.1.1-.3.1-.5s0-.4-.1-.5c0-.1-.2-.2-.4-.3s-.4-.1-.6-.1h-1v4.6h-.9ZM349.2-650.9l-1.3-2.4h1l1.3,2.4h-1Z"/>
      <path class="st0" d="M352.4-650.9v-5.3h3.4v.7h-2.5v1.5h2.3v.7h-2.3v1.6h2.5v.7h-3.4Z"/>
      <path class="st0" d="M360.1-650.8c-.4,0-.8,0-1-.2-.3-.1-.5-.3-.7-.5-.2-.2-.3-.5-.3-.9h.9c0,.2,0,.3.2.5s.2.2.4.3c.2,0,.4,0,.6,0s.4,0,.6-.1c.2,0,.3-.2.4-.3s.1-.3.1-.4,0-.3-.1-.4c0,0-.2-.2-.4-.2-.1,0-.3-.1-.5-.2l-.6-.2c-.4-.1-.8-.3-1-.5-.2-.2-.4-.5-.4-.9s0-.6.3-.8c.2-.2.4-.4.7-.5.3-.1.6-.2,1-.2s.7,0,1,.2.5.3.7.5c.2.2.2.5.2.8h-.8c0-.2-.1-.4-.3-.6-.2-.1-.4-.2-.7-.2s-.4,0-.5,0-.3.2-.4.3c0,.1-.1.2-.1.4s0,.3.1.4c0,.1.2.2.4.2s.3.1.4.1h.5c.2.2.4.2.5.3.2,0,.3.2.5.3.2.1.3.3.4.4,0,.2.1.4.1.6s0,.6-.2.8c-.2.2-.4.4-.7.6-.3.1-.7.2-1.1.2Z"/>
      <path class="st0" d="M364.5-650.9v-5.3h3.4v.7h-2.5v1.5h2.3v.7h-2.3v1.6h2.5v.7h-3.4Z"/>
      <path class="st0" d="M370.3-650.9v-5.3h1.9c.4,0,.8,0,1,.2s.5.3.6.6c.1.3.2.5.2.9s0,.6-.2.9-.3.4-.6.6c-.3.1-.6.2-1,.2h-1.4v-.7h1.3c.3,0,.5,0,.6-.1s.3-.2.3-.3.1-.3.1-.5,0-.4-.1-.5-.2-.2-.3-.3-.4-.1-.6-.1h-1v4.6h-.9ZM373.4-650.9l-1.3-2.4h1l1.3,2.4h-1Z"/>
      <path class="st0" d="M378-650.9l-1.9-5.3h.9l1,2.9c0,.2.2.5.3.9.1.3.2.7.3,1.2h-.2c.1-.5.2-.9.3-1.2,0-.3.2-.6.3-.9l1-2.9h.9l-1.9,5.3h-1.1Z"/>
      <path class="st0" d="M383.1-650.9v-5.3h3.4v.7h-2.5v1.5h2.3v.7h-2.3v1.6h2.5v.7h-3.4Z"/>
    </g>
    <g>
      <path class="st0" d="M341.5-672.3c.3-.4.7-.8,1-1.3h-2.8v-1.1h4.1v.9c-.5.9-1,1.6-1.6,2.2.2.2.3.4.4.5h1.6v.8c-.2.9-.4,1.7-.6,2.2l-1-.4c.2-.4.3-.9.5-1.4h-.9v4.7c0,.8-.4,1.1-1.1,1.1h-1.2l-.3-1.1c.4,0,.7,0,1,0s.3-.1.3-.4v-4.4h-1.7v-1.2h2c-.4-.5-.9-1-1.5-1.6l.9-.6c.3.3.6.6.8.8ZM346.4-672.9c0-.2.2-.5.2-.7h-2.4v-1.1h6v1.1h-2.4c0,.2-.1.5-.2.7h2.2v6.6h-1.3c.8.5,1.4.9,1.9,1.4l-.8.8c-.5-.5-1.1-1-2-1.6l.7-.6h-2.2l.7.6c-.6.6-1.4,1.2-2.3,1.7l-.7-.9c.9-.4,1.6-.9,2.1-1.4h-1.3v-6.6h1.7ZM348.7-671.1v-.9h-2.8v.9h2.8ZM348.7-669.2v-.9h-2.8v.9h2.8ZM348.7-668.2h-2.8v.9h2.8v-.9Z"/>
      <path class="st0" d="M355.4-667c0,1.1-.2,2.1-.4,2.9l-1.1-.3c.3-.8.4-1.7.5-2.7h1ZM358.8-667.9l-1.1.3c0-.2,0-.3-.1-.5-1.2.3-2.3.5-3.3.6l-.3-1.1c.2,0,.4-.2.5-.3.4-.3.9-.9,1.4-1.8-.6,0-1.2.1-1.8.2l-.3-1.1c.2,0,.3-.2.5-.4.6-1,1.1-2,1.6-3.1l1.2.5c-.6,1.2-1.2,2.3-1.8,3,.4,0,.9,0,1.3-.2.3-.5.6-1,.9-1.5l1.1.4c-1.2,1.9-2.1,3.3-2.9,4.1.5,0,1.1-.2,1.6-.3,0-.3-.2-.6-.3-1l1-.3c.3.7.5,1.5.8,2.5ZM357.3-664.7l-1.1.3c0-1-.2-1.9-.3-2.6l1-.2c.2.8.3,1.6.4,2.6ZM359-665.5l-1,.4c-.2-.8-.4-1.5-.6-2.1l.9-.3c.3.6.5,1.3.7,2ZM361.3-675c-.1.6-.3,1.2-.5,1.8h3.8c0,4.1,0,6.7-.2,7.7-.1.9-.7,1.3-1.8,1.3s-.7,0-1.3,0l-.3-1.1c.5,0,1,0,1.4,0s.7-.3.8-.8c0-.6.1-2.5.1-5.9h-3.1c-.4.7-.8,1.3-1.3,1.9l-.8-1c1-1.1,1.6-2.5,2-4.1l1.2.2ZM362.4-667.8l-1,.7c-.5-.8-1.1-1.7-1.8-2.8l1-.6c.8,1,1.4,1.9,1.9,2.7Z"/>
      <path class="st0" d="M373.1-674.2v-.9h1.3v.9h4.2v1.2h-4.2v.8h3.5v1.2h-3.5v.8h4.5v1.1h-5.4c-.4.6-.9,1.1-1.5,1.5v2.2c.8-.3,1.6-.6,2.4-.9l.3,1.2c-1.2.5-2.5.9-3.8,1.2l-.4-1.1c.2-.1.3-.3.3-.5v-1.3c-.6.3-1.2.6-1.9.9l-.7-1.1c1.7-.6,3-1.3,3.9-2.2h-3.4v-1.1h4.5v-.8h-3.5v-1.2h3.5v-.8h-4.2v-1.2h4.2ZM378.5-668c-.6.6-1.2,1-2,1.4.8.7,1.7,1.2,2.8,1.5l-.7,1.1c-2.1-.8-3.6-2.1-4.5-4.2l.9-.5c.2.5.5.9.8,1.3.6-.3,1.2-.8,1.8-1.4l.9.9Z"/>
      <path class="st0" d="M392.4-671.6v4.2h-3.7v.7h4.6v1.1h-4.6v1.6h-1.3v-1.6h-4.6v-1.1h4.6v-.7h-3.7v-4.2h8.6ZM387.7-674.8v2.7h-4.4v-2.7h4.4ZM386.5-673.9h-1.9v.9h1.9v-.9ZM387.5-669.9v-.7h-2.4v.7h2.4ZM387.5-669h-2.4v.7h2.4v-.7ZM392.9-674.8v2.7h-4.4v-2.7h4.4ZM388.8-669.9h2.4v-.7h-2.4v.7ZM391.2-669h-2.4v.7h2.4v-.7ZM391.7-673.9h-2v.9h2v-.9Z"/>
    </g>
  </g>
  <g>
    <path d="M53.1-1031.9v1.6h-12.2v2.4h13.3v6.5h-1.7v-5.1h-11.5v7.2h-1.8v-7.2h-11.5v5.1h-1.7v-6.5h13.2v-2.4h-12.3v-1.6h26.2ZM51.6-1017.9v10h-10.7v2.5c0,.7.4,1.1,1.1,1.1h8.6c1,0,1.7-.2,2.1-.5.5-.4.9-1.7,1.1-3.7l1.6.5c-.2,2.4-.7,4-1.5,4.6-.6.4-1.6.7-3,.7h-9.5c-1.7,0-2.5-.8-2.5-2.3v-2.8h-10.8v-10h23.4ZM36.9-1020.3c-1.5.3-3.8.6-6.9.8l-.4-1.3c3.1-.1,5.4-.4,6.9-.7l.4,1.1ZM36.8-1024l-.5,1.2c-2.1-.4-4.2-.7-6.5-.9l.6-1.1c2.2.2,4.3.5,6.3.9ZM39-1013.6v-2.8h-9.1v2.8h9.1ZM39-1012.2h-9.1v2.8h9.1v-2.8ZM40.9-1013.6h9v-2.8h-9v2.8ZM49.8-1012.2h-9v2.8h9v-2.8ZM50.4-1020.5l-.5,1.2c-2.2-.5-4.5-.9-6.9-1.1l.5-1.1c2.4.2,4.7.5,6.9,1ZM43-1024.1c2.4-.2,4.5-.5,6.4-1l.5,1.3c-1.9.4-4.1.7-6.6.9l-.3-1.2Z"/>
    <path d="M68.6-1005.1c0,1.6-.9,2.4-2.6,2.4h-2.4l-.4-1.7c.8,0,1.6,0,2.3,0s1.4-.5,1.4-1.4v-8.9c-1.6.5-3.2.8-5,1.2-.2,4.4-1,8.1-2.3,11l-1.3-1.2c1.3-3.2,2-7.3,2-12.2v-16h8.4v26.8ZM66.9-1022.8v-7.3h-5v6.2c1.7.3,3.4.7,5,1.1ZM66.9-1016.3v-5c-1.6-.5-3.3-.9-5-1.2v7.2c1.8-.3,3.5-.7,5-1.1ZM76.1-1032.7c-1.1,2-2.3,3.8-3.8,5.6,1.2,1.8,2.3,3.5,3.1,5.1l-1.6.7c-.9-1.9-2-3.8-3.3-5.8,1.5-1.9,2.8-4,4-6.1l1.7.6ZM87.7-1002.6h-1.8v-1.6h-13v1.6h-1.8v-16.6h4.2c.7-1.1,1.2-2.3,1.6-3.5l1.8.2c-.4,1.2-.9,2.3-1.7,3.3h10.6v16.6ZM85.9-1005.9v-11.8h-13v11.8h13ZM79.9-1012.7c1.1-1.1,2.1-2.2,2.9-3.3l1.1,1.1c-.9,1.1-1.8,2.2-2.8,3.2,1.1,1,2.2,2.1,3.2,3.1l-1.1,1.1c-.9-1-2-2.1-3.2-3.1-1.4,1.1-2.9,2.2-4.6,3.1l-.9-1.3c1.6-.9,3-1.8,4.3-2.8-1.1-.9-2.3-1.9-3.6-2.8l1.1-1.1c1.3.9,2.5,1.9,3.6,2.9ZM82.1-1032.7c-1,1.9-2.2,3.7-3.6,5.4,1.5,1.8,2.6,3.5,3.6,5.2l-1.6.7c-1.1-2-2.3-4-3.8-6,1.4-1.8,2.7-3.8,3.7-5.9l1.7.6ZM88-1032.6c-1,1.9-2.2,3.6-3.5,5.3,1.5,1.8,2.8,3.5,3.8,5.1l-1.7.7c-1.1-1.9-2.4-3.8-4-5.9,1.4-1.8,2.7-3.7,3.7-5.8l1.6.6Z"/>
    <path d="M93.5-1003.2l-1.4-1.2c1.7-2.8,2.5-7.2,2.6-13.2v-15h1.8v8.7h4.5v-9.3h1.8v11h-6.3v5.3h6.4v13.9h-1.8v-12.2h-4.7c-.3,5.2-1.2,9.2-2.9,11.8ZM122.1-1030.1h-13.8v6.8h13v1.6c-.8,4.7-2.4,8.6-4.6,11.8,1.7,2.2,3.8,4.1,6.4,5.9l-1.2,1.4c-2.5-1.9-4.6-3.8-6.2-5.9-2,2.4-4.5,4.4-7.5,5.9l-.9-1.6c2.9-1.5,5.3-3.4,7.3-5.8-2.5-3.5-4-7.4-4.6-11.5h-1.7v3c-.1,6.6-1.3,11.9-3.4,15.9l-1.4-1.2c2-3.5,3-8.4,3.1-14.7v-13.3h15.5v1.7ZM115.5-1011.4c1.9-2.9,3.2-6.3,4-10.2h-7.9c.5,3.7,1.8,7.1,3.9,10.2Z"/>
  </g>
  <g>
    <path d="M433.5-1031.5c-3.1.8-6.8,1.5-10.8,1.9v6.3h11v1.8h-11v6.1h13.6v1.8h-13.6v7.8c0,1.9-.9,2.9-2.8,2.9h-5.2l-.4-1.8c1.7,0,3.4.1,5,.1s1.7-.6,1.7-1.7v-7.4h-14.8v-1.8h14.8v-6.1h-12v-1.8h12v-6.1c-3.7.3-7.8.5-12.1.5l-.6-1.7c9.9,0,18.1-.8,24.4-2.4l.9,1.6Z"/>
    <path d="M445.3-1002.7h-1.7v-17.9c-.9,3-2,5.7-3.4,8.2l-.7-1.8c1.9-3.1,3.3-6.7,4.1-10.6h-3.4v-1.7h3.5v-6.9h1.7v6.9h2.8v1.7h-2.8v2.1c1.1,1.4,2.3,2.9,3.5,4.7l-.9,1.4c-1-1.7-1.9-3-2.6-4.1v18ZM462.9-1005.8c-.1-.1-.2-.2-.2-.3-1.9,1.4-4,2.5-6.3,3.4l-.7-1.6c2.3-.9,4.4-2,6.1-3.3-.9-1.7-1.6-3.7-2.2-6v-.6h-6.1c0,.9,0,1.7-.1,2.4,2,1,3.7,2.1,5.4,3.5l-.9,1.4c-1.5-1.4-3.1-2.4-4.6-3.3,0,.3-.1.5-.1.8-.5,2.8-2.1,5.1-4.7,6.9l-1.1-1.4c2.4-1.6,3.8-3.6,4.3-6.2.2-1.1.3-2.4.3-4h-3.4v-1.7h10.7c-.5-2.8-.7-6-.7-9.6v-7.7h1.8v7.7c0,3.6.2,6.8.6,9.6h4.8c-.4-.8-.9-1.7-1.5-2.4l1.5-.5c.6.8,1.1,1.8,1.7,2.9h2.9v1.7h-9c.5,2.2,1.1,4.1,1.8,5.6,1.4-1.3,2.6-2.8,3.6-4.4l1.3,1c-1.1,1.9-2.5,3.5-4.1,5,0,0,0,.1,0,.1,1.2,1.6,2.3,2.4,3.2,2.4s1.3-1.6,1.8-4.6l1.5.9c-.7,3.6-1.7,5.4-3.1,5.4-1.6,0-3-1-4.5-2.9ZM457.6-1018.3l-1.2.3c-.1-.7-.3-1.3-.4-1.9-1.8.3-3.8.6-6.1.9l-.3-1.3c.9-.3,2.4-2.1,4.4-5.4-1.3.1-2.7.3-4.3.5l-.3-1.2c.7-.3,2-2.6,3.9-6.8l1.5.5c-1.4,3-2.5,5-3.3,6.1,1.2-.1,2.4-.3,3.4-.4.5-.9,1.1-2,1.7-3.1l1.4.5c-2.6,4.7-4.6,7.8-5.9,9.2,1.4-.2,2.6-.4,3.7-.6-.2-.9-.5-1.7-.8-2.5l1.2-.4c.6,1.7,1.2,3.6,1.7,5.7ZM470.3-1019l-1.3.3c-.2-.6-.3-1.2-.5-1.8-1.9.3-4.1.6-6.5.9l-.3-1.3c.9-.3,2.4-2.1,4.4-5.2-1.4.2-2.8.3-4.4.5l-.3-1.2c.7-.3,2-2.5,3.9-6.6l1.5.5c-1.4,2.8-2.5,4.7-3.3,5.8l3.5-.4c.5-.9,1-1.8,1.6-2.8l1.4.4c-2.5,4.5-4.5,7.4-5.9,8.7,1.5-.2,2.8-.5,4.1-.7-.3-.9-.6-1.8-1-2.6l1.2-.4c.7,1.6,1.4,3.5,2,5.7Z"/>
    <path d="M474.7-1003.2l-1.4-1.2c1.7-2.8,2.5-7.2,2.6-13.2v-15h1.8v8.7h4.5v-9.3h1.8v11h-6.3v5.3h6.4v13.9h-1.8v-12.2h-4.7c-.3,5.2-1.2,9.2-2.9,11.8ZM503.3-1030.1h-13.8v6.8h13v1.6c-.8,4.7-2.4,8.6-4.6,11.8,1.7,2.2,3.8,4.1,6.4,5.9l-1.2,1.4c-2.5-1.9-4.6-3.8-6.2-5.9-2,2.4-4.5,4.4-7.5,5.9l-.9-1.6c2.9-1.5,5.3-3.4,7.3-5.8-2.5-3.5-4-7.4-4.6-11.5h-1.7v3c-.1,6.6-1.3,11.9-3.4,15.9l-1.4-1.2c2-3.5,3-8.4,3.1-14.7v-13.3h15.5v1.7ZM496.7-1011.4c1.9-2.9,3.2-6.3,4-10.2h-7.9c.5,3.7,1.8,7.1,3.9,10.2Z"/>
  </g>
  <g>
    <path class="st0" d="M499.6-656v.6h-2.2v1.6h2.1v.6h-2.1v2.2h-.7v-5.1h3Z"/>
    <path class="st0" d="M502.4-656h.7l2,5.1h-.8l-.6-1.4h-2.1l-.6,1.4h-.8l2.1-5.1ZM501.9-652.9h1.7l-.3-.9c0-.2-.2-.5-.3-.7s-.2-.4-.2-.7h0c0,.2-.2.4-.2.7s-.2.4-.3.7l-.3.9Z"/>
    <path class="st0" d="M508.7-651.4c.3,0,.5,0,.7,0,.2,0,.3-.1.5-.2l.2.6c-.2,0-.4.2-.6.2-.2,0-.5,0-.8,0s-.6,0-.9-.2c-.3-.1-.6-.3-.8-.5-.2-.2-.4-.5-.5-.8-.1-.3-.2-.7-.2-1.1s0-.8.2-1.1c.1-.3.3-.6.5-.8.2-.2.5-.4.8-.5.3-.1.6-.2,1-.2s.6,0,.8,0c.2,0,.4.1.6.2l-.2.6c-.1,0-.2,0-.3-.1,0,0-.2,0-.3,0,0,0-.2,0-.3,0,0,0-.2,0-.3,0-.2,0-.5,0-.7.1-.2,0-.4.2-.6.4s-.3.4-.4.6c0,.3-.1.6-.1.9s0,.7.1.9c0,.3.2.5.4.6.2.2.3.3.5.3s.4.1.7.1Z"/>
    <path class="st0" d="M511.8-656h3.1v.6h-2.3v1.5h2.1v.6h-2.1v1.7h2.4v.6h-3.1v-5.1Z"/>
    <path class="st0" d="M518.2-656c.5,0,.9.1,1.2.3s.4.5.4,1,0,.6-.3.7c-.2.2-.4.3-.7.4.2,0,.3,0,.4.1.1,0,.2.2.3.3,0,.1.2.2.2.4,0,.1,0,.3,0,.5s0,.4-.1.6-.2.3-.4.4-.4.2-.6.3c-.2,0-.5.1-.7.1h-1.5v-5.1h1.5ZM517.4-653.9h.6c.1,0,.3,0,.4,0,.1,0,.2,0,.3-.1,0,0,.2-.1.2-.2,0,0,0-.2,0-.4,0-.3,0-.4-.3-.6-.2-.1-.4-.2-.7-.2h-.7v1.5ZM517.4-651.5h.6c.2,0,.3,0,.4,0,.1,0,.3,0,.4-.1.1,0,.2-.2.2-.3,0-.1,0-.3,0-.4s0-.3-.1-.4c0-.1-.2-.2-.3-.3-.1,0-.3-.1-.4-.1-.2,0-.3,0-.5,0h-.5v1.8Z"/>
    <path class="st0" d="M523.9-656.1c.3,0,.7,0,1,.2.3.1.5.3.8.5.2.2.4.5.5.8.1.3.2.7.2,1.1s0,.8-.2,1.1c-.1.3-.3.6-.5.8-.2.2-.5.4-.8.5s-.6.2-1,.2-.7,0-1-.2c-.3-.1-.5-.3-.8-.5s-.4-.5-.5-.8c-.1-.3-.2-.7-.2-1.1s0-.8.2-1.1c.1-.3.3-.6.5-.8.2-.2.5-.4.8-.5.3-.1.6-.2,1-.2ZM522.3-653.4c0,.3,0,.6.1.9,0,.3.2.5.3.6s.3.3.5.4c.2,0,.4.1.6.1s.4,0,.6-.1c.2,0,.4-.2.5-.4.1-.2.3-.4.3-.6,0-.3.1-.6.1-.9s0-.7-.1-.9c0-.3-.2-.5-.3-.6-.1-.2-.3-.3-.5-.4s-.4-.1-.6-.1-.4,0-.6.1c-.2,0-.4.2-.5.4-.1.2-.3.4-.3.6s-.1.6-.1.9Z"/>
    <path class="st0" d="M530.3-656.1c.3,0,.7,0,1,.2.3.1.5.3.8.5.2.2.4.5.5.8.1.3.2.7.2,1.1s0,.8-.2,1.1c-.1.3-.3.6-.5.8-.2.2-.5.4-.8.5s-.6.2-1,.2-.7,0-1-.2c-.3-.1-.5-.3-.8-.5s-.4-.5-.5-.8c-.1-.3-.2-.7-.2-1.1s0-.8.2-1.1c.1-.3.3-.6.5-.8.2-.2.5-.4.8-.5.3-.1.6-.2,1-.2ZM528.7-653.4c0,.3,0,.6.1.9,0,.3.2.5.3.6s.3.3.5.4c.2,0,.4.1.6.1s.4,0,.6-.1c.2,0,.4-.2.5-.4.1-.2.3-.4.3-.6,0-.3.1-.6.1-.9s0-.7-.1-.9c0-.3-.2-.5-.3-.6-.1-.2-.3-.3-.5-.4s-.4-.1-.6-.1-.4,0-.6.1c-.2,0-.4.2-.5.4-.1.2-.3.4-.3.6s-.1.6-.1.9Z"/>
    <path class="st0" d="M534.5-650.9v-5.1h.7v2.3l2.1-2.3h.9l-2.1,2.3,2.3,2.8h-.9l-1.9-2.3-.4.5v1.9h-.7Z"/>
  </g>
  <path class="st0" d="M522-681.1h-3s-3.1,0-3.1,3.1v3.1h-2.7v2.8h2.8v8h3.1v-8.1h2.8v-2.7h-2.9v-2.4s0-1.3,1.3-1.3h1.8v-2.6Z"/>
  <line class="st2" x1="177.9" y1="-773.8" x2="44" y2="-773.8"/>
  <g>
    <g>
      <path class="st0" d="M78.6-806.3v-8.4h3.1c.6,0,1.2.1,1.6.3.4.2.8.5,1,.9.2.4.3.9.3,1.4s-.1,1-.3,1.4c-.2.4-.6.7-1,.9s-1,.3-1.6.3h-2.3v-1.2h2.1c.4,0,.7,0,1-.2.3-.1.4-.3.6-.5.1-.2.2-.5.2-.8s0-.6-.2-.8c-.1-.2-.3-.4-.6-.5-.3-.1-.6-.2-1-.2h-1.5v7.3h-1.4ZM83.4-806.3l-2-3.8h1.5l2.1,3.8h-1.6Z"/>
      <path class="st0" d="M88.5-806.3v-8.4h5.4v1.2h-4v2.4h3.7v1.2h-3.7v2.5h4v1.2h-5.4Z"/>
      <path class="st0" d="M100.7-806.2c-.6,0-1.2-.1-1.7-.3s-.8-.5-1.1-.9c-.3-.4-.4-.8-.4-1.4h1.4c0,.3.1.6.3.8.2.2.4.3.7.4.3,0,.6.1.9.1s.7,0,.9-.2c.3-.1.5-.3.6-.5.2-.2.2-.4.2-.7s0-.4-.2-.6c-.1-.2-.3-.3-.6-.4-.2-.1-.5-.2-.8-.3l-1-.3c-.7-.2-1.2-.5-1.6-.8-.4-.4-.6-.8-.6-1.4s.1-.9.4-1.3c.3-.4.6-.7,1.1-.9.5-.2,1-.3,1.5-.3s1.1.1,1.6.3c.4.2.8.5,1,.8s.4.8.4,1.2h-1.3c0-.4-.2-.7-.5-.9s-.7-.3-1.2-.3-.6,0-.9.2c-.2.1-.4.2-.6.4-.1.2-.2.4-.2.6s0,.5.2.6c.2.2.4.3.6.4.2,0,.5.2.7.2l.8.2c.3,0,.6.2.9.3.3.1.6.3.8.5.2.2.4.4.6.7.1.3.2.6.2,1s-.1.9-.4,1.3c-.2.4-.6.7-1.1.9-.5.2-1,.3-1.7.3Z"/>
      <path class="st0" d="M107.7-806.3v-8.4h5.4v1.2h-4v2.4h3.7v1.2h-3.7v2.5h4v1.2h-5.4Z"/>
      <path class="st0" d="M117-806.3v-8.4h3.1c.7,0,1.2.1,1.6.3.4.2.8.5,1,.9.2.4.3.9.3,1.4s-.1,1-.3,1.4c-.2.4-.6.7-1,.9s-1,.3-1.6.3h-2.3v-1.2h2.1c.4,0,.7,0,1-.2.3-.1.4-.3.6-.5.1-.2.2-.5.2-.8s0-.6-.2-.8c-.1-.2-.3-.4-.6-.5-.3-.1-.6-.2-1-.2h-1.5v7.3h-1.4ZM121.8-806.3l-2-3.8h1.5l2.1,3.8h-1.6Z"/>
      <path class="st0" d="M129.1-806.3l-3-8.4h1.5l1.6,4.6c.1.4.3.9.4,1.4.2.5.3,1.2.5,1.9h-.3c.2-.7.4-1.4.5-1.9.2-.5.3-1,.4-1.4l1.5-4.6h1.5l-3,8.4h-1.7Z"/>
      <path class="st0" d="M137.3-806.3v-8.4h5.4v1.2h-4v2.4h3.7v1.2h-3.7v2.5h4v1.2h-5.4Z"/>
    </g>
    <g>
      <path class="st0" d="M71.3-840.4c.6-.6,1.1-1.3,1.6-2.1h-4.4v-1.8h6.4v1.5c-.8,1.4-1.6,2.6-2.5,3.6.3.3.5.6.7.9h2.6v1.2c-.3,1.5-.6,2.7-1,3.5l-1.6-.6c.3-.6.5-1.4.7-2.2h-1.5v7.4c0,1.2-.6,1.8-1.7,1.8h-1.9l-.4-1.8c.6,0,1.1.1,1.6.1s.4-.2.4-.6v-6.9h-2.6v-1.8h3.1c-.7-.8-1.5-1.6-2.4-2.5l1.4-.9c.5.5.9.9,1.3,1.3ZM79.1-841.3c.2-.4.3-.8.4-1.1h-3.7v-1.8h9.5v1.8h-3.8c-.1.4-.2.8-.4,1.1h3.6v10.5h-2.1c1.2.7,2.2,1.5,3.1,2.2l-1.3,1.3c-.7-.8-1.8-1.6-3.1-2.5l1-1h-3.5l1.1,1c-1,1-2.2,1.9-3.7,2.6l-1.1-1.4c1.4-.6,2.5-1.4,3.4-2.2h-2.1v-10.5h2.7ZM82.7-838.4v-1.4h-4.5v1.4h4.5ZM82.7-835.4v-1.4h-4.5v1.4h4.5ZM82.7-833.9h-4.5v1.5h4.5v-1.5Z"/>
      <path class="st0" d="M93.3-831.9c-.1,1.7-.3,3.3-.7,4.6l-1.7-.5c.4-1.2.6-2.7.8-4.3l1.6.2ZM98.7-833.4l-1.7.4c0-.3-.1-.5-.2-.8-1.8.5-3.6.8-5.2,1l-.5-1.7c.3-.1.6-.3.9-.5.6-.6,1.4-1.5,2.3-2.8-.9,0-1.8.2-2.8.3l-.5-1.7c.3-.1.6-.4.8-.7,1-1.5,1.8-3.2,2.5-5l1.8.7c-.9,2-1.9,3.6-2.9,4.8.7,0,1.4-.2,2.1-.3.4-.7.9-1.5,1.4-2.4l1.7.7c-1.8,3-3.4,5.2-4.6,6.5.8-.2,1.7-.3,2.5-.5-.2-.5-.3-1-.5-1.5l1.6-.5c.5,1.1.9,2.4,1.2,3.9ZM96.3-828.2l-1.7.4c-.2-1.6-.3-3-.5-4.2l1.6-.3c.2,1.3.5,2.6.7,4.1ZM98.9-829.5l-1.5.7c-.3-1.3-.6-2.4-1-3.4l1.4-.5c.4,1,.8,2,1.1,3.2ZM102.6-844.5c-.2,1-.5,1.9-.8,2.9h6c0,6.6,0,10.7-.3,12.2-.2,1.4-1.1,2.1-2.8,2.1s-1.1,0-2.1-.1l-.5-1.8c.9,0,1.6,0,2.2,0s1.2-.4,1.3-1.2c.1-.9.2-4,.2-9.4h-4.9c-.6,1.1-1.3,2.1-2.1,3l-1.2-1.6c1.5-1.8,2.6-3.9,3.1-6.5l1.9.2ZM104.4-833.2l-1.6,1.1c-.7-1.3-1.7-2.8-2.9-4.4l1.5-1c1.3,1.6,2.3,3,3,4.2Z"/>
      <path class="st0" d="M121.4-843.3v-1.4h2v1.4h6.6v1.8h-6.6v1.2h5.5v1.8h-5.5v1.3h7.1v1.8h-8.6c-.6.9-1.4,1.7-2.3,2.4v3.4c1.3-.4,2.6-.9,3.8-1.4l.4,1.8c-2,.8-3.9,1.4-6,2l-.6-1.7c.3-.2.5-.4.5-.7v-2.1c-.9.5-1.9,1-3,1.5l-1.1-1.7c2.7-.9,4.8-2.1,6.2-3.5h-5.4v-1.8h7.1v-1.3h-5.5v-1.8h5.5v-1.2h-6.6v-1.8h6.6ZM129.9-833.5c-.9.9-2,1.7-3.1,2.2,1.2,1.1,2.7,1.9,4.5,2.4l-1.2,1.8c-3.4-1.2-5.8-3.4-7.2-6.6l1.5-.9c.3.8.7,1.5,1.2,2.1,1-.5,2-1.3,2.9-2.3l1.4,1.4Z"/>
      <path class="st0" d="M152.1-839.2v6.7h-5.8v1.1h7.3v1.7h-7.3v2.5h-2v-2.5h-7.3v-1.7h7.3v-1.1h-5.8v-6.7h13.7ZM144.6-844.2v4.2h-6.9v-4.2h6.9ZM142.7-842.8h-3.1v1.4h3.1v-1.4ZM144.2-836.5v-1.1h-3.9v1.1h3.9ZM144.2-835.1h-3.9v1.1h3.9v-1.1ZM152.8-844.2v4.2h-7v-4.2h7ZM146.2-836.5h3.9v-1.1h-3.9v1.1ZM150.1-835.1h-3.9v1.1h3.9v-1.1ZM150.9-842.8h-3.1v1.5h3.1v-1.5Z"/>
    </g>
  </g>
  <g>
    <g>
      <path class="st0" d="M12.4,44.1v-8.4h3.1c.6,0,1.2.1,1.6.3.4.2.8.5,1,.9.2.4.3.9.3,1.4s-.1,1-.3,1.4c-.2.4-.6.7-1,.9s-1,.3-1.6.3h-2.3v-1.2h2.1c.4,0,.7,0,1-.2.3-.1.4-.3.6-.5.1-.2.2-.5.2-.8s0-.6-.2-.8c-.1-.2-.3-.4-.6-.5-.3-.1-.6-.2-1-.2h-1.5v7.3h-1.4ZM17.2,44.1l-2-3.8h1.5l2.1,3.8h-1.6Z"/>
      <path class="st0" d="M22.3,44.1v-8.4h5.4v1.2h-4v2.4h3.7v1.2h-3.7v2.5h4v1.2h-5.4Z"/>
      <path class="st0" d="M34.5,44.2c-.6,0-1.2-.1-1.7-.3s-.8-.5-1.1-.9c-.3-.4-.4-.8-.4-1.4h1.4c0,.3.1.6.3.8.2.2.4.3.7.4.3,0,.6.1.9.1s.7,0,.9-.2c.3-.1.5-.3.6-.5.2-.2.2-.4.2-.7s0-.4-.2-.6c-.1-.2-.3-.3-.6-.4-.2-.1-.5-.2-.8-.3l-1-.3c-.7-.2-1.2-.5-1.6-.8-.4-.4-.6-.8-.6-1.4s.1-.9.4-1.3c.3-.4.6-.7,1.1-.9.5-.2,1-.3,1.5-.3s1.1.1,1.6.3c.4.2.8.5,1,.8s.4.8.4,1.2h-1.3c0-.4-.2-.7-.5-.9s-.7-.3-1.2-.3-.6,0-.9.2c-.2.1-.4.2-.6.4-.1.2-.2.4-.2.6s0,.5.2.6c.2.2.4.3.6.4.2,0,.5.2.7.2l.8.2c.3,0,.6.2.9.3.3.1.6.3.8.5.2.2.4.4.6.7.1.3.2.6.2,1s-.1.9-.4,1.3c-.2.4-.6.7-1.1.9-.5.2-1,.3-1.7.3Z"/>
      <path class="st0" d="M41.4,44.1v-8.4h5.4v1.2h-4v2.4h3.7v1.2h-3.7v2.5h4v1.2h-5.4Z"/>
      <path class="st0" d="M50.8,44.1v-8.4h3.1c.7,0,1.2.1,1.6.3.4.2.8.5,1,.9.2.4.3.9.3,1.4s-.1,1-.3,1.4c-.2.4-.6.7-1,.9s-1,.3-1.6.3h-2.3v-1.2h2.1c.4,0,.7,0,1-.2.3-.1.4-.3.6-.5.1-.2.2-.5.2-.8s0-.6-.2-.8c-.1-.2-.3-.4-.6-.5-.3-.1-.6-.2-1-.2h-1.5v7.3h-1.4ZM55.6,44.1l-2-3.8h1.5l2.1,3.8h-1.6Z"/>
      <path class="st0" d="M62.9,44.1l-3-8.4h1.5l1.6,4.6c.1.4.3.9.4,1.4.2.5.3,1.2.5,1.9h-.3c.2-.7.4-1.4.5-1.9.2-.5.3-1,.4-1.4l1.5-4.6h1.5l-3,8.4h-1.7Z"/>
      <path class="st0" d="M71.1,44.1v-8.4h5.4v1.2h-4v2.4h3.7v1.2h-3.7v2.5h4v1.2h-5.4Z"/>
    </g>
    <g>
      <path class="st0" d="M5.1,5.1c.6-.6,1.1-1.3,1.6-2.1H2.2v-1.8h6.4v1.5c-.8,1.4-1.6,2.6-2.5,3.6.3.3.5.6.7.9h2.6v1.2c-.3,1.5-.6,2.7-1,3.5l-1.6-.6c.3-.6.5-1.4.7-2.2h-1.5v7.4c0,1.2-.6,1.8-1.7,1.8h-1.9l-.4-1.8c.6,0,1.1.1,1.6.1s.4-.2.4-.6v-6.9H1.6v-1.8h3.1c-.7-.8-1.5-1.6-2.4-2.5l1.4-.9c.5.5.9.9,1.3,1.3ZM12.8,4.1c.2-.4.3-.8.4-1.1h-3.7v-1.8h9.5v1.8h-3.8c-.1.4-.2.8-.4,1.1h3.6v10.5h-2.1c1.2.7,2.2,1.5,3.1,2.2l-1.3,1.3c-.7-.8-1.8-1.6-3.1-2.5l1-1h-3.5l1.1,1c-1,1-2.2,1.9-3.7,2.6l-1.1-1.4c1.4-.6,2.5-1.4,3.4-2.2h-2.1V4.1h2.7ZM16.5,7.1v-1.4h-4.5v1.4h4.5ZM16.5,10v-1.4h-4.5v1.4h4.5ZM16.5,11.5h-4.5v1.5h4.5v-1.5Z"/>
      <path class="st0" d="M27.1,13.5c-.1,1.7-.3,3.3-.7,4.6l-1.7-.5c.4-1.2.6-2.7.8-4.3l1.6.2ZM32.5,12l-1.7.4c0-.3-.1-.5-.2-.8-1.8.5-3.6.8-5.2,1l-.5-1.7c.3-.1.6-.3.9-.5.6-.6,1.4-1.5,2.3-2.8-.9,0-1.8.2-2.8.3l-.5-1.7c.3-.1.6-.4.8-.7,1-1.5,1.8-3.2,2.5-5l1.8.7c-.9,2-1.9,3.6-2.9,4.8.7,0,1.4-.2,2.1-.3.4-.7.9-1.5,1.4-2.4l1.7.7c-1.8,3-3.4,5.2-4.6,6.5.8-.2,1.7-.3,2.5-.5-.2-.5-.3-1-.5-1.5l1.6-.5c.5,1.1.9,2.4,1.2,3.9ZM30.1,17.2l-1.7.4c-.2-1.6-.3-3-.5-4.2l1.6-.3c.2,1.3.5,2.6.7,4.1ZM32.7,15.9l-1.5.7c-.3-1.3-.6-2.4-1-3.4l1.4-.5c.4,1,.8,2,1.1,3.2ZM36.4.9c-.2,1-.5,1.9-.8,2.9h6c0,6.6,0,10.7-.3,12.2-.2,1.4-1.1,2.1-2.8,2.1s-1.1,0-2.1-.1l-.5-1.8c.9,0,1.6,0,2.2,0s1.2-.4,1.3-1.2c.1-.9.2-4,.2-9.4h-4.9c-.6,1.1-1.3,2.1-2.1,3l-1.2-1.6c1.5-1.8,2.6-3.9,3.1-6.5l1.9.2ZM38.1,12.2l-1.6,1.1c-.7-1.3-1.7-2.8-2.9-4.4l1.5-1c1.3,1.6,2.3,3,3,4.2Z"/>
      <path class="st0" d="M55.1,2.1V.7h2v1.4h6.6v1.8h-6.6v1.2h5.5v1.8h-5.5v1.3h7.1v1.8h-8.6c-.6.9-1.4,1.7-2.3,2.4v3.4c1.3-.4,2.6-.9,3.8-1.4l.4,1.8c-2,.8-3.9,1.4-6,2l-.6-1.7c.3-.2.5-.4.5-.7v-2.1c-.9.5-1.9,1-3,1.5l-1.1-1.7c2.7-.9,4.8-2.1,6.2-3.5h-5.4v-1.8h7.1v-1.3h-5.5v-1.8h5.5v-1.2h-6.6v-1.8h6.6ZM63.7,11.9c-.9.9-2,1.7-3.1,2.2,1.2,1.1,2.7,1.9,4.5,2.4l-1.2,1.8c-3.4-1.2-5.8-3.4-7.2-6.6l1.5-.9c.3.8.7,1.5,1.2,2.1,1-.5,2-1.3,2.9-2.3l1.4,1.4Z"/>
      <path class="st0" d="M85.9,6.3v6.7h-5.8v1.1h7.3v1.7h-7.3v2.5h-2v-2.5h-7.3v-1.7h7.3v-1.1h-5.8v-6.7h13.7ZM78.4,1.2v4.2h-6.9V1.2h6.9ZM76.5,2.6h-3.1v1.4h3.1v-1.4ZM78,8.9v-1.1h-3.9v1.1h3.9ZM78,10.3h-3.9v1.1h3.9v-1.1ZM86.6,1.2v4.2h-7V1.2h7ZM80,8.9h3.9v-1.1h-3.9v1.1ZM83.9,10.3h-3.9v1.1h3.9v-1.1ZM84.6,2.6h-3.1v1.5h3.1v-1.5Z"/>
    </g>
  </g>
  <g>
    <path class="st0" d="M61.5-77.9h1.1v6.6h3.2v.9h-4.3v-7.5Z"/>
    <path class="st0" d="M71.1-78c.5,0,1,0,1.4.2.4.2.8.4,1.1.7.3.3.6.7.7,1.2.2.5.3,1,.3,1.7s0,1.2-.3,1.7c-.2.5-.4.9-.8,1.2-.3.3-.7.6-1.1.7s-.9.2-1.4.2-1,0-1.4-.2c-.4-.2-.8-.4-1.1-.7s-.6-.7-.7-1.2c-.2-.5-.3-1-.3-1.7s0-1.2.3-1.7c.2-.5.4-.9.8-1.2.3-.3.7-.6,1.1-.7.4-.2.9-.2,1.4-.2ZM68.7-74.1c0,.5,0,.9.2,1.3.1.4.3.7.5.9s.5.4.8.5c.3.1.6.2.9.2s.6,0,.9-.2c.3-.1.5-.3.7-.5.2-.2.4-.6.5-.9.1-.4.2-.8.2-1.3s0-1-.2-1.3c-.1-.4-.3-.7-.5-.9-.2-.2-.5-.4-.8-.5s-.6-.2-.9-.2-.6,0-.9.2c-.3.1-.5.3-.7.5-.2.2-.4.6-.5.9s-.2.8-.2,1.3Z"/>
    <path class="st0" d="M80.5-71.2c.4,0,.7,0,1,0,.3,0,.5-.2.8-.3l.2.9c-.3.1-.6.2-.9.3-.3,0-.7,0-1.2,0s-1,0-1.4-.2c-.4-.2-.8-.4-1.1-.7-.3-.3-.6-.7-.8-1.2-.2-.5-.3-1-.3-1.7s0-1.2.3-1.6c.2-.5.4-.9.8-1.2.3-.3.7-.6,1.2-.7.4-.2.9-.3,1.5-.3s.9,0,1.2.1c.3,0,.6.2.9.3l-.3.9c-.2,0-.3-.1-.4-.2-.1,0-.3,0-.4-.1-.1,0-.3,0-.4,0-.1,0-.3,0-.5,0-.3,0-.7,0-1,.2-.3.1-.6.3-.8.5s-.4.5-.6.9c-.1.4-.2.8-.2,1.4s0,1,.2,1.4c.1.4.3.7.5.9.2.2.5.4.8.5s.6.2,1,.2Z"/>
    <path class="st0" d="M87.2-77.9h1l3,7.5h-1.1l-.8-2.1h-3.1l-.8,2.1h-1.1l3-7.5ZM86.4-73.3h2.5l-.5-1.3c-.1-.3-.3-.7-.4-1s-.2-.6-.3-1h0c-.1.3-.2.7-.3,1s-.2.6-.4,1l-.5,1.3Z"/>
    <path class="st0" d="M97.4-77.9v.9h-2.3v6.6h-1.1v-6.6h-2.3v-.9h5.7Z"/>
    <path class="st0" d="M100.8-77.9v7.5h-1.1v-7.5h1.1Z"/>
    <path class="st0" d="M107-78c.5,0,1,0,1.4.2.4.2.8.4,1.1.7.3.3.6.7.7,1.2.2.5.3,1,.3,1.7s0,1.2-.3,1.7c-.2.5-.4.9-.8,1.2-.3.3-.7.6-1.1.7s-.9.2-1.4.2-1,0-1.4-.2c-.4-.2-.8-.4-1.1-.7s-.6-.7-.7-1.2c-.2-.5-.3-1-.3-1.7s0-1.2.3-1.7c.2-.5.4-.9.8-1.2.3-.3.7-.6,1.1-.7.4-.2.9-.2,1.4-.2ZM104.6-74.1c0,.5,0,.9.2,1.3.1.4.3.7.5.9s.5.4.8.5c.3.1.6.2.9.2s.6,0,.9-.2c.3-.1.5-.3.7-.5.2-.2.4-.6.5-.9.1-.4.2-.8.2-1.3s0-1-.2-1.3c-.1-.4-.3-.7-.5-.9-.2-.2-.5-.4-.8-.5s-.6-.2-.9-.2-.6,0-.9.2c-.3.1-.5.3-.7.5-.2.2-.4.6-.5.9s-.2.8-.2,1.3Z"/>
    <path class="st0" d="M113.2-77.9h1l3.4,4.7c.1.2.2.4.4.5.1.2.2.4.3.5h0c0-.3,0-.6,0-.8s0-.6,0-.8v-4.1h1.1v7.5h-1l-3.4-4.7c-.1-.2-.2-.4-.4-.6-.1-.2-.2-.4-.4-.6h0c0,.3,0,.7,0,1,0,.3,0,.7,0,1v3.9h-1.1v-7.5Z"/>
  </g>
  <path class="st0" d="M23.1-78.4c0-5.7-4.4-10.2-9.9-10.2s-9.9,4.6-9.9,10.2.3,2.6.7,3.8h0l.2.3c.3.7.6,1.3,1.1,1.9l3.4,6,4.6,8.3,4.6-8.3,3.4-6c.4-.6.8-1.2,1.1-1.9l.2-.3h0c.4-1.2.7-2.4.7-3.8ZM13.2-72.5c-3.1,0-5.7-2.6-5.7-5.9s2.5-5.9,5.7-5.9,5.7,2.6,5.7,5.9-2.5,5.9-5.7,5.9Z"/>
  <path class="st0" d="M206.3-92.3h-5s-5.3,0-5.3,5.2v5.3h-4.5v4.6h4.6v13.4h5.2v-13.5h4.6v-4.5h-4.8v-4s-.1-2.2,2.2-2.2h3.1v-4.4Z"/>
  <g>
    <path class="st0" d="M243.4-78.7v.9h-3.3v2.4h3.1v.9h-3.1v3.3h-1.1v-7.5h4.4Z"/>
    <path class="st0" d="M247.6-78.7h1l3,7.5h-1.1l-.8-2.1h-3.1l-.8,2.1h-1.1l3-7.5ZM246.8-74.2h2.5l-.5-1.3c-.1-.3-.3-.7-.4-1s-.2-.6-.3-1h0c-.1.3-.2.7-.3,1s-.2.6-.4,1l-.5,1.3Z"/>
    <path class="st0" d="M256.7-72c.4,0,.7,0,1,0,.3,0,.5-.2.8-.3l.2.9c-.3.1-.6.2-.9.3-.3,0-.7,0-1.2,0s-1,0-1.4-.2c-.4-.2-.8-.4-1.1-.7-.3-.3-.6-.7-.8-1.2-.2-.5-.3-1-.3-1.7s0-1.2.3-1.6c.2-.5.4-.9.8-1.2.3-.3.7-.6,1.2-.7.4-.2.9-.3,1.5-.3s.9,0,1.2.1c.3,0,.6.2.9.3l-.3.9c-.2,0-.3-.1-.4-.2-.1,0-.3,0-.4-.1-.1,0-.3,0-.4,0-.1,0-.3,0-.5,0-.3,0-.7,0-1,.2-.3.1-.6.3-.8.5s-.4.5-.6.9c-.1.4-.2.8-.2,1.4s0,1,.2,1.4c.1.4.3.7.5.9.2.2.5.4.8.5s.6.2,1,.2Z"/>
    <path class="st0" d="M261.3-78.7h4.5v.9h-3.4v2.2h3.1v.9h-3.1v2.5h3.5v.9h-4.6v-7.5Z"/>
    <path class="st0" d="M270.7-78.7c.7,0,1.3.2,1.7.5s.6.8.6,1.4-.1.8-.4,1.1c-.3.3-.6.4-1,.5.2,0,.4.1.6.2.2,0,.4.2.5.4.1.2.3.3.3.6,0,.2.1.5.1.7s0,.6-.2.8-.3.5-.6.7-.5.3-.8.4c-.3.1-.7.2-1.1.2h-2.2v-7.5h2.3ZM269.6-75.6h.9c.2,0,.4,0,.6,0,.2,0,.3,0,.5-.2.1,0,.2-.2.3-.4,0-.1.1-.3.1-.6,0-.4-.1-.7-.4-.8-.3-.2-.6-.3-1-.3h-1v2.2ZM269.6-72.1h1c.2,0,.4,0,.6,0,.2,0,.4-.1.5-.2.2-.1.3-.2.4-.4,0-.2.1-.4.1-.6s0-.4-.2-.6c-.1-.2-.2-.3-.4-.4-.2-.1-.4-.2-.6-.2-.2,0-.4,0-.7,0h-.8v2.6Z"/>
    <path class="st0" d="M279.2-78.8c.5,0,1,0,1.4.2.4.2.8.4,1.1.7.3.3.6.7.7,1.2.2.5.3,1,.3,1.7s0,1.2-.3,1.7c-.2.5-.4.9-.8,1.2-.3.3-.7.6-1.1.7s-.9.2-1.4.2-1,0-1.4-.2c-.4-.2-.8-.4-1.1-.7s-.6-.7-.7-1.2c-.2-.5-.3-1-.3-1.7s0-1.2.3-1.7c.2-.5.4-.9.8-1.2.3-.3.7-.6,1.1-.7.4-.2.9-.2,1.4-.2ZM276.8-75c0,.5,0,.9.2,1.3.1.4.3.7.5.9s.5.4.8.5c.3.1.6.2.9.2s.6,0,.9-.2c.3-.1.5-.3.7-.5.2-.2.4-.6.5-.9.1-.4.2-.8.2-1.3s0-1-.2-1.3c-.1-.4-.3-.7-.5-.9-.2-.2-.5-.4-.8-.5s-.6-.2-.9-.2-.6,0-.9.2c-.3.1-.5.3-.7.5-.2.2-.4.6-.5.9s-.2.8-.2,1.3Z"/>
    <path class="st0" d="M288.6-78.8c.5,0,1,0,1.4.2.4.2.8.4,1.1.7.3.3.6.7.7,1.2.2.5.3,1,.3,1.7s0,1.2-.3,1.7c-.2.5-.4.9-.8,1.2-.3.3-.7.6-1.1.7s-.9.2-1.4.2-1,0-1.4-.2c-.4-.2-.8-.4-1.1-.7s-.6-.7-.7-1.2c-.2-.5-.3-1-.3-1.7s0-1.2.3-1.7c.2-.5.4-.9.8-1.2.3-.3.7-.6,1.1-.7.4-.2.9-.2,1.4-.2ZM286.2-75c0,.5,0,.9.2,1.3.1.4.3.7.5.9s.5.4.8.5c.3.1.6.2.9.2s.6,0,.9-.2c.3-.1.5-.3.7-.5.2-.2.4-.6.5-.9.1-.4.2-.8.2-1.3s0-1-.2-1.3c-.1-.4-.3-.7-.5-.9-.2-.2-.5-.4-.8-.5s-.6-.2-.9-.2-.6,0-.9.2c-.3.1-.5.3-.7.5-.2.2-.4.6-.5.9s-.2.8-.2,1.3Z"/>
    <path class="st0" d="M294.8-71.2v-7.5h1.1v3.4l3.2-3.4h1.4l-3.1,3.3,3.3,4.2h-1.4l-2.7-3.4-.6.7v2.7h-1.1Z"/>
  </g>
  <path class="st0" d="M364.7-84c-4-5.2-12-6.1-17.5-3-3,1.7-5.1,4.7-5.8,8.1-.9,4.3,1.3,8.3,4.5,11.1v5c-.1,0,4.7-2.6,4.7-2.6.3-.2,1.9.3,2.3.3,1.8.1,3.6,0,5.3-.5,4.6-1.3,8.2-5.4,8.8-10.2.4-2.9-.5-5.9-2.2-8.3ZM355.5-72.9l-3.5-3.5-6.3,3.3,7-7,3.4,3.4,6.2-3.4-6.8,7.2Z"/>
  <g>
    <path class="st0" d="M405.5-82.6h1.4l1.6,4.8c0,.2.2.5.2.7,0,.2.1.4.2.7h0c0-.2.1-.4.2-.6s.1-.4.2-.7l1.5-4.8h1.4l.7,7.5h-1.1l-.3-4c0-.4,0-.8,0-1.2,0-.4,0-.8,0-1.2h0c-.1.4-.2.8-.3,1.2s-.2.8-.4,1.2l-1.3,4h-1l-1.3-4c-.1-.4-.3-.8-.4-1.2-.1-.4-.2-.8-.3-1.2h0c0,.4,0,.8,0,1.2,0,.4,0,.8,0,1.2l-.3,4h-1.1l.6-7.5Z"/>
    <path class="st0" d="M415.9-82.6h4.5v.9h-3.4v2.2h3.1v.9h-3.1v2.5h3.5v.9h-4.6v-7.5Z"/>
    <path class="st0" d="M425.2-82.7c.4,0,.7,0,1.1,0,.3,0,.7.2,1,.3l-.3.9c-.3-.2-.6-.3-.9-.3-.3,0-.6-.1-.8-.1-.5,0-.8,0-1.1.3-.3.2-.4.5-.4.8s0,.5.3.7c.2.2.5.3,1,.5l.8.2c.7.2,1.2.5,1.4.9.3.4.4.8.4,1.2s0,.6-.2.9c-.1.3-.3.5-.5.7s-.5.3-.8.4c-.3,0-.7.1-1,.1s-.8,0-1.2-.1c-.4,0-.8-.2-1.2-.4l.3-.9c.3.2.7.3,1,.4.3,0,.7.1,1,.1s.8,0,1.1-.3c.3-.2.5-.5.5-.9s0-.3,0-.4c0-.1-.1-.2-.2-.4s-.3-.2-.4-.3-.4-.2-.7-.3l-.8-.2c-.5-.2-1-.4-1.3-.7-.3-.3-.4-.7-.4-1.2s.2-1.2.6-1.6c.4-.4,1.1-.6,1.9-.6Z"/>
    <path class="st0" d="M432.2-82.7c.4,0,.7,0,1.1,0,.3,0,.7.2,1,.3l-.3.9c-.3-.2-.6-.3-.9-.3-.3,0-.6-.1-.8-.1-.5,0-.8,0-1.1.3-.3.2-.4.5-.4.8s0,.5.3.7c.2.2.5.3,1,.5l.8.2c.7.2,1.2.5,1.4.9.3.4.4.8.4,1.2s0,.6-.2.9c-.1.3-.3.5-.5.7s-.5.3-.8.4c-.3,0-.7.1-1,.1s-.8,0-1.2-.1c-.4,0-.8-.2-1.2-.4l.3-.9c.3.2.7.3,1,.4.3,0,.7.1,1,.1s.8,0,1.1-.3c.3-.2.5-.5.5-.9s0-.3,0-.4c0-.1-.1-.2-.2-.4s-.3-.2-.4-.3-.4-.2-.7-.3l-.8-.2c-.5-.2-1-.4-1.3-.7-.3-.3-.4-.7-.4-1.2s.2-1.2.6-1.6c.4-.4,1.1-.6,1.9-.6Z"/>
    <path class="st0" d="M439.3-82.6h1l3,7.5h-1.1l-.8-2.1h-3.1l-.8,2.1h-1.1l3-7.5ZM438.5-78h2.5l-.5-1.3c-.1-.3-.3-.7-.4-1s-.2-.6-.3-1h0c-.1.3-.2.7-.3,1s-.2.6-.4,1l-.5,1.3Z"/>
    <path class="st0" d="M448.5-82.7c.4,0,.8,0,1.2,0s.7.2,1,.3l-.3.9c-.3-.1-.6-.2-.9-.3-.3,0-.6,0-.9,0s-.7,0-1,.2c-.3.1-.6.3-.8.5-.2.2-.4.5-.6.9-.1.4-.2.8-.2,1.4,0,1,.2,1.7.7,2.2s1.1.7,1.8.7.6,0,.8,0c.2,0,.4,0,.6-.2v-2.1h-1.4v-.9h2.4v3.6c-.3.1-.7.2-1.1.3-.4,0-.8.1-1.4.1s-1,0-1.4-.2c-.4-.2-.8-.4-1.2-.7-.3-.3-.6-.7-.8-1.2-.2-.5-.3-1-.3-1.7s0-1.2.3-1.7c.2-.5.4-.9.8-1.2.3-.3.7-.6,1.2-.7.5-.2.9-.2,1.5-.2Z"/>
    <path class="st0" d="M453.8-82.6h4.5v.9h-3.4v2.2h3.1v.9h-3.1v2.5h3.5v.9h-4.6v-7.5Z"/>
  </g>
  <path class="st0" d="M492.3-63.2c1.7-.3,3.4-1.2,4.9-2.2,5.3-3.6,8.7-8.5,10-14.8.4-2,.4-4.1-.8-5.9-1-1.6-2.5-2.4-4.4-2.3-.6,0-.9.2-1.2.8-.6,1.5-1.2,3.1-1.8,4.6-.4,1-.3,1.2.6,1.8.7.5,1.4,1,2.1,1.5.5.3.6.7.4,1.2-1.2,3.9-3.5,6.9-6.9,9.1-.5.3-.9.3-1.4,0-.7-.6-1.4-1.2-2.1-1.8-.4-.4-.9-.5-1.4,0-1.5,1.1-2.9,2.2-4.4,3.3-.4.3-.4.8-.3,1.3.9,2.8,3.2,4.2,6.5,3.7Z"/>
  <g>
    <path class="st0" d="M542-72.8c.4,0,.7,0,1,0,.3,0,.5-.2.8-.3l.2.9c-.3.1-.6.2-.9.3-.3,0-.7,0-1.2,0s-1,0-1.4-.2c-.4-.2-.8-.4-1.1-.7-.3-.3-.6-.7-.8-1.2-.2-.5-.3-1-.3-1.7s0-1.2.3-1.6c.2-.5.4-.9.8-1.2.3-.3.7-.6,1.2-.7.4-.2.9-.3,1.5-.3s.9,0,1.2.1c.3,0,.6.2.9.3l-.3.9c-.2,0-.3-.1-.4-.2-.1,0-.3,0-.4-.1-.1,0-.3,0-.4,0-.1,0-.3,0-.5,0-.3,0-.7,0-1,.2-.3.1-.6.3-.8.5s-.4.5-.6.9c-.1.4-.2.8-.2,1.4s0,1,.2,1.4c.1.4.3.7.5.9.2.2.5.4.8.5s.6.2,1,.2Z"/>
    <path class="st0" d="M549.5-79.6c.5,0,1,0,1.4.2.4.2.8.4,1.1.7.3.3.6.7.7,1.2.2.5.3,1,.3,1.7s0,1.2-.3,1.7c-.2.5-.4.9-.8,1.2-.3.3-.7.6-1.1.7s-.9.2-1.4.2-1,0-1.4-.2c-.4-.2-.8-.4-1.1-.7s-.6-.7-.7-1.2c-.2-.5-.3-1-.3-1.7s0-1.2.3-1.7c.2-.5.4-.9.8-1.2.3-.3.7-.6,1.1-.7.4-.2.9-.2,1.4-.2ZM547.1-75.8c0,.5,0,.9.2,1.3.1.4.3.7.5.9s.5.4.8.5c.3.1.6.2.9.2s.6,0,.9-.2c.3-.1.5-.3.7-.5.2-.2.4-.6.5-.9.1-.4.2-.8.2-1.3s0-1-.2-1.3c-.1-.4-.3-.7-.5-.9-.2-.2-.5-.4-.8-.5s-.6-.2-.9-.2-.6,0-.9.2c-.3.1-.5.3-.7.5-.2.2-.4.6-.5.9s-.2.8-.2,1.3Z"/>
    <path class="st0" d="M555.7-79.5h1l3.4,4.7c.1.2.2.4.4.5.1.2.2.4.3.5h0c0-.3,0-.6,0-.8s0-.6,0-.8v-4.1h1.1v7.5h-1l-3.4-4.7c-.1-.2-.2-.4-.4-.6-.1-.2-.2-.4-.4-.6h0c0,.3,0,.7,0,1,0,.3,0,.7,0,1v3.9h-1.1v-7.5Z"/>
    <path class="st0" d="M569.8-79.5v.9h-2.3v6.6h-1.1v-6.6h-2.3v-.9h5.7Z"/>
    <path class="st0" d="M573.3-79.5h1l3,7.5h-1.1l-.8-2.1h-3.1l-.8,2.1h-1.1l3-7.5ZM572.5-75h2.5l-.5-1.3c-.1-.3-.3-.7-.4-1s-.2-.6-.3-1h0c-.1.3-.2.7-.3,1s-.2.6-.4,1l-.5,1.3Z"/>
    <path class="st0" d="M582.5-72.8c.4,0,.7,0,1,0,.3,0,.5-.2.8-.3l.2.9c-.3.1-.6.2-.9.3-.3,0-.7,0-1.2,0s-1,0-1.4-.2c-.4-.2-.8-.4-1.1-.7-.3-.3-.6-.7-.8-1.2-.2-.5-.3-1-.3-1.7s0-1.2.3-1.6c.2-.5.4-.9.8-1.2.3-.3.7-.6,1.2-.7.4-.2.9-.3,1.5-.3s.9,0,1.2.1c.3,0,.6.2.9.3l-.3.9c-.2,0-.3-.1-.4-.2-.1,0-.3,0-.4-.1-.1,0-.3,0-.4,0-.1,0-.3,0-.5,0-.3,0-.7,0-1,.2-.3.1-.6.3-.8.5s-.4.5-.6.9c-.1.4-.2.8-.2,1.4s0,1,.2,1.4c.1.4.3.7.5.9.2.2.5.4.8.5s.6.2,1,.2Z"/>
    <path class="st0" d="M591.9-79.5v.9h-2.3v6.6h-1.1v-6.6h-2.3v-.9h5.7Z"/>
    <path class="st0" d="M597.9-79.5h1.1v4.5c0,.8.1,1.4.4,1.7.3.3.8.5,1.4.5s1.1-.2,1.4-.6c.3-.4.4-.9.4-1.5v-4.6h1.1v4.6c0,1-.3,1.8-.8,2.3-.5.5-1.2.7-2.2.7s-1.7-.2-2.2-.7c-.5-.5-.8-1.3-.8-2.3v-4.5Z"/>
    <path class="st0" d="M609-79.6c.4,0,.7,0,1.1,0,.3,0,.7.2,1,.3l-.3.9c-.3-.2-.6-.3-.9-.3-.3,0-.6-.1-.8-.1-.5,0-.8,0-1.1.3-.3.2-.4.5-.4.8s0,.5.3.7c.2.2.5.3,1,.5l.8.2c.7.2,1.2.5,1.4.9.3.4.4.8.4,1.2s0,.6-.2.9c-.1.3-.3.5-.5.7s-.5.3-.8.4c-.3,0-.7.1-1,.1s-.8,0-1.2-.1c-.4,0-.8-.2-1.2-.4l.3-.9c.3.2.7.3,1,.4.3,0,.7.1,1,.1s.8,0,1.1-.3c.3-.2.5-.5.5-.9s0-.3,0-.4c0-.1-.1-.2-.2-.4s-.3-.2-.4-.3-.4-.2-.7-.3l-.8-.2c-.5-.2-1-.4-1.3-.7-.3-.3-.4-.7-.4-1.2s.2-1.2.6-1.6c.4-.4,1.1-.6,1.9-.6Z"/>
  </g>
</svg>