<svg width="58" height="9" viewBox="0 0 58 9" fill="none" xmlns="http://www.w3.org/2000/svg">
<path d="M0.139648 0.630005H1.23965V7.19001H4.44965V8.12001H0.149651V0.630005H0.139648Z" fill="#D15E52"/>
<path d="M9.73969 0.520004C10.2497 0.520004 10.7197 0.600002 11.1497 0.760002C11.5797 0.920002 11.9497 1.16001 12.2597 1.49001C12.5697 1.81001 12.8197 2.21 12.9897 2.69C13.1597 3.17 13.2497 3.73 13.2497 4.37C13.2497 5.01 13.1597 5.55 12.9797 6.03C12.7997 6.51 12.5497 6.91 12.2297 7.24C11.9097 7.57 11.5397 7.81001 11.0997 7.98001C10.6597 8.15001 10.1997 8.23001 9.68969 8.23001C9.17969 8.23001 8.70969 8.15 8.27969 7.99C7.84969 7.83 7.47969 7.59 7.16969 7.27C6.85969 6.95 6.60969 6.55 6.43969 6.07C6.26969 5.59 6.17969 5.03 6.17969 4.39C6.17969 3.75 6.26968 3.21 6.44968 2.73C6.62968 2.25 6.87968 1.85 7.19968 1.52C7.51968 1.2 7.88969 0.950003 8.32969 0.780003C8.75969 0.610003 9.22969 0.530003 9.73969 0.530003V0.520004ZM7.36969 4.37C7.36969 4.88 7.42969 5.32 7.54969 5.69C7.66969 6.06 7.83968 6.37001 8.05968 6.62001C8.27968 6.87001 8.52969 7.05 8.81969 7.17C9.10969 7.29 9.41969 7.35 9.73969 7.35C10.0597 7.35 10.3697 7.29 10.6497 7.17C10.9297 7.05 11.1797 6.87001 11.3897 6.62001C11.5997 6.37001 11.7697 6.07 11.8797 5.69C11.9997 5.32 12.0597 4.88 12.0597 4.37C12.0597 3.86 11.9997 3.4 11.8797 3.03C11.7597 2.66 11.5897 2.35 11.3697 2.11C11.1597 1.87 10.8997 1.69001 10.6097 1.58001C10.3197 1.47001 10.0097 1.41 9.68969 1.41C9.36969 1.41 9.05968 1.47 8.76968 1.59C8.47968 1.71 8.23969 1.89 8.02969 2.14C7.81969 2.39 7.65969 2.69 7.53969 3.07C7.41969 3.45 7.35969 3.88 7.35969 4.39L7.36969 4.37Z" fill="#D15E52"/>
<path d="M19.23 7.32C19.63 7.32 19.95 7.29 20.21 7.23C20.47 7.17 20.72 7.08 20.98 6.96L21.23 7.84C20.95 7.97 20.65 8.07 20.32 8.14C19.99 8.2 19.59 8.24 19.11 8.24C18.63 8.24 18.15 8.16 17.72 7.99C17.28 7.82 16.9 7.58 16.58 7.25C16.26 6.93 16 6.52 15.82 6.04C15.63 5.56 15.54 5.01 15.54 4.38C15.54 3.75 15.63 3.23 15.81 2.75C15.99 2.27 16.24 1.87 16.57 1.54C16.89 1.21 17.28 0.960001 17.72 0.790001C18.16 0.620001 18.65 0.529999 19.17 0.529999C19.66 0.529999 20.07 0.570002 20.39 0.650002C20.71 0.730002 21 0.840001 21.27 0.970001L21.01 1.83C20.86 1.77 20.72 1.71 20.59 1.66C20.46 1.61 20.33 1.57 20.2 1.54C20.07 1.51 19.93 1.48 19.79 1.47C19.65 1.45 19.49 1.45 19.32 1.45C18.97 1.45 18.64 1.5 18.32 1.61C18.01 1.72 17.73 1.89 17.5 2.13C17.27 2.37 17.08 2.67 16.94 3.05C16.8 3.43 16.73 3.88 16.73 4.41C16.73 4.94 16.8 5.4 16.93 5.78C17.07 6.15 17.25 6.45 17.47 6.68C17.7 6.91 17.96 7.08 18.26 7.18C18.56 7.28 18.88 7.34 19.22 7.34L19.23 7.32Z" fill="#D15E52"/>
<path d="M25.8999 0.630005H26.8799L29.8699 8.12001H28.7299L27.9099 6.04H24.8199L24.0099 8.12001H22.8799L25.9099 0.630005H25.8999ZM25.1099 5.17H27.5799L27.0799 3.87C26.9499 3.53 26.8199 3.2 26.7099 2.88C26.5999 2.56 26.4899 2.24 26.3799 1.91H26.3599C26.2499 2.24 26.1299 2.56 26.0099 2.87C25.8899 3.18 25.7599 3.51 25.6299 3.87L25.1199 5.17H25.1099Z" fill="#D15E52"/>
<path d="M36.0996 0.630005V1.56001H33.7496V8.12001H32.6496V1.56001H30.3496V0.630005H36.0896H36.0996Z" fill="#D15E52"/>
<path d="M39.4496 0.630005V8.12001H38.3496V0.630005H39.4496Z" fill="#D15E52"/>
<path d="M45.6899 0.520004C46.1999 0.520004 46.6699 0.600002 47.0999 0.760002C47.5299 0.920002 47.8999 1.16001 48.2099 1.49001C48.5199 1.81001 48.7699 2.21 48.9399 2.69C49.1099 3.17 49.1999 3.73 49.1999 4.37C49.1999 5.01 49.1099 5.55 48.9299 6.03C48.7499 6.51 48.4999 6.91 48.1799 7.24C47.8599 7.57 47.4899 7.81001 47.0499 7.98001C46.6099 8.15001 46.1499 8.23001 45.6399 8.23001C45.1299 8.23001 44.6599 8.15 44.2299 7.99C43.7999 7.83 43.4299 7.59 43.1199 7.27C42.8099 6.95 42.5599 6.55 42.3899 6.07C42.2199 5.59 42.1299 5.03 42.1299 4.39C42.1299 3.75 42.2199 3.21 42.3999 2.73C42.5799 2.25 42.8299 1.85 43.1499 1.52C43.4699 1.2 43.8399 0.950003 44.2799 0.780003C44.7099 0.610003 45.1799 0.530003 45.6899 0.530003V0.520004ZM43.3199 4.37C43.3199 4.88 43.3799 5.32 43.4999 5.69C43.6199 6.06 43.7899 6.37001 44.0099 6.62001C44.2299 6.87001 44.4799 7.05 44.7699 7.17C45.0599 7.29 45.3699 7.35 45.6899 7.35C46.0099 7.35 46.3199 7.29 46.5999 7.17C46.8799 7.05 47.1299 6.87001 47.3399 6.62001C47.5499 6.37001 47.7199 6.07 47.8299 5.69C47.9499 5.32 48.0099 4.88 48.0099 4.37C48.0099 3.86 47.9499 3.4 47.8299 3.03C47.7099 2.66 47.5399 2.35 47.3199 2.11C47.1099 1.87 46.8499 1.69001 46.5599 1.58001C46.2699 1.47001 45.9599 1.41 45.6399 1.41C45.3199 1.41 45.0099 1.47 44.7199 1.59C44.4299 1.71 44.1899 1.89 43.9799 2.14C43.7699 2.39 43.6099 2.69 43.4899 3.07C43.3699 3.45 43.3099 3.88 43.3099 4.39L43.3199 4.37Z" fill="#D15E52"/>
<path d="M51.8994 0.630005H52.8494L56.2694 5.37C56.3994 5.54 56.5194 5.72 56.6394 5.91C56.7594 6.09 56.8694 6.27001 56.9594 6.44001H56.9794C56.9594 6.16001 56.9494 5.89 56.9394 5.61C56.9294 5.33 56.9294 5.06 56.9294 4.78V0.630005H57.9994V8.12001H57.0494L53.6694 3.44C53.5494 3.27 53.4294 3.09 53.2994 2.88C53.1694 2.67 53.0494 2.46 52.9394 2.26H52.9194C52.9394 2.59 52.9494 2.93 52.9594 3.26C52.9594 3.59 52.9694 3.93 52.9694 4.26V8.13H51.8994V0.640003V0.630005Z" fill="#D15E52"/>
</svg>
