<svg width="21" height="31" viewBox="0 0 21 31" fill="none" xmlns="http://www.w3.org/2000/svg">
<path d="M20.5598 10.38C20.5598 4.73 16.1298 0.139999 10.6598 0.139999C5.18977 0.139999 0.759766 4.72 0.759766 10.38C0.759766 11.71 1.00977 12.98 1.45977 14.15H1.40977L1.59977 14.48C1.88977 15.16 2.24977 15.8 2.66977 16.39L6.04977 22.44L10.6798 30.73L15.3098 22.44L18.6898 16.4C19.1098 15.81 19.4698 15.17 19.7598 14.49L19.9398 14.16H19.8898C20.3398 12.99 20.5898 11.72 20.5898 10.39L20.5598 10.38ZM10.6498 16.25C7.51977 16.25 4.96977 13.62 4.96977 10.38C4.96977 7.14 7.50977 4.51 10.6498 4.51C13.7898 4.51 16.3298 7.14 16.3298 10.38C16.3298 13.62 13.7898 16.25 10.6498 16.25Z" fill="#D15E52"/>
</svg>
