<?xml version="1.0" encoding="UTF-8"?>
<svg id="_圖層_1" data-name="圖層_1" xmlns="http://www.w3.org/2000/svg" version="1.1" viewBox="0 0 21.8 31">
  <!-- Generator: Adobe Illustrator 29.8.3, SVG Export Plug-In . SVG Version: 2.1.1 Build 3)  -->
  <defs>
    <style>
      .st0 {
        fill: #e0554c;
      }

      .st1 {
        fill: #c8c9c9;
      }

      .st2 {
        fill: none;
        stroke: #c8c9c9;
        stroke-miterlimit: 10;
      }

      .st3 {
        fill: #f6f7f7;
      }
    </style>
  </defs>
  <rect class="st3" x="-157.1" y="-611.1" width="377.1" height="72.2"/>
  <g>
    <rect class="st3" x="-462.6" y="-796.6" width="175.8" height="588.1"/>
    <g>
      <path class="st0" d="M-420.7-253.9c1.7-.3,3.4-1.2,4.9-2.2,5.3-3.6,8.7-8.5,10-14.8.4-2,.4-4.1-.8-5.9-1-1.6-2.5-2.4-4.4-2.3-.6,0-.9.2-1.2.8-.6,1.5-1.2,3.1-1.8,4.6-.4,1-.3,1.2.6,1.8.7.5,1.4,1,2.1,1.5.5.3.6.7.4,1.2-1.2,3.9-3.5,6.9-6.9,9.1-.5.3-.9.3-1.4,0-.7-.6-1.4-1.2-2.1-1.8-.4-.4-.9-.5-1.4,0-1.5,1.1-2.9,2.2-4.4,3.3-.4.3-.4.8-.3,1.3.9,2.8,3.2,4.2,6.5,3.7Z"/>
      <g>
        <path class="st0" d="M-391.6-261.6c.4,0,.7,0,1,0,.3,0,.5-.2.8-.3l.2.9c-.3.1-.6.2-.9.3-.3,0-.7,0-1.2,0s-1,0-1.4-.2c-.4-.2-.8-.4-1.1-.7-.3-.3-.6-.7-.8-1.2-.2-.5-.3-1-.3-1.7s0-1.2.3-1.6c.2-.5.4-.9.8-1.2.3-.3.7-.6,1.2-.7.4-.2.9-.3,1.5-.3s.9,0,1.2.1c.3,0,.6.2.9.3l-.3.9c-.2,0-.3-.1-.4-.2-.1,0-.3,0-.4-.1-.1,0-.3,0-.4,0-.1,0-.3,0-.5,0-.3,0-.7,0-1,.2-.3.1-.6.3-.8.5s-.4.5-.6.9c-.1.4-.2.8-.2,1.4s0,1,.2,1.4c.1.4.3.7.5.9.2.2.5.4.8.5s.6.2,1,.2Z"/>
        <path class="st0" d="M-384.2-268.4c.5,0,1,0,1.4.2.4.2.8.4,1.1.7.3.3.6.7.7,1.2.2.5.3,1,.3,1.7s0,1.2-.3,1.7c-.2.5-.4.9-.8,1.2-.3.3-.7.6-1.1.7s-.9.2-1.4.2-1,0-1.4-.2c-.4-.2-.8-.4-1.1-.7s-.6-.7-.7-1.2c-.2-.5-.3-1-.3-1.7s0-1.2.3-1.7c.2-.5.4-.9.8-1.2.3-.3.7-.6,1.1-.7.4-.2.9-.2,1.4-.2ZM-386.6-264.5c0,.5,0,.9.2,1.3.1.4.3.7.5.9s.5.4.8.5c.3.1.6.2.9.2s.6,0,.9-.2c.3-.1.5-.3.7-.5.2-.2.4-.6.5-.9.1-.4.2-.8.2-1.3s0-1-.2-1.3c-.1-.4-.3-.7-.5-.9-.2-.2-.5-.4-.8-.5s-.6-.2-.9-.2-.6,0-.9.2c-.3.1-.5.3-.7.5-.2.2-.4.6-.5.9s-.2.8-.2,1.3Z"/>
        <path class="st0" d="M-378-268.3h1l3.4,4.7c.1.2.2.4.4.5.1.2.2.4.3.5h0c0-.3,0-.6,0-.8s0-.6,0-.8v-4.1h1.1v7.5h-1l-3.4-4.7c-.1-.2-.2-.4-.4-.6-.1-.2-.2-.4-.4-.6h0c0,.3,0,.7,0,1,0,.3,0,.7,0,1v3.9h-1.1v-7.5Z"/>
        <path class="st0" d="M-363.9-268.3v.9h-2.3v6.6h-1.1v-6.6h-2.3v-.9h5.7Z"/>
        <path class="st0" d="M-360.4-268.3h1l3,7.5h-1.1l-.8-2.1h-3.1l-.8,2.1h-1.1l3-7.5ZM-361.2-263.7h2.5l-.5-1.3c-.1-.3-.3-.7-.4-1s-.2-.6-.3-1h0c-.1.3-.2.7-.3,1s-.2.6-.4,1l-.5,1.3Z"/>
        <path class="st0" d="M-351.2-261.6c.4,0,.7,0,1,0,.3,0,.5-.2.8-.3l.2.9c-.3.1-.6.2-.9.3-.3,0-.7,0-1.2,0s-1,0-1.4-.2c-.4-.2-.8-.4-1.1-.7-.3-.3-.6-.7-.8-1.2-.2-.5-.3-1-.3-1.7s0-1.2.3-1.6c.2-.5.4-.9.8-1.2.3-.3.7-.6,1.2-.7.4-.2.9-.3,1.5-.3s.9,0,1.2.1c.3,0,.6.2.9.3l-.3.9c-.2,0-.3-.1-.4-.2-.1,0-.3,0-.4-.1-.1,0-.3,0-.4,0-.1,0-.3,0-.5,0-.3,0-.7,0-1,.2-.3.1-.6.3-.8.5s-.4.5-.6.9c-.1.4-.2.8-.2,1.4s0,1,.2,1.4c.1.4.3.7.5.9.2.2.5.4.8.5s.6.2,1,.2Z"/>
        <path class="st0" d="M-341.7-268.3v.9h-2.3v6.6h-1.1v-6.6h-2.3v-.9h5.7Z"/>
        <path class="st0" d="M-335.7-268.3h1.1v4.5c0,.8.1,1.4.4,1.7.3.3.8.5,1.4.5s1.1-.2,1.4-.6c.3-.4.4-.9.4-1.5v-4.6h1.1v4.6c0,1-.3,1.8-.8,2.3-.5.5-1.2.7-2.2.7s-1.7-.2-2.2-.7c-.5-.5-.8-1.3-.8-2.3v-4.5Z"/>
        <path class="st0" d="M-324.7-268.4c.4,0,.7,0,1.1,0,.3,0,.7.2,1,.3l-.3.9c-.3-.2-.6-.3-.9-.3-.3,0-.6-.1-.8-.1-.5,0-.8,0-1.1.3-.3.2-.4.5-.4.8s0,.5.3.7c.2.2.5.3,1,.5l.8.2c.7.2,1.2.5,1.4.9.3.4.4.8.4,1.2s0,.6-.2.9c-.1.3-.3.5-.5.7s-.5.3-.8.4c-.3,0-.7.1-1,.1s-.8,0-1.2-.1c-.4,0-.8-.2-1.2-.4l.3-.9c.3.2.7.3,1,.4.3,0,.7.1,1,.1s.8,0,1.1-.3c.3-.2.5-.5.5-.9s0-.3,0-.4c0-.1-.1-.2-.2-.4s-.3-.2-.4-.3-.4-.2-.7-.3l-.8-.2c-.5-.2-1-.4-1.3-.7-.3-.3-.4-.7-.4-1.2s.2-1.2.6-1.6c.4-.4,1.1-.6,1.9-.6Z"/>
      </g>
    </g>
    <g>
      <path class="st0" d="M-395.9-392.2c-4-5.2-12-6.1-17.5-3-3,1.7-5.1,4.7-5.8,8.1-.9,4.3,1.3,8.3,4.5,11.1v5c-.1,0,4.7-2.6,4.7-2.6.3-.2,1.9.3,2.3.3,1.8.1,3.6,0,5.3-.5,4.6-1.3,8.2-5.4,8.8-10.2.4-2.9-.5-5.9-2.2-8.3ZM-405-381l-3.5-3.5-6.3,3.3,7-7,3.4,3.4,6.2-3.4-6.8,7.2Z"/>
      <g>
        <path class="st0" d="M-383-385.7h1.4l1.6,4.8c0,.2.2.5.2.7,0,.2.1.4.2.7h0c0-.2.1-.4.2-.6s.1-.4.2-.7l1.5-4.8h1.4l.7,7.5h-1.1l-.3-4c0-.4,0-.8,0-1.2,0-.4,0-.8,0-1.2h0c-.1.4-.2.8-.3,1.2s-.2.8-.4,1.2l-1.3,4h-1l-1.3-4c-.1-.4-.3-.8-.4-1.2-.1-.4-.2-.8-.3-1.2h0c0,.4,0,.8,0,1.2,0,.4,0,.8,0,1.2l-.3,4h-1.1l.6-7.5Z"/>
        <path class="st0" d="M-372.6-385.7h4.5v.9h-3.4v2.2h3.1v.9h-3.1v2.5h3.5v.9h-4.6v-7.5Z"/>
        <path class="st0" d="M-363.3-385.9c.4,0,.7,0,1.1,0,.3,0,.7.2,1,.3l-.3.9c-.3-.2-.6-.3-.9-.3-.3,0-.6-.1-.8-.1-.5,0-.8,0-1.1.3-.3.2-.4.5-.4.8s0,.5.3.7c.2.2.5.3,1,.5l.8.2c.7.2,1.2.5,1.4.9.3.4.4.8.4,1.2s0,.6-.2.9c-.1.3-.3.5-.5.7s-.5.3-.8.4c-.3,0-.7.1-1,.1s-.8,0-1.2-.1c-.4,0-.8-.2-1.2-.4l.3-.9c.3.2.7.3,1,.4.3,0,.7.1,1,.1s.8,0,1.1-.3c.3-.2.5-.5.5-.9s0-.3,0-.4c0-.1-.1-.2-.2-.4s-.3-.2-.4-.3-.4-.2-.7-.3l-.8-.2c-.5-.2-1-.4-1.3-.7-.3-.3-.4-.7-.4-1.2s.2-1.2.6-1.6c.4-.4,1.1-.6,1.9-.6Z"/>
        <path class="st0" d="M-356.3-385.9c.4,0,.7,0,1.1,0,.3,0,.7.2,1,.3l-.3.9c-.3-.2-.6-.3-.9-.3-.3,0-.6-.1-.8-.1-.5,0-.8,0-1.1.3-.3.2-.4.5-.4.8s0,.5.3.7c.2.2.5.3,1,.5l.8.2c.7.2,1.2.5,1.4.9.3.4.4.8.4,1.2s0,.6-.2.9c-.1.3-.3.5-.5.7s-.5.3-.8.4c-.3,0-.7.1-1,.1s-.8,0-1.2-.1c-.4,0-.8-.2-1.2-.4l.3-.9c.3.2.7.3,1,.4.3,0,.7.1,1,.1s.8,0,1.1-.3c.3-.2.5-.5.5-.9s0-.3,0-.4c0-.1-.1-.2-.2-.4s-.3-.2-.4-.3-.4-.2-.7-.3l-.8-.2c-.5-.2-1-.4-1.3-.7-.3-.3-.4-.7-.4-1.2s.2-1.2.6-1.6c.4-.4,1.1-.6,1.9-.6Z"/>
        <path class="st0" d="M-349.2-385.7h1l3,7.5h-1.1l-.8-2.1h-3.1l-.8,2.1h-1.1l3-7.5ZM-350-381.2h2.5l-.5-1.3c-.1-.3-.3-.7-.4-1s-.2-.6-.3-1h0c-.1.3-.2.7-.3,1s-.2.6-.4,1l-.5,1.3Z"/>
        <path class="st0" d="M-340-385.9c.4,0,.8,0,1.2,0s.7.2,1,.3l-.3.9c-.3-.1-.6-.2-.9-.3-.3,0-.6,0-.9,0s-.7,0-1,.2c-.3.1-.6.3-.8.5-.2.2-.4.5-.6.9-.1.4-.2.8-.2,1.4,0,1,.2,1.7.7,2.2s1.1.7,1.8.7.6,0,.8,0c.2,0,.4,0,.6-.2v-2.1h-1.4v-.9h2.4v3.6c-.3.1-.7.2-1.1.3-.4,0-.8.1-1.4.1s-1,0-1.4-.2c-.4-.2-.8-.4-1.2-.7-.3-.3-.6-.7-.8-1.2-.2-.5-.3-1-.3-1.7s0-1.2.3-1.7c.2-.5.4-.9.8-1.2.3-.3.7-.6,1.2-.7.5-.2.9-.2,1.5-.2Z"/>
        <path class="st0" d="M-334.7-385.7h4.5v.9h-3.4v2.2h3.1v.9h-3.1v2.5h3.5v.9h-4.6v-7.5Z"/>
      </g>
    </g>
    <g>
      <path class="st0" d="M-403-516.3h-5s-5.3,0-5.3,5.2v5.3h-4.5v4.6h4.6v13.4h5.2v-13.5h4.6v-4.5h-4.8v-4s-.1-2.2,2.2-2.2h3.1v-4.4Z"/>
      <g>
        <path class="st0" d="M-389-503.8v.9h-3.3v2.4h3.1v.9h-3.1v3.3h-1.1v-7.5h4.4Z"/>
        <path class="st0" d="M-384.8-503.8h1l3,7.5h-1.1l-.8-2.1h-3.1l-.8,2.1h-1.1l3-7.5ZM-385.6-499.3h2.5l-.5-1.3c-.1-.3-.3-.7-.4-1s-.2-.6-.3-1h0c-.1.3-.2.7-.3,1s-.2.6-.4,1l-.5,1.3Z"/>
        <path class="st0" d="M-375.6-497.2c.4,0,.7,0,1,0,.3,0,.5-.2.8-.3l.2.9c-.3.1-.6.2-.9.3-.3,0-.7,0-1.2,0s-1,0-1.4-.2c-.4-.2-.8-.4-1.1-.7-.3-.3-.6-.7-.8-1.2-.2-.5-.3-1-.3-1.7s0-1.2.3-1.6c.2-.5.4-.9.8-1.2.3-.3.7-.6,1.2-.7.4-.2.9-.3,1.5-.3s.9,0,1.2.1c.3,0,.6.2.9.3l-.3.9c-.2,0-.3-.1-.4-.2-.1,0-.3,0-.4-.1-.1,0-.3,0-.4,0-.1,0-.3,0-.5,0-.3,0-.7,0-1,.2-.3.1-.6.3-.8.5s-.4.5-.6.9c-.1.4-.2.8-.2,1.4s0,1,.2,1.4c.1.4.3.7.5.9.2.2.5.4.8.5s.6.2,1,.2Z"/>
        <path class="st0" d="M-371-503.8h4.5v.9h-3.4v2.2h3.1v.9h-3.1v2.5h3.5v.9h-4.6v-7.5Z"/>
        <path class="st0" d="M-361.6-503.8c.7,0,1.3.2,1.7.5s.6.8.6,1.4-.1.8-.4,1.1c-.3.3-.6.4-1,.5.2,0,.4.1.6.2.2,0,.4.2.5.4.1.2.3.3.3.6,0,.2.1.5.1.7s0,.6-.2.8-.3.5-.6.7-.5.3-.8.4c-.3.1-.7.2-1.1.2h-2.2v-7.5h2.3ZM-362.8-500.7h.9c.2,0,.4,0,.6,0,.2,0,.3,0,.5-.2.1,0,.2-.2.3-.4,0-.1.1-.3.1-.6,0-.4-.1-.7-.4-.8-.3-.2-.6-.3-1-.3h-1v2.2ZM-362.8-497.2h1c.2,0,.4,0,.6,0,.2,0,.4-.1.5-.2.2-.1.3-.2.4-.4,0-.2.1-.4.1-.6s0-.4-.2-.6c-.1-.2-.2-.3-.4-.4-.2-.1-.4-.2-.6-.2-.2,0-.4,0-.7,0h-.8v2.6Z"/>
        <path class="st0" d="M-353.1-504c.5,0,1,0,1.4.2.4.2.8.4,1.1.7.3.3.6.7.7,1.2.2.5.3,1,.3,1.7s0,1.2-.3,1.7c-.2.5-.4.9-.8,1.2-.3.3-.7.6-1.1.7s-.9.2-1.4.2-1,0-1.4-.2c-.4-.2-.8-.4-1.1-.7s-.6-.7-.7-1.2c-.2-.5-.3-1-.3-1.7s0-1.2.3-1.7c.2-.5.4-.9.8-1.2.3-.3.7-.6,1.1-.7.4-.2.9-.2,1.4-.2ZM-355.5-500.1c0,.5,0,.9.2,1.3.1.4.3.7.5.9s.5.4.8.5c.3.1.6.2.9.2s.6,0,.9-.2c.3-.1.5-.3.7-.5.2-.2.4-.6.5-.9.1-.4.2-.8.2-1.3s0-1-.2-1.3c-.1-.4-.3-.7-.5-.9-.2-.2-.5-.4-.8-.5s-.6-.2-.9-.2-.6,0-.9.2c-.3.1-.5.3-.7.5-.2.2-.4.6-.5.9s-.2.8-.2,1.3Z"/>
        <path class="st0" d="M-343.8-504c.5,0,1,0,1.4.2.4.2.8.4,1.1.7.3.3.6.7.7,1.2.2.5.3,1,.3,1.7s0,1.2-.3,1.7c-.2.5-.4.9-.8,1.2-.3.3-.7.6-1.1.7s-.9.2-1.4.2-1,0-1.4-.2c-.4-.2-.8-.4-1.1-.7s-.6-.7-.7-1.2c-.2-.5-.3-1-.3-1.7s0-1.2.3-1.7c.2-.5.4-.9.8-1.2.3-.3.7-.6,1.1-.7.4-.2.9-.2,1.4-.2ZM-346.1-500.1c0,.5,0,.9.2,1.3.1.4.3.7.5.9s.5.4.8.5c.3.1.6.2.9.2s.6,0,.9-.2c.3-.1.5-.3.7-.5.2-.2.4-.6.5-.9.1-.4.2-.8.2-1.3s0-1-.2-1.3c-.1-.4-.3-.7-.5-.9-.2-.2-.5-.4-.8-.5s-.6-.2-.9-.2-.6,0-.9.2c-.3.1-.5.3-.7.5-.2.2-.4.6-.5.9s-.2.8-.2,1.3Z"/>
        <path class="st0" d="M-337.6-496.4v-7.5h1.1v3.4l3.2-3.4h1.4l-3.1,3.3,3.3,4.2h-1.4l-2.7-3.4-.6.7v2.7h-1.1Z"/>
      </g>
    </g>
    <g>
      <path class="st0" d="M-398.1-627.1c0-5.7-4.4-10.2-9.9-10.2s-9.9,4.6-9.9,10.2.3,2.6.7,3.8h0l.2.3c.3.7.6,1.3,1.1,1.9l3.4,6,4.6,8.3,4.6-8.3,3.4-6c.4-.6.8-1.2,1.1-1.9l.2-.3h0c.4-1.2.7-2.4.7-3.8ZM-408-621.2c-3.1,0-5.7-2.6-5.7-5.9s2.5-5.9,5.7-5.9,5.7,2.6,5.7,5.9-2.5,5.9-5.7,5.9Z"/>
      <g>
        <path class="st0" d="M-389.5-623.8h1.1v6.6h3.2v.9h-4.3v-7.5Z"/>
        <path class="st0" d="M-379.9-623.9c.5,0,1,0,1.4.2.4.2.8.4,1.1.7.3.3.6.7.7,1.2.2.5.3,1,.3,1.7s0,1.2-.3,1.7c-.2.5-.4.9-.8,1.2-.3.3-.7.6-1.1.7s-.9.2-1.4.2-1,0-1.4-.2c-.4-.2-.8-.4-1.1-.7s-.6-.7-.7-1.2c-.2-.5-.3-1-.3-1.7s0-1.2.3-1.7c.2-.5.4-.9.8-1.2.3-.3.7-.6,1.1-.7.4-.2.9-.2,1.4-.2ZM-382.3-620.1c0,.5,0,.9.2,1.3.1.4.3.7.5.9s.5.4.8.5c.3.1.6.2.9.2s.6,0,.9-.2c.3-.1.5-.3.7-.5.2-.2.4-.6.5-.9.1-.4.2-.8.2-1.3s0-1-.2-1.3c-.1-.4-.3-.7-.5-.9-.2-.2-.5-.4-.8-.5s-.6-.2-.9-.2-.6,0-.9.2c-.3.1-.5.3-.7.5-.2.2-.4.6-.5.9s-.2.8-.2,1.3Z"/>
        <path class="st0" d="M-370.4-617.2c.4,0,.7,0,1,0,.3,0,.5-.2.8-.3l.2.9c-.3.1-.6.2-.9.3-.3,0-.7,0-1.2,0s-1,0-1.4-.2c-.4-.2-.8-.4-1.1-.7-.3-.3-.6-.7-.8-1.2-.2-.5-.3-1-.3-1.7s0-1.2.3-1.6c.2-.5.4-.9.8-1.2.3-.3.7-.6,1.2-.7.4-.2.9-.3,1.5-.3s.9,0,1.2.1c.3,0,.6.2.9.3l-.3.9c-.2,0-.3-.1-.4-.2-.1,0-.3,0-.4-.1-.1,0-.3,0-.4,0-.1,0-.3,0-.5,0-.3,0-.7,0-1,.2-.3.1-.6.3-.8.5s-.4.5-.6.9c-.1.4-.2.8-.2,1.4s0,1,.2,1.4c.1.4.3.7.5.9.2.2.5.4.8.5s.6.2,1,.2Z"/>
        <path class="st0" d="M-363.7-623.8h1l3,7.5h-1.1l-.8-2.1h-3.1l-.8,2.1h-1.1l3-7.5ZM-364.5-619.3h2.5l-.5-1.3c-.1-.3-.3-.7-.4-1s-.2-.6-.3-1h0c-.1.3-.2.7-.3,1s-.2.6-.4,1l-.5,1.3Z"/>
        <path class="st0" d="M-353.5-623.8v.9h-2.3v6.6h-1.1v-6.6h-2.3v-.9h5.7Z"/>
        <path class="st0" d="M-350.2-623.8v7.5h-1.1v-7.5h1.1Z"/>
        <path class="st0" d="M-344-623.9c.5,0,1,0,1.4.2.4.2.8.4,1.1.7.3.3.6.7.7,1.2.2.5.3,1,.3,1.7s0,1.2-.3,1.7c-.2.5-.4.9-.8,1.2-.3.3-.7.6-1.1.7s-.9.2-1.4.2-1,0-1.4-.2c-.4-.2-.8-.4-1.1-.7s-.6-.7-.7-1.2c-.2-.5-.3-1-.3-1.7s0-1.2.3-1.7c.2-.5.4-.9.8-1.2.3-.3.7-.6,1.1-.7.4-.2.9-.2,1.4-.2ZM-346.3-620.1c0,.5,0,.9.2,1.3.1.4.3.7.5.9s.5.4.8.5c.3.1.6.2.9.2s.6,0,.9-.2c.3-.1.5-.3.7-.5.2-.2.4-.6.5-.9.1-.4.2-.8.2-1.3s0-1-.2-1.3c-.1-.4-.3-.7-.5-.9-.2-.2-.5-.4-.8-.5s-.6-.2-.9-.2-.6,0-.9.2c-.3.1-.5.3-.7.5-.2.2-.4.6-.5.9s-.2.8-.2,1.3Z"/>
        <path class="st0" d="M-337.7-623.8h1l3.4,4.7c.1.2.2.4.4.5.1.2.2.4.3.5h0c0-.3,0-.6,0-.8s0-.6,0-.8v-4.1h1.1v7.5h-1l-3.4-4.7c-.1-.2-.2-.4-.4-.6-.1-.2-.2-.4-.4-.6h0c0,.3,0,.7,0,1,0,.3,0,.7,0,1v3.9h-1.1v-7.5Z"/>
      </g>
    </g>
    <line class="st2" x1="-441.7" y1="-561.6" x2="-307.8" y2="-561.6"/>
    <line class="st2" x1="-441.7" y1="-442.4" x2="-307.8" y2="-442.4"/>
    <line class="st2" x1="-307.8" y1="-325.7" x2="-441.7" y2="-325.7"/>
  </g>
  <g>
    <path class="st0" d="M179.3-572.5c1.2-.2,2.3-.8,3.4-1.6,3.7-2.5,6-5.9,7-10.3.3-1.4.3-2.8-.6-4.1-.7-1.1-1.8-1.6-3.1-1.6-.4,0-.7.2-.8.5-.4,1.1-.8,2.1-1.2,3.2-.3.7-.2.8.4,1.2.5.3,1,.7,1.5,1,.3.2.4.5.3.9-.8,2.7-2.4,4.8-4.8,6.4-.3.2-.6.2-.9,0-.5-.4-1-.8-1.5-1.2-.3-.3-.6-.3-.9,0-1,.8-2,1.5-3.1,2.3-.3.2-.3.6-.2.9.6,1.9,2.3,2.9,4.5,2.6Z"/>
    <g>
      <path class="st0" d="M159.1-560.1c.3,0,.5,0,.7,0,.2,0,.4-.1.5-.2l.2.6c-.2,0-.4.2-.6.2-.2,0-.5,0-.8,0s-.7,0-1-.2-.6-.3-.8-.5-.4-.5-.5-.8c-.1-.3-.2-.7-.2-1.2s0-.8.2-1.1c.1-.3.3-.6.5-.8s.5-.4.8-.5c.3-.1.6-.2,1-.2s.6,0,.8,0c.2,0,.4.1.6.2l-.2.6c-.1,0-.2,0-.3-.1,0,0-.2,0-.3,0s-.2,0-.3,0-.2,0-.3,0c-.2,0-.5,0-.7.1-.2,0-.4.2-.6.4-.2.2-.3.4-.4.6,0,.3-.1.6-.1.9s0,.7.1.9.2.5.4.6c.2.2.3.3.5.4.2,0,.4.1.7.1Z"/>
      <path class="st0" d="M164.2-564.9c.4,0,.7,0,1,.2s.6.3.8.5c.2.2.4.5.5.8.1.3.2.7.2,1.2s0,.8-.2,1.2c-.1.3-.3.6-.5.8s-.5.4-.8.5c-.3.1-.6.2-1,.2s-.7,0-1-.2-.6-.3-.8-.5c-.2-.2-.4-.5-.5-.8-.1-.3-.2-.7-.2-1.2s0-.8.2-1.2c.1-.3.3-.6.5-.8s.5-.4.8-.5c.3-.1.6-.2,1-.2ZM162.6-562.2c0,.4,0,.7.1.9,0,.3.2.5.4.6s.3.3.5.4c.2,0,.4.1.6.1s.4,0,.6-.1c.2,0,.4-.2.5-.4s.3-.4.3-.6.1-.6.1-.9,0-.7-.1-.9c0-.3-.2-.5-.4-.6-.1-.2-.3-.3-.5-.4-.2,0-.4-.1-.6-.1s-.4,0-.6.1c-.2,0-.4.2-.5.4s-.3.4-.3.6-.1.6-.1.9Z"/>
      <path class="st0" d="M168.6-564.8h.7l2.4,3.3c0,.1.2.2.3.4,0,.1.2.3.2.4h0c0-.2,0-.4,0-.6,0-.2,0-.4,0-.6v-2.9h.7v5.2h-.7l-2.4-3.3c0-.1-.2-.2-.3-.4,0-.1-.2-.3-.2-.4h0c0,.2,0,.5,0,.7s0,.5,0,.7v2.7h-.7v-5.2Z"/>
      <path class="st0" d="M178.4-564.8v.6h-1.6v4.6h-.8v-4.6h-1.6v-.6h4Z"/>
      <path class="st0" d="M180.8-564.8h.7l2.1,5.2h-.8l-.6-1.4h-2.1l-.6,1.4h-.8l2.1-5.2ZM180.3-561.6h1.7l-.3-.9c0-.2-.2-.5-.3-.7,0-.2-.2-.4-.2-.7h0c0,.2-.2.5-.2.7,0,.2-.2.4-.3.7l-.4.9Z"/>
      <path class="st0" d="M187.2-560.1c.3,0,.5,0,.7,0,.2,0,.4-.1.5-.2l.2.6c-.2,0-.4.2-.6.2-.2,0-.5,0-.8,0s-.7,0-1-.2-.6-.3-.8-.5-.4-.5-.5-.8c-.1-.3-.2-.7-.2-1.2s0-.8.2-1.1c.1-.3.3-.6.5-.8s.5-.4.8-.5c.3-.1.6-.2,1-.2s.6,0,.8,0c.2,0,.4.1.6.2l-.2.6c-.1,0-.2,0-.3-.1,0,0-.2,0-.3,0s-.2,0-.3,0-.2,0-.3,0c-.2,0-.5,0-.7.1-.2,0-.4.2-.6.4-.2.2-.3.4-.4.6,0,.3-.1.6-.1.9s0,.7.1.9.2.5.4.6c.2.2.3.3.5.4.2,0,.4.1.7.1Z"/>
      <path class="st0" d="M193.8-564.8v.6h-1.6v4.6h-.8v-4.6h-1.6v-.6h4Z"/>
      <path class="st0" d="M197.9-564.8h.8v3.1c0,.6.1,1,.3,1.2.2.2.5.4,1,.4s.8-.1,1-.4c.2-.3.3-.6.3-1v-3.2h.8v3.2c0,.7-.2,1.2-.5,1.6-.4.3-.9.5-1.5.5s-1.2-.2-1.5-.5-.5-.9-.5-1.6v-3.1Z"/>
      <path class="st0" d="M205.6-564.9c.3,0,.5,0,.7,0s.5.1.7.2l-.2.6c-.2-.1-.5-.2-.6-.2-.2,0-.4,0-.6,0-.3,0-.6,0-.7.2-.2.1-.3.3-.3.6s0,.4.2.5c.1.1.4.2.7.3l.5.2c.5.1.8.4,1,.6s.3.5.3.9,0,.4-.1.6c0,.2-.2.3-.4.5s-.4.2-.6.3c-.2,0-.5.1-.7.1s-.5,0-.8,0-.5-.1-.8-.3l.2-.6c.2.1.5.2.7.3.2,0,.5,0,.7,0s.6,0,.8-.2c.2-.1.3-.3.3-.6s0-.2,0-.3,0-.2-.2-.2c0,0-.2-.1-.3-.2-.1,0-.3-.1-.5-.2l-.5-.2c-.4-.1-.7-.3-.9-.5s-.3-.5-.3-.9.2-.8.5-1.1.7-.4,1.3-.4Z"/>
    </g>
  </g>
  <g>
    <path class="st0" d="M114.8-587c-2.8-3.6-8.3-4.3-12.2-2.1-2.1,1.2-3.6,3.2-4,5.6-.6,3,.9,5.7,3.1,7.7v3.5c0,0,3.3-1.8,3.3-1.8.2-.1,1.3.2,1.6.2,1.2,0,2.5,0,3.7-.4,3.2-.9,5.7-3.7,6.1-7.1.3-2-.3-4.1-1.6-5.7ZM108.5-579.2l-2.4-2.4-4.4,2.3,4.9-4.9,2.3,2.4,4.3-2.3-4.8,5Z"/>
    <g>
      <path class="st0" d="M89-564.8h1l1.1,3.3c0,.2.1.3.2.5,0,.2,0,.3.1.5h0c0-.2,0-.3.1-.4s.1-.3.2-.5l1.1-3.3h1l.5,5.2h-.8l-.2-2.8c0-.3,0-.5,0-.8s0-.5,0-.8h0c0,.3-.2.5-.2.8,0,.3-.2.5-.3.8l-.9,2.8h-.7l-.9-2.8c0-.3-.2-.5-.3-.8,0-.3-.2-.5-.2-.8h0c0,.3,0,.5,0,.8,0,.3,0,.5,0,.8l-.2,2.8h-.7l.4-5.2Z"/>
      <path class="st0" d="M96.3-564.8h3.1v.6h-2.4v1.6h2.2v.6h-2.2v1.8h2.4v.6h-3.2v-5.2Z"/>
      <path class="st0" d="M102.7-564.9c.3,0,.5,0,.7,0,.2,0,.5.1.7.2l-.2.6c-.2-.1-.5-.2-.6-.2-.2,0-.4,0-.6,0-.3,0-.6,0-.7.2-.2.1-.3.3-.3.6s0,.4.2.5c.1.1.4.2.7.3l.5.2c.5.1.8.4,1,.6.2.3.3.5.3.9s0,.4-.1.6c0,.2-.2.3-.4.5s-.4.2-.6.3-.5.1-.7.1-.5,0-.8,0c-.3,0-.5-.1-.8-.3l.2-.6c.2.1.5.2.7.3.2,0,.5,0,.7,0s.6,0,.8-.2.3-.3.3-.6,0-.2,0-.3,0-.2-.2-.2c0,0-.2-.1-.3-.2s-.3-.1-.5-.2l-.5-.2c-.4-.1-.7-.3-.9-.5-.2-.2-.3-.5-.3-.9s.2-.8.5-1.1.7-.4,1.3-.4Z"/>
      <path class="st0" d="M107.6-564.9c.3,0,.5,0,.7,0,.2,0,.5.1.7.2l-.2.6c-.2-.1-.5-.2-.6-.2-.2,0-.4,0-.6,0-.3,0-.6,0-.7.2-.2.1-.3.3-.3.6s0,.4.2.5c.1.1.4.2.7.3l.5.2c.5.1.8.4,1,.6.2.3.3.5.3.9s0,.4-.1.6c0,.2-.2.3-.4.5s-.4.2-.6.3-.5.1-.7.1-.5,0-.8,0c-.3,0-.5-.1-.8-.3l.2-.6c.2.1.5.2.7.3.2,0,.5,0,.7,0s.6,0,.8-.2.3-.3.3-.6,0-.2,0-.3,0-.2-.2-.2c0,0-.2-.1-.3-.2s-.3-.1-.5-.2l-.5-.2c-.4-.1-.7-.3-.9-.5-.2-.2-.3-.5-.3-.9s.2-.8.5-1.1.7-.4,1.3-.4Z"/>
      <path class="st0" d="M112.5-564.8h.7l2.1,5.2h-.8l-.6-1.4h-2.1l-.6,1.4h-.8l2.1-5.2ZM112-561.6h1.7l-.3-.9c0-.2-.2-.5-.3-.7,0-.2-.2-.4-.2-.7h0c0,.2-.2.5-.2.7s-.2.4-.3.7l-.4.9Z"/>
      <path class="st0" d="M118.9-564.9c.3,0,.6,0,.8,0,.2,0,.5.1.7.2l-.2.6c-.2,0-.4-.2-.6-.2-.2,0-.4,0-.6,0s-.5,0-.7.1c-.2,0-.4.2-.6.4-.2.2-.3.4-.4.6,0,.3-.1.6-.1,1,0,.7.2,1.2.5,1.5.3.3.7.5,1.3.5s.4,0,.5,0c.2,0,.3,0,.4-.1v-1.4h-1v-.6h1.7v2.5c-.2,0-.5.2-.7.2-.3,0-.6,0-1,0s-.7,0-1-.2-.6-.3-.8-.5c-.2-.2-.4-.5-.5-.8-.1-.3-.2-.7-.2-1.1s0-.8.2-1.2.3-.6.5-.8c.2-.2.5-.4.8-.5s.7-.2,1-.2Z"/>
      <path class="st0" d="M122.6-564.8h3.1v.6h-2.4v1.6h2.2v.6h-2.2v1.8h2.4v.6h-3.2v-5.2Z"/>
    </g>
  </g>
  <g>
    <path class="st0" d="M-36.1-584.8c0-3.9-3.1-7.1-6.9-7.1s-6.9,3.2-6.9,7.1.2,1.8.5,2.6h0v.2c.3.5.6.9.9,1.3l2.3,4.2,3.2,5.8,3.2-5.8,2.3-4.2c.3-.4.5-.9.7-1.3v-.2c.1,0,0,0,0,0,.3-.8.5-1.7.5-2.6ZM-43-580.7c-2.2,0-3.9-1.8-3.9-4.1s1.8-4.1,3.9-4.1,3.9,1.8,3.9,4.1-1.8,4.1-3.9,4.1Z"/>
    <g>
      <path class="st0" d="M-63.5-564.8h.8v4.6h2.2v.6h-3v-5.2Z"/>
      <path class="st0" d="M-56.8-564.9c.4,0,.7,0,1,.2s.6.3.8.5c.2.2.4.5.5.8.1.3.2.7.2,1.2s0,.8-.2,1.2c-.1.3-.3.6-.5.8s-.5.4-.8.5c-.3.1-.6.2-1,.2s-.7,0-1-.2-.6-.3-.8-.5c-.2-.2-.4-.5-.5-.8-.1-.3-.2-.7-.2-1.2s0-.8.2-1.2c.1-.3.3-.6.5-.8s.5-.4.8-.5c.3-.1.6-.2,1-.2ZM-58.5-562.2c0,.4,0,.7.1.9,0,.3.2.5.4.6s.3.3.5.4c.2,0,.4.1.6.1s.4,0,.6-.1c.2,0,.4-.2.5-.4s.3-.4.3-.6.1-.6.1-.9,0-.7-.1-.9c0-.3-.2-.5-.4-.6-.1-.2-.3-.3-.5-.4-.2,0-.4-.1-.6-.1s-.4,0-.6.1c-.2,0-.4.2-.5.4s-.3.4-.3.6-.1.6-.1.9Z"/>
      <path class="st0" d="M-50.2-560.1c.3,0,.5,0,.7,0,.2,0,.4-.1.5-.2l.2.6c-.2,0-.4.2-.6.2-.2,0-.5,0-.8,0s-.7,0-1-.2-.6-.3-.8-.5-.4-.5-.5-.8c-.1-.3-.2-.7-.2-1.2s0-.8.2-1.1c.1-.3.3-.6.5-.8s.5-.4.8-.5c.3-.1.6-.2,1-.2s.6,0,.8,0c.2,0,.4.1.6.2l-.2.6c-.1,0-.2,0-.3-.1,0,0-.2,0-.3,0s-.2,0-.3,0-.2,0-.3,0c-.2,0-.5,0-.7.1-.2,0-.4.2-.6.4-.2.2-.3.4-.4.6,0,.3-.1.6-.1.9s0,.7.1.9.2.5.4.6c.2.2.3.3.5.4.2,0,.4.1.7.1Z"/>
      <path class="st0" d="M-45.6-564.8h.7l2.1,5.2h-.8l-.6-1.4h-2.1l-.6,1.4h-.8l2.1-5.2ZM-46.1-561.6h1.7l-.3-.9c0-.2-.2-.5-.3-.7,0-.2-.2-.4-.2-.7h0c0,.2-.2.5-.2.7,0,.2-.2.4-.3.7l-.4.9Z"/>
      <path class="st0" d="M-38.5-564.8v.6h-1.6v4.6h-.8v-4.6h-1.6v-.6h4Z"/>
      <path class="st0" d="M-36.2-564.8v5.2h-.8v-5.2h.8Z"/>
      <path class="st0" d="M-31.8-564.9c.4,0,.7,0,1,.2s.6.3.8.5c.2.2.4.5.5.8.1.3.2.7.2,1.2s0,.8-.2,1.2c-.1.3-.3.6-.5.8s-.5.4-.8.5c-.3.1-.6.2-1,.2s-.7,0-1-.2-.6-.3-.8-.5c-.2-.2-.4-.5-.5-.8-.1-.3-.2-.7-.2-1.2s0-.8.2-1.2c.1-.3.3-.6.5-.8s.5-.4.8-.5c.3-.1.6-.2,1-.2ZM-33.5-562.2c0,.4,0,.7.1.9,0,.3.2.5.4.6s.3.3.5.4c.2,0,.4.1.6.1s.4,0,.6-.1c.2,0,.4-.2.5-.4s.3-.4.3-.6.1-.6.1-.9,0-.7-.1-.9c0-.3-.2-.5-.4-.6-.1-.2-.3-.3-.5-.4-.2,0-.4-.1-.6-.1s-.4,0-.6.1c-.2,0-.4.2-.5.4s-.3.4-.3.6-.1.6-.1.9Z"/>
      <path class="st0" d="M-27.5-564.8h.7l2.4,3.3c0,.1.2.2.3.4,0,.1.2.3.2.4h0c0-.2,0-.4,0-.6,0-.2,0-.4,0-.6v-2.9h.7v5.2h-.7l-2.4-3.3c0-.1-.2-.2-.3-.4,0-.1-.2-.3-.2-.4h0c0,.2,0,.5,0,.7s0,.5,0,.7v2.7h-.7v-5.2Z"/>
    </g>
  </g>
  <rect class="st1" x="-6.3" y="-592.4" width="1" height="33.9"/>
  <rect class="st1" x="68.9" y="-592.4" width="1" height="33.9"/>
  <rect class="st1" x="144.2" y="-592.4" width="1" height="33.9"/>
  <rect class="st1" x="-81.5" y="-592.4" width="1" height="33.9"/>
  <g>
    <g>
      <path class="st0" d="M-139.6-559.6v-5.3h1.9c.4,0,.8,0,1,.2.3.1.5.3.6.6.1.3.2.5.2.9s0,.6-.2.9-.3.4-.6.6c-.3.1-.6.2-1,.2h-1.4v-.7h1.3c.3,0,.5,0,.6-.1s.3-.2.4-.3c0-.1.1-.3.1-.5s0-.4-.1-.5c0-.1-.2-.2-.4-.3s-.4-.1-.6-.1h-1v4.6h-.9ZM-136.5-559.6l-1.3-2.4h1l1.3,2.4h-1Z"/>
      <path class="st0" d="M-133.3-559.6v-5.3h3.4v.7h-2.5v1.5h2.3v.7h-2.3v1.6h2.5v.7h-3.4Z"/>
      <path class="st0" d="M-125.6-559.5c-.4,0-.8,0-1-.2-.3-.1-.5-.3-.7-.5-.2-.2-.3-.5-.3-.9h.9c0,.2,0,.3.2.5s.2.2.4.3c.2,0,.4,0,.6,0s.4,0,.6-.1c.2,0,.3-.2.4-.3s.1-.3.1-.4,0-.3-.1-.4c0,0-.2-.2-.4-.2-.1,0-.3-.1-.5-.2l-.6-.2c-.4-.1-.8-.3-1-.5-.2-.2-.4-.5-.4-.9s0-.6.3-.8c.2-.2.4-.4.7-.5.3-.1.6-.2,1-.2s.7,0,1,.2.5.3.7.5c.2.2.2.5.2.8h-.8c0-.2-.1-.4-.3-.6-.2-.1-.4-.2-.7-.2s-.4,0-.5,0-.3.2-.4.3c0,.1-.1.2-.1.4s0,.3.1.4c0,.1.2.2.4.2s.3.1.4.1h.5c.2.2.4.2.5.3.2,0,.3.2.5.3.2.1.3.3.4.4,0,.2.1.4.1.6s0,.6-.2.8c-.2.2-.4.4-.7.6-.3.1-.7.2-1.1.2Z"/>
      <path class="st0" d="M-121.3-559.6v-5.3h3.4v.7h-2.5v1.5h2.3v.7h-2.3v1.6h2.5v.7h-3.4Z"/>
      <path class="st0" d="M-115.4-559.6v-5.3h1.9c.4,0,.8,0,1,.2s.5.3.6.6c.1.3.2.5.2.9s0,.6-.2.9-.3.4-.6.6c-.3.1-.6.2-1,.2h-1.4v-.7h1.3c.3,0,.5,0,.6-.1s.3-.2.3-.3.1-.3.1-.5,0-.4-.1-.5-.2-.2-.3-.3-.4-.1-.6-.1h-1v4.6h-.9ZM-112.4-559.6l-1.3-2.4h1l1.3,2.4h-1Z"/>
      <path class="st0" d="M-107.8-559.6l-1.9-5.3h.9l1,2.9c0,.2.2.5.3.9.1.3.2.7.3,1.2h-.2c.1-.5.2-.9.3-1.2,0-.3.2-.6.3-.9l1-2.9h.9l-1.9,5.3h-1.1Z"/>
      <path class="st0" d="M-102.6-559.6v-5.3h3.4v.7h-2.5v1.5h2.3v.7h-2.3v1.6h2.5v.7h-3.4Z"/>
    </g>
    <g>
      <path class="st0" d="M-144.2-581c.3-.4.7-.8,1-1.3h-2.8v-1.1h4.1v.9c-.5.9-1,1.6-1.6,2.2.2.2.3.4.4.5h1.6v.8c-.2.9-.4,1.7-.6,2.2l-1-.4c.2-.4.3-.9.5-1.4h-.9v4.7c0,.8-.4,1.1-1.1,1.1h-1.2l-.3-1.1c.4,0,.7,0,1,0s.3-.1.3-.4v-4.4h-1.7v-1.2h2c-.4-.5-.9-1-1.5-1.6l.9-.6c.3.3.6.6.8.8ZM-139.3-581.6c0-.2.2-.5.2-.7h-2.4v-1.1h6v1.1h-2.4c0,.2-.1.5-.2.7h2.2v6.6h-1.3c.8.5,1.4.9,1.9,1.4l-.8.8c-.5-.5-1.1-1-2-1.6l.7-.6h-2.2l.7.6c-.6.6-1.4,1.2-2.3,1.7l-.7-.9c.9-.4,1.6-.9,2.1-1.4h-1.3v-6.6h1.7ZM-137-579.8v-.9h-2.8v.9h2.8ZM-137-577.9v-.9h-2.8v.9h2.8ZM-137-576.9h-2.8v.9h2.8v-.9Z"/>
      <path class="st0" d="M-130.3-575.7c0,1.1-.2,2.1-.4,2.9l-1.1-.3c.3-.8.4-1.7.5-2.7h1ZM-126.9-576.6l-1.1.3c0-.2,0-.3-.1-.5-1.2.3-2.3.5-3.3.6l-.3-1.1c.2,0,.4-.2.5-.3.4-.3.9-.9,1.4-1.8-.6,0-1.2.1-1.8.2l-.3-1.1c.2,0,.3-.2.5-.4.6-1,1.1-2,1.6-3.1l1.2.5c-.6,1.2-1.2,2.3-1.8,3,.4,0,.9,0,1.3-.2.3-.5.6-1,.9-1.5l1.1.4c-1.2,1.9-2.1,3.3-2.9,4.1.5,0,1.1-.2,1.6-.3,0-.3-.2-.6-.3-1l1-.3c.3.7.5,1.5.8,2.5ZM-128.4-573.4l-1.1.3c0-1-.2-1.9-.3-2.6l1-.2c.2.8.3,1.6.4,2.6ZM-126.8-574.2l-1,.4c-.2-.8-.4-1.5-.6-2.1l.9-.3c.3.6.5,1.3.7,2ZM-124.5-583.7c-.1.6-.3,1.2-.5,1.8h3.8c0,4.1,0,6.7-.2,7.7-.1.9-.7,1.3-1.8,1.3s-.7,0-1.3,0l-.3-1.1c.5,0,1,0,1.4,0s.7-.3.8-.8c0-.6.1-2.5.1-5.9h-3.1c-.4.7-.8,1.3-1.3,1.9l-.8-1c1-1.1,1.6-2.5,2-4.1l1.2.2ZM-123.3-576.5l-1,.7c-.5-.8-1.1-1.7-1.8-2.8l1-.6c.8,1,1.4,1.9,1.9,2.7Z"/>
      <path class="st0" d="M-112.6-582.9v-.9h1.3v.9h4.2v1.2h-4.2v.8h3.5v1.2h-3.5v.8h4.5v1.1h-5.4c-.4.6-.9,1.1-1.5,1.5v2.2c.8-.3,1.6-.6,2.4-.9l.3,1.2c-1.2.5-2.5.9-3.8,1.2l-.4-1.1c.2-.1.3-.3.3-.5v-1.3c-.6.3-1.2.6-1.9.9l-.7-1.1c1.7-.6,3-1.3,3.9-2.2h-3.4v-1.1h4.5v-.8h-3.5v-1.2h3.5v-.8h-4.2v-1.2h4.2ZM-107.3-576.7c-.6.6-1.2,1-2,1.4.8.7,1.7,1.2,2.8,1.5l-.7,1.1c-2.1-.8-3.6-2.1-4.5-4.2l.9-.5c.2.5.5.9.8,1.3.6-.3,1.2-.8,1.8-1.4l.9.9Z"/>
      <path class="st0" d="M-93.3-580.3v4.2h-3.7v.7h4.6v1.1h-4.6v1.6h-1.3v-1.6h-4.6v-1.1h4.6v-.7h-3.7v-4.2h8.6ZM-98-583.5v2.7h-4.4v-2.7h4.4ZM-99.2-582.6h-1.9v.9h1.9v-.9ZM-98.2-578.6v-.7h-2.4v.7h2.4ZM-98.2-577.7h-2.4v.7h2.4v-.7ZM-92.8-583.5v2.7h-4.4v-2.7h4.4ZM-97-578.6h2.4v-.7h-2.4v.7ZM-94.5-577.7h-2.4v.7h2.4v-.7ZM-94.1-582.6h-2v.9h2v-.9Z"/>
    </g>
  </g>
  <g>
    <path d="M-432.7-940.6v1.6h-12.2v2.4h13.3v6.5h-1.7v-5.1h-11.5v7.2h-1.8v-7.2h-11.5v5.1h-1.7v-6.5h13.2v-2.4h-12.3v-1.6h26.2ZM-434.1-926.6v10h-10.7v2.5c0,.7.4,1.1,1.1,1.1h8.6c1,0,1.7-.2,2.1-.5.5-.4.9-1.7,1.1-3.7l1.6.5c-.2,2.4-.7,4-1.5,4.6-.6.4-1.6.7-3,.7h-9.5c-1.7,0-2.5-.8-2.5-2.3v-2.8h-10.8v-10h23.4ZM-448.8-929c-1.5.3-3.8.6-6.9.8l-.4-1.3c3.1-.1,5.4-.4,6.9-.7l.4,1.1ZM-448.9-932.7l-.5,1.2c-2.1-.4-4.2-.7-6.5-.9l.6-1.1c2.2.2,4.3.5,6.3.9ZM-446.7-922.3v-2.8h-9.1v2.8h9.1ZM-446.7-920.9h-9.1v2.8h9.1v-2.8ZM-444.8-922.3h9v-2.8h-9v2.8ZM-435.9-920.9h-9v2.8h9v-2.8ZM-435.3-929.2l-.5,1.2c-2.2-.5-4.5-.9-6.9-1.1l.5-1.1c2.4.2,4.7.5,6.9,1ZM-442.7-932.8c2.4-.2,4.5-.5,6.4-1l.5,1.3c-1.9.4-4.1.7-6.6.9l-.3-1.2Z"/>
    <path d="M-417.1-913.8c0,1.6-.9,2.4-2.6,2.4h-2.4l-.4-1.7c.8,0,1.6,0,2.3,0s1.4-.5,1.4-1.4v-8.9c-1.6.5-3.2.8-5,1.2-.2,4.4-1,8.1-2.3,11l-1.3-1.2c1.3-3.2,2-7.3,2-12.2v-16h8.4v26.8ZM-418.8-931.5v-7.3h-5v6.2c1.7.3,3.4.7,5,1.1ZM-418.8-925v-5c-1.6-.5-3.3-.9-5-1.2v7.2c1.8-.3,3.5-.7,5-1.1ZM-409.6-941.4c-1.1,2-2.3,3.8-3.8,5.6,1.2,1.8,2.3,3.5,3.1,5.1l-1.6.7c-.9-1.9-2-3.8-3.3-5.8,1.5-1.9,2.8-4,4-6.1l1.7.6ZM-398-911.3h-1.8v-1.6h-13v1.6h-1.8v-16.6h4.2c.7-1.1,1.2-2.3,1.6-3.5l1.8.2c-.4,1.2-.9,2.3-1.7,3.3h10.6v16.6ZM-399.8-914.6v-11.8h-13v11.8h13ZM-405.8-921.4c1.1-1.1,2.1-2.2,2.9-3.3l1.1,1.1c-.9,1.1-1.8,2.2-2.8,3.2,1.1,1,2.2,2.1,3.2,3.1l-1.1,1.1c-.9-1-2-2.1-3.2-3.1-1.4,1.1-2.9,2.2-4.6,3.1l-.9-1.3c1.6-.9,3-1.8,4.3-2.8-1.1-.9-2.3-1.9-3.6-2.8l1.1-1.1c1.3.9,2.5,1.9,3.6,2.9ZM-403.6-941.4c-1,1.9-2.2,3.7-3.6,5.4,1.5,1.8,2.6,3.5,3.6,5.2l-1.6.7c-1.1-2-2.3-4-3.8-6,1.4-1.8,2.7-3.8,3.7-5.9l1.7.6ZM-397.7-941.3c-1,1.9-2.2,3.6-3.5,5.3,1.5,1.8,2.8,3.5,3.8,5.1l-1.7.7c-1.1-1.9-2.4-3.8-4-5.9,1.4-1.8,2.7-3.7,3.7-5.8l1.6.6Z"/>
    <path d="M-392.2-911.9l-1.4-1.2c1.7-2.8,2.5-7.2,2.6-13.2v-15h1.8v8.7h4.5v-9.3h1.8v11h-6.3v5.3h6.4v13.9h-1.8v-12.2h-4.7c-.3,5.2-1.2,9.2-2.9,11.8ZM-363.6-938.8h-13.8v6.8h13v1.6c-.8,4.7-2.4,8.6-4.6,11.8,1.7,2.2,3.8,4.1,6.4,5.9l-1.2,1.4c-2.5-1.9-4.6-3.8-6.2-5.9-2,2.4-4.5,4.4-7.5,5.9l-.9-1.6c2.9-1.5,5.3-3.4,7.3-5.8-2.5-3.5-4-7.4-4.6-11.5h-1.7v3c-.1,6.6-1.3,11.9-3.4,15.9l-1.4-1.2c2-3.5,3-8.4,3.1-14.7v-13.3h15.5v1.7ZM-370.2-920.1c1.9-2.9,3.2-6.3,4-10.2h-7.9c.5,3.7,1.8,7.1,3.9,10.2Z"/>
  </g>
  <g>
    <path d="M-52.2-940.2c-3.1.8-6.8,1.5-10.8,1.9v6.3h11v1.8h-11v6.1h13.6v1.8h-13.6v7.8c0,1.9-.9,2.9-2.8,2.9h-5.2l-.4-1.8c1.7,0,3.4.1,5,.1s1.7-.6,1.7-1.7v-7.4h-14.8v-1.8h14.8v-6.1h-12v-1.8h12v-6.1c-3.7.3-7.8.5-12.1.5l-.6-1.7c9.9,0,18.1-.8,24.4-2.4l.9,1.6Z"/>
    <path d="M-40.4-911.4h-1.7v-17.9c-.9,3-2,5.7-3.4,8.2l-.7-1.8c1.9-3.1,3.3-6.7,4.1-10.6h-3.4v-1.7h3.5v-6.9h1.7v6.9h2.8v1.7h-2.8v2.1c1.1,1.4,2.3,2.9,3.5,4.7l-.9,1.4c-1-1.7-1.9-3-2.6-4.1v18ZM-22.8-914.5c-.1-.1-.2-.2-.2-.3-1.9,1.4-4,2.5-6.3,3.4l-.7-1.6c2.3-.9,4.4-2,6.1-3.3-.9-1.7-1.6-3.7-2.2-6v-.6h-6.1c0,.9,0,1.7-.1,2.4,2,1,3.7,2.1,5.4,3.5l-.9,1.4c-1.5-1.4-3.1-2.4-4.6-3.3,0,.3-.1.5-.1.8-.5,2.8-2.1,5.1-4.7,6.9l-1.1-1.4c2.4-1.6,3.8-3.6,4.3-6.2.2-1.1.3-2.4.3-4h-3.4v-1.7h10.7c-.5-2.8-.7-6-.7-9.6v-7.7h1.8v7.7c0,3.6.2,6.8.6,9.6h4.8c-.4-.8-.9-1.7-1.5-2.4l1.5-.5c.6.8,1.1,1.8,1.7,2.9h2.9v1.7h-9c.5,2.2,1.1,4.1,1.8,5.6,1.4-1.3,2.6-2.8,3.6-4.4l1.3,1c-1.1,1.9-2.5,3.5-4.1,5,0,0,0,.1,0,.1,1.2,1.6,2.3,2.4,3.2,2.4s1.3-1.6,1.8-4.6l1.5.9c-.7,3.6-1.7,5.4-3.1,5.4-1.6,0-3-1-4.5-2.9ZM-28.1-927l-1.2.3c-.1-.7-.3-1.3-.4-1.9-1.8.3-3.8.6-6.1.9l-.3-1.3c.9-.3,2.4-2.1,4.4-5.4-1.3.1-2.7.3-4.3.5l-.3-1.2c.7-.3,2-2.6,3.9-6.8l1.5.5c-1.4,3-2.5,5-3.3,6.1,1.2-.1,2.4-.3,3.4-.4.5-.9,1.1-2,1.7-3.1l1.4.5c-2.6,4.7-4.6,7.8-5.9,9.2,1.4-.2,2.6-.4,3.7-.6-.2-.9-.5-1.7-.8-2.5l1.2-.4c.6,1.7,1.2,3.6,1.7,5.7ZM-15.4-927.7l-1.3.3c-.2-.6-.3-1.2-.5-1.8-1.9.3-4.1.6-6.5.9l-.3-1.3c.9-.3,2.4-2.1,4.4-5.2-1.4.2-2.8.3-4.4.5l-.3-1.2c.7-.3,2-2.5,3.9-6.6l1.5.5c-1.4,2.8-2.5,4.7-3.3,5.8l3.5-.4c.5-.9,1-1.8,1.6-2.8l1.4.4c-2.5,4.5-4.5,7.4-5.9,8.7,1.5-.2,2.8-.5,4.1-.7-.3-.9-.6-1.8-1-2.6l1.2-.4c.7,1.6,1.4,3.5,2,5.7Z"/>
    <path d="M-11-911.9l-1.4-1.2c1.7-2.8,2.5-7.2,2.6-13.2v-15h1.8v8.7H-3.5v-9.3h1.8v11h-6.3v5.3H-1.6v13.9h-1.8v-12.2h-4.7c-.3,5.2-1.2,9.2-2.9,11.8ZM17.6-938.8H3.8v6.8h13v1.6c-.8,4.7-2.4,8.6-4.6,11.8,1.7,2.2,3.8,4.1,6.4,5.9l-1.2,1.4c-2.5-1.9-4.6-3.8-6.2-5.9-2,2.4-4.5,4.4-7.5,5.9l-.9-1.6c2.9-1.5,5.3-3.4,7.3-5.8-2.5-3.5-4-7.4-4.6-11.5h-1.7v3c-.1,6.6-1.3,11.9-3.4,15.9l-1.4-1.2c2-3.5,3-8.4,3.1-14.7v-13.3h15.5v1.7ZM11-920.1c1.9-2.9,3.2-6.3,4-10.2h-7.9c.5,3.7,1.8,7.1,3.9,10.2Z"/>
  </g>
  <g>
    <path class="st0" d="M13.9-564.7v.6h-2.2v1.6h2.1v.6h-2.1v2.2h-.7v-5.1h3Z"/>
    <path class="st0" d="M16.7-564.7h.7l2,5.1h-.8l-.6-1.4h-2.1l-.6,1.4h-.8l2.1-5.1ZM16.2-561.6h1.7l-.3-.9c0-.2-.2-.5-.3-.7s-.2-.4-.2-.7h0c0,.2-.2.4-.2.7s-.2.4-.3.7l-.3.9Z"/>
    <path class="st0" d="M22.9-560.1c.3,0,.5,0,.7,0,.2,0,.3-.1.5-.2l.2.6c-.2,0-.4.2-.6.2-.2,0-.5,0-.8,0s-.6,0-.9-.2c-.3-.1-.6-.3-.8-.5-.2-.2-.4-.5-.5-.8-.1-.3-.2-.7-.2-1.1s0-.8.2-1.1c.1-.3.3-.6.5-.8.2-.2.5-.4.8-.5.3-.1.6-.2,1-.2s.6,0,.8,0c.2,0,.4.1.6.2l-.2.6c-.1,0-.2,0-.3-.1,0,0-.2,0-.3,0,0,0-.2,0-.3,0,0,0-.2,0-.3,0-.2,0-.5,0-.7.1-.2,0-.4.2-.6.4s-.3.4-.4.6c0,.3-.1.6-.1.9s0,.7.1.9c0,.3.2.5.4.6.2.2.3.3.5.3s.4.1.7.1Z"/>
    <path class="st0" d="M26.1-564.7h3.1v.6h-2.3v1.5h2.1v.6h-2.1v1.7h2.4v.6h-3.1v-5.1Z"/>
    <path class="st0" d="M32.4-564.7c.5,0,.9.1,1.2.3s.4.5.4,1,0,.6-.3.7c-.2.2-.4.3-.7.4.2,0,.3,0,.4.1.1,0,.2.2.3.3,0,.1.2.2.2.4,0,.1,0,.3,0,.5s0,.4-.1.6-.2.3-.4.4-.4.2-.6.3c-.2,0-.5.1-.7.1h-1.5v-5.1h1.5ZM31.7-562.6h.6c.1,0,.3,0,.4,0,.1,0,.2,0,.3-.1,0,0,.2-.1.2-.2,0,0,0-.2,0-.4,0-.3,0-.4-.3-.6-.2-.1-.4-.2-.7-.2h-.7v1.5ZM31.7-560.2h.6c.2,0,.3,0,.4,0,.1,0,.3,0,.4-.1.1,0,.2-.2.2-.3,0-.1,0-.3,0-.4s0-.3-.1-.4c0-.1-.2-.2-.3-.3-.1,0-.3-.1-.4-.1-.2,0-.3,0-.5,0h-.5v1.8Z"/>
    <path class="st0" d="M38.2-564.8c.3,0,.7,0,1,.2.3.1.5.3.8.5.2.2.4.5.5.8.1.3.2.7.2,1.1s0,.8-.2,1.1c-.1.3-.3.6-.5.8-.2.2-.5.4-.8.5s-.6.2-1,.2-.7,0-1-.2c-.3-.1-.5-.3-.8-.5s-.4-.5-.5-.8c-.1-.3-.2-.7-.2-1.1s0-.8.2-1.1c.1-.3.3-.6.5-.8.2-.2.5-.4.8-.5.3-.1.6-.2,1-.2ZM36.6-562.1c0,.3,0,.6.1.9,0,.3.2.5.3.6s.3.3.5.4c.2,0,.4.1.6.1s.4,0,.6-.1c.2,0,.4-.2.5-.4.1-.2.3-.4.3-.6,0-.3.1-.6.1-.9s0-.7-.1-.9c0-.3-.2-.5-.3-.6-.1-.2-.3-.3-.5-.4s-.4-.1-.6-.1-.4,0-.6.1c-.2,0-.4.2-.5.4-.1.2-.3.4-.3.6s-.1.6-.1.9Z"/>
    <path class="st0" d="M44.6-564.8c.3,0,.7,0,1,.2.3.1.5.3.8.5.2.2.4.5.5.8.1.3.2.7.2,1.1s0,.8-.2,1.1c-.1.3-.3.6-.5.8-.2.2-.5.4-.8.5s-.6.2-1,.2-.7,0-1-.2c-.3-.1-.5-.3-.8-.5s-.4-.5-.5-.8c-.1-.3-.2-.7-.2-1.1s0-.8.2-1.1c.1-.3.3-.6.5-.8.2-.2.5-.4.8-.5.3-.1.6-.2,1-.2ZM43-562.1c0,.3,0,.6.1.9,0,.3.2.5.3.6s.3.3.5.4c.2,0,.4.1.6.1s.4,0,.6-.1c.2,0,.4-.2.5-.4.1-.2.3-.4.3-.6,0-.3.1-.6.1-.9s0-.7-.1-.9c0-.3-.2-.5-.3-.6-.1-.2-.3-.3-.5-.4s-.4-.1-.6-.1-.4,0-.6.1c-.2,0-.4.2-.5.4-.1.2-.3.4-.3.6s-.1.6-.1.9Z"/>
    <path class="st0" d="M48.8-559.6v-5.1h.7v2.3l2.1-2.3h.9l-2.1,2.3,2.3,2.8h-.9l-1.9-2.3-.4.5v1.9h-.7Z"/>
  </g>
  <path class="st0" d="M36.2-589.8h-3s-3.1,0-3.1,3.1v3.1h-2.7v2.8h2.8v8h3.1v-8.1h2.8v-2.7h-2.9v-2.4s0-1.3,1.3-1.3h1.8v-2.6Z"/>
  <line class="st2" x1="-307.8" y1="-682.5" x2="-441.7" y2="-682.5"/>
  <g>
    <g>
      <path class="st0" d="M-407.1-715v-8.4h3.1c.6,0,1.2.1,1.6.3.4.2.8.5,1,.9.2.4.3.9.3,1.4s-.1,1-.3,1.4c-.2.4-.6.7-1,.9s-1,.3-1.6.3h-2.3v-1.2h2.1c.4,0,.7,0,1-.2.3-.1.4-.3.6-.5.1-.2.2-.5.2-.8s0-.6-.2-.8c-.1-.2-.3-.4-.6-.5-.3-.1-.6-.2-1-.2h-1.5v7.3h-1.4ZM-402.3-715l-2-3.8h1.5l2.1,3.8h-1.6Z"/>
      <path class="st0" d="M-397.2-715v-8.4h5.4v1.2h-4v2.4h3.7v1.2h-3.7v2.5h4v1.2h-5.4Z"/>
      <path class="st0" d="M-385-714.9c-.6,0-1.2-.1-1.7-.3s-.8-.5-1.1-.9c-.3-.4-.4-.8-.4-1.4h1.4c0,.3.1.6.3.8.2.2.4.3.7.4.3,0,.6.1.9.1s.7,0,.9-.2c.3-.1.5-.3.6-.5.2-.2.2-.4.2-.7s0-.4-.2-.6c-.1-.2-.3-.3-.6-.4-.2-.1-.5-.2-.8-.3l-1-.3c-.7-.2-1.2-.5-1.6-.8-.4-.4-.6-.8-.6-1.4s.1-.9.4-1.3c.3-.4.6-.7,1.1-.9.5-.2,1-.3,1.5-.3s1.1.1,1.6.3c.4.2.8.5,1,.8s.4.8.4,1.2h-1.3c0-.4-.2-.7-.5-.9s-.7-.3-1.2-.3-.6,0-.9.2c-.2.1-.4.2-.6.4-.1.2-.2.4-.2.6s0,.5.2.6c.2.2.4.3.6.4.2,0,.5.2.7.2l.8.2c.3,0,.6.2.9.3.3.1.6.3.8.5.2.2.4.4.6.7.1.3.2.6.2,1s-.1.9-.4,1.3c-.2.4-.6.7-1.1.9-.5.2-1,.3-1.7.3Z"/>
      <path class="st0" d="M-378.1-715v-8.4h5.4v1.2h-4v2.4h3.7v1.2h-3.7v2.5h4v1.2h-5.4Z"/>
      <path class="st0" d="M-368.7-715v-8.4h3.1c.7,0,1.2.1,1.6.3.4.2.8.5,1,.9.2.4.3.9.3,1.4s-.1,1-.3,1.4c-.2.4-.6.7-1,.9s-1,.3-1.6.3h-2.3v-1.2h2.1c.4,0,.7,0,1-.2.3-.1.4-.3.6-.5.1-.2.2-.5.2-.8s0-.6-.2-.8c-.1-.2-.3-.4-.6-.5-.3-.1-.6-.2-1-.2h-1.5v7.3h-1.4ZM-363.9-715l-2-3.8h1.5l2.1,3.8h-1.6Z"/>
      <path class="st0" d="M-356.6-715l-3-8.4h1.5l1.6,4.6c.1.4.3.9.4,1.4.2.5.3,1.2.5,1.9h-.3c.2-.7.4-1.4.5-1.9.2-.5.3-1,.4-1.4l1.5-4.6h1.5l-3,8.4h-1.7Z"/>
      <path class="st0" d="M-348.4-715v-8.4h5.4v1.2h-4v2.4h3.7v1.2h-3.7v2.5h4v1.2h-5.4Z"/>
    </g>
    <g>
      <path class="st0" d="M-414.4-749.1c.6-.6,1.1-1.3,1.6-2.1h-4.4v-1.8h6.4v1.5c-.8,1.4-1.6,2.6-2.5,3.6.3.3.5.6.7.9h2.6v1.2c-.3,1.5-.6,2.7-1,3.5l-1.6-.6c.3-.6.5-1.4.7-2.2h-1.5v7.4c0,1.2-.6,1.8-1.7,1.8h-1.9l-.4-1.8c.6,0,1.1.1,1.6.1s.4-.2.4-.6v-6.9h-2.6v-1.8h3.1c-.7-.8-1.5-1.6-2.4-2.5l1.4-.9c.5.5.9.9,1.3,1.3ZM-406.7-750c.2-.4.3-.8.4-1.1h-3.7v-1.8h9.5v1.8h-3.8c-.1.4-.2.8-.4,1.1h3.6v10.5h-2.1c1.2.7,2.2,1.5,3.1,2.2l-1.3,1.3c-.7-.8-1.8-1.6-3.1-2.5l1-1h-3.5l1.1,1c-1,1-2.2,1.9-3.7,2.6l-1.1-1.4c1.4-.6,2.5-1.4,3.4-2.2h-2.1v-10.5h2.7ZM-403-747.1v-1.4h-4.5v1.4h4.5ZM-403-744.1v-1.4h-4.5v1.4h4.5ZM-403-742.6h-4.5v1.5h4.5v-1.5Z"/>
      <path class="st0" d="M-392.4-740.6c-.1,1.7-.3,3.3-.7,4.6l-1.7-.5c.4-1.2.6-2.7.8-4.3l1.6.2ZM-387-742.1l-1.7.4c0-.3-.1-.5-.2-.8-1.8.5-3.6.8-5.2,1l-.5-1.7c.3-.1.6-.3.9-.5.6-.6,1.4-1.5,2.3-2.8-.9,0-1.8.2-2.8.3l-.5-1.7c.3-.1.6-.4.8-.7,1-1.5,1.8-3.2,2.5-5l1.8.7c-.9,2-1.9,3.6-2.9,4.8.7,0,1.4-.2,2.1-.3.4-.7.9-1.5,1.4-2.4l1.7.7c-1.8,3-3.4,5.2-4.6,6.5.8-.2,1.7-.3,2.5-.5-.2-.5-.3-1-.5-1.5l1.6-.5c.5,1.1.9,2.4,1.2,3.9ZM-389.4-736.9l-1.7.4c-.2-1.6-.3-3-.5-4.2l1.6-.3c.2,1.3.5,2.6.7,4.1ZM-386.8-738.2l-1.5.7c-.3-1.3-.6-2.4-1-3.4l1.4-.5c.4,1,.8,2,1.1,3.2ZM-383.1-753.2c-.2,1-.5,1.9-.8,2.9h6c0,6.6,0,10.7-.3,12.2-.2,1.4-1.1,2.1-2.8,2.1s-1.1,0-2.1-.1l-.5-1.8c.9,0,1.6,0,2.2,0s1.2-.4,1.3-1.2c.1-.9.2-4,.2-9.4h-4.9c-.6,1.1-1.3,2.1-2.1,3l-1.2-1.6c1.5-1.8,2.6-3.9,3.1-6.5l1.9.2ZM-381.4-741.9l-1.6,1.1c-.7-1.3-1.7-2.8-2.9-4.4l1.5-1c1.3,1.6,2.3,3,3,4.2Z"/>
      <path class="st0" d="M-364.3-752v-1.4h2v1.4h6.6v1.8h-6.6v1.2h5.5v1.8h-5.5v1.3h7.1v1.8h-8.6c-.6.9-1.4,1.7-2.3,2.4v3.4c1.3-.4,2.6-.9,3.8-1.4l.4,1.8c-2,.8-3.9,1.4-6,2l-.6-1.7c.3-.2.5-.4.5-.7v-2.1c-.9.5-1.9,1-3,1.5l-1.1-1.7c2.7-.9,4.8-2.1,6.2-3.5h-5.4v-1.8h7.1v-1.3h-5.5v-1.8h5.5v-1.2h-6.6v-1.8h6.6ZM-355.8-742.2c-.9.9-2,1.7-3.1,2.2,1.2,1.1,2.7,1.9,4.5,2.4l-1.2,1.8c-3.4-1.2-5.8-3.4-7.2-6.6l1.5-.9c.3.8.7,1.5,1.2,2.1,1-.5,2-1.3,2.9-2.3l1.4,1.4Z"/>
      <path class="st0" d="M-333.6-747.9v6.7h-5.8v1.1h7.3v1.7h-7.3v2.5h-2v-2.5h-7.3v-1.7h7.3v-1.1h-5.8v-6.7h13.7ZM-341.1-752.9v4.2h-6.9v-4.2h6.9ZM-343-751.5h-3.1v1.4h3.1v-1.4ZM-341.5-745.2v-1.1h-3.9v1.1h3.9ZM-341.5-743.8h-3.9v1.1h3.9v-1.1ZM-332.9-752.9v4.2h-7v-4.2h7ZM-339.5-745.2h3.9v-1.1h-3.9v1.1ZM-335.6-743.8h-3.9v1.1h3.9v-1.1ZM-334.9-751.5h-3.1v1.5h3.1v-1.5Z"/>
    </g>
  </g>
  <g>
    <path class="st0" d="M-424.3,13.4h1.1v6.6h3.2v.9h-4.3v-7.5Z"/>
    <path class="st0" d="M-414.7,13.3c.5,0,1,0,1.4.2.4.2.8.4,1.1.7.3.3.6.7.7,1.2.2.5.3,1,.3,1.7s0,1.2-.3,1.7c-.2.5-.4.9-.8,1.2-.3.3-.7.6-1.1.7s-.9.2-1.4.2-1,0-1.4-.2c-.4-.2-.8-.4-1.1-.7s-.6-.7-.7-1.2c-.2-.5-.3-1-.3-1.7s0-1.2.3-1.7c.2-.5.4-.9.8-1.2.3-.3.7-.6,1.1-.7.4-.2.9-.2,1.4-.2ZM-417,17.2c0,.5,0,.9.2,1.3.1.4.3.7.5.9s.5.4.8.5c.3.1.6.2.9.2s.6,0,.9-.2c.3-.1.5-.3.7-.5.2-.2.4-.6.5-.9.1-.4.2-.8.2-1.3s0-1-.2-1.3c-.1-.4-.3-.7-.5-.9-.2-.2-.5-.4-.8-.5s-.6-.2-.9-.2-.6,0-.9.2c-.3.1-.5.3-.7.5-.2.2-.4.6-.5.9s-.2.8-.2,1.3Z"/>
    <path class="st0" d="M-405.2,20.1c.4,0,.7,0,1,0,.3,0,.5-.2.8-.3l.2.9c-.3.1-.6.2-.9.3-.3,0-.7,0-1.2,0s-1,0-1.4-.2c-.4-.2-.8-.4-1.1-.7-.3-.3-.6-.7-.8-1.2-.2-.5-.3-1-.3-1.7s0-1.2.3-1.6c.2-.5.4-.9.8-1.2.3-.3.7-.6,1.2-.7.4-.2.9-.3,1.5-.3s.9,0,1.2.1c.3,0,.6.2.9.3l-.3.9c-.2,0-.3-.1-.4-.2-.1,0-.3,0-.4-.1-.1,0-.3,0-.4,0-.1,0-.3,0-.5,0-.3,0-.7,0-1,.2-.3.1-.6.3-.8.5s-.4.5-.6.9c-.1.4-.2.8-.2,1.4s0,1,.2,1.4c.1.4.3.7.5.9.2.2.5.4.8.5s.6.2,1,.2Z"/>
    <path class="st0" d="M-398.5,13.4h1l3,7.5h-1.1l-.8-2.1h-3.1l-.8,2.1h-1.1l3-7.5ZM-399.3,18h2.5l-.5-1.3c-.1-.3-.3-.7-.4-1s-.2-.6-.3-1h0c-.1.3-.2.7-.3,1s-.2.6-.4,1l-.5,1.3Z"/>
    <path class="st0" d="M-388.3,13.4v.9h-2.3v6.6h-1.1v-6.6h-2.3v-.9h5.7Z"/>
    <path class="st0" d="M-385,13.4v7.5h-1.1v-7.5h1.1Z"/>
    <path class="st0" d="M-378.7,13.3c.5,0,1,0,1.4.2.4.2.8.4,1.1.7.3.3.6.7.7,1.2.2.5.3,1,.3,1.7s0,1.2-.3,1.7c-.2.5-.4.9-.8,1.2-.3.3-.7.6-1.1.7s-.9.2-1.4.2-1,0-1.4-.2c-.4-.2-.8-.4-1.1-.7s-.6-.7-.7-1.2c-.2-.5-.3-1-.3-1.7s0-1.2.3-1.7c.2-.5.4-.9.8-1.2.3-.3.7-.6,1.1-.7.4-.2.9-.2,1.4-.2ZM-381.1,17.2c0,.5,0,.9.2,1.3.1.4.3.7.5.9s.5.4.8.5c.3.1.6.2.9.2s.6,0,.9-.2c.3-.1.5-.3.7-.5.2-.2.4-.6.5-.9.1-.4.2-.8.2-1.3s0-1-.2-1.3c-.1-.4-.3-.7-.5-.9-.2-.2-.5-.4-.8-.5s-.6-.2-.9-.2-.6,0-.9.2c-.3.1-.5.3-.7.5-.2.2-.4.6-.5.9s-.2.8-.2,1.3Z"/>
    <path class="st0" d="M-372.5,13.4h1l3.4,4.7c.1.2.2.4.4.5.1.2.2.4.3.5h0c0-.3,0-.6,0-.8s0-.6,0-.8v-4.1h1.1v7.5h-1l-3.4-4.7c-.1-.2-.2-.4-.4-.6-.1-.2-.2-.4-.4-.6h0c0,.3,0,.7,0,1,0,.3,0,.7,0,1v3.9h-1.1v-7.5Z"/>
  </g>
  <path class="st0" d="M-462.6,12.9c0-5.7-4.4-10.2-9.9-10.2s-9.9,4.6-9.9,10.2.3,2.6.7,3.8h0l.2.3c.3.7.6,1.3,1.1,1.9l3.4,6,4.6,8.3,4.6-8.3,3.4-6c.4-.6.8-1.2,1.1-1.9l.2-.3h0c.4-1.2.7-2.4.7-3.8ZM-472.5,18.8c-3.1,0-5.7-2.6-5.7-5.9s2.5-5.9,5.7-5.9,5.7,2.6,5.7,5.9-2.5,5.9-5.7,5.9Z"/>
  <path class="st0" d="M-279.5-1h-5s-5.3,0-5.3,5.2v5.3h-4.5v4.6h4.6v13.4h5.2v-13.5h4.6v-4.5h-4.8v-4s-.1-2.2,2.2-2.2h3.1V-1Z"/>
  <g>
    <path class="st0" d="M-242.3,12.6v.9h-3.3v2.4h3.1v.9h-3.1v3.3h-1.1v-7.5h4.4Z"/>
    <path class="st0" d="M-238.1,12.6h1l3,7.5h-1.1l-.8-2.1h-3.1l-.8,2.1h-1.1l3-7.5ZM-238.9,17.1h2.5l-.5-1.3c-.1-.3-.3-.7-.4-1s-.2-.6-.3-1h0c-.1.3-.2.7-.3,1s-.2.6-.4,1l-.5,1.3Z"/>
    <path class="st0" d="M-229,19.3c.4,0,.7,0,1,0,.3,0,.5-.2.8-.3l.2.9c-.3.1-.6.2-.9.3-.3,0-.7,0-1.2,0s-1,0-1.4-.2c-.4-.2-.8-.4-1.1-.7-.3-.3-.6-.7-.8-1.2-.2-.5-.3-1-.3-1.7s0-1.2.3-1.6c.2-.5.4-.9.8-1.2.3-.3.7-.6,1.2-.7.4-.2.9-.3,1.5-.3s.9,0,1.2.1c.3,0,.6.2.9.3l-.3.9c-.2,0-.3-.1-.4-.2-.1,0-.3,0-.4-.1-.1,0-.3,0-.4,0-.1,0-.3,0-.5,0-.3,0-.7,0-1,.2-.3.1-.6.3-.8.5s-.4.5-.6.9c-.1.4-.2.8-.2,1.4s0,1,.2,1.4c.1.4.3.7.5.9.2.2.5.4.8.5s.6.2,1,.2Z"/>
    <path class="st0" d="M-224.4,12.6h4.5v.9h-3.4v2.2h3.1v.9h-3.1v2.5h3.5v.9h-4.6v-7.5Z"/>
    <path class="st0" d="M-215,12.6c.7,0,1.3.2,1.7.5s.6.8.6,1.4-.1.8-.4,1.1c-.3.3-.6.4-1,.5.2,0,.4.1.6.2.2,0,.4.2.5.4.1.2.3.3.3.6,0,.2.1.5.1.7s0,.6-.2.8-.3.5-.6.7-.5.3-.8.4c-.3.1-.7.2-1.1.2h-2.2v-7.5h2.3ZM-216.2,15.7h.9c.2,0,.4,0,.6,0,.2,0,.3,0,.5-.2.1,0,.2-.2.3-.4,0-.1.1-.3.1-.6,0-.4-.1-.7-.4-.8-.3-.2-.6-.3-1-.3h-1v2.2ZM-216.2,19.2h1c.2,0,.4,0,.6,0,.2,0,.4-.1.5-.2.2-.1.3-.2.4-.4,0-.2.1-.4.1-.6s0-.4-.2-.6c-.1-.2-.2-.3-.4-.4-.2-.1-.4-.2-.6-.2-.2,0-.4,0-.7,0h-.8v2.6Z"/>
    <path class="st0" d="M-206.5,12.5c.5,0,1,0,1.4.2.4.2.8.4,1.1.7.3.3.6.7.7,1.2.2.5.3,1,.3,1.7s0,1.2-.3,1.7c-.2.5-.4.9-.8,1.2-.3.3-.7.6-1.1.7s-.9.2-1.4.2-1,0-1.4-.2c-.4-.2-.8-.4-1.1-.7s-.6-.7-.7-1.2c-.2-.5-.3-1-.3-1.7s0-1.2.3-1.7c.2-.5.4-.9.8-1.2.3-.3.7-.6,1.1-.7.4-.2.9-.2,1.4-.2ZM-208.9,16.3c0,.5,0,.9.2,1.3.1.4.3.7.5.9s.5.4.8.5c.3.1.6.2.9.2s.6,0,.9-.2c.3-.1.5-.3.7-.5.2-.2.4-.6.5-.9.1-.4.2-.8.2-1.3s0-1-.2-1.3c-.1-.4-.3-.7-.5-.9-.2-.2-.5-.4-.8-.5s-.6-.2-.9-.2-.6,0-.9.2c-.3.1-.5.3-.7.5-.2.2-.4.6-.5.9s-.2.8-.2,1.3Z"/>
    <path class="st0" d="M-197.1,12.5c.5,0,1,0,1.4.2.4.2.8.4,1.1.7.3.3.6.7.7,1.2.2.5.3,1,.3,1.7s0,1.2-.3,1.7c-.2.5-.4.9-.8,1.2-.3.3-.7.6-1.1.7s-.9.2-1.4.2-1,0-1.4-.2c-.4-.2-.8-.4-1.1-.7s-.6-.7-.7-1.2c-.2-.5-.3-1-.3-1.7s0-1.2.3-1.7c.2-.5.4-.9.8-1.2.3-.3.7-.6,1.1-.7.4-.2.9-.2,1.4-.2ZM-199.5,16.3c0,.5,0,.9.2,1.3.1.4.3.7.5.9s.5.4.8.5c.3.1.6.2.9.2s.6,0,.9-.2c.3-.1.5-.3.7-.5.2-.2.4-.6.5-.9.1-.4.2-.8.2-1.3s0-1-.2-1.3c-.1-.4-.3-.7-.5-.9-.2-.2-.5-.4-.8-.5s-.6-.2-.9-.2-.6,0-.9.2c-.3.1-.5.3-.7.5-.2.2-.4.6-.5.9s-.2.8-.2,1.3Z"/>
    <path class="st0" d="M-190.9,20.1v-7.5h1.1v3.4l3.2-3.4h1.4l-3.1,3.3,3.3,4.2h-1.4l-2.7-3.4-.6.7v2.7h-1.1Z"/>
  </g>
  <path class="st0" d="M-121.1,7.3c-4-5.2-12-6.1-17.5-3-3,1.7-5.1,4.7-5.8,8.1-.9,4.3,1.3,8.3,4.5,11.1v5c-.1,0,4.7-2.6,4.7-2.6.3-.2,1.9.3,2.3.3,1.8.1,3.6,0,5.3-.5,4.6-1.3,8.2-5.4,8.8-10.2.4-2.9-.5-5.9-2.2-8.3ZM-130.2,18.4l-3.5-3.5-6.3,3.3,7-7,3.4,3.4,6.2-3.4-6.8,7.2Z"/>
  <g>
    <path class="st0" d="M-80.2,8.7h1.4l1.6,4.8c0,.2.2.5.2.7,0,.2.1.4.2.7h0c0-.2.1-.4.2-.6s.1-.4.2-.7l1.5-4.8h1.4l.7,7.5h-1.1l-.3-4c0-.4,0-.8,0-1.2,0-.4,0-.8,0-1.2h0c-.1.4-.2.8-.3,1.2s-.2.8-.4,1.2l-1.3,4h-1l-1.3-4c-.1-.4-.3-.8-.4-1.2-.1-.4-.2-.8-.3-1.2h0c0,.4,0,.8,0,1.2,0,.4,0,.8,0,1.2l-.3,4h-1.1l.6-7.5Z"/>
    <path class="st0" d="M-69.8,8.7h4.5v.9h-3.4v2.2h3.1v.9h-3.1v2.5h3.5v.9h-4.6v-7.5Z"/>
    <path class="st0" d="M-60.5,8.6c.4,0,.7,0,1.1,0,.3,0,.7.2,1,.3l-.3.9c-.3-.2-.6-.3-.9-.3-.3,0-.6-.1-.8-.1-.5,0-.8,0-1.1.3-.3.2-.4.5-.4.8s0,.5.3.7c.2.2.5.3,1,.5l.8.2c.7.2,1.2.5,1.4.9.3.4.4.8.4,1.2s0,.6-.2.9c-.1.3-.3.5-.5.7s-.5.3-.8.4c-.3,0-.7.1-1,.1s-.8,0-1.2-.1c-.4,0-.8-.2-1.2-.4l.3-.9c.3.2.7.3,1,.4.3,0,.7.1,1,.1s.8,0,1.1-.3c.3-.2.5-.5.5-.9s0-.3,0-.4c0-.1-.1-.2-.2-.4s-.3-.2-.4-.3-.4-.2-.7-.3l-.8-.2c-.5-.2-1-.4-1.3-.7-.3-.3-.4-.7-.4-1.2s.2-1.2.6-1.6c.4-.4,1.1-.6,1.9-.6Z"/>
    <path class="st0" d="M-53.5,8.6c.4,0,.7,0,1.1,0,.3,0,.7.2,1,.3l-.3.9c-.3-.2-.6-.3-.9-.3-.3,0-.6-.1-.8-.1-.5,0-.8,0-1.1.3-.3.2-.4.5-.4.8s0,.5.3.7c.2.2.5.3,1,.5l.8.2c.7.2,1.2.5,1.4.9.3.4.4.8.4,1.2s0,.6-.2.9c-.1.3-.3.5-.5.7s-.5.3-.8.4c-.3,0-.7.1-1,.1s-.8,0-1.2-.1c-.4,0-.8-.2-1.2-.4l.3-.9c.3.2.7.3,1,.4.3,0,.7.1,1,.1s.8,0,1.1-.3c.3-.2.5-.5.5-.9s0-.3,0-.4c0-.1-.1-.2-.2-.4s-.3-.2-.4-.3-.4-.2-.7-.3l-.8-.2c-.5-.2-1-.4-1.3-.7-.3-.3-.4-.7-.4-1.2s.2-1.2.6-1.6c.4-.4,1.1-.6,1.9-.6Z"/>
    <path class="st0" d="M-46.4,8.7h1l3,7.5h-1.1l-.8-2.1h-3.1l-.8,2.1h-1.1l3-7.5ZM-47.2,13.3h2.5l-.5-1.3c-.1-.3-.3-.7-.4-1s-.2-.6-.3-1h0c-.1.3-.2.7-.3,1s-.2.6-.4,1l-.5,1.3Z"/>
    <path class="st0" d="M-37.2,8.6c.4,0,.8,0,1.2,0s.7.2,1,.3l-.3.9c-.3-.1-.6-.2-.9-.3-.3,0-.6,0-.9,0s-.7,0-1,.2c-.3.1-.6.3-.8.5-.2.2-.4.5-.6.9-.1.4-.2.8-.2,1.4,0,1,.2,1.7.7,2.2s1.1.7,1.8.7.6,0,.8,0c.2,0,.4,0,.6-.2v-2.1h-1.4v-.9h2.4v3.6c-.3.1-.7.2-1.1.3-.4,0-.8.1-1.4.1s-1,0-1.4-.2c-.4-.2-.8-.4-1.2-.7-.3-.3-.6-.7-.8-1.2-.2-.5-.3-1-.3-1.7s0-1.2.3-1.7c.2-.5.4-.9.8-1.2.3-.3.7-.6,1.2-.7.5-.2.9-.2,1.5-.2Z"/>
    <path class="st0" d="M-31.9,8.7h4.5v.9h-3.4v2.2h3.1v.9h-3.1v2.5h3.5v.9h-4.6v-7.5Z"/>
  </g>
  <path class="st0" d="M6.6,28.1c1.7-.3,3.4-1.2,4.9-2.2,5.3-3.6,8.7-8.5,10-14.8.4-2,.4-4.1-.8-5.9-1-1.6-2.5-2.4-4.4-2.3-.6,0-.9.2-1.2.8-.6,1.5-1.2,3.1-1.8,4.6-.4,1-.3,1.2.6,1.8.7.5,1.4,1,2.1,1.5.5.3.6.7.4,1.2-1.2,3.9-3.5,6.9-6.9,9.1-.5.3-.9.3-1.4,0-.7-.6-1.4-1.2-2.1-1.8-.4-.4-.9-.5-1.4,0-1.5,1.1-2.9,2.2-4.4,3.3-.4.3-.4.8-.3,1.3.9,2.8,3.2,4.2,6.5,3.7Z"/>
  <g>
    <path class="st0" d="M56.3,18.4c.4,0,.7,0,1,0,.3,0,.5-.2.8-.3l.2.9c-.3.1-.6.2-.9.3-.3,0-.7,0-1.2,0s-1,0-1.4-.2c-.4-.2-.8-.4-1.1-.7-.3-.3-.6-.7-.8-1.2-.2-.5-.3-1-.3-1.7s0-1.2.3-1.6c.2-.5.4-.9.8-1.2.3-.3.7-.6,1.2-.7.4-.2.9-.3,1.5-.3s.9,0,1.2.1c.3,0,.6.2.9.3l-.3.9c-.2,0-.3-.1-.4-.2-.1,0-.3,0-.4-.1-.1,0-.3,0-.4,0-.1,0-.3,0-.5,0-.3,0-.7,0-1,.2-.3.1-.6.3-.8.5s-.4.5-.6.9c-.1.4-.2.8-.2,1.4s0,1,.2,1.4c.1.4.3.7.5.9.2.2.5.4.8.5s.6.2,1,.2Z"/>
    <path class="st0" d="M63.8,11.6c.5,0,1,0,1.4.2.4.2.8.4,1.1.7.3.3.6.7.7,1.2.2.5.3,1,.3,1.7s0,1.2-.3,1.7c-.2.5-.4.9-.8,1.2-.3.3-.7.6-1.1.7s-.9.2-1.4.2-1,0-1.4-.2c-.4-.2-.8-.4-1.1-.7s-.6-.7-.7-1.2c-.2-.5-.3-1-.3-1.7s0-1.2.3-1.7c.2-.5.4-.9.8-1.2.3-.3.7-.6,1.1-.7.4-.2.9-.2,1.4-.2ZM61.4,15.5c0,.5,0,.9.2,1.3.1.4.3.7.5.9s.5.4.8.5c.3.1.6.2.9.2s.6,0,.9-.2c.3-.1.5-.3.7-.5.2-.2.4-.6.5-.9.1-.4.2-.8.2-1.3s0-1-.2-1.3c-.1-.4-.3-.7-.5-.9-.2-.2-.5-.4-.8-.5s-.6-.2-.9-.2-.6,0-.9.2c-.3.1-.5.3-.7.5-.2.2-.4.6-.5.9s-.2.8-.2,1.3Z"/>
    <path class="st0" d="M70,11.8h1l3.4,4.7c.1.2.2.4.4.5.1.2.2.4.3.5h0c0-.3,0-.6,0-.8s0-.6,0-.8v-4.1h1.1v7.5h-1l-3.4-4.7c-.1-.2-.2-.4-.4-.6-.1-.2-.2-.4-.4-.6h0c0,.3,0,.7,0,1,0,.3,0,.7,0,1v3.9h-1.1v-7.5Z"/>
    <path class="st0" d="M84.1,11.8v.9h-2.3v6.6h-1.1v-6.6h-2.3v-.9h5.7Z"/>
    <path class="st0" d="M87.6,11.8h1l3,7.5h-1.1l-.8-2.1h-3.1l-.8,2.1h-1.1l3-7.5ZM86.8,16.3h2.5l-.5-1.3c-.1-.3-.3-.7-.4-1s-.2-.6-.3-1h0c-.1.3-.2.7-.3,1s-.2.6-.4,1l-.5,1.3Z"/>
    <path class="st0" d="M96.7,18.4c.4,0,.7,0,1,0,.3,0,.5-.2.8-.3l.2.9c-.3.1-.6.2-.9.3-.3,0-.7,0-1.2,0s-1,0-1.4-.2c-.4-.2-.8-.4-1.1-.7-.3-.3-.6-.7-.8-1.2-.2-.5-.3-1-.3-1.7s0-1.2.3-1.6c.2-.5.4-.9.8-1.2.3-.3.7-.6,1.2-.7.4-.2.9-.3,1.5-.3s.9,0,1.2.1c.3,0,.6.2.9.3l-.3.9c-.2,0-.3-.1-.4-.2-.1,0-.3,0-.4-.1-.1,0-.3,0-.4,0-.1,0-.3,0-.5,0-.3,0-.7,0-1,.2-.3.1-.6.3-.8.5s-.4.5-.6.9c-.1.4-.2.8-.2,1.4s0,1,.2,1.4c.1.4.3.7.5.9.2.2.5.4.8.5s.6.2,1,.2Z"/>
    <path class="st0" d="M106.2,11.8v.9h-2.3v6.6h-1.1v-6.6h-2.3v-.9h5.7Z"/>
    <path class="st0" d="M112.2,11.8h1.1v4.5c0,.8.1,1.4.4,1.7.3.3.8.5,1.4.5s1.1-.2,1.4-.6c.3-.4.4-.9.4-1.5v-4.6h1.1v4.6c0,1-.3,1.8-.8,2.3-.5.5-1.2.7-2.2.7s-1.7-.2-2.2-.7c-.5-.5-.8-1.3-.8-2.3v-4.5Z"/>
    <path class="st0" d="M123.2,11.6c.4,0,.7,0,1.1,0,.3,0,.7.2,1,.3l-.3.9c-.3-.2-.6-.3-.9-.3-.3,0-.6-.1-.8-.1-.5,0-.8,0-1.1.3-.3.2-.4.5-.4.8s0,.5.3.7c.2.2.5.3,1,.5l.8.2c.7.2,1.2.5,1.4.9.3.4.4.8.4,1.2s0,.6-.2.9c-.1.3-.3.5-.5.7s-.5.3-.8.4c-.3,0-.7.1-1,.1s-.8,0-1.2-.1c-.4,0-.8-.2-1.2-.4l.3-.9c.3.2.7.3,1,.4.3,0,.7.1,1,.1s.8,0,1.1-.3c.3-.2.5-.5.5-.9s0-.3,0-.4c0-.1-.1-.2-.2-.4s-.3-.2-.4-.3-.4-.2-.7-.3l-.8-.2c-.5-.2-1-.4-1.3-.7-.3-.3-.4-.7-.4-1.2s.2-1.2.6-1.6c.4-.4,1.1-.6,1.9-.6Z"/>
  </g>
</svg>