<svg width="54" height="9" viewBox="0 0 54 9" fill="none" xmlns="http://www.w3.org/2000/svg">
<path d="M0.650276 0.720001H2.08028L3.65028 5.5C3.73028 5.73 3.81027 5.95001 3.88027 6.17001C3.95027 6.39001 4.02028 6.60999 4.08028 6.82999H4.10027C4.16027 6.60999 4.23028 6.39 4.30028 6.19C4.37028 5.99 4.44027 5.75 4.53027 5.5L6.07027 0.720001H7.50027L8.16028 8.20999H7.06027L6.75027 4.23999C6.72027 3.84999 6.69028 3.46999 6.68027 3.07999C6.66027 2.69999 6.65027 2.31 6.63027 1.91H6.61028C6.50028 2.3 6.39027 2.69001 6.27027 3.07001C6.15027 3.45001 6.03028 3.85001 5.91028 4.23001L4.59027 8.20001H3.59027L2.27027 4.22C2.13027 3.82 2.01028 3.43 1.90028 3.06C1.79028 2.69 1.68027 2.30999 1.57027 1.89999H1.55028C1.53028 2.28999 1.51028 2.68 1.48028 3.06C1.45028 3.45 1.42027 3.84 1.39027 4.22L1.10027 8.19H0.0302734L0.660278 0.700012L0.650276 0.720001Z" fill="#D15E52"/>
<path d="M11.0605 0.720001H15.5905V1.62H12.1606V3.87H15.2805V4.76001H12.1606V7.29999H15.6305V8.20001H11.0705V0.709991L11.0605 0.720001Z" fill="#D15E52"/>
<path d="M20.33 0.609985C20.7 0.609985 21.05 0.640012 21.39 0.700012C21.73 0.760012 22.07 0.869999 22.4 1.03L22.14 1.92999C21.8 1.76999 21.49 1.66 21.22 1.59C20.95 1.52 20.67 1.48999 20.38 1.48999C19.93 1.48999 19.57 1.59001 19.31 1.79001C19.05 1.99001 18.92 2.27 18.92 2.62C18.92 2.92 19.02 3.16001 19.21 3.35001C19.4 3.53001 19.72 3.68999 20.17 3.82999L20.92 4.07001C21.6 4.28001 22.09 4.57 22.37 4.94C22.65 5.31 22.79 5.71999 22.79 6.17999C22.79 6.49999 22.72 6.80001 22.59 7.07001C22.46 7.34001 22.28 7.56 22.04 7.75C21.8 7.94 21.53 8.07999 21.21 8.17999C20.89 8.27999 20.54 8.32999 20.16 8.32999C19.78 8.32999 19.39 8.30001 19 8.23001C18.61 8.16001 18.22 8.03999 17.83 7.85999L18.09 6.97C18.43 7.14 18.76 7.26 19.09 7.34C19.42 7.42 19.76 7.45999 20.11 7.45999C20.54 7.45999 20.9 7.36 21.21 7.16C21.51 6.96 21.66 6.67 21.66 6.28C21.66 6.14 21.64 6 21.59 5.88C21.55 5.76 21.47 5.64 21.36 5.53C21.25 5.42 21.11 5.32 20.93 5.22C20.75 5.12 20.52 5.03001 20.24 4.95001L19.49 4.70999C18.94 4.53999 18.52 4.3 18.23 4C17.94 3.7 17.79 3.29 17.79 2.78C17.79 2.12 18.01 1.6 18.44 1.22C18.87 0.840001 19.5 0.640015 20.33 0.640015V0.609985Z" fill="#D15E52"/>
<path d="M27.3603 0.609985C27.7303 0.609985 28.0803 0.640012 28.4203 0.700012C28.7603 0.760012 29.1003 0.869999 29.4303 1.03L29.1703 1.92999C28.8303 1.76999 28.5203 1.66 28.2503 1.59C27.9803 1.52 27.7003 1.48999 27.4103 1.48999C26.9603 1.48999 26.6003 1.59001 26.3403 1.79001C26.0803 1.99001 25.9503 2.27 25.9503 2.62C25.9503 2.92 26.0503 3.16001 26.2403 3.35001C26.4303 3.53001 26.7503 3.68999 27.2003 3.82999L27.9503 4.07001C28.6303 4.28001 29.1203 4.57 29.4003 4.94C29.6803 5.31 29.8203 5.71999 29.8203 6.17999C29.8203 6.49999 29.7503 6.80001 29.6203 7.07001C29.4903 7.34001 29.3103 7.56 29.0703 7.75C28.8303 7.94 28.5603 8.07999 28.2403 8.17999C27.9203 8.27999 27.5703 8.32999 27.1903 8.32999C26.8103 8.32999 26.4203 8.30001 26.0303 8.23001C25.6403 8.16001 25.2503 8.03999 24.8603 7.85999L25.1203 6.97C25.4603 7.14 25.7903 7.26 26.1203 7.34C26.4503 7.42 26.7903 7.45999 27.1403 7.45999C27.5703 7.45999 27.9303 7.36 28.2403 7.16C28.5403 6.96 28.6903 6.67 28.6903 6.28C28.6903 6.14 28.6703 6 28.6203 5.88C28.5803 5.76 28.5003 5.64 28.3903 5.53C28.2803 5.42 28.1403 5.32 27.9603 5.22C27.7803 5.12 27.5503 5.03001 27.2703 4.95001L26.5203 4.70999C25.9703 4.53999 25.5503 4.3 25.2603 4C24.9703 3.7 24.8203 3.29 24.8203 2.78C24.8203 2.12 25.0403 1.6 25.4703 1.22C25.9003 0.840001 26.5303 0.640015 27.3603 0.640015V0.609985Z" fill="#D15E52"/>
<path d="M34.4399 0.720001H35.4199L38.4099 8.20999H37.2699L36.4499 6.13H33.3599L32.5499 8.20999H31.4199L34.4499 0.720001H34.4399ZM33.6499 5.26001H36.1199L35.6199 3.95999C35.4899 3.61999 35.3599 3.29 35.2499 2.97C35.1399 2.65 35.0299 2.33 34.9199 2H34.8999C34.7899 2.33 34.6699 2.64999 34.5499 2.95999C34.4299 3.26999 34.2999 3.59999 34.1699 3.95999L33.6599 5.26001H33.6499Z" fill="#D15E52"/>
<path d="M43.6605 0.609985C44.1005 0.609985 44.4905 0.639991 44.8505 0.709991C45.2105 0.779991 45.5305 0.880009 45.8305 1.04001L45.5705 1.89999C45.2805 1.76999 44.9905 1.67001 44.7105 1.60001C44.4305 1.54001 44.1205 1.51001 43.8005 1.51001C43.4505 1.51001 43.1205 1.56 42.8005 1.66C42.4805 1.76 42.2005 1.93 41.9605 2.16C41.7205 2.39 41.5305 2.69999 41.3805 3.07999C41.2405 3.45999 41.1705 3.92001 41.1705 4.48001C41.1705 5.44001 41.3905 6.17001 41.8305 6.67001C42.2705 7.17001 42.8805 7.42001 43.6805 7.42001C43.9805 7.42001 44.2405 7.4 44.4605 7.37C44.6805 7.33999 44.8905 7.28001 45.1005 7.20001V5.12H43.6805V4.26001H46.1205V7.87C45.8005 8 45.4505 8.09999 45.0605 8.17999C44.6705 8.25999 44.2105 8.29999 43.6805 8.29999C43.1505 8.29999 42.6805 8.21999 42.2305 8.04999C41.7805 7.87999 41.3905 7.64 41.0605 7.31C40.7305 6.99 40.4605 6.58999 40.2705 6.10999C40.0805 5.62999 39.9805 5.07999 39.9805 4.45999C39.9805 3.83999 40.0705 3.27999 40.2605 2.79999C40.4505 2.31999 40.7005 1.91 41.0305 1.59C41.3605 1.27 41.7405 1.02001 42.2005 0.850006C42.6505 0.680006 43.1505 0.600006 43.6805 0.600006L43.6605 0.609985Z" fill="#D15E52"/>
<path d="M48.9404 0.720001H53.4704V1.62H50.0404V3.87H53.1604V4.76001H50.0404V7.29999H53.5104V8.20001H48.9504V0.709991L48.9404 0.720001Z" fill="#D15E52"/>
</svg>
