<svg width="62" height="9" viewBox="0 0 62 9" fill="none" xmlns="http://www.w3.org/2000/svg">
<path d="M4.68051 0.62001V1.52002H1.37051V3.94002H4.42051V4.83002H1.37051V8.10002H0.270508V0.610016H4.68051V0.62001Z" fill="#D15E52"/>
<path d="M8.87059 0.619995H9.85059L12.8406 8.11H11.7006L10.8806 6.03H7.79059L6.98059 8.11H5.85059L8.88058 0.619995H8.87059ZM8.08059 5.16H10.5506L10.0506 3.86C9.92059 3.52 9.79059 3.19 9.68059 2.87C9.57059 2.55 9.46059 2.22999 9.35059 1.89999H9.33059C9.22059 2.22999 9.10059 2.55 8.98059 2.86C8.86059 3.17 8.73059 3.5 8.60059 3.86L8.09058 5.16H8.08059Z" fill="#D15E52"/>
<path d="M18.0308 7.31001C18.4308 7.31001 18.7508 7.28002 19.0108 7.22002C19.2708 7.16002 19.5208 7.07001 19.7808 6.95001L20.0308 7.83002C19.7508 7.96002 19.4508 8.06002 19.1208 8.13002C18.7908 8.19002 18.3908 8.23001 17.9108 8.23001C17.4308 8.23001 16.9508 8.15001 16.5208 7.98001C16.0808 7.81001 15.7008 7.57002 15.3808 7.24002C15.0608 6.92002 14.8008 6.51001 14.6208 6.03001C14.4308 5.55001 14.3408 5.00001 14.3408 4.37001C14.3408 3.74001 14.4308 3.22002 14.6108 2.74002C14.7908 2.26002 15.0408 1.86001 15.3708 1.53001C15.6908 1.20001 16.0808 0.950014 16.5208 0.780014C16.9608 0.610014 17.4508 0.52002 17.9708 0.52002C18.4608 0.52002 18.8708 0.560015 19.1908 0.640015C19.5108 0.720015 19.8008 0.830022 20.0708 0.960022L19.8108 1.82002C19.6608 1.76002 19.5208 1.70001 19.3908 1.65001C19.2608 1.60001 19.1308 1.56001 19.0008 1.53001C18.8708 1.50001 18.7308 1.47002 18.5908 1.46002C18.4508 1.44002 18.2908 1.44002 18.1208 1.44002C17.7708 1.44002 17.4408 1.49002 17.1208 1.60002C16.8108 1.71002 16.5308 1.88001 16.3008 2.12001C16.0708 2.36001 15.8808 2.66001 15.7408 3.04001C15.6008 3.42001 15.5308 3.87001 15.5308 4.40001C15.5308 4.93001 15.6008 5.39002 15.7308 5.77002C15.8708 6.14002 16.0508 6.44001 16.2708 6.67001C16.5008 6.90001 16.7608 7.07001 17.0608 7.17001C17.3608 7.27001 17.6808 7.33002 18.0208 7.33002L18.0308 7.31001Z" fill="#D15E52"/>
<path d="M22.6006 0.62001H27.1306V1.52002H23.7006V3.77002H26.8206V4.66002H23.7006V7.20001H27.1706V8.10002H22.6106V0.610016L22.6006 0.62001Z" fill="#D15E52"/>
<path d="M32.0205 0.619995C32.7705 0.619995 33.3505 0.780006 33.7705 1.10001C34.1905 1.42001 34.4005 1.88999 34.4005 2.50999C34.4005 2.96999 34.2705 3.33 34.0105 3.59C33.7505 3.85 33.4305 4.03 33.0405 4.13C33.2605 4.17 33.4705 4.24 33.6605 4.34C33.8505 4.44 34.0205 4.57 34.1605 4.73C34.3005 4.89 34.4205 5.07999 34.5005 5.28999C34.5805 5.50999 34.6205 5.75 34.6205 6.02C34.6205 6.33 34.5505 6.60999 34.4205 6.87C34.2905 7.13 34.1005 7.35 33.8605 7.53C33.6205 7.71 33.3405 7.85001 33.0105 7.96001C32.6805 8.06001 32.3305 8.11 31.9405 8.11H29.7705V0.619995H32.0205ZM30.8605 3.74001H31.7505C31.9505 3.74001 32.1405 3.72 32.3205 3.69C32.5005 3.66 32.6605 3.59999 32.8005 3.50999C32.9405 3.41999 33.0505 3.31 33.1305 3.16C33.2105 3.01 33.2505 2.82 33.2505 2.58C33.2505 2.2 33.1205 1.92 32.8605 1.75C32.6005 1.58 32.2605 1.49001 31.8305 1.49001H30.8405V3.74001H30.8605ZM30.8605 7.22H31.8105C32.0305 7.22 32.2405 7.19999 32.4405 7.14999C32.6405 7.10999 32.8105 7.02999 32.9605 6.92999C33.1105 6.82999 33.2305 6.69 33.3205 6.52C33.4105 6.35 33.4605 6.13999 33.4605 5.89999C33.4605 5.65999 33.4105 5.44999 33.3005 5.28999C33.1905 5.12999 33.0505 4.99 32.8805 4.89C32.7105 4.79 32.5105 4.71 32.2805 4.67C32.0605 4.63 31.8305 4.60001 31.6105 4.60001H30.8505V7.21001L30.8605 7.22Z" fill="#D15E52"/>
<path d="M40.5102 0.51001C41.0202 0.51001 41.4902 0.590015 41.9202 0.750015C42.3502 0.910015 42.7202 1.15001 43.0302 1.48001C43.3402 1.80001 43.5902 2.20001 43.7602 2.68001C43.9302 3.16001 44.0202 3.72002 44.0202 4.36002C44.0202 5.00002 43.9302 5.54002 43.7502 6.02002C43.5702 6.50002 43.3202 6.90001 43.0002 7.23001C42.6802 7.56001 42.3102 7.80002 41.8702 7.97002C41.4302 8.14002 40.9702 8.22002 40.4602 8.22002C39.9502 8.22002 39.4802 8.14001 39.0502 7.98001C38.6202 7.82001 38.2502 7.58001 37.9402 7.26001C37.6302 6.94001 37.3802 6.54001 37.2102 6.06001C37.0402 5.58001 36.9502 5.02002 36.9502 4.38002C36.9502 3.74002 37.0402 3.20002 37.2202 2.72002C37.4002 2.24002 37.6502 1.84001 37.9702 1.51001C38.2902 1.19001 38.6602 0.94002 39.1002 0.77002C39.5302 0.60002 40.0002 0.52002 40.5102 0.52002V0.51001ZM38.1402 4.36002C38.1402 4.87002 38.2002 5.31001 38.3202 5.68001C38.4402 6.05001 38.6102 6.36002 38.8302 6.61002C39.0502 6.86002 39.3002 7.04002 39.5902 7.16002C39.8802 7.28002 40.1902 7.34001 40.5102 7.34001C40.8302 7.34001 41.1402 7.28002 41.4202 7.16002C41.7002 7.04002 41.9502 6.86002 42.1602 6.61002C42.3702 6.36002 42.5402 6.06001 42.6502 5.68001C42.7702 5.31001 42.8302 4.87002 42.8302 4.36002C42.8302 3.85002 42.7702 3.39002 42.6502 3.02002C42.5302 2.65002 42.3602 2.34002 42.1402 2.10002C41.9302 1.86002 41.6702 1.68002 41.3802 1.57002C41.0902 1.46002 40.7802 1.40001 40.4602 1.40001C40.1402 1.40001 39.8302 1.46002 39.5402 1.58002C39.2502 1.70002 39.0102 1.88002 38.8002 2.13002C38.5902 2.38002 38.4302 2.68001 38.3102 3.06001C38.1902 3.44001 38.1302 3.87002 38.1302 4.38002L38.1402 4.36002Z" fill="#D15E52"/>
<path d="M49.8706 0.51001C50.3806 0.51001 50.8505 0.590015 51.2805 0.750015C51.7105 0.910015 52.0805 1.15001 52.3905 1.48001C52.7005 1.80001 52.9506 2.20001 53.1206 2.68001C53.2906 3.16001 53.3805 3.72002 53.3805 4.36002C53.3805 5.00002 53.2905 5.54002 53.1105 6.02002C52.9306 6.50002 52.6806 6.90001 52.3605 7.23001C52.0405 7.56001 51.6706 7.80002 51.2306 7.97002C50.7906 8.14002 50.3305 8.22002 49.8205 8.22002C49.3105 8.22002 48.8406 8.14001 48.4106 7.98001C47.9806 7.82001 47.6106 7.58001 47.3006 7.26001C46.9906 6.94001 46.7405 6.54001 46.5705 6.06001C46.4005 5.58001 46.3105 5.02002 46.3105 4.38002C46.3105 3.74002 46.4006 3.20002 46.5806 2.72002C46.7606 2.24002 47.0106 1.84001 47.3306 1.51001C47.6506 1.19001 48.0205 0.94002 48.4605 0.77002C48.8905 0.60002 49.3606 0.52002 49.8706 0.52002V0.51001ZM47.5005 4.36002C47.5005 4.87002 47.5605 5.31001 47.6805 5.68001C47.8005 6.05001 47.9706 6.36002 48.1906 6.61002C48.4106 6.86002 48.6605 7.04002 48.9505 7.16002C49.2405 7.28002 49.5506 7.34001 49.8706 7.34001C50.1906 7.34001 50.5005 7.28002 50.7805 7.16002C51.0605 7.04002 51.3105 6.86002 51.5205 6.61002C51.7305 6.36002 51.9006 6.06001 52.0106 5.68001C52.1306 5.31001 52.1906 4.87002 52.1906 4.36002C52.1906 3.85002 52.1306 3.39002 52.0106 3.02002C51.8906 2.65002 51.7205 2.34002 51.5005 2.10002C51.2905 1.86002 51.0305 1.68002 50.7405 1.57002C50.4505 1.46002 50.1405 1.40001 49.8205 1.40001C49.5005 1.40001 49.1906 1.46002 48.9006 1.58002C48.6106 1.70002 48.3706 1.88002 48.1606 2.13002C47.9506 2.38002 47.7905 2.68001 47.6705 3.06001C47.5505 3.44001 47.4905 3.87002 47.4905 4.38002L47.5005 4.36002Z" fill="#D15E52"/>
<path d="M56.0801 8.10002V0.610016H57.1801V4.00002L60.3401 0.610016H61.7001L58.6001 3.93001L61.9401 8.10002H60.5601L57.8201 4.68001L57.1901 5.36002V8.11002H56.0901L56.0801 8.10002Z" fill="#D15E52"/>
</svg>
