<?xml version="1.0" encoding="UTF-8"?>
<svg id="_圖層_1" data-name="圖層_1" xmlns="http://www.w3.org/2000/svg" version="1.1" viewBox="0 0 61.7 8">
  <!-- Generator: Adobe Illustrator 29.8.3, SVG Export Plug-In . SVG Version: 2.1.1 Build 3)  -->
  <defs>
    <style>
      .st0 {
        fill: #e0554c;
      }

      .st1 {
        fill: #c8c9c9;
      }

      .st2 {
        fill: none;
        stroke: #c8c9c9;
        stroke-miterlimit: 10;
      }

      .st3 {
        fill: #f6f7f7;
      }
    </style>
  </defs>
  <rect class="st3" x="89.6" y="-623.5" width="377.1" height="72.2"/>
  <g>
    <rect class="st3" x="-215.9" y="-809" width="175.8" height="588.1"/>
    <g>
      <path class="st0" d="M-173.9-266.2c1.7-.3,3.4-1.2,4.9-2.2,5.3-3.6,8.7-8.5,10-14.8.4-2,.4-4.1-.8-5.9-1-1.6-2.5-2.4-4.4-2.3-.6,0-.9.2-1.2.8-.6,1.5-1.2,3.1-1.8,4.6-.4,1-.3,1.2.6,1.8.7.5,1.4,1,2.1,1.5.5.3.6.7.4,1.2-1.2,3.9-3.5,6.9-6.9,9.1-.5.3-.9.3-1.4,0-.7-.6-1.4-1.2-2.1-1.8-.4-.4-.9-.5-1.4,0-1.5,1.1-2.9,2.2-4.4,3.3-.4.3-.4.8-.3,1.3.9,2.8,3.2,4.2,6.5,3.7Z"/>
      <g>
        <path class="st0" d="M-144.9-273.9c.4,0,.7,0,1,0,.3,0,.5-.2.8-.3l.2.9c-.3.1-.6.2-.9.3-.3,0-.7,0-1.2,0s-1,0-1.4-.2c-.4-.2-.8-.4-1.1-.7-.3-.3-.6-.7-.8-1.2-.2-.5-.3-1-.3-1.7s0-1.2.3-1.6c.2-.5.4-.9.8-1.2.3-.3.7-.6,1.2-.7.4-.2.9-.3,1.5-.3s.9,0,1.2.1c.3,0,.6.2.9.3l-.3.9c-.2,0-.3-.1-.4-.2-.1,0-.3,0-.4-.1-.1,0-.3,0-.4,0-.1,0-.3,0-.5,0-.3,0-.7,0-1,.2-.3.1-.6.3-.8.5s-.4.5-.6.9c-.1.4-.2.8-.2,1.4s0,1,.2,1.4c.1.4.3.7.5.9.2.2.5.4.8.5s.6.2,1,.2Z"/>
        <path class="st0" d="M-137.5-280.7c.5,0,1,0,1.4.2.4.2.8.4,1.1.7.3.3.6.7.7,1.2.2.5.3,1,.3,1.7s0,1.2-.3,1.7c-.2.5-.4.9-.8,1.2-.3.3-.7.6-1.1.7s-.9.2-1.4.2-1,0-1.4-.2c-.4-.2-.8-.4-1.1-.7s-.6-.7-.7-1.2c-.2-.5-.3-1-.3-1.7s0-1.2.3-1.7c.2-.5.4-.9.8-1.2.3-.3.7-.6,1.1-.7.4-.2.9-.2,1.4-.2ZM-139.8-276.9c0,.5,0,.9.2,1.3.1.4.3.7.5.9s.5.4.8.5c.3.1.6.2.9.2s.6,0,.9-.2c.3-.1.5-.3.7-.5.2-.2.4-.6.5-.9.1-.4.2-.8.2-1.3s0-1-.2-1.3c-.1-.4-.3-.7-.5-.9-.2-.2-.5-.4-.8-.5s-.6-.2-.9-.2-.6,0-.9.2c-.3.1-.5.3-.7.5-.2.2-.4.6-.5.9s-.2.8-.2,1.3Z"/>
        <path class="st0" d="M-131.3-280.6h1l3.4,4.7c.1.2.2.4.4.5.1.2.2.4.3.5h0c0-.3,0-.6,0-.8s0-.6,0-.8v-4.1h1.1v7.5h-1l-3.4-4.7c-.1-.2-.2-.4-.4-.6-.1-.2-.2-.4-.4-.6h0c0,.3,0,.7,0,1,0,.3,0,.7,0,1v3.9h-1.1v-7.5Z"/>
        <path class="st0" d="M-117.1-280.6v.9h-2.3v6.6h-1.1v-6.6h-2.3v-.9h5.7Z"/>
        <path class="st0" d="M-113.6-280.6h1l3,7.5h-1.1l-.8-2.1h-3.1l-.8,2.1h-1.1l3-7.5ZM-114.4-276.1h2.5l-.5-1.3c-.1-.3-.3-.7-.4-1s-.2-.6-.3-1h0c-.1.3-.2.7-.3,1s-.2.6-.4,1l-.5,1.3Z"/>
        <path class="st0" d="M-104.5-273.9c.4,0,.7,0,1,0,.3,0,.5-.2.8-.3l.2.9c-.3.1-.6.2-.9.3-.3,0-.7,0-1.2,0s-1,0-1.4-.2c-.4-.2-.8-.4-1.1-.7-.3-.3-.6-.7-.8-1.2-.2-.5-.3-1-.3-1.7s0-1.2.3-1.6c.2-.5.4-.9.8-1.2.3-.3.7-.6,1.2-.7.4-.2.9-.3,1.5-.3s.9,0,1.2.1c.3,0,.6.2.9.3l-.3.9c-.2,0-.3-.1-.4-.2-.1,0-.3,0-.4-.1-.1,0-.3,0-.4,0-.1,0-.3,0-.5,0-.3,0-.7,0-1,.2-.3.1-.6.3-.8.5s-.4.5-.6.9c-.1.4-.2.8-.2,1.4s0,1,.2,1.4c.1.4.3.7.5.9.2.2.5.4.8.5s.6.2,1,.2Z"/>
        <path class="st0" d="M-95-280.6v.9h-2.3v6.6h-1.1v-6.6h-2.3v-.9h5.7Z"/>
        <path class="st0" d="M-89-280.6h1.1v4.5c0,.8.1,1.4.4,1.7.3.3.8.5,1.4.5s1.1-.2,1.4-.6c.3-.4.4-.9.4-1.5v-4.6h1.1v4.6c0,1-.3,1.8-.8,2.3-.5.5-1.2.7-2.2.7s-1.7-.2-2.2-.7c-.5-.5-.8-1.3-.8-2.3v-4.5Z"/>
        <path class="st0" d="M-78-280.7c.4,0,.7,0,1.1,0,.3,0,.7.2,1,.3l-.3.9c-.3-.2-.6-.3-.9-.3-.3,0-.6-.1-.8-.1-.5,0-.8,0-1.1.3-.3.2-.4.5-.4.8s0,.5.3.7c.2.2.5.3,1,.5l.8.2c.7.2,1.2.5,1.4.9.3.4.4.8.4,1.2s0,.6-.2.9c-.1.3-.3.5-.5.7s-.5.3-.8.4c-.3,0-.7.1-1,.1s-.8,0-1.2-.1c-.4,0-.8-.2-1.2-.4l.3-.9c.3.2.7.3,1,.4.3,0,.7.1,1,.1s.8,0,1.1-.3c.3-.2.5-.5.5-.9s0-.3,0-.4c0-.1-.1-.2-.2-.4s-.3-.2-.4-.3-.4-.2-.7-.3l-.8-.2c-.5-.2-1-.4-1.3-.7-.3-.3-.4-.7-.4-1.2s.2-1.2.6-1.6c.4-.4,1.1-.6,1.9-.6Z"/>
      </g>
    </g>
    <g>
      <path class="st0" d="M-149.2-404.5c-4-5.2-12-6.1-17.5-3-3,1.7-5.1,4.7-5.8,8.1-.9,4.3,1.3,8.3,4.5,11.1v5c-.1,0,4.7-2.6,4.7-2.6.3-.2,1.9.3,2.3.3,1.8.1,3.6,0,5.3-.5,4.6-1.3,8.2-5.4,8.8-10.2.4-2.9-.5-5.9-2.2-8.3ZM-158.3-393.4l-3.5-3.5-6.3,3.3,7-7,3.4,3.4,6.2-3.4-6.8,7.2Z"/>
      <g>
        <path class="st0" d="M-136.3-398.1h1.4l1.6,4.8c0,.2.2.5.2.7,0,.2.1.4.2.7h0c0-.2.1-.4.2-.6s.1-.4.2-.7l1.5-4.8h1.4l.7,7.5h-1.1l-.3-4c0-.4,0-.8,0-1.2,0-.4,0-.8,0-1.2h0c-.1.4-.2.8-.3,1.2s-.2.8-.4,1.2l-1.3,4h-1l-1.3-4c-.1-.4-.3-.8-.4-1.2-.1-.4-.2-.8-.3-1.2h0c0,.4,0,.8,0,1.2,0,.4,0,.8,0,1.2l-.3,4h-1.1l.6-7.5Z"/>
        <path class="st0" d="M-125.8-398.1h4.5v.9h-3.4v2.2h3.1v.9h-3.1v2.5h3.5v.9h-4.6v-7.5Z"/>
        <path class="st0" d="M-116.6-398.2c.4,0,.7,0,1.1,0,.3,0,.7.2,1,.3l-.3.9c-.3-.2-.6-.3-.9-.3-.3,0-.6-.1-.8-.1-.5,0-.8,0-1.1.3-.3.2-.4.5-.4.8s0,.5.3.7c.2.2.5.3,1,.5l.8.2c.7.2,1.2.5,1.4.9.3.4.4.8.4,1.2s0,.6-.2.9c-.1.3-.3.5-.5.7s-.5.3-.8.4c-.3,0-.7.1-1,.1s-.8,0-1.2-.1c-.4,0-.8-.2-1.2-.4l.3-.9c.3.2.7.3,1,.4.3,0,.7.1,1,.1s.8,0,1.1-.3c.3-.2.5-.5.5-.9s0-.3,0-.4c0-.1-.1-.2-.2-.4s-.3-.2-.4-.3-.4-.2-.7-.3l-.8-.2c-.5-.2-1-.4-1.3-.7-.3-.3-.4-.7-.4-1.2s.2-1.2.6-1.6c.4-.4,1.1-.6,1.9-.6Z"/>
        <path class="st0" d="M-109.5-398.2c.4,0,.7,0,1.1,0,.3,0,.7.2,1,.3l-.3.9c-.3-.2-.6-.3-.9-.3-.3,0-.6-.1-.8-.1-.5,0-.8,0-1.1.3-.3.2-.4.5-.4.8s0,.5.3.7c.2.2.5.3,1,.5l.8.2c.7.2,1.2.5,1.4.9.3.4.4.8.4,1.2s0,.6-.2.9c-.1.3-.3.5-.5.7s-.5.3-.8.4c-.3,0-.7.1-1,.1s-.8,0-1.2-.1c-.4,0-.8-.2-1.2-.4l.3-.9c.3.2.7.3,1,.4.3,0,.7.1,1,.1s.8,0,1.1-.3c.3-.2.5-.5.5-.9s0-.3,0-.4c0-.1-.1-.2-.2-.4s-.3-.2-.4-.3-.4-.2-.7-.3l-.8-.2c-.5-.2-1-.4-1.3-.7-.3-.3-.4-.7-.4-1.2s.2-1.2.6-1.6c.4-.4,1.1-.6,1.9-.6Z"/>
        <path class="st0" d="M-102.5-398.1h1l3,7.5h-1.1l-.8-2.1h-3.1l-.8,2.1h-1.1l3-7.5ZM-103.3-393.5h2.5l-.5-1.3c-.1-.3-.3-.7-.4-1s-.2-.6-.3-1h0c-.1.3-.2.7-.3,1s-.2.6-.4,1l-.5,1.3Z"/>
        <path class="st0" d="M-93.2-398.2c.4,0,.8,0,1.2,0s.7.2,1,.3l-.3.9c-.3-.1-.6-.2-.9-.3-.3,0-.6,0-.9,0s-.7,0-1,.2c-.3.1-.6.3-.8.5-.2.2-.4.5-.6.9-.1.4-.2.8-.2,1.4,0,1,.2,1.7.7,2.2s1.1.7,1.8.7.6,0,.8,0c.2,0,.4,0,.6-.2v-2.1h-1.4v-.9h2.4v3.6c-.3.1-.7.2-1.1.3-.4,0-.8.1-1.4.1s-1,0-1.4-.2c-.4-.2-.8-.4-1.2-.7-.3-.3-.6-.7-.8-1.2-.2-.5-.3-1-.3-1.7s0-1.2.3-1.7c.2-.5.4-.9.8-1.2.3-.3.7-.6,1.2-.7.5-.2.9-.2,1.5-.2Z"/>
        <path class="st0" d="M-88-398.1h4.5v.9h-3.4v2.2h3.1v.9h-3.1v2.5h3.5v.9h-4.6v-7.5Z"/>
      </g>
    </g>
    <g>
      <path class="st0" d="M-156.2-528.7h-5s-5.3,0-5.3,5.2v5.3h-4.5v4.6h4.6v13.4h5.2v-13.5h4.6v-4.5h-4.8v-4s-.1-2.2,2.2-2.2h3.1v-4.4Z"/>
      <g>
        <path class="st0" d="M-142.2-516.2v.9h-3.3v2.4h3.1v.9h-3.1v3.3h-1.1v-7.5h4.4Z"/>
        <path class="st0" d="M-138-516.2h1l3,7.5h-1.1l-.8-2.1h-3.1l-.8,2.1h-1.1l3-7.5ZM-138.8-511.6h2.5l-.5-1.3c-.1-.3-.3-.7-.4-1s-.2-.6-.3-1h0c-.1.3-.2.7-.3,1s-.2.6-.4,1l-.5,1.3Z"/>
        <path class="st0" d="M-128.9-509.5c.4,0,.7,0,1,0,.3,0,.5-.2.8-.3l.2.9c-.3.1-.6.2-.9.3-.3,0-.7,0-1.2,0s-1,0-1.4-.2c-.4-.2-.8-.4-1.1-.7-.3-.3-.6-.7-.8-1.2-.2-.5-.3-1-.3-1.7s0-1.2.3-1.6c.2-.5.4-.9.8-1.2.3-.3.7-.6,1.2-.7.4-.2.9-.3,1.5-.3s.9,0,1.2.1c.3,0,.6.2.9.3l-.3.9c-.2,0-.3-.1-.4-.2-.1,0-.3,0-.4-.1-.1,0-.3,0-.4,0-.1,0-.3,0-.5,0-.3,0-.7,0-1,.2-.3.1-.6.3-.8.5s-.4.5-.6.9c-.1.4-.2.8-.2,1.4s0,1,.2,1.4c.1.4.3.7.5.9.2.2.5.4.8.5s.6.2,1,.2Z"/>
        <path class="st0" d="M-124.3-516.2h4.5v.9h-3.4v2.2h3.1v.9h-3.1v2.5h3.5v.9h-4.6v-7.5Z"/>
        <path class="st0" d="M-114.9-516.2c.7,0,1.3.2,1.7.5s.6.8.6,1.4-.1.8-.4,1.1c-.3.3-.6.4-1,.5.2,0,.4.1.6.2.2,0,.4.2.5.4.1.2.3.3.3.6,0,.2.1.5.1.7s0,.6-.2.8-.3.5-.6.7-.5.3-.8.4c-.3.1-.7.2-1.1.2h-2.2v-7.5h2.3ZM-116-513.1h.9c.2,0,.4,0,.6,0,.2,0,.3,0,.5-.2.1,0,.2-.2.3-.4,0-.1.1-.3.1-.6,0-.4-.1-.7-.4-.8-.3-.2-.6-.3-1-.3h-1v2.2ZM-116-509.6h1c.2,0,.4,0,.6,0,.2,0,.4-.1.5-.2.2-.1.3-.2.4-.4,0-.2.1-.4.1-.6s0-.4-.2-.6c-.1-.2-.2-.3-.4-.4-.2-.1-.4-.2-.6-.2-.2,0-.4,0-.7,0h-.8v2.6Z"/>
        <path class="st0" d="M-106.4-516.3c.5,0,1,0,1.4.2.4.2.8.4,1.1.7.3.3.6.7.7,1.2.2.5.3,1,.3,1.7s0,1.2-.3,1.7c-.2.5-.4.9-.8,1.2-.3.3-.7.6-1.1.7s-.9.2-1.4.2-1,0-1.4-.2c-.4-.2-.8-.4-1.1-.7s-.6-.7-.7-1.2c-.2-.5-.3-1-.3-1.7s0-1.2.3-1.7c.2-.5.4-.9.8-1.2.3-.3.7-.6,1.1-.7.4-.2.9-.2,1.4-.2ZM-108.8-512.4c0,.5,0,.9.2,1.3.1.4.3.7.5.9s.5.4.8.5c.3.1.6.2.9.2s.6,0,.9-.2c.3-.1.5-.3.7-.5.2-.2.4-.6.5-.9.1-.4.2-.8.2-1.3s0-1-.2-1.3c-.1-.4-.3-.7-.5-.9-.2-.2-.5-.4-.8-.5s-.6-.2-.9-.2-.6,0-.9.2c-.3.1-.5.3-.7.5-.2.2-.4.6-.5.9s-.2.8-.2,1.3Z"/>
        <path class="st0" d="M-97-516.3c.5,0,1,0,1.4.2.4.2.8.4,1.1.7.3.3.6.7.7,1.2.2.5.3,1,.3,1.7s0,1.2-.3,1.7c-.2.5-.4.9-.8,1.2-.3.3-.7.6-1.1.7s-.9.2-1.4.2-1,0-1.4-.2c-.4-.2-.8-.4-1.1-.7s-.6-.7-.7-1.2c-.2-.5-.3-1-.3-1.7s0-1.2.3-1.7c.2-.5.4-.9.8-1.2.3-.3.7-.6,1.1-.7.4-.2.9-.2,1.4-.2ZM-99.4-512.4c0,.5,0,.9.2,1.3.1.4.3.7.5.9s.5.4.8.5c.3.1.6.2.9.2s.6,0,.9-.2c.3-.1.5-.3.7-.5.2-.2.4-.6.5-.9.1-.4.2-.8.2-1.3s0-1-.2-1.3c-.1-.4-.3-.7-.5-.9-.2-.2-.5-.4-.8-.5s-.6-.2-.9-.2-.6,0-.9.2c-.3.1-.5.3-.7.5-.2.2-.4.6-.5.9s-.2.8-.2,1.3Z"/>
        <path class="st0" d="M-90.8-508.7v-7.5h1.1v3.4l3.2-3.4h1.4l-3.1,3.3,3.3,4.2h-1.4l-2.7-3.4-.6.7v2.7h-1.1Z"/>
      </g>
    </g>
    <g>
      <path class="st0" d="M-151.3-639.4c0-5.7-4.4-10.2-9.9-10.2s-9.9,4.6-9.9,10.2.3,2.6.7,3.8h0l.2.3c.3.7.6,1.3,1.1,1.9l3.4,6,4.6,8.3,4.6-8.3,3.4-6c.4-.6.8-1.2,1.1-1.9l.2-.3h0c.4-1.2.7-2.4.7-3.8ZM-161.3-633.6c-3.1,0-5.7-2.6-5.7-5.9s2.5-5.9,5.7-5.9,5.7,2.6,5.7,5.9-2.5,5.9-5.7,5.9Z"/>
      <g>
        <path class="st0" d="M-142.8-636.2h1.1v6.6h3.2v.9h-4.3v-7.5Z"/>
        <path class="st0" d="M-133.2-636.3c.5,0,1,0,1.4.2.4.2.8.4,1.1.7.3.3.6.7.7,1.2.2.5.3,1,.3,1.7s0,1.2-.3,1.7c-.2.5-.4.9-.8,1.2-.3.3-.7.6-1.1.7s-.9.2-1.4.2-1,0-1.4-.2c-.4-.2-.8-.4-1.1-.7s-.6-.7-.7-1.2c-.2-.5-.3-1-.3-1.7s0-1.2.3-1.7c.2-.5.4-.9.8-1.2.3-.3.7-.6,1.1-.7.4-.2.9-.2,1.4-.2ZM-135.5-632.4c0,.5,0,.9.2,1.3.1.4.3.7.5.9s.5.4.8.5c.3.1.6.2.9.2s.6,0,.9-.2c.3-.1.5-.3.7-.5.2-.2.4-.6.5-.9.1-.4.2-.8.2-1.3s0-1-.2-1.3c-.1-.4-.3-.7-.5-.9-.2-.2-.5-.4-.8-.5s-.6-.2-.9-.2-.6,0-.9.2c-.3.1-.5.3-.7.5-.2.2-.4.6-.5.9s-.2.8-.2,1.3Z"/>
        <path class="st0" d="M-123.7-629.5c.4,0,.7,0,1,0,.3,0,.5-.2.8-.3l.2.9c-.3.1-.6.2-.9.3-.3,0-.7,0-1.2,0s-1,0-1.4-.2c-.4-.2-.8-.4-1.1-.7-.3-.3-.6-.7-.8-1.2-.2-.5-.3-1-.3-1.7s0-1.2.3-1.6c.2-.5.4-.9.8-1.2.3-.3.7-.6,1.2-.7.4-.2.9-.3,1.5-.3s.9,0,1.2.1c.3,0,.6.2.9.3l-.3.9c-.2,0-.3-.1-.4-.2-.1,0-.3,0-.4-.1-.1,0-.3,0-.4,0-.1,0-.3,0-.5,0-.3,0-.7,0-1,.2-.3.1-.6.3-.8.5s-.4.5-.6.9c-.1.4-.2.8-.2,1.4s0,1,.2,1.4c.1.4.3.7.5.9.2.2.5.4.8.5s.6.2,1,.2Z"/>
        <path class="st0" d="M-117-636.2h1l3,7.5h-1.1l-.8-2.1h-3.1l-.8,2.1h-1.1l3-7.5ZM-117.8-631.6h2.5l-.5-1.3c-.1-.3-.3-.7-.4-1s-.2-.6-.3-1h0c-.1.3-.2.7-.3,1s-.2.6-.4,1l-.5,1.3Z"/>
        <path class="st0" d="M-106.8-636.2v.9h-2.3v6.6h-1.1v-6.6h-2.3v-.9h5.7Z"/>
        <path class="st0" d="M-103.5-636.2v7.5h-1.1v-7.5h1.1Z"/>
        <path class="st0" d="M-97.2-636.3c.5,0,1,0,1.4.2.4.2.8.4,1.1.7.3.3.6.7.7,1.2.2.5.3,1,.3,1.7s0,1.2-.3,1.7c-.2.5-.4.9-.8,1.2-.3.3-.7.6-1.1.7s-.9.2-1.4.2-1,0-1.4-.2c-.4-.2-.8-.4-1.1-.7s-.6-.7-.7-1.2c-.2-.5-.3-1-.3-1.7s0-1.2.3-1.7c.2-.5.4-.9.8-1.2.3-.3.7-.6,1.1-.7.4-.2.9-.2,1.4-.2ZM-99.6-632.4c0,.5,0,.9.2,1.3.1.4.3.7.5.9s.5.4.8.5c.3.1.6.2.9.2s.6,0,.9-.2c.3-.1.5-.3.7-.5.2-.2.4-.6.5-.9.1-.4.2-.8.2-1.3s0-1-.2-1.3c-.1-.4-.3-.7-.5-.9-.2-.2-.5-.4-.8-.5s-.6-.2-.9-.2-.6,0-.9.2c-.3.1-.5.3-.7.5-.2.2-.4.6-.5.9s-.2.8-.2,1.3Z"/>
        <path class="st0" d="M-91-636.2h1l3.4,4.7c.1.2.2.4.4.5.1.2.2.4.3.5h0c0-.3,0-.6,0-.8s0-.6,0-.8v-4.1h1.1v7.5h-1l-3.4-4.7c-.1-.2-.2-.4-.4-.6-.1-.2-.2-.4-.4-.6h0c0,.3,0,.7,0,1,0,.3,0,.7,0,1v3.9h-1.1v-7.5Z"/>
      </g>
    </g>
    <line class="st2" x1="-195" y1="-573.9" x2="-61.1" y2="-573.9"/>
    <line class="st2" x1="-195" y1="-454.7" x2="-61.1" y2="-454.7"/>
    <line class="st2" x1="-61.1" y1="-338" x2="-195" y2="-338"/>
  </g>
  <g>
    <path class="st0" d="M426.1-584.8c1.2-.2,2.3-.8,3.4-1.6,3.7-2.5,6-5.9,7-10.3.3-1.4.3-2.8-.6-4.1-.7-1.1-1.8-1.6-3.1-1.6-.4,0-.7.2-.8.5-.4,1.1-.8,2.1-1.2,3.2-.3.7-.2.8.4,1.2.5.3,1,.7,1.5,1,.3.2.4.5.3.9-.8,2.7-2.4,4.8-4.8,6.4-.3.2-.6.2-.9,0-.5-.4-1-.8-1.5-1.2-.3-.3-.6-.3-.9,0-1,.8-2,1.5-3.1,2.3-.3.2-.3.6-.2.9.6,1.9,2.3,2.9,4.5,2.6Z"/>
    <g>
      <path class="st0" d="M405.8-572.5c.3,0,.5,0,.7,0,.2,0,.4-.1.5-.2l.2.6c-.2,0-.4.2-.6.2-.2,0-.5,0-.8,0s-.7,0-1-.2-.6-.3-.8-.5-.4-.5-.5-.8c-.1-.3-.2-.7-.2-1.2s0-.8.2-1.1c.1-.3.3-.6.5-.8s.5-.4.8-.5c.3-.1.6-.2,1-.2s.6,0,.8,0c.2,0,.4.1.6.2l-.2.6c-.1,0-.2,0-.3-.1,0,0-.2,0-.3,0s-.2,0-.3,0-.2,0-.3,0c-.2,0-.5,0-.7.1-.2,0-.4.2-.6.4-.2.2-.3.4-.4.6,0,.3-.1.6-.1.9s0,.7.1.9.2.5.4.6c.2.2.3.3.5.4.2,0,.4.1.7.1Z"/>
      <path class="st0" d="M411-577.2c.4,0,.7,0,1,.2s.6.3.8.5c.2.2.4.5.5.8.1.3.2.7.2,1.2s0,.8-.2,1.2c-.1.3-.3.6-.5.8s-.5.4-.8.5c-.3.1-.6.2-1,.2s-.7,0-1-.2-.6-.3-.8-.5c-.2-.2-.4-.5-.5-.8-.1-.3-.2-.7-.2-1.2s0-.8.2-1.2c.1-.3.3-.6.5-.8s.5-.4.8-.5c.3-.1.6-.2,1-.2ZM409.3-574.5c0,.4,0,.7.1.9,0,.3.2.5.4.6s.3.3.5.4c.2,0,.4.1.6.1s.4,0,.6-.1c.2,0,.4-.2.5-.4s.3-.4.3-.6.1-.6.1-.9,0-.7-.1-.9c0-.3-.2-.5-.4-.6-.1-.2-.3-.3-.5-.4-.2,0-.4-.1-.6-.1s-.4,0-.6.1c-.2,0-.4.2-.5.4s-.3.4-.3.6-.1.6-.1.9Z"/>
      <path class="st0" d="M415.3-577.1h.7l2.4,3.3c0,.1.2.2.3.4,0,.1.2.3.2.4h0c0-.2,0-.4,0-.6,0-.2,0-.4,0-.6v-2.9h.7v5.2h-.7l-2.4-3.3c0-.1-.2-.2-.3-.4,0-.1-.2-.3-.2-.4h0c0,.2,0,.5,0,.7s0,.5,0,.7v2.7h-.7v-5.2Z"/>
      <path class="st0" d="M425.1-577.1v.6h-1.6v4.6h-.8v-4.6h-1.6v-.6h4Z"/>
      <path class="st0" d="M427.5-577.1h.7l2.1,5.2h-.8l-.6-1.4h-2.1l-.6,1.4h-.8l2.1-5.2ZM427-574h1.7l-.3-.9c0-.2-.2-.5-.3-.7,0-.2-.2-.4-.2-.7h0c0,.2-.2.5-.2.7,0,.2-.2.4-.3.7l-.4.9Z"/>
      <path class="st0" d="M433.9-572.5c.3,0,.5,0,.7,0,.2,0,.4-.1.5-.2l.2.6c-.2,0-.4.2-.6.2-.2,0-.5,0-.8,0s-.7,0-1-.2-.6-.3-.8-.5-.4-.5-.5-.8c-.1-.3-.2-.7-.2-1.2s0-.8.2-1.1c.1-.3.3-.6.5-.8s.5-.4.8-.5c.3-.1.6-.2,1-.2s.6,0,.8,0c.2,0,.4.1.6.2l-.2.6c-.1,0-.2,0-.3-.1,0,0-.2,0-.3,0s-.2,0-.3,0-.2,0-.3,0c-.2,0-.5,0-.7.1-.2,0-.4.2-.6.4-.2.2-.3.4-.4.6,0,.3-.1.6-.1.9s0,.7.1.9.2.5.4.6c.2.2.3.3.5.4.2,0,.4.1.7.1Z"/>
      <path class="st0" d="M440.5-577.1v.6h-1.6v4.6h-.8v-4.6h-1.6v-.6h4Z"/>
      <path class="st0" d="M444.7-577.1h.8v3.1c0,.6.1,1,.3,1.2.2.2.5.4,1,.4s.8-.1,1-.4c.2-.3.3-.6.3-1v-3.2h.8v3.2c0,.7-.2,1.2-.5,1.6-.4.3-.9.5-1.5.5s-1.2-.2-1.5-.5-.5-.9-.5-1.6v-3.1Z"/>
      <path class="st0" d="M452.3-577.2c.3,0,.5,0,.7,0s.5.1.7.2l-.2.6c-.2-.1-.5-.2-.6-.2-.2,0-.4,0-.6,0-.3,0-.6,0-.7.2-.2.1-.3.3-.3.6s0,.4.2.5c.1.1.4.2.7.3l.5.2c.5.1.8.4,1,.6s.3.5.3.9,0,.4-.1.6c0,.2-.2.3-.4.5s-.4.2-.6.3c-.2,0-.5.1-.7.1s-.5,0-.8,0-.5-.1-.8-.3l.2-.6c.2.1.5.2.7.3.2,0,.5,0,.7,0s.6,0,.8-.2c.2-.1.3-.3.3-.6s0-.2,0-.3,0-.2-.2-.2c0,0-.2-.1-.3-.2-.1,0-.3-.1-.5-.2l-.5-.2c-.4-.1-.7-.3-.9-.5s-.3-.5-.3-.9.2-.8.5-1.1.7-.4,1.3-.4Z"/>
    </g>
  </g>
  <g>
    <path class="st0" d="M361.6-599.3c-2.8-3.6-8.3-4.3-12.2-2.1-2.1,1.2-3.6,3.2-4,5.6-.6,3,.9,5.7,3.1,7.7v3.5c0,0,3.3-1.8,3.3-1.8.2-.1,1.3.2,1.6.2,1.2,0,2.5,0,3.7-.4,3.2-.9,5.7-3.7,6.1-7.1.3-2-.3-4.1-1.6-5.7ZM355.2-591.6l-2.4-2.4-4.4,2.3,4.9-4.9,2.3,2.4,4.3-2.3-4.8,5Z"/>
    <g>
      <path class="st0" d="M335.8-577.1h1l1.1,3.3c0,.2.1.3.2.5,0,.2,0,.3.1.5h0c0-.2,0-.3.1-.4s.1-.3.2-.5l1.1-3.3h1l.5,5.2h-.8l-.2-2.8c0-.3,0-.5,0-.8s0-.5,0-.8h0c0,.3-.2.5-.2.8,0,.3-.2.5-.3.8l-.9,2.8h-.7l-.9-2.8c0-.3-.2-.5-.3-.8,0-.3-.2-.5-.2-.8h0c0,.3,0,.5,0,.8,0,.3,0,.5,0,.8l-.2,2.8h-.7l.4-5.2Z"/>
      <path class="st0" d="M343-577.1h3.1v.6h-2.4v1.6h2.2v.6h-2.2v1.8h2.4v.6h-3.2v-5.2Z"/>
      <path class="st0" d="M349.4-577.2c.3,0,.5,0,.7,0,.2,0,.5.1.7.2l-.2.6c-.2-.1-.5-.2-.6-.2-.2,0-.4,0-.6,0-.3,0-.6,0-.7.2-.2.1-.3.3-.3.6s0,.4.2.5c.1.1.4.2.7.3l.5.2c.5.1.8.4,1,.6.2.3.3.5.3.9s0,.4-.1.6c0,.2-.2.3-.4.5s-.4.2-.6.3-.5.1-.7.1-.5,0-.8,0c-.3,0-.5-.1-.8-.3l.2-.6c.2.1.5.2.7.3.2,0,.5,0,.7,0s.6,0,.8-.2.3-.3.3-.6,0-.2,0-.3,0-.2-.2-.2c0,0-.2-.1-.3-.2s-.3-.1-.5-.2l-.5-.2c-.4-.1-.7-.3-.9-.5-.2-.2-.3-.5-.3-.9s.2-.8.5-1.1.7-.4,1.3-.4Z"/>
      <path class="st0" d="M354.3-577.2c.3,0,.5,0,.7,0,.2,0,.5.1.7.2l-.2.6c-.2-.1-.5-.2-.6-.2-.2,0-.4,0-.6,0-.3,0-.6,0-.7.2-.2.1-.3.3-.3.6s0,.4.2.5c.1.1.4.2.7.3l.5.2c.5.1.8.4,1,.6.2.3.3.5.3.9s0,.4-.1.6c0,.2-.2.3-.4.5s-.4.2-.6.3-.5.1-.7.1-.5,0-.8,0c-.3,0-.5-.1-.8-.3l.2-.6c.2.1.5.2.7.3.2,0,.5,0,.7,0s.6,0,.8-.2.3-.3.3-.6,0-.2,0-.3,0-.2-.2-.2c0,0-.2-.1-.3-.2s-.3-.1-.5-.2l-.5-.2c-.4-.1-.7-.3-.9-.5-.2-.2-.3-.5-.3-.9s.2-.8.5-1.1.7-.4,1.3-.4Z"/>
      <path class="st0" d="M359.2-577.1h.7l2.1,5.2h-.8l-.6-1.4h-2.1l-.6,1.4h-.8l2.1-5.2ZM358.7-574h1.7l-.3-.9c0-.2-.2-.5-.3-.7,0-.2-.2-.4-.2-.7h0c0,.2-.2.5-.2.7s-.2.4-.3.7l-.4.9Z"/>
      <path class="st0" d="M365.6-577.2c.3,0,.6,0,.8,0,.2,0,.5.1.7.2l-.2.6c-.2,0-.4-.2-.6-.2-.2,0-.4,0-.6,0s-.5,0-.7.1c-.2,0-.4.2-.6.4-.2.2-.3.4-.4.6,0,.3-.1.6-.1,1,0,.7.2,1.2.5,1.5.3.3.7.5,1.3.5s.4,0,.5,0c.2,0,.3,0,.4-.1v-1.4h-1v-.6h1.7v2.5c-.2,0-.5.2-.7.2-.3,0-.6,0-1,0s-.7,0-1-.2-.6-.3-.8-.5c-.2-.2-.4-.5-.5-.8-.1-.3-.2-.7-.2-1.1s0-.8.2-1.2.3-.6.5-.8c.2-.2.5-.4.8-.5s.7-.2,1-.2Z"/>
      <path class="st0" d="M369.3-577.1h3.1v.6h-2.4v1.6h2.2v.6h-2.2v1.8h2.4v.6h-3.2v-5.2Z"/>
    </g>
  </g>
  <g>
    <path class="st0" d="M210.6-597.1c0-3.9-3.1-7.1-6.9-7.1s-6.9,3.2-6.9,7.1.2,1.8.5,2.6h0v.2c.3.5.6.9.9,1.3l2.3,4.2,3.2,5.8,3.2-5.8,2.3-4.2c.3-.4.5-.9.7-1.3v-.2c.1,0,0,0,0,0,.3-.8.5-1.7.5-2.6ZM203.8-593c-2.2,0-3.9-1.8-3.9-4.1s1.8-4.1,3.9-4.1,3.9,1.8,3.9,4.1-1.8,4.1-3.9,4.1Z"/>
    <g>
      <path class="st0" d="M183.2-577.1h.8v4.6h2.2v.6h-3v-5.2Z"/>
      <path class="st0" d="M189.9-577.2c.4,0,.7,0,1,.2s.6.3.8.5c.2.2.4.5.5.8.1.3.2.7.2,1.2s0,.8-.2,1.2c-.1.3-.3.6-.5.8s-.5.4-.8.5c-.3.1-.6.2-1,.2s-.7,0-1-.2-.6-.3-.8-.5c-.2-.2-.4-.5-.5-.8-.1-.3-.2-.7-.2-1.2s0-.8.2-1.2c.1-.3.3-.6.5-.8s.5-.4.8-.5c.3-.1.6-.2,1-.2ZM188.3-574.5c0,.4,0,.7.1.9,0,.3.2.5.4.6s.3.3.5.4c.2,0,.4.1.6.1s.4,0,.6-.1c.2,0,.4-.2.5-.4s.3-.4.3-.6.1-.6.1-.9,0-.7-.1-.9c0-.3-.2-.5-.4-.6-.1-.2-.3-.3-.5-.4-.2,0-.4-.1-.6-.1s-.4,0-.6.1c-.2,0-.4.2-.5.4s-.3.4-.3.6-.1.6-.1.9Z"/>
      <path class="st0" d="M196.5-572.5c.3,0,.5,0,.7,0,.2,0,.4-.1.5-.2l.2.6c-.2,0-.4.2-.6.2-.2,0-.5,0-.8,0s-.7,0-1-.2-.6-.3-.8-.5-.4-.5-.5-.8c-.1-.3-.2-.7-.2-1.2s0-.8.2-1.1c.1-.3.3-.6.5-.8s.5-.4.8-.5c.3-.1.6-.2,1-.2s.6,0,.8,0c.2,0,.4.1.6.2l-.2.6c-.1,0-.2,0-.3-.1,0,0-.2,0-.3,0s-.2,0-.3,0-.2,0-.3,0c-.2,0-.5,0-.7.1-.2,0-.4.2-.6.4-.2.2-.3.4-.4.6,0,.3-.1.6-.1.9s0,.7.1.9.2.5.4.6c.2.2.3.3.5.4.2,0,.4.1.7.1Z"/>
      <path class="st0" d="M201.1-577.1h.7l2.1,5.2h-.8l-.6-1.4h-2.1l-.6,1.4h-.8l2.1-5.2ZM200.6-574h1.7l-.3-.9c0-.2-.2-.5-.3-.7,0-.2-.2-.4-.2-.7h0c0,.2-.2.5-.2.7,0,.2-.2.4-.3.7l-.4.9Z"/>
      <path class="st0" d="M208.2-577.1v.6h-1.6v4.6h-.8v-4.6h-1.6v-.6h4Z"/>
      <path class="st0" d="M210.6-577.1v5.2h-.8v-5.2h.8Z"/>
      <path class="st0" d="M214.9-577.2c.4,0,.7,0,1,.2s.6.3.8.5c.2.2.4.5.5.8.1.3.2.7.2,1.2s0,.8-.2,1.2c-.1.3-.3.6-.5.8s-.5.4-.8.5c-.3.1-.6.2-1,.2s-.7,0-1-.2-.6-.3-.8-.5c-.2-.2-.4-.5-.5-.8-.1-.3-.2-.7-.2-1.2s0-.8.2-1.2c.1-.3.3-.6.5-.8s.5-.4.8-.5c.3-.1.6-.2,1-.2ZM213.2-574.5c0,.4,0,.7.1.9,0,.3.2.5.4.6s.3.3.5.4c.2,0,.4.1.6.1s.4,0,.6-.1c.2,0,.4-.2.5-.4s.3-.4.3-.6.1-.6.1-.9,0-.7-.1-.9c0-.3-.2-.5-.4-.6-.1-.2-.3-.3-.5-.4-.2,0-.4-.1-.6-.1s-.4,0-.6.1c-.2,0-.4.2-.5.4s-.3.4-.3.6-.1.6-.1.9Z"/>
      <path class="st0" d="M219.2-577.1h.7l2.4,3.3c0,.1.2.2.3.4,0,.1.2.3.2.4h0c0-.2,0-.4,0-.6,0-.2,0-.4,0-.6v-2.9h.7v5.2h-.7l-2.4-3.3c0-.1-.2-.2-.3-.4,0-.1-.2-.3-.2-.4h0c0,.2,0,.5,0,.7s0,.5,0,.7v2.7h-.7v-5.2Z"/>
    </g>
  </g>
  <rect class="st1" x="240.5" y="-604.8" width="1" height="33.9"/>
  <rect class="st1" x="315.7" y="-604.8" width="1" height="33.9"/>
  <rect class="st1" x="390.9" y="-604.8" width="1" height="33.9"/>
  <rect class="st1" x="165.2" y="-604.8" width="1" height="33.9"/>
  <g>
    <g>
      <path class="st0" d="M107.2-571.9v-5.3h1.9c.4,0,.8,0,1,.2.3.1.5.3.6.6.1.3.2.5.2.9s0,.6-.2.9-.3.4-.6.6c-.3.1-.6.2-1,.2h-1.4v-.7h1.3c.3,0,.5,0,.6-.1s.3-.2.4-.3c0-.1.1-.3.1-.5s0-.4-.1-.5c0-.1-.2-.2-.4-.3s-.4-.1-.6-.1h-1v4.6h-.9ZM110.2-571.9l-1.3-2.4h1l1.3,2.4h-1Z"/>
      <path class="st0" d="M113.4-571.9v-5.3h3.4v.7h-2.5v1.5h2.3v.7h-2.3v1.6h2.5v.7h-3.4Z"/>
      <path class="st0" d="M121.1-571.8c-.4,0-.8,0-1-.2-.3-.1-.5-.3-.7-.5-.2-.2-.3-.5-.3-.9h.9c0,.2,0,.3.2.5s.2.2.4.3c.2,0,.4,0,.6,0s.4,0,.6-.1c.2,0,.3-.2.4-.3s.1-.3.1-.4,0-.3-.1-.4c0,0-.2-.2-.4-.2-.1,0-.3-.1-.5-.2l-.6-.2c-.4-.1-.8-.3-1-.5-.2-.2-.4-.5-.4-.9s0-.6.3-.8c.2-.2.4-.4.7-.5.3-.1.6-.2,1-.2s.7,0,1,.2.5.3.7.5c.2.2.2.5.2.8h-.8c0-.2-.1-.4-.3-.6-.2-.1-.4-.2-.7-.2s-.4,0-.5,0-.3.2-.4.3c0,.1-.1.2-.1.4s0,.3.1.4c0,.1.2.2.4.2s.3.1.4.1h.5c.2.2.4.2.5.3.2,0,.3.2.5.3.2.1.3.3.4.4,0,.2.1.4.1.6s0,.6-.2.8c-.2.2-.4.4-.7.6-.3.1-.7.2-1.1.2Z"/>
      <path class="st0" d="M125.5-571.9v-5.3h3.4v.7h-2.5v1.5h2.3v.7h-2.3v1.6h2.5v.7h-3.4Z"/>
      <path class="st0" d="M131.4-571.9v-5.3h1.9c.4,0,.8,0,1,.2s.5.3.6.6c.1.3.2.5.2.9s0,.6-.2.9-.3.4-.6.6c-.3.1-.6.2-1,.2h-1.4v-.7h1.3c.3,0,.5,0,.6-.1s.3-.2.3-.3.1-.3.1-.5,0-.4-.1-.5-.2-.2-.3-.3-.4-.1-.6-.1h-1v4.6h-.9ZM134.4-571.9l-1.3-2.4h1l1.3,2.4h-1Z"/>
      <path class="st0" d="M139-571.9l-1.9-5.3h.9l1,2.9c0,.2.2.5.3.9.1.3.2.7.3,1.2h-.2c.1-.5.2-.9.3-1.2,0-.3.2-.6.3-.9l1-2.9h.9l-1.9,5.3h-1.1Z"/>
      <path class="st0" d="M144.2-571.9v-5.3h3.4v.7h-2.5v1.5h2.3v.7h-2.3v1.6h2.5v.7h-3.4Z"/>
    </g>
    <g>
      <path class="st0" d="M102.6-593.4c.3-.4.7-.8,1-1.3h-2.8v-1.1h4.1v.9c-.5.9-1,1.6-1.6,2.2.2.2.3.4.4.5h1.6v.8c-.2.9-.4,1.7-.6,2.2l-1-.4c.2-.4.3-.9.5-1.4h-.9v4.7c0,.8-.4,1.1-1.1,1.1h-1.2l-.3-1.1c.4,0,.7,0,1,0s.3-.1.3-.4v-4.4h-1.7v-1.2h2c-.4-.5-.9-1-1.5-1.6l.9-.6c.3.3.6.6.8.8ZM107.5-594c0-.2.2-.5.2-.7h-2.4v-1.1h6v1.1h-2.4c0,.2-.1.5-.2.7h2.2v6.6h-1.3c.8.5,1.4.9,1.9,1.4l-.8.8c-.5-.5-1.1-1-2-1.6l.7-.6h-2.2l.7.6c-.6.6-1.4,1.2-2.3,1.7l-.7-.9c.9-.4,1.6-.9,2.1-1.4h-1.3v-6.6h1.7ZM109.7-592.1v-.9h-2.8v.9h2.8ZM109.7-590.2v-.9h-2.8v.9h2.8ZM109.7-589.3h-2.8v.9h2.8v-.9Z"/>
      <path class="st0" d="M116.4-588c0,1.1-.2,2.1-.4,2.9l-1.1-.3c.3-.8.4-1.7.5-2.7h1ZM119.8-589l-1.1.3c0-.2,0-.3-.1-.5-1.2.3-2.3.5-3.3.6l-.3-1.1c.2,0,.4-.2.5-.3.4-.3.9-.9,1.4-1.8-.6,0-1.2.1-1.8.2l-.3-1.1c.2,0,.3-.2.5-.4.6-1,1.1-2,1.6-3.1l1.2.5c-.6,1.2-1.2,2.3-1.8,3,.4,0,.9,0,1.3-.2.3-.5.6-1,.9-1.5l1.1.4c-1.2,1.9-2.1,3.3-2.9,4.1.5,0,1.1-.2,1.6-.3,0-.3-.2-.6-.3-1l1-.3c.3.7.5,1.5.8,2.5ZM118.3-585.7l-1.1.3c0-1-.2-1.9-.3-2.6l1-.2c.2.8.3,1.6.4,2.6ZM120-586.5l-1,.4c-.2-.8-.4-1.5-.6-2.1l.9-.3c.3.6.5,1.3.7,2ZM122.3-596c-.1.6-.3,1.2-.5,1.8h3.8c0,4.1,0,6.7-.2,7.7-.1.9-.7,1.3-1.8,1.3s-.7,0-1.3,0l-.3-1.1c.5,0,1,0,1.4,0s.7-.3.8-.8c0-.6.1-2.5.1-5.9h-3.1c-.4.7-.8,1.3-1.3,1.9l-.8-1c1-1.1,1.6-2.5,2-4.1l1.2.2ZM123.4-588.8l-1,.7c-.5-.8-1.1-1.7-1.8-2.8l1-.6c.8,1,1.4,1.9,1.9,2.7Z"/>
      <path class="st0" d="M134.1-595.2v-.9h1.3v.9h4.2v1.2h-4.2v.8h3.5v1.2h-3.5v.8h4.5v1.1h-5.4c-.4.6-.9,1.1-1.5,1.5v2.2c.8-.3,1.6-.6,2.4-.9l.3,1.2c-1.2.5-2.5.9-3.8,1.2l-.4-1.1c.2-.1.3-.3.3-.5v-1.3c-.6.3-1.2.6-1.9.9l-.7-1.1c1.7-.6,3-1.3,3.9-2.2h-3.4v-1.1h4.5v-.8h-3.5v-1.2h3.5v-.8h-4.2v-1.2h4.2ZM139.5-589c-.6.6-1.2,1-2,1.4.8.7,1.7,1.2,2.8,1.5l-.7,1.1c-2.1-.8-3.6-2.1-4.5-4.2l.9-.5c.2.5.5.9.8,1.3.6-.3,1.2-.8,1.8-1.4l.9.9Z"/>
      <path class="st0" d="M153.5-592.6v4.2h-3.7v.7h4.6v1.1h-4.6v1.6h-1.3v-1.6h-4.6v-1.1h4.6v-.7h-3.7v-4.2h8.6ZM148.8-595.8v2.7h-4.4v-2.7h4.4ZM147.5-594.9h-1.9v.9h1.9v-.9ZM148.5-590.9v-.7h-2.4v.7h2.4ZM148.5-590.1h-2.4v.7h2.4v-.7ZM153.9-595.8v2.7h-4.4v-2.7h4.4ZM149.8-590.9h2.4v-.7h-2.4v.7ZM152.2-590.1h-2.4v.7h2.4v-.7ZM152.7-594.9h-2v.9h2v-.9Z"/>
    </g>
  </g>
  <g>
    <path d="M-185.9-953v1.6h-12.2v2.4h13.3v6.5h-1.7v-5.1h-11.5v7.2h-1.8v-7.2h-11.5v5.1h-1.7v-6.5h13.2v-2.4h-12.3v-1.6h26.2ZM-187.4-938.9v10h-10.7v2.5c0,.7.4,1.1,1.1,1.1h8.6c1,0,1.7-.2,2.1-.5.5-.4.9-1.7,1.1-3.7l1.6.5c-.2,2.4-.7,4-1.5,4.6-.6.4-1.6.7-3,.7h-9.5c-1.7,0-2.5-.8-2.5-2.3v-2.8h-10.8v-10h23.4ZM-202.1-941.3c-1.5.3-3.8.6-6.9.8l-.4-1.3c3.1-.1,5.4-.4,6.9-.7l.4,1.1ZM-202.1-945l-.5,1.2c-2.1-.4-4.2-.7-6.5-.9l.6-1.1c2.2.2,4.3.5,6.3.9ZM-199.9-934.6v-2.8h-9.1v2.8h9.1ZM-199.9-933.2h-9.1v2.8h9.1v-2.8ZM-198.1-934.6h9v-2.8h-9v2.8ZM-189.1-933.2h-9v2.8h9v-2.8ZM-188.6-941.6l-.5,1.2c-2.2-.5-4.5-.9-6.9-1.1l.5-1.1c2.4.2,4.7.5,6.9,1ZM-196-945.1c2.4-.2,4.5-.5,6.4-1l.5,1.3c-1.9.4-4.1.7-6.6.9l-.3-1.2Z"/>
    <path d="M-170.3-926.1c0,1.6-.9,2.4-2.6,2.4h-2.4l-.4-1.7c.8,0,1.6,0,2.3,0s1.4-.5,1.4-1.4v-8.9c-1.6.5-3.2.8-5,1.2-.2,4.4-1,8.1-2.3,11l-1.3-1.2c1.3-3.2,2-7.3,2-12.2v-16h8.4v26.8ZM-172.1-943.9v-7.3h-5v6.2c1.7.3,3.4.7,5,1.1ZM-172.1-937.3v-5c-1.6-.5-3.3-.9-5-1.2v7.2c1.8-.3,3.5-.7,5-1.1ZM-162.9-953.7c-1.1,2-2.3,3.8-3.8,5.6,1.2,1.8,2.3,3.5,3.1,5.1l-1.6.7c-.9-1.9-2-3.8-3.3-5.8,1.5-1.9,2.8-4,4-6.1l1.7.6ZM-151.3-923.6h-1.8v-1.6h-13v1.6h-1.8v-16.6h4.2c.7-1.1,1.2-2.3,1.6-3.5l1.8.2c-.4,1.2-.9,2.3-1.7,3.3h10.6v16.6ZM-153.1-926.9v-11.8h-13v11.8h13ZM-159.1-933.8c1.1-1.1,2.1-2.2,2.9-3.3l1.1,1.1c-.9,1.1-1.8,2.2-2.8,3.2,1.1,1,2.2,2.1,3.2,3.1l-1.1,1.1c-.9-1-2-2.1-3.2-3.1-1.4,1.1-2.9,2.2-4.6,3.1l-.9-1.3c1.6-.9,3-1.8,4.3-2.8-1.1-.9-2.3-1.9-3.6-2.8l1.1-1.1c1.3.9,2.5,1.9,3.6,2.9ZM-156.9-953.8c-1,1.9-2.2,3.7-3.6,5.4,1.5,1.8,2.6,3.5,3.6,5.2l-1.6.7c-1.1-2-2.3-4-3.8-6,1.4-1.8,2.7-3.8,3.7-5.9l1.7.6ZM-151-953.7c-1,1.9-2.2,3.6-3.5,5.3,1.5,1.8,2.8,3.5,3.8,5.1l-1.7.7c-1.1-1.9-2.4-3.8-4-5.9,1.4-1.8,2.7-3.7,3.7-5.8l1.6.6Z"/>
    <path d="M-145.5-924.2l-1.4-1.2c1.7-2.8,2.5-7.2,2.6-13.2v-15h1.8v8.7h4.5v-9.3h1.8v11h-6.3v5.3h6.4v13.9h-1.8v-12.2h-4.7c-.3,5.2-1.2,9.2-2.9,11.8ZM-116.9-951.2h-13.8v6.8h13v1.6c-.8,4.7-2.4,8.6-4.6,11.8,1.7,2.2,3.8,4.1,6.4,5.9l-1.2,1.4c-2.5-1.9-4.6-3.8-6.2-5.9-2,2.4-4.5,4.4-7.5,5.9l-.9-1.6c2.9-1.5,5.3-3.4,7.3-5.8-2.5-3.5-4-7.4-4.6-11.5h-1.7v3c-.1,6.6-1.3,11.9-3.4,15.9l-1.4-1.2c2-3.5,3-8.4,3.1-14.7v-13.3h15.5v1.7ZM-123.4-932.4c1.9-2.9,3.2-6.3,4-10.2h-7.9c.5,3.7,1.8,7.1,3.9,10.2Z"/>
  </g>
  <g>
    <path d="M194.5-952.5c-3.1.8-6.8,1.5-10.8,1.9v6.3h11v1.8h-11v6.1h13.6v1.8h-13.6v7.8c0,1.9-.9,2.9-2.8,2.9h-5.2l-.4-1.8c1.7,0,3.4.1,5,.1s1.7-.6,1.7-1.7v-7.4h-14.8v-1.8h14.8v-6.1h-12v-1.8h12v-6.1c-3.7.3-7.8.5-12.1.5l-.6-1.7c9.9,0,18.1-.8,24.4-2.4l.9,1.6Z"/>
    <path d="M206.3-923.8h-1.7v-17.9c-.9,3-2,5.7-3.4,8.2l-.7-1.8c1.9-3.1,3.3-6.7,4.1-10.6h-3.4v-1.7h3.5v-6.9h1.7v6.9h2.8v1.7h-2.8v2.1c1.1,1.4,2.3,2.9,3.5,4.7l-.9,1.4c-1-1.7-1.9-3-2.6-4.1v18ZM223.9-926.9c-.1-.1-.2-.2-.2-.3-1.9,1.4-4,2.5-6.3,3.4l-.7-1.6c2.3-.9,4.4-2,6.1-3.3-.9-1.7-1.6-3.7-2.2-6v-.6h-6.1c0,.9,0,1.7-.1,2.4,2,1,3.7,2.1,5.4,3.5l-.9,1.4c-1.5-1.4-3.1-2.4-4.6-3.3,0,.3-.1.5-.1.8-.5,2.8-2.1,5.1-4.7,6.9l-1.1-1.4c2.4-1.6,3.8-3.6,4.3-6.2.2-1.1.3-2.4.3-4h-3.4v-1.7h10.7c-.5-2.8-.7-6-.7-9.6v-7.7h1.8v7.7c0,3.6.2,6.8.6,9.6h4.8c-.4-.8-.9-1.7-1.5-2.4l1.5-.5c.6.8,1.1,1.8,1.7,2.9h2.9v1.7h-9c.5,2.2,1.1,4.1,1.8,5.6,1.4-1.3,2.6-2.8,3.6-4.4l1.3,1c-1.1,1.9-2.5,3.5-4.1,5,0,0,0,.1,0,.1,1.2,1.6,2.3,2.4,3.2,2.4s1.3-1.6,1.8-4.6l1.5.9c-.7,3.6-1.7,5.4-3.1,5.4-1.6,0-3-1-4.5-2.9ZM218.6-939.4l-1.2.3c-.1-.7-.3-1.3-.4-1.9-1.8.3-3.8.6-6.1.9l-.3-1.3c.9-.3,2.4-2.1,4.4-5.4-1.3.1-2.7.3-4.3.5l-.3-1.2c.7-.3,2-2.6,3.9-6.8l1.5.5c-1.4,3-2.5,5-3.3,6.1,1.2-.1,2.4-.3,3.4-.4.5-.9,1.1-2,1.7-3.1l1.4.5c-2.6,4.7-4.6,7.8-5.9,9.2,1.4-.2,2.6-.4,3.7-.6-.2-.9-.5-1.7-.8-2.5l1.2-.4c.6,1.7,1.2,3.6,1.7,5.7ZM231.3-940l-1.3.3c-.2-.6-.3-1.2-.5-1.8-1.9.3-4.1.6-6.5.9l-.3-1.3c.9-.3,2.4-2.1,4.4-5.2-1.4.2-2.8.3-4.4.5l-.3-1.2c.7-.3,2-2.5,3.9-6.6l1.5.5c-1.4,2.8-2.5,4.7-3.3,5.8l3.5-.4c.5-.9,1-1.8,1.6-2.8l1.4.4c-2.5,4.5-4.5,7.4-5.9,8.7,1.5-.2,2.8-.5,4.1-.7-.3-.9-.6-1.8-1-2.6l1.2-.4c.7,1.6,1.4,3.5,2,5.7Z"/>
    <path d="M235.8-924.2l-1.4-1.2c1.7-2.8,2.5-7.2,2.6-13.2v-15h1.8v8.7h4.5v-9.3h1.8v11h-6.3v5.3h6.4v13.9h-1.8v-12.2h-4.7c-.3,5.2-1.2,9.2-2.9,11.8ZM264.3-951.2h-13.8v6.8h13v1.6c-.8,4.7-2.4,8.6-4.6,11.8,1.7,2.2,3.8,4.1,6.4,5.9l-1.2,1.4c-2.5-1.9-4.6-3.8-6.2-5.9-2,2.4-4.5,4.4-7.5,5.9l-.9-1.6c2.9-1.5,5.3-3.4,7.3-5.8-2.5-3.5-4-7.4-4.6-11.5h-1.7v3c-.1,6.6-1.3,11.9-3.4,15.9l-1.4-1.2c2-3.5,3-8.4,3.1-14.7v-13.3h15.5v1.7ZM257.8-932.4c1.9-2.9,3.2-6.3,4-10.2h-7.9c.5,3.7,1.8,7.1,3.9,10.2Z"/>
  </g>
  <g>
    <path class="st0" d="M260.6-577v.6h-2.2v1.6h2.1v.6h-2.1v2.2h-.7v-5.1h3Z"/>
    <path class="st0" d="M263.5-577h.7l2,5.1h-.8l-.6-1.4h-2.1l-.6,1.4h-.8l2.1-5.1ZM262.9-573.9h1.7l-.3-.9c0-.2-.2-.5-.3-.7s-.2-.4-.2-.7h0c0,.2-.2.4-.2.7s-.2.4-.3.7l-.3.9Z"/>
    <path class="st0" d="M269.7-572.5c.3,0,.5,0,.7,0,.2,0,.3-.1.5-.2l.2.6c-.2,0-.4.2-.6.2-.2,0-.5,0-.8,0s-.6,0-.9-.2c-.3-.1-.6-.3-.8-.5-.2-.2-.4-.5-.5-.8-.1-.3-.2-.7-.2-1.1s0-.8.2-1.1c.1-.3.3-.6.5-.8.2-.2.5-.4.8-.5.3-.1.6-.2,1-.2s.6,0,.8,0c.2,0,.4.1.6.2l-.2.6c-.1,0-.2,0-.3-.1,0,0-.2,0-.3,0,0,0-.2,0-.3,0,0,0-.2,0-.3,0-.2,0-.5,0-.7.1-.2,0-.4.2-.6.4s-.3.4-.4.6c0,.3-.1.6-.1.9s0,.7.1.9c0,.3.2.5.4.6.2.2.3.3.5.3s.4.1.7.1Z"/>
    <path class="st0" d="M272.8-577h3.1v.6h-2.3v1.5h2.1v.6h-2.1v1.7h2.4v.6h-3.1v-5.1Z"/>
    <path class="st0" d="M279.2-577c.5,0,.9.1,1.2.3s.4.5.4,1,0,.6-.3.7c-.2.2-.4.3-.7.4.2,0,.3,0,.4.1.1,0,.2.2.3.3,0,.1.2.2.2.4,0,.1,0,.3,0,.5s0,.4-.1.6-.2.3-.4.4-.4.2-.6.3c-.2,0-.5.1-.7.1h-1.5v-5.1h1.5ZM278.4-574.9h.6c.1,0,.3,0,.4,0,.1,0,.2,0,.3-.1,0,0,.2-.1.2-.2,0,0,0-.2,0-.4,0-.3,0-.4-.3-.6-.2-.1-.4-.2-.7-.2h-.7v1.5ZM278.4-572.5h.6c.2,0,.3,0,.4,0,.1,0,.3,0,.4-.1.1,0,.2-.2.2-.3,0-.1,0-.3,0-.4s0-.3-.1-.4c0-.1-.2-.2-.3-.3-.1,0-.3-.1-.4-.1-.2,0-.3,0-.5,0h-.5v1.8Z"/>
    <path class="st0" d="M284.9-577.1c.3,0,.7,0,1,.2.3.1.5.3.8.5.2.2.4.5.5.8.1.3.2.7.2,1.1s0,.8-.2,1.1c-.1.3-.3.6-.5.8-.2.2-.5.4-.8.5s-.6.2-1,.2-.7,0-1-.2c-.3-.1-.5-.3-.8-.5s-.4-.5-.5-.8c-.1-.3-.2-.7-.2-1.1s0-.8.2-1.1c.1-.3.3-.6.5-.8.2-.2.5-.4.8-.5.3-.1.6-.2,1-.2ZM283.3-574.5c0,.3,0,.6.1.9,0,.3.2.5.3.6s.3.3.5.4c.2,0,.4.1.6.1s.4,0,.6-.1c.2,0,.4-.2.5-.4.1-.2.3-.4.3-.6,0-.3.1-.6.1-.9s0-.7-.1-.9c0-.3-.2-.5-.3-.6-.1-.2-.3-.3-.5-.4s-.4-.1-.6-.1-.4,0-.6.1c-.2,0-.4.2-.5.4-.1.2-.3.4-.3.6s-.1.6-.1.9Z"/>
    <path class="st0" d="M291.3-577.1c.3,0,.7,0,1,.2.3.1.5.3.8.5.2.2.4.5.5.8.1.3.2.7.2,1.1s0,.8-.2,1.1c-.1.3-.3.6-.5.8-.2.2-.5.4-.8.5s-.6.2-1,.2-.7,0-1-.2c-.3-.1-.5-.3-.8-.5s-.4-.5-.5-.8c-.1-.3-.2-.7-.2-1.1s0-.8.2-1.1c.1-.3.3-.6.5-.8.2-.2.5-.4.8-.5.3-.1.6-.2,1-.2ZM289.7-574.5c0,.3,0,.6.1.9,0,.3.2.5.3.6s.3.3.5.4c.2,0,.4.1.6.1s.4,0,.6-.1c.2,0,.4-.2.5-.4.1-.2.3-.4.3-.6,0-.3.1-.6.1-.9s0-.7-.1-.9c0-.3-.2-.5-.3-.6-.1-.2-.3-.3-.5-.4s-.4-.1-.6-.1-.4,0-.6.1c-.2,0-.4.2-.5.4-.1.2-.3.4-.3.6s-.1.6-.1.9Z"/>
    <path class="st0" d="M295.5-571.9v-5.1h.7v2.3l2.1-2.3h.9l-2.1,2.3,2.3,2.8h-.9l-1.9-2.3-.4.5v1.9h-.7Z"/>
  </g>
  <path class="st0" d="M283-602.1h-3s-3.1,0-3.1,3.1v3.1h-2.7v2.8h2.8v8h3.1v-8.1h2.8v-2.7h-2.9v-2.4s0-1.3,1.3-1.3h1.8v-2.6Z"/>
  <line class="st2" x1="-61.1" y1="-694.8" x2="-195" y2="-694.8"/>
  <g>
    <g>
      <path class="st0" d="M-160.4-727.4v-8.4h3.1c.6,0,1.2.1,1.6.3.4.2.8.5,1,.9.2.4.3.9.3,1.4s-.1,1-.3,1.4c-.2.4-.6.7-1,.9s-1,.3-1.6.3h-2.3v-1.2h2.1c.4,0,.7,0,1-.2.3-.1.4-.3.6-.5.1-.2.2-.5.2-.8s0-.6-.2-.8c-.1-.2-.3-.4-.6-.5-.3-.1-.6-.2-1-.2h-1.5v7.3h-1.4ZM-155.6-727.4l-2-3.8h1.5l2.1,3.8h-1.6Z"/>
      <path class="st0" d="M-150.5-727.4v-8.4h5.4v1.2h-4v2.4h3.7v1.2h-3.7v2.5h4v1.2h-5.4Z"/>
      <path class="st0" d="M-138.3-727.2c-.6,0-1.2-.1-1.7-.3s-.8-.5-1.1-.9c-.3-.4-.4-.8-.4-1.4h1.4c0,.3.1.6.3.8.2.2.4.3.7.4.3,0,.6.1.9.1s.7,0,.9-.2c.3-.1.5-.3.6-.5.2-.2.2-.4.2-.7s0-.4-.2-.6c-.1-.2-.3-.3-.6-.4-.2-.1-.5-.2-.8-.3l-1-.3c-.7-.2-1.2-.5-1.6-.8-.4-.4-.6-.8-.6-1.4s.1-.9.4-1.3c.3-.4.6-.7,1.1-.9.5-.2,1-.3,1.5-.3s1.1.1,1.6.3c.4.2.8.5,1,.8s.4.8.4,1.2h-1.3c0-.4-.2-.7-.5-.9s-.7-.3-1.2-.3-.6,0-.9.2c-.2.1-.4.2-.6.4-.1.2-.2.4-.2.6s0,.5.2.6c.2.2.4.3.6.4.2,0,.5.2.7.2l.8.2c.3,0,.6.2.9.3.3.1.6.3.8.5.2.2.4.4.6.7.1.3.2.6.2,1s-.1.9-.4,1.3c-.2.4-.6.7-1.1.9-.5.2-1,.3-1.7.3Z"/>
      <path class="st0" d="M-131.3-727.4v-8.4h5.4v1.2h-4v2.4h3.7v1.2h-3.7v2.5h4v1.2h-5.4Z"/>
      <path class="st0" d="M-122-727.4v-8.4h3.1c.7,0,1.2.1,1.6.3.4.2.8.5,1,.9.2.4.3.9.3,1.4s-.1,1-.3,1.4c-.2.4-.6.7-1,.9s-1,.3-1.6.3h-2.3v-1.2h2.1c.4,0,.7,0,1-.2.3-.1.4-.3.6-.5.1-.2.2-.5.2-.8s0-.6-.2-.8c-.1-.2-.3-.4-.6-.5-.3-.1-.6-.2-1-.2h-1.5v7.3h-1.4ZM-117.2-727.4l-2-3.8h1.5l2.1,3.8h-1.6Z"/>
      <path class="st0" d="M-109.9-727.4l-3-8.4h1.5l1.6,4.6c.1.4.3.9.4,1.4.2.5.3,1.2.5,1.9h-.3c.2-.7.4-1.4.5-1.9.2-.5.3-1,.4-1.4l1.5-4.6h1.5l-3,8.4h-1.7Z"/>
      <path class="st0" d="M-101.7-727.4v-8.4h5.4v1.2h-4v2.4h3.7v1.2h-3.7v2.5h4v1.2h-5.4Z"/>
    </g>
    <g>
      <path class="st0" d="M-167.7-761.4c.6-.6,1.1-1.3,1.6-2.1h-4.4v-1.8h6.4v1.5c-.8,1.4-1.6,2.6-2.5,3.6.3.3.5.6.7.9h2.6v1.2c-.3,1.5-.6,2.7-1,3.5l-1.6-.6c.3-.6.5-1.4.7-2.2h-1.5v7.4c0,1.2-.6,1.8-1.7,1.8h-1.9l-.4-1.8c.6,0,1.1.1,1.6.1s.4-.2.4-.6v-6.9h-2.6v-1.8h3.1c-.7-.8-1.5-1.6-2.4-2.5l1.4-.9c.5.5.9.9,1.3,1.3ZM-159.9-762.3c.2-.4.3-.8.4-1.1h-3.7v-1.8h9.5v1.8h-3.8c-.1.4-.2.8-.4,1.1h3.6v10.5h-2.1c1.2.7,2.2,1.5,3.1,2.2l-1.3,1.3c-.7-.8-1.8-1.6-3.1-2.5l1-1h-3.5l1.1,1c-1,1-2.2,1.9-3.7,2.6l-1.1-1.4c1.4-.6,2.5-1.4,3.4-2.2h-2.1v-10.5h2.7ZM-156.3-759.4v-1.4h-4.5v1.4h4.5ZM-156.3-756.4v-1.4h-4.5v1.4h4.5ZM-156.3-754.9h-4.5v1.5h4.5v-1.5Z"/>
      <path class="st0" d="M-145.7-752.9c-.1,1.7-.3,3.3-.7,4.6l-1.7-.5c.4-1.2.6-2.7.8-4.3l1.6.2ZM-140.3-754.4l-1.7.4c0-.3-.1-.5-.2-.8-1.8.5-3.6.8-5.2,1l-.5-1.7c.3-.1.6-.3.9-.5.6-.6,1.4-1.5,2.3-2.8-.9,0-1.8.2-2.8.3l-.5-1.7c.3-.1.6-.4.8-.7,1-1.5,1.8-3.2,2.5-5l1.8.7c-.9,2-1.9,3.6-2.9,4.8.7,0,1.4-.2,2.1-.3.4-.7.9-1.5,1.4-2.4l1.7.7c-1.8,3-3.4,5.2-4.6,6.5.8-.2,1.7-.3,2.5-.5-.2-.5-.3-1-.5-1.5l1.6-.5c.5,1.1.9,2.4,1.2,3.9ZM-142.7-749.2l-1.7.4c-.2-1.6-.3-3-.5-4.2l1.6-.3c.2,1.3.5,2.6.7,4.1ZM-140-750.5l-1.5.7c-.3-1.3-.6-2.4-1-3.4l1.4-.5c.4,1,.8,2,1.1,3.2ZM-136.4-765.6c-.2,1-.5,1.9-.8,2.9h6c0,6.6,0,10.7-.3,12.2-.2,1.4-1.1,2.1-2.8,2.1s-1.1,0-2.1-.1l-.5-1.8c.9,0,1.6,0,2.2,0s1.2-.4,1.3-1.2c.1-.9.2-4,.2-9.4h-4.9c-.6,1.1-1.3,2.1-2.1,3l-1.2-1.6c1.5-1.8,2.6-3.9,3.1-6.5l1.9.2ZM-134.6-754.2l-1.6,1.1c-.7-1.3-1.7-2.8-2.9-4.4l1.5-1c1.3,1.6,2.3,3,3,4.2Z"/>
      <path class="st0" d="M-117.6-764.4v-1.4h2v1.4h6.6v1.8h-6.6v1.2h5.5v1.8h-5.5v1.3h7.1v1.8h-8.6c-.6.9-1.4,1.7-2.3,2.4v3.4c1.3-.4,2.6-.9,3.8-1.4l.4,1.8c-2,.8-3.9,1.4-6,2l-.6-1.7c.3-.2.5-.4.5-.7v-2.1c-.9.5-1.9,1-3,1.5l-1.1-1.7c2.7-.9,4.8-2.1,6.2-3.5h-5.4v-1.8h7.1v-1.3h-5.5v-1.8h5.5v-1.2h-6.6v-1.8h6.6ZM-109.1-754.5c-.9.9-2,1.7-3.1,2.2,1.2,1.1,2.7,1.9,4.5,2.4l-1.2,1.8c-3.4-1.2-5.8-3.4-7.2-6.6l1.5-.9c.3.8.7,1.5,1.2,2.1,1-.5,2-1.3,2.9-2.3l1.4,1.4Z"/>
      <path class="st0" d="M-86.9-760.2v6.7h-5.8v1.1h7.3v1.7h-7.3v2.5h-2v-2.5h-7.3v-1.7h7.3v-1.1h-5.8v-6.7h13.7ZM-94.4-765.3v4.2h-6.9v-4.2h6.9ZM-96.3-763.8h-3.1v1.4h3.1v-1.4ZM-94.8-757.5v-1.1h-3.9v1.1h3.9ZM-94.8-756.2h-3.9v1.1h3.9v-1.1ZM-86.2-765.3v4.2h-7v-4.2h7ZM-92.7-757.5h3.9v-1.1h-3.9v1.1ZM-88.9-756.2h-3.9v1.1h3.9v-1.1ZM-88.1-763.9h-3.1v1.5h3.1v-1.5Z"/>
    </g>
  </g>
  <g>
    <path class="st0" d="M-177.5,1.1h1.1v6.6h3.2v.9h-4.3V1.1Z"/>
    <path class="st0" d="M-167.9,1c.5,0,1,0,1.4.2.4.2.8.4,1.1.7.3.3.6.7.7,1.2.2.5.3,1,.3,1.7s0,1.2-.3,1.7c-.2.5-.4.9-.8,1.2-.3.3-.7.6-1.1.7s-.9.2-1.4.2-1,0-1.4-.2c-.4-.2-.8-.4-1.1-.7s-.6-.7-.7-1.2c-.2-.5-.3-1-.3-1.7s0-1.2.3-1.7c.2-.5.4-.9.8-1.2.3-.3.7-.6,1.1-.7.4-.2.9-.2,1.4-.2ZM-170.3,4.8c0,.5,0,.9.2,1.3.1.4.3.7.5.9s.5.4.8.5c.3.1.6.2.9.2s.6,0,.9-.2c.3-.1.5-.3.7-.5.2-.2.4-.6.5-.9.1-.4.2-.8.2-1.3s0-1-.2-1.3c-.1-.4-.3-.7-.5-.9-.2-.2-.5-.4-.8-.5s-.6-.2-.9-.2-.6,0-.9.2c-.3.1-.5.3-.7.5-.2.2-.4.6-.5.9s-.2.8-.2,1.3Z"/>
    <path class="st0" d="M-158.4,7.8c.4,0,.7,0,1,0,.3,0,.5-.2.8-.3l.2.9c-.3.1-.6.2-.9.3-.3,0-.7,0-1.2,0s-1,0-1.4-.2c-.4-.2-.8-.4-1.1-.7-.3-.3-.6-.7-.8-1.2-.2-.5-.3-1-.3-1.7s0-1.2.3-1.6c.2-.5.4-.9.8-1.2.3-.3.7-.6,1.2-.7.4-.2.9-.3,1.5-.3s.9,0,1.2.1c.3,0,.6.2.9.3l-.3.9c-.2,0-.3-.1-.4-.2-.1,0-.3,0-.4-.1-.1,0-.3,0-.4,0-.1,0-.3,0-.5,0-.3,0-.7,0-1,.2-.3.1-.6.3-.8.5s-.4.5-.6.9c-.1.4-.2.8-.2,1.4s0,1,.2,1.4c.1.4.3.7.5.9.2.2.5.4.8.5s.6.2,1,.2Z"/>
    <path class="st0" d="M-151.8,1.1h1l3,7.5h-1.1l-.8-2.1h-3.1l-.8,2.1h-1.1l3-7.5ZM-152.5,5.6h2.5l-.5-1.3c-.1-.3-.3-.7-.4-1s-.2-.6-.3-1h0c-.1.3-.2.7-.3,1s-.2.6-.4,1l-.5,1.3Z"/>
    <path class="st0" d="M-141.6,1.1v.9h-2.3v6.6h-1.1V2h-2.3v-.9h5.7Z"/>
    <path class="st0" d="M-138.2,1.1v7.5h-1.1V1.1h1.1Z"/>
    <path class="st0" d="M-132,1c.5,0,1,0,1.4.2.4.2.8.4,1.1.7.3.3.6.7.7,1.2.2.5.3,1,.3,1.7s0,1.2-.3,1.7c-.2.5-.4.9-.8,1.2-.3.3-.7.6-1.1.7s-.9.2-1.4.2-1,0-1.4-.2c-.4-.2-.8-.4-1.1-.7s-.6-.7-.7-1.2c-.2-.5-.3-1-.3-1.7s0-1.2.3-1.7c.2-.5.4-.9.8-1.2.3-.3.7-.6,1.1-.7.4-.2.9-.2,1.4-.2ZM-134.3,4.8c0,.5,0,.9.2,1.3.1.4.3.7.5.9s.5.4.8.5c.3.1.6.2.9.2s.6,0,.9-.2c.3-.1.5-.3.7-.5.2-.2.4-.6.5-.9.1-.4.2-.8.2-1.3s0-1-.2-1.3c-.1-.4-.3-.7-.5-.9-.2-.2-.5-.4-.8-.5s-.6-.2-.9-.2-.6,0-.9.2c-.3.1-.5.3-.7.5-.2.2-.4.6-.5.9s-.2.8-.2,1.3Z"/>
    <path class="st0" d="M-125.8,1.1h1l3.4,4.7c.1.2.2.4.4.5.1.2.2.4.3.5h0c0-.3,0-.6,0-.8s0-.6,0-.8V1.1h1.1v7.5h-1l-3.4-4.7c-.1-.2-.2-.4-.4-.6-.1-.2-.2-.4-.4-.6h0c0,.3,0,.7,0,1,0,.3,0,.7,0,1v3.9h-1.1V1.1Z"/>
  </g>
  <path class="st0" d="M-215.9.6c0-5.7-4.4-10.2-9.9-10.2s-9.9,4.6-9.9,10.2.3,2.6.7,3.8h0l.2.3c.3.7.6,1.3,1.1,1.9l3.4,6,4.6,8.3,4.6-8.3,3.4-6c.4-.6.8-1.2,1.1-1.9l.2-.3h0c.4-1.2.7-2.4.7-3.8ZM-225.8,6.4c-3.1,0-5.7-2.6-5.7-5.9s2.5-5.9,5.7-5.9,5.7,2.6,5.7,5.9-2.5,5.9-5.7,5.9Z"/>
  <path class="st0" d="M-32.7-13.3h-5s-5.3,0-5.3,5.2V-2.8h-4.5V1.8h4.6v13.4h5.2V1.8h4.6V-2.8h-4.8v-4s-.1-2.2,2.2-2.2h3.1v-4.4Z"/>
  <g>
    <path class="st0" d="M4.4.3v.9H1.1v2.4h3.1v.9H1.1v3.3H0V.3h4.4Z"/>
    <path class="st0" d="M8.6.3h1l3,7.5h-1.1l-.8-2.1h-3.1l-.8,2.1h-1.1L8.6.3ZM7.8,4.8h2.5l-.5-1.3c-.1-.3-.3-.7-.4-1s-.2-.6-.3-1h0c-.1.3-.2.7-.3,1s-.2.6-.4,1l-.5,1.3Z"/>
    <path class="st0" d="M17.8,6.9c.4,0,.7,0,1,0,.3,0,.5-.2.8-.3l.2.9c-.3.1-.6.2-.9.3-.3,0-.7,0-1.2,0s-1,0-1.4-.2c-.4-.2-.8-.4-1.1-.7-.3-.3-.6-.7-.8-1.2-.2-.5-.3-1-.3-1.7s0-1.2.3-1.6c.2-.5.4-.9.8-1.2.3-.3.7-.6,1.2-.7.4-.2.9-.3,1.5-.3s.9,0,1.2.1c.3,0,.6.2.9.3l-.3.9c-.2,0-.3-.1-.4-.2-.1,0-.3,0-.4-.1-.1,0-.3,0-.4,0-.1,0-.3,0-.5,0-.3,0-.7,0-1,.2-.3.1-.6.3-.8.5s-.4.5-.6.9c-.1.4-.2.8-.2,1.4s0,1,.2,1.4c.1.4.3.7.5.9.2.2.5.4.8.5s.6.2,1,.2Z"/>
    <path class="st0" d="M22.3.3h4.5v.9h-3.4v2.2h3.1v.9h-3.1v2.5h3.5v.9h-4.6V.3Z"/>
    <path class="st0" d="M31.7.3c.7,0,1.3.2,1.7.5s.6.8.6,1.4-.1.8-.4,1.1c-.3.3-.6.4-1,.5.2,0,.4.1.6.2.2,0,.4.2.5.4.1.2.3.3.3.6,0,.2.1.5.1.7s0,.6-.2.8-.3.5-.6.7-.5.3-.8.4c-.3.1-.7.2-1.1.2h-2.2V.3h2.3ZM30.6,3.4h.9c.2,0,.4,0,.6,0,.2,0,.3,0,.5-.2.1,0,.2-.2.3-.4,0-.1.1-.3.1-.6,0-.4-.1-.7-.4-.8-.3-.2-.6-.3-1-.3h-1v2.2ZM30.6,6.9h1c.2,0,.4,0,.6,0,.2,0,.4-.1.5-.2.2-.1.3-.2.4-.4,0-.2.1-.4.1-.6s0-.4-.2-.6c-.1-.2-.2-.3-.4-.4-.2-.1-.4-.2-.6-.2-.2,0-.4,0-.7,0h-.8v2.6Z"/>
    <path class="st0" d="M40.2.1c.5,0,1,0,1.4.2.4.2.8.4,1.1.7.3.3.6.7.7,1.2.2.5.3,1,.3,1.7s0,1.2-.3,1.7c-.2.5-.4.9-.8,1.2-.3.3-.7.6-1.1.7s-.9.2-1.4.2-1,0-1.4-.2c-.4-.2-.8-.4-1.1-.7s-.6-.7-.7-1.2c-.2-.5-.3-1-.3-1.7s0-1.2.3-1.7c.2-.5.4-.9.8-1.2.3-.3.7-.6,1.1-.7.4-.2.9-.2,1.4-.2ZM37.9,4c0,.5,0,.9.2,1.3.1.4.3.7.5.9s.5.4.8.5c.3.1.6.2.9.2s.6,0,.9-.2c.3-.1.5-.3.7-.5.2-.2.4-.6.5-.9.1-.4.2-.8.2-1.3s0-1-.2-1.3c-.1-.4-.3-.7-.5-.9-.2-.2-.5-.4-.8-.5s-.6-.2-.9-.2-.6,0-.9.2c-.3.1-.5.3-.7.5-.2.2-.4.6-.5.9s-.2.8-.2,1.3Z"/>
    <path class="st0" d="M49.6.1c.5,0,1,0,1.4.2.4.2.8.4,1.1.7.3.3.6.7.7,1.2.2.5.3,1,.3,1.7s0,1.2-.3,1.7c-.2.5-.4.9-.8,1.2-.3.3-.7.6-1.1.7s-.9.2-1.4.2-1,0-1.4-.2c-.4-.2-.8-.4-1.1-.7s-.6-.7-.7-1.2c-.2-.5-.3-1-.3-1.7s0-1.2.3-1.7c.2-.5.4-.9.8-1.2.3-.3.7-.6,1.1-.7.4-.2.9-.2,1.4-.2ZM47.2,4c0,.5,0,.9.2,1.3.1.4.3.7.5.9s.5.4.8.5c.3.1.6.2.9.2s.6,0,.9-.2c.3-.1.5-.3.7-.5.2-.2.4-.6.5-.9.1-.4.2-.8.2-1.3s0-1-.2-1.3c-.1-.4-.3-.7-.5-.9-.2-.2-.5-.4-.8-.5s-.6-.2-.9-.2-.6,0-.9.2c-.3.1-.5.3-.7.5-.2.2-.4.6-.5.9s-.2.8-.2,1.3Z"/>
    <path class="st0" d="M55.8,7.7V.3h1.1v3.4l3.2-3.4h1.4l-3.1,3.3,3.3,4.2h-1.4l-2.7-3.4-.6.7v2.7h-1.1Z"/>
  </g>
  <path class="st0" d="M125.7-5.1c-4-5.2-12-6.1-17.5-3-3,1.7-5.1,4.7-5.8,8.1-.9,4.3,1.3,8.3,4.5,11.1v5c-.1,0,4.7-2.6,4.7-2.6.3-.2,1.9.3,2.3.3,1.8.1,3.6,0,5.3-.5,4.6-1.3,8.2-5.4,8.8-10.2.4-2.9-.5-5.9-2.2-8.3ZM116.6,6.1l-3.5-3.5-6.3,3.3,7-7,3.4,3.4,6.2-3.4-6.8,7.2Z"/>
  <g>
    <path class="st0" d="M166.6-3.6h1.4l1.6,4.8c0,.2.2.5.2.7,0,.2.1.4.2.7h0c0-.2.1-.4.2-.6s.1-.4.2-.7l1.5-4.8h1.4l.7,7.5h-1.1l-.3-4c0-.4,0-.8,0-1.2,0-.4,0-.8,0-1.2h0c-.1.4-.2.8-.3,1.2s-.2.8-.4,1.2l-1.3,4h-1l-1.3-4c-.1-.4-.3-.8-.4-1.2-.1-.4-.2-.8-.3-1.2h0c0,.4,0,.8,0,1.2,0,.4,0,.8,0,1.2l-.3,4h-1.1l.6-7.5Z"/>
    <path class="st0" d="M177-3.6h4.5v.9h-3.4V-.4h3.1V.4h-3.1v2.5h3.5v.9h-4.6V-3.6Z"/>
    <path class="st0" d="M186.2-3.7c.4,0,.7,0,1.1,0,.3,0,.7.2,1,.3l-.3.9c-.3-.2-.6-.3-.9-.3-.3,0-.6-.1-.8-.1-.5,0-.8,0-1.1.3-.3.2-.4.5-.4.8s0,.5.3.7c.2.2.5.3,1,.5l.8.2c.7.2,1.2.5,1.4.9.3.4.4.8.4,1.2s0,.6-.2.9c-.1.3-.3.5-.5.7s-.5.3-.8.4c-.3,0-.7.1-1,.1s-.8,0-1.2-.1c-.4,0-.8-.2-1.2-.4l.3-.9c.3.2.7.3,1,.4.3,0,.7.1,1,.1s.8,0,1.1-.3c.3-.2.5-.5.5-.9s0-.3,0-.4c0-.1-.1-.2-.2-.4s-.3-.2-.4-.3-.4-.2-.7-.3l-.8-.2c-.5-.2-1-.4-1.3-.7-.3-.3-.4-.7-.4-1.2s.2-1.2.6-1.6c.4-.4,1.1-.6,1.9-.6Z"/>
    <path class="st0" d="M193.3-3.7c.4,0,.7,0,1.1,0,.3,0,.7.2,1,.3l-.3.9c-.3-.2-.6-.3-.9-.3-.3,0-.6-.1-.8-.1-.5,0-.8,0-1.1.3-.3.2-.4.5-.4.8s0,.5.3.7c.2.2.5.3,1,.5l.8.2c.7.2,1.2.5,1.4.9.3.4.4.8.4,1.2s0,.6-.2.9c-.1.3-.3.5-.5.7s-.5.3-.8.4c-.3,0-.7.1-1,.1s-.8,0-1.2-.1c-.4,0-.8-.2-1.2-.4l.3-.9c.3.2.7.3,1,.4.3,0,.7.1,1,.1s.8,0,1.1-.3c.3-.2.5-.5.5-.9s0-.3,0-.4c0-.1-.1-.2-.2-.4s-.3-.2-.4-.3-.4-.2-.7-.3l-.8-.2c-.5-.2-1-.4-1.3-.7-.3-.3-.4-.7-.4-1.2s.2-1.2.6-1.6c.4-.4,1.1-.6,1.9-.6Z"/>
    <path class="st0" d="M200.3-3.6h1l3,7.5h-1.1l-.8-2.1h-3.1l-.8,2.1h-1.1l3-7.5ZM199.6.9h2.5l-.5-1.3c-.1-.3-.3-.7-.4-1s-.2-.6-.3-1h0c-.1.3-.2.7-.3,1s-.2.6-.4,1l-.5,1.3Z"/>
    <path class="st0" d="M209.6-3.7c.4,0,.8,0,1.2,0s.7.2,1,.3l-.3.9c-.3-.1-.6-.2-.9-.3-.3,0-.6,0-.9,0s-.7,0-1,.2c-.3.1-.6.3-.8.5-.2.2-.4.5-.6.9-.1.4-.2.8-.2,1.4,0,1,.2,1.7.7,2.2s1.1.7,1.8.7.6,0,.8,0c.2,0,.4,0,.6-.2V.8h-1.4V0h2.4v3.6c-.3.1-.7.2-1.1.3-.4,0-.8.1-1.4.1s-1,0-1.4-.2c-.4-.2-.8-.4-1.2-.7-.3-.3-.6-.7-.8-1.2-.2-.5-.3-1-.3-1.7s0-1.2.3-1.7c.2-.5.4-.9.8-1.2.3-.3.7-.6,1.2-.7.5-.2.9-.2,1.5-.2Z"/>
    <path class="st0" d="M214.8-3.6h4.5v.9h-3.4V-.4h3.1V.4h-3.1v2.5h3.5v.9h-4.6V-3.6Z"/>
  </g>
  <path class="st0" d="M253.3,15.8c1.7-.3,3.4-1.2,4.9-2.2,5.3-3.6,8.7-8.5,10-14.8.4-2,.4-4.1-.8-5.9-1-1.6-2.5-2.4-4.4-2.3-.6,0-.9.2-1.2.8-.6,1.5-1.2,3.1-1.8,4.6-.4,1-.3,1.2.6,1.8.7.5,1.4,1,2.1,1.5.5.3.6.7.4,1.2-1.2,3.9-3.5,6.9-6.9,9.1-.5.3-.9.3-1.4,0-.7-.6-1.4-1.2-2.1-1.8-.4-.4-.9-.5-1.4,0-1.5,1.1-2.9,2.2-4.4,3.3-.4.3-.4.8-.3,1.3.9,2.8,3.2,4.2,6.5,3.7Z"/>
  <g>
    <path class="st0" d="M303.1,6.1c.4,0,.7,0,1,0,.3,0,.5-.2.8-.3l.2.9c-.3.1-.6.2-.9.3-.3,0-.7,0-1.2,0s-1,0-1.4-.2c-.4-.2-.8-.4-1.1-.7-.3-.3-.6-.7-.8-1.2-.2-.5-.3-1-.3-1.7s0-1.2.3-1.6c.2-.5.4-.9.8-1.2.3-.3.7-.6,1.2-.7.4-.2.9-.3,1.5-.3s.9,0,1.2.1c.3,0,.6.2.9.3l-.3.9c-.2,0-.3-.1-.4-.2-.1,0-.3,0-.4-.1-.1,0-.3,0-.4,0-.1,0-.3,0-.5,0-.3,0-.7,0-1,.2-.3.1-.6.3-.8.5s-.4.5-.6.9c-.1.4-.2.8-.2,1.4s0,1,.2,1.4c.1.4.3.7.5.9.2.2.5.4.8.5s.6.2,1,.2Z"/>
    <path class="st0" d="M310.5-.7c.5,0,1,0,1.4.2.4.2.8.4,1.1.7.3.3.6.7.7,1.2.2.5.3,1,.3,1.7s0,1.2-.3,1.7c-.2.5-.4.9-.8,1.2-.3.3-.7.6-1.1.7s-.9.2-1.4.2-1,0-1.4-.2c-.4-.2-.8-.4-1.1-.7s-.6-.7-.7-1.2c-.2-.5-.3-1-.3-1.7s0-1.2.3-1.7c.2-.5.4-.9.8-1.2.3-.3.7-.6,1.1-.7.4-.2.9-.2,1.4-.2ZM308.1,3.2c0,.5,0,.9.2,1.3.1.4.3.7.5.9s.5.4.8.5c.3.1.6.2.9.2s.6,0,.9-.2c.3-.1.5-.3.7-.5.2-.2.4-.6.5-.9.1-.4.2-.8.2-1.3s0-1-.2-1.3c-.1-.4-.3-.7-.5-.9-.2-.2-.5-.4-.8-.5s-.6-.2-.9-.2-.6,0-.9.2c-.3.1-.5.3-.7.5-.2.2-.4.6-.5.9s-.2.8-.2,1.3Z"/>
    <path class="st0" d="M316.7-.6h1l3.4,4.7c.1.2.2.4.4.5.1.2.2.4.3.5h0c0-.3,0-.6,0-.8s0-.6,0-.8V-.6h1.1v7.5h-1l-3.4-4.7c-.1-.2-.2-.4-.4-.6-.1-.2-.2-.4-.4-.6h0c0,.3,0,.7,0,1,0,.3,0,.7,0,1v3.9h-1.1V-.6Z"/>
    <path class="st0" d="M330.8-.6V.4h-2.3v6.6h-1.1V.4h-2.3v-.9h5.7Z"/>
    <path class="st0" d="M334.3-.6h1l3,7.5h-1.1l-.8-2.1h-3.1l-.8,2.1h-1.1l3-7.5ZM333.5,4h2.5l-.5-1.3c-.1-.3-.3-.7-.4-1s-.2-.6-.3-1h0c-.1.3-.2.7-.3,1s-.2.6-.4,1l-.5,1.3Z"/>
    <path class="st0" d="M343.5,6.1c.4,0,.7,0,1,0,.3,0,.5-.2.8-.3l.2.9c-.3.1-.6.2-.9.3-.3,0-.7,0-1.2,0s-1,0-1.4-.2c-.4-.2-.8-.4-1.1-.7-.3-.3-.6-.7-.8-1.2-.2-.5-.3-1-.3-1.7s0-1.2.3-1.6c.2-.5.4-.9.8-1.2.3-.3.7-.6,1.2-.7.4-.2.9-.3,1.5-.3s.9,0,1.2.1c.3,0,.6.2.9.3l-.3.9c-.2,0-.3-.1-.4-.2-.1,0-.3,0-.4-.1-.1,0-.3,0-.4,0-.1,0-.3,0-.5,0-.3,0-.7,0-1,.2-.3.1-.6.3-.8.5s-.4.5-.6.9c-.1.4-.2.8-.2,1.4s0,1,.2,1.4c.1.4.3.7.5.9.2.2.5.4.8.5s.6.2,1,.2Z"/>
    <path class="st0" d="M353-.6V.4h-2.3v6.6h-1.1V.4h-2.3v-.9h5.7Z"/>
    <path class="st0" d="M359-.6h1.1V3.9c0,.8.1,1.4.4,1.7.3.3.8.5,1.4.5s1.1-.2,1.4-.6c.3-.4.4-.9.4-1.5V-.6h1.1v4.6c0,1-.3,1.8-.8,2.3-.5.5-1.2.7-2.2.7s-1.7-.2-2.2-.7c-.5-.5-.8-1.3-.8-2.3V-.6Z"/>
    <path class="st0" d="M370-.7c.4,0,.7,0,1.1,0,.3,0,.7.2,1,.3l-.3.9c-.3-.2-.6-.3-.9-.3-.3,0-.6-.1-.8-.1-.5,0-.8,0-1.1.3-.3.2-.4.5-.4.8s0,.5.3.7c.2.2.5.3,1,.5l.8.2c.7.2,1.2.5,1.4.9.3.4.4.8.4,1.2s0,.6-.2.9c-.1.3-.3.5-.5.7s-.5.3-.8.4c-.3,0-.7.1-1,.1s-.8,0-1.2-.1c-.4,0-.8-.2-1.2-.4l.3-.9c.3.2.7.3,1,.4.3,0,.7.1,1,.1s.8,0,1.1-.3c.3-.2.5-.5.5-.9s0-.3,0-.4c0-.1-.1-.2-.2-.4s-.3-.2-.4-.3-.4-.2-.7-.3l-.8-.2c-.5-.2-1-.4-1.3-.7-.3-.3-.4-.7-.4-1.2s.2-1.2.6-1.6c.4-.4,1.1-.6,1.9-.6Z"/>
  </g>
</svg>