<svg width="27" height="27" viewBox="0 0 27 27" fill="none" xmlns="http://www.w3.org/2000/svg">
<path d="M23.7403 5.3C19.7703 0.119998 11.7403 -0.849994 6.25034 2.34001C3.25034 4.08001 1.12034 6.99 0.440339 10.4C-0.419661 14.74 1.75034 18.66 4.91034 21.51L4.80034 26.55C4.80034 26.55 9.61034 23.92 9.61034 23.91C9.93034 23.73 11.4803 24.21 11.8703 24.24C13.6503 24.37 15.4703 24.21 17.1903 23.72C21.8003 22.39 25.3803 18.34 25.9803 13.55C26.3503 10.63 25.5203 7.64 23.7303 5.3H23.7403ZM14.6203 16.44L11.1503 12.92L4.85034 16.24L11.8703 9.19001L15.2503 12.63L21.4703 9.25001L14.6203 16.44Z" fill="#D15E52"/>
</svg>
