<svg width="74" height="8" viewBox="0 0 74 8" fill="none" xmlns="http://www.w3.org/2000/svg">
<path d="M4.02007 6.86996C4.42007 6.86996 4.74008 6.83997 5.00008 6.77997C5.26008 6.71997 5.51007 6.62998 5.77007 6.50998L6.02007 7.38998C5.74007 7.51998 5.44008 7.61997 5.11008 7.68997C4.78008 7.74997 4.38008 7.78998 3.90008 7.78998C3.42008 7.78998 2.94008 7.70998 2.51008 7.53998C2.07008 7.36998 1.69008 7.12996 1.37008 6.79996C1.05008 6.47996 0.790077 6.06997 0.610077 5.58997C0.420077 5.10997 0.330078 4.55996 0.330078 3.92996C0.330078 3.29996 0.420075 2.77996 0.600075 2.29996C0.780075 1.81996 1.03008 1.41997 1.36008 1.08997C1.68008 0.759966 2.07008 0.509966 2.51008 0.339966C2.95008 0.169966 3.44008 0.0799561 3.96008 0.0799561C4.45008 0.0799561 4.86008 0.119982 5.18008 0.199982C5.50008 0.279982 5.79007 0.389959 6.06007 0.519958L5.80008 1.37997C5.65008 1.31997 5.51007 1.25996 5.38007 1.20996C5.25007 1.15996 5.12007 1.11997 4.99007 1.08997C4.86007 1.05997 4.72008 1.02996 4.58008 1.01996C4.44008 0.999959 4.28008 0.999969 4.11008 0.999969C3.76008 0.999969 3.43008 1.04997 3.11008 1.15997C2.80008 1.26997 2.52008 1.43996 2.29008 1.67996C2.06008 1.91996 1.87008 2.21998 1.73008 2.59998C1.59008 2.97998 1.52007 3.42996 1.52007 3.95996C1.52007 4.48996 1.59008 4.94996 1.72008 5.32996C1.86008 5.69996 2.04008 5.99998 2.26008 6.22998C2.49008 6.45998 2.75008 6.62998 3.05008 6.72998C3.35008 6.82998 3.67008 6.88998 4.01008 6.88998L4.02007 6.86996Z" fill="#D15E52"/>
<path d="M11.4496 0.0699463C11.9596 0.0699463 12.4296 0.149937 12.8596 0.309937C13.2896 0.469937 13.6597 0.709947 13.9697 1.03995C14.2797 1.35995 14.5296 1.75993 14.6996 2.23993C14.8696 2.71993 14.9596 3.27995 14.9596 3.91995C14.9596 4.55995 14.8697 5.09993 14.6897 5.57993C14.5097 6.05993 14.2597 6.45995 13.9397 6.78995C13.6197 7.11995 13.2496 7.35994 12.8096 7.52994C12.3696 7.69994 11.9097 7.77994 11.3997 7.77994C10.8897 7.77994 10.4196 7.69995 9.98965 7.53995C9.55965 7.37995 9.18965 7.13995 8.87965 6.81995C8.56965 6.49995 8.31965 6.09993 8.14965 5.61993C7.97965 5.13993 7.88965 4.57994 7.88965 3.93994C7.88965 3.29994 7.97965 2.75994 8.15965 2.27994C8.33965 1.79994 8.58965 1.39995 8.90965 1.06995C9.22965 0.749946 9.59965 0.499926 10.0396 0.329926C10.4697 0.159926 10.9396 0.0799255 11.4496 0.0799255V0.0699463ZM9.07965 3.91995C9.07965 4.42995 9.13965 4.86993 9.25965 5.23993C9.37965 5.60993 9.54965 5.91995 9.76965 6.16995C9.98965 6.41995 10.2396 6.59994 10.5296 6.71994C10.8196 6.83994 11.1296 6.89993 11.4496 6.89993C11.7696 6.89993 12.0796 6.83994 12.3596 6.71994C12.6396 6.59994 12.8896 6.41995 13.0996 6.16995C13.3096 5.91995 13.4796 5.61993 13.5896 5.23993C13.7096 4.86993 13.7696 4.42995 13.7696 3.91995C13.7696 3.40995 13.7096 2.94993 13.5896 2.57993C13.4696 2.20993 13.2997 1.89994 13.0797 1.65994C12.8697 1.41994 12.6096 1.23994 12.3196 1.12994C12.0296 1.01994 11.7197 0.95993 11.3997 0.95993C11.0797 0.95993 10.7697 1.01995 10.4797 1.13995C10.1897 1.25995 9.94965 1.43994 9.73965 1.68994C9.52965 1.93994 9.36965 2.23993 9.24965 2.61993C9.12965 2.99993 9.06965 3.42994 9.06965 3.93994L9.07965 3.91995Z" fill="#D15E52"/>
<path d="M17.6602 0.179932H18.6102L22.0302 4.91995C22.1602 5.08995 22.2802 5.26993 22.4002 5.45993C22.5202 5.63993 22.6302 5.81993 22.7202 5.98993H22.7402C22.7202 5.70993 22.7101 5.43994 22.7001 5.15994C22.6901 4.87994 22.6902 4.60993 22.6902 4.32993V0.179932H23.7602V7.66995H22.8102L19.4302 2.98993C19.3102 2.81993 19.1902 2.63993 19.0602 2.42993C18.9302 2.21993 18.8101 2.00994 18.7001 1.80994H18.6802C18.7002 2.13994 18.7102 2.47994 18.7202 2.80994C18.7202 3.13994 18.7302 3.47994 18.7302 3.80994V7.67993H17.6602V0.189941V0.179932Z" fill="#D15E52"/>
<path d="M31.7598 0.179932V1.10992H29.4098V7.66995H28.3098V1.10992H26.0098V0.179932H31.7498H31.7598Z" fill="#D15E52"/>
<path d="M35.2798 0.179932H36.2598L39.2498 7.66995H38.1098L37.2898 5.58994H34.1998L33.3898 7.66995H32.2598L35.2898 0.179932H35.2798ZM34.4898 4.71994H36.9598L36.4598 3.41995C36.3298 3.07995 36.1998 2.74993 36.0898 2.42993C35.9798 2.10993 35.8698 1.78993 35.7598 1.45993H35.7398C35.6298 1.78993 35.5098 2.10995 35.3898 2.41995C35.2698 2.72995 35.1398 3.05995 35.0098 3.41995L34.4998 4.71994H34.4898Z" fill="#D15E52"/>
<path d="M44.44 6.86996C44.84 6.86996 45.16 6.83997 45.42 6.77997C45.68 6.71997 45.93 6.62998 46.19 6.50998L46.44 7.38998C46.16 7.51998 45.86 7.61997 45.53 7.68997C45.2 7.74997 44.8 7.78998 44.32 7.78998C43.84 7.78998 43.36 7.70998 42.93 7.53998C42.49 7.36998 42.11 7.12996 41.79 6.79996C41.47 6.47996 41.21 6.06997 41.03 5.58997C40.84 5.10997 40.75 4.55996 40.75 3.92996C40.75 3.29996 40.84 2.77996 41.02 2.29996C41.2 1.81996 41.45 1.41997 41.78 1.08997C42.1 0.759966 42.49 0.509966 42.93 0.339966C43.37 0.169966 43.86 0.0799561 44.38 0.0799561C44.87 0.0799561 45.28 0.119982 45.6 0.199982C45.92 0.279982 46.21 0.389959 46.48 0.519958L46.22 1.37997C46.07 1.31997 45.93 1.25996 45.8 1.20996C45.67 1.15996 45.54 1.11997 45.41 1.08997C45.28 1.05997 45.14 1.02996 45 1.01996C44.86 0.999959 44.7 0.999969 44.53 0.999969C44.18 0.999969 43.85 1.04997 43.53 1.15997C43.22 1.26997 42.94 1.43996 42.71 1.67996C42.48 1.91996 42.29 2.21998 42.15 2.59998C42.01 2.97998 41.94 3.42996 41.94 3.95996C41.94 4.48996 42.01 4.94996 42.14 5.32996C42.28 5.69996 42.46 5.99998 42.68 6.22998C42.91 6.45998 43.17 6.62998 43.47 6.72998C43.77 6.82998 44.09 6.88998 44.43 6.88998L44.44 6.86996Z" fill="#D15E52"/>
<path d="M53.9297 0.179932V1.10992H51.5797V7.66995H50.4797V1.10992H48.1797V0.179932H53.9197H53.9297Z" fill="#D15E52"/>
<path d="M59.9199 0.179932H61.0199V4.65994C61.0199 5.45994 61.1699 6.02993 61.4599 6.36993C61.7499 6.70993 62.2299 6.87994 62.8799 6.87994C63.5299 6.87994 63.9899 6.68994 64.2899 6.30994C64.5899 5.92994 64.7399 5.42993 64.7399 4.79993V0.179932H65.8399V4.76993C65.8399 5.78993 65.5799 6.54995 65.0499 7.03995C64.5299 7.52995 63.7999 7.77994 62.8799 7.77994C61.9599 7.77994 61.2299 7.53993 60.7099 7.04993C60.1899 6.55993 59.9299 5.77994 59.9299 4.71994V0.189941L59.9199 0.179932Z" fill="#D15E52"/>
<path d="M70.9404 0.0699463C71.3104 0.0699463 71.6604 0.0999426 72.0004 0.159943C72.3404 0.219943 72.6804 0.329929 73.0104 0.489929L72.7504 1.38995C72.4104 1.22995 72.1004 1.11993 71.8304 1.04993C71.5604 0.979927 71.2804 0.949951 70.9904 0.949951C70.5404 0.949951 70.1804 1.04994 69.9204 1.24994C69.6604 1.44994 69.5304 1.72993 69.5304 2.07993C69.5304 2.37993 69.6304 2.61994 69.8204 2.80994C70.0104 2.98994 70.3304 3.14995 70.7804 3.28995L71.5304 3.52994C72.2104 3.73994 72.7004 4.02993 72.9804 4.39993C73.2604 4.76993 73.4004 5.17995 73.4004 5.63995C73.4004 5.95995 73.3304 6.25994 73.2004 6.52994C73.0704 6.79994 72.8904 7.01993 72.6504 7.20993C72.4104 7.39993 72.1404 7.53995 71.8204 7.63995C71.5004 7.73995 71.1504 7.78995 70.7704 7.78995C70.3904 7.78995 70.0004 7.75994 69.6104 7.68994C69.2204 7.61994 68.8304 7.49995 68.4404 7.31995L68.7004 6.42993C69.0404 6.59993 69.3704 6.71993 69.7004 6.79993C70.0304 6.87993 70.3704 6.91995 70.7204 6.91995C71.1504 6.91995 71.5104 6.81993 71.8204 6.61993C72.1204 6.41993 72.2704 6.12993 72.2704 5.73993C72.2704 5.59993 72.2504 5.45994 72.2004 5.33994C72.1604 5.21994 72.0804 5.09993 71.9704 4.98993C71.8604 4.87993 71.7204 4.77993 71.5404 4.67993C71.3604 4.57993 71.1304 4.48994 70.8504 4.40994L70.1004 4.16995C69.5504 3.99995 69.1304 3.75993 68.8404 3.45993C68.5504 3.15993 68.4004 2.74993 68.4004 2.23993C68.4004 1.57993 68.6204 1.05993 69.0504 0.679932C69.4804 0.299932 70.1104 0.0999451 70.9404 0.0999451V0.0699463Z" fill="#D15E52"/>
</svg>
