<svg width="23" height="26" viewBox="0 0 23 26" fill="none" xmlns="http://www.w3.org/2000/svg">
<path d="M6.97973 25.58C8.67973 25.28 10.3297 24.41 11.8997 23.34C17.1997 19.74 20.5597 14.81 21.9197 8.55998C22.3697 6.50998 22.2797 4.48999 21.1197 2.63999C20.0897 0.999992 18.5797 0.279965 16.6797 0.299965C16.1297 0.299965 15.7397 0.529985 15.5297 1.06999C14.9497 2.59999 14.3297 4.11998 13.7597 5.65998C13.3997 6.62998 13.4997 6.85998 14.3497 7.43998C15.0597 7.91998 15.7497 8.41997 16.4597 8.89997C16.9197 9.20997 17.0297 9.59998 16.8697 10.13C15.6497 14 13.3597 17.04 9.96973 19.28C9.46973 19.61 9.05973 19.57 8.61973 19.2C7.90973 18.6 7.18973 18.02 6.47973 17.42C6.04973 17.05 5.60973 16.96 5.12973 17.32C3.65973 18.41 2.18973 19.5 0.739733 20.61C0.309733 20.94 0.329733 21.42 0.489733 21.92C1.36973 24.68 3.72973 26.07 6.99973 25.59L6.97973 25.58Z" fill="#D15E52"/>
</svg>
