<svg width="60" height="70" viewBox="0 0 60 70" fill="none" xmlns="http://www.w3.org/2000/svg">
<path d="M0.0302734 1.59H59.0503" stroke="#E1554B" stroke-width="1.43" stroke-miterlimit="10"/>
<path d="M0.0302734 20.74H59.0503" stroke="#E1554B" stroke-width="1.43" stroke-miterlimit="10"/>
<path d="M0.0302734 39.89H59.0503" stroke="#E1554B" stroke-width="1.43" stroke-miterlimit="10"/>
<path d="M2.94238 57.54L7.20117 67.29L7.33301 67.5898H8.03711L8.16797 67.29L12.417 57.54H13.2695V68.33H12.9199V58.9502H12.042L11.9111 59.2509L7.96191 68.33H7.39746L3.44824 59.2509L3.31738 58.9502H2.43945V68.33H2.08984V57.54H2.94238Z" fill="#E1554B" stroke="#E1554B"/>
<path d="M27.2998 57.54V57.7099H20.2998V62.6601H26.9004V62.83H20.2998V68.1601H27.5801V68.33H19.9502V57.54H27.2998Z" fill="#E1554B" stroke="#E1554B"/>
<path d="M34.4287 57.54L40.9492 66.916L41.0986 67.1298H41.9092V57.54H42.2598V68.33H41.6318L35.0811 58.8554L34.9316 58.6396H34.1191V68.33H33.7695V57.54H34.4287Z" fill="#E1554B" stroke="#E1554B"/>
<path d="M57.3701 57.54V64.2998C57.3701 65.7521 56.9946 66.7812 56.3418 67.4707C55.6545 68.1748 54.6326 68.5595 53.1699 68.5595C51.7974 68.5595 50.8125 68.2207 50.1367 67.6132L50.0059 67.4882C49.3334 66.7777 48.96 65.7481 48.96 64.3095V57.5498H49.2998V64.3203C49.2998 65.5429 49.5623 66.5536 50.2051 67.2812H50.2061C50.8761 68.0381 51.9004 68.3701 53.1602 68.3701C54.4291 68.37 55.4118 68.0333 56.1055 67.291L56.1123 67.2841L56.1182 67.2773C56.7345 66.5643 57.0195 65.5494 57.0195 64.3203V57.54H57.3701Z" fill="#E1554B" stroke="#E1554B"/>
</svg>
