<svg width="171" height="32" viewBox="0 0 171 32" fill="none" xmlns="http://www.w3.org/2000/svg">
<path d="M68.6199 5.45998H78.4399C78.4399 5.45998 78.6699 5.21998 79.0999 4.75998C79.6599 4.07998 80.0299 3.72998 80.1999 3.72998C80.3699 3.72998 80.8899 4.12998 81.7599 4.87998C82.2599 5.34998 82.5699 5.64998 82.5699 5.77998C82.5699 6.03998 82.4199 6.15998 82.1499 6.15998H68.5499V8.93998H76.1199C76.1199 8.93998 76.3799 8.65998 76.8899 8.04998C77.5799 7.21998 78.0599 6.79998 78.2699 6.79998C78.4799 6.79998 79.0799 7.26998 80.0699 8.18998C80.6899 8.76998 81.0199 9.09998 81.0199 9.25998C81.0199 9.51998 80.8399 9.66998 80.5299 9.66998H68.5499V12.43H76.2199C76.2199 12.43 76.4799 12.14 77.0099 11.57C77.6899 10.8 78.1599 10.39 78.3699 10.39C78.5499 10.39 79.1299 10.84 80.1199 11.7C80.6899 12.27 81.0199 12.61 81.0199 12.73C81.0199 13.02 80.8399 13.15 80.5299 13.15H68.5499V16.22H79.6799C79.7599 16.19 80.0699 15.79 80.6199 15.08C81.2999 14.21 81.7299 13.75 81.8299 13.75C82.1999 13.75 82.7499 14.18 83.5299 15.01C84.3199 15.85 84.7099 16.36 84.7099 16.53C84.7099 16.83 84.5299 16.95 84.1899 16.95H72.7199C73.2099 18.06 73.8699 19.06 74.6999 19.99C75.2399 20.63 75.8899 21.23 76.6399 21.77C77.0599 21.39 77.4599 20.97 77.8799 20.48C78.6299 19.63 79.2599 18.74 79.7799 17.77C80.6999 18.34 81.5699 18.88 82.3699 19.34C83.0999 19.88 83.4899 20.28 83.4899 20.52C83.4899 20.8 83.2999 20.94 82.9499 20.94L81.4199 20.83C80.4299 21.32 79.1199 21.81 77.4599 22.28C77.7599 22.49 78.1199 22.7 78.4699 22.84C80.3899 23.83 82.5499 24.58 84.9199 25.14L84.8199 25.77C83.9899 26.06 83.4299 26.45 83.1999 26.94C82.9099 27.58 82.6799 27.9 82.4699 27.9C82.0899 27.9 81.3799 27.62 80.3899 27.09C79.2399 26.54 77.9999 25.79 76.7199 24.79C75.7299 24.07 74.7999 23.05 74.0099 21.81C73.2099 20.69 72.5299 19.06 71.9899 16.95H68.5399V23.48C70.3199 23.27 72.0199 22.99 73.6599 22.67L73.8599 23.09C71.0999 24.84 68.1899 26.07 65.1299 26.85C64.7999 26.91 64.6299 27.01 64.6299 27.17C64.5799 27.27 64.5499 27.39 64.5199 27.53C64.4299 27.78 64.2999 27.9 64.1399 27.9C63.7299 27.9 63.2999 27.22 62.7999 25.91C62.6499 25.55 62.3799 24.94 62.0699 24.1C63.3099 24.02 64.5099 23.92 65.6699 23.82V16.94H64.7399C63.2499 16.94 62.1999 16.96 61.5699 17.02L61.1499 16.02C61.9799 16.17 63.1699 16.22 64.7399 16.22H65.6699V9.36998C65.6699 7.17998 65.5599 5.49998 65.3399 4.34998C66.2899 4.55998 67.3599 4.93998 68.6099 5.47998L68.6199 5.45998Z" fill="#595757"/>
<path d="M93.1598 6.2601H95.5098C95.5698 6.2601 95.8698 5.9501 96.3498 5.3701C96.9198 4.6801 97.2898 4.3301 97.3898 4.3301C97.6798 4.3301 98.1498 4.6601 98.7798 5.3501C99.4098 6.0301 99.7098 6.4301 99.7098 6.5601C99.8698 5.8701 99.9998 5.1701 100.14 4.4301C100.87 4.6901 101.55 4.9301 102.23 5.1701C102.87 5.4301 103.21 5.6901 103.21 5.9801C103.21 6.1001 103.05 6.1801 102.72 6.2101C102.42 6.2601 102.23 6.3201 102.18 6.3701C101.45 7.4301 100.61 8.3901 99.6398 9.2901C99.9498 9.3801 100.19 9.5201 100.4 9.6101C100.82 9.9401 101.06 10.2701 101.06 10.6701C101.06 11.0401 100.89 11.3501 100.62 11.6701C100.41 11.9001 100.15 12.0101 99.8298 12.0101C99.5098 12.0101 99.2598 11.7501 99.0498 11.2301C98.7398 10.4701 98.2198 9.7501 97.4698 9.0401L97.6898 8.7201C98.1798 8.8301 98.6298 8.9701 98.9998 9.0801C99.2398 8.3701 99.4498 7.6401 99.6498 6.8901C99.5698 6.9701 99.4698 7.0101 99.3398 7.0101H95.2498C94.6198 9.6901 94.0598 11.6801 93.5598 12.9601C93.4998 13.1101 93.4198 13.2801 93.3598 13.3701L93.7298 13.5501H94.4198C94.7298 13.1601 95.0498 12.8301 95.3698 12.5101C95.5798 12.2501 95.7598 12.1301 95.9698 12.1301C96.1298 12.1301 96.5798 12.3401 97.2598 12.7501C98.0398 13.2901 98.4198 13.6501 98.4198 13.8501C98.4198 14.0001 98.3698 14.1701 98.2698 14.2801C98.7998 14.2801 99.2898 14.2801 99.7598 14.2501C100.85 12.1801 101.71 9.9801 102.3 7.6201C102.99 7.8501 103.65 8.1001 104.26 8.2901C104.35 8.3501 104.42 8.3801 104.5 8.4001C104.42 6.2501 104.35 4.7401 104.23 3.8501C105.02 3.9701 105.83 4.1001 106.62 4.2301C107.48 4.3401 107.93 4.5301 107.93 4.7601C107.93 4.9701 107.73 5.1401 107.35 5.2801C106.93 5.4701 106.69 5.5901 106.69 5.6701V7.5601C107.04 7.6701 107.35 7.7501 107.61 7.8401C108.05 6.6801 108.4 5.4401 108.64 4.1301C109.37 4.3901 110.05 4.6301 110.73 4.8801C111.36 5.1301 111.71 5.4201 111.71 5.6701C111.71 5.8201 111.54 5.9201 111.24 5.9301C110.92 5.9901 110.73 6.0301 110.68 6.1001C110.01 6.8201 109.25 7.5101 108.35 8.1401C108.59 8.2601 108.79 8.3801 108.94 8.4701C109.34 8.8201 109.55 9.2101 109.55 9.6701C109.55 9.9701 109.42 10.2801 109.16 10.5801C108.94 10.8001 108.71 10.8901 108.43 10.8901C108.17 10.8901 107.93 10.6201 107.74 10.0701C107.51 9.4101 107.16 8.7901 106.71 8.2201C106.75 10.1601 106.84 11.8601 106.92 13.3201C107.29 13.3201 107.66 13.3201 108.01 13.2801C109.27 11.3301 110.2 9.2401 110.89 7.0101C111.61 7.2701 112.29 7.5101 112.98 7.7501C113.61 8.0101 113.96 8.2601 113.96 8.5401C113.96 8.6801 113.79 8.7701 113.49 8.7901C113.17 8.8301 112.99 8.8801 112.94 8.9401C111.79 10.4801 110.42 11.9101 108.91 13.1801C109.94 13.1101 110.91 13.0001 111.82 12.8401C111.68 12.4101 111.54 11.9601 111.33 11.5101L111.54 11.3101C112.42 11.7701 113.06 12.1901 113.41 12.5701C113.83 13.0601 114.07 13.4901 114.07 13.8501C114.07 14.3201 113.96 14.7101 113.76 14.9801C113.47 15.2801 113.14 15.3901 112.84 15.3901C112.6 15.3901 112.44 15.3401 112.34 15.2001C112.2 15.1301 112.11 14.7401 112.04 14.0501C112.02 13.9101 111.99 13.7701 111.96 13.6101C111.38 14.0401 110.78 14.4101 110.18 14.6901C110.58 14.8201 110.87 14.9201 111.07 15.0301C111.44 15.2701 111.61 15.5201 111.61 15.8101C111.61 16.1801 111.44 16.5401 111.12 16.8901C110.91 17.1301 110.62 17.2301 110.29 17.2301C110.07 17.2301 109.89 17.0101 109.76 16.5501C109.6 16.0701 109.39 15.6101 109.08 15.1601C108.93 15.2101 108.79 15.2801 108.67 15.3301C108.5 15.3501 108.43 15.4001 108.43 15.5201C108.4 15.5701 108.38 15.6601 108.35 15.7801C108.3 15.9401 108.24 16.0201 108.14 16.0201C107.87 16.0201 107.56 15.5701 107.19 14.6301C107.13 14.5101 107.06 14.3301 106.98 14.1201C107.04 14.8001 107.11 15.4301 107.19 15.9801C107.23 16.6001 107.34 17.1501 107.45 17.6401H111.1C111.1 17.6401 111.35 17.3901 111.72 16.9501C112.17 16.4601 112.43 16.2101 112.54 16.2101C112.74 16.2101 113.12 16.4601 113.6 16.9901C114.1 17.5301 114.36 17.8601 114.36 17.9701C114.36 18.2301 114.25 18.3601 114.05 18.3601H107.57C107.84 19.5401 108.16 20.5101 108.55 21.2601C109.07 20.5101 109.5 19.7201 109.87 18.8801C110.6 19.3101 111.14 19.5901 111.46 19.7501C112.23 20.2201 112.63 20.5301 112.63 20.7301C112.63 20.8901 112.42 20.9801 112.05 20.9801C111.65 21.0301 111.45 21.1401 111.39 21.2401C110.77 22.0101 110.22 22.6601 109.69 23.1901C110.29 24.0201 110.87 24.4401 111.39 24.4401C111.6 24.4401 111.87 24.1301 112.16 23.5001C112.47 22.8801 112.83 22.2101 113.23 21.4301L113.65 21.6401C113.44 22.5001 113.28 23.1601 113.19 23.5701C113.07 24.3601 113.02 24.8601 113.02 25.0201C113.02 25.1501 113.1 25.3801 113.3 25.8101C113.58 26.1701 113.74 26.4601 113.74 26.6801C113.74 27.3701 113.37 27.7001 112.69 27.7001C111.11 27.7001 109.57 26.6401 108.06 24.6101C107.03 25.3501 106 25.8901 104.97 26.3101C103.68 26.8301 102.35 27.2601 100.93 27.6001L100.73 27.2901C102.57 26.4501 104.05 25.6201 105.2 24.8301C105.84 24.3801 106.46 23.8401 107.06 23.1601C106.29 21.9001 105.75 20.4401 105.42 18.7601C105.36 18.6301 105.32 18.4901 105.32 18.3801H102.76C102.7 19.1001 102.63 19.7101 102.59 20.2701C103.47 20.5601 104.11 20.8501 104.52 21.1201C104.99 21.4801 105.23 21.9001 105.23 22.3901C105.23 22.7701 105.07 23.1401 104.76 23.4701C104.55 23.7101 104.26 23.8101 103.91 23.8101C103.56 23.8101 103.28 23.5201 103.05 22.8901C102.9 22.4201 102.65 21.9701 102.39 21.5301C102.35 21.7801 102.26 22.0201 102.2 22.2301C101.95 23.0601 101.67 23.8001 101.28 24.4501C100.92 25.0601 100.42 25.6201 99.8198 26.1001C99.0598 26.7301 98.1998 27.2601 97.2598 27.7001L97.0398 27.1801C97.4698 26.8301 97.9098 26.3601 98.3498 25.7701C98.7798 25.1901 99.1098 24.5401 99.4398 23.7501C99.7198 23.0401 99.9298 22.3101 100.07 21.5301C100.22 20.6301 100.3 19.5801 100.32 18.3701C99.4798 18.4001 98.8798 18.4301 98.4998 18.4801L98.0798 17.4501C98.8798 17.6101 100.08 17.6601 101.67 17.6601H105.19C105.06 17.0301 104.96 16.4101 104.88 15.7901C104.85 15.8301 104.83 15.8801 104.8 15.9001C104.54 16.2001 104.22 16.3201 103.91 16.3201C103.7 16.3201 103.54 16.2701 103.45 16.1401C103.35 16.0601 103.25 15.6701 103.2 14.9901V14.9601C102.19 15.6501 101.18 16.1401 100.11 16.4601C99.9398 16.4801 99.8898 16.5301 99.8898 16.6401C99.8598 16.7201 99.8398 16.8301 99.8198 16.9401C99.7698 17.1501 99.6798 17.2401 99.5798 17.2401C99.2698 17.2401 98.9298 16.7301 98.5298 15.7001C98.4198 15.4501 98.2398 15.0801 98.0398 14.5001H97.9998C97.8198 14.7301 97.7498 14.9601 97.7498 15.2001V21.9601C97.7498 22.6601 97.7698 23.6001 97.8398 24.8101C97.8398 25.1301 97.4498 25.3501 96.6698 25.4601C96.3098 25.5201 96.0598 25.5501 95.8998 25.5501C95.4698 25.5501 95.2798 25.3101 95.2798 24.8101V24.1001H93.8598V25.9301C93.8598 26.2201 93.4698 26.4301 92.7298 26.5801C92.3798 26.6301 92.1498 26.6701 91.9998 26.6701C91.4498 26.6701 91.1898 26.4101 91.1898 25.9301C91.3298 24.8801 91.3998 23.7901 91.3998 22.6601V16.8701C90.8598 17.6301 90.2798 18.2601 89.6598 18.7801L89.5698 18.4701C90.1498 17.2701 90.6698 15.7001 91.1898 13.7801C91.6798 11.8301 92.1098 9.5801 92.4698 7.0201C91.3298 7.0401 90.4798 7.0701 89.9598 7.1201L89.5698 6.1101C90.3798 6.2301 91.5498 6.2801 93.1198 6.2801L93.1598 6.2601ZM95.3098 23.3801V14.2601H93.8898V23.3801H95.3098ZM104.53 10.8101C104.5 10.2601 104.5 9.7801 104.5 9.3301C104.27 9.3801 104.13 9.4001 104.12 9.4401C103.1 11.1601 101.91 12.7501 100.57 14.2001C101.47 14.2001 102.31 14.1601 103.1 14.1001C102.99 13.5401 102.8 13.0001 102.6 12.4201L102.8 12.2101C103.64 12.6801 104.21 13.1001 104.53 13.4801C104.59 13.5801 104.63 13.6201 104.68 13.6901C104.58 12.7401 104.53 11.8001 104.53 10.8201V10.8101Z" fill="#595757"/>
<path d="M140.6 27.73C140 27.54 139.39 27.17 138.77 26.62C137.98 25.97 137.28 25.22 136.68 24.37C134.87 25.89 132.73 26.97 130.27 27.63L130.09 27.27C132.26 26.25 134.16 24.8 135.78 22.9C135.11 21.64 134.54 20.1 134.07 18.27H131.12C131.09 18.75 131.02 19.41 130.91 20.23C131.94 20.49 132.72 20.88 133.24 21.42C133.67 21.87 133.86 22.33 133.81 22.82C133.76 23.29 133.54 23.6 133.16 23.78C132.76 23.95 132.34 23.87 131.89 23.55C131.79 22.79 131.4 21.97 130.73 21.07C130.06 23.96 128.43 26.21 125.85 27.81L125.51 27.45C126.8 26.16 127.71 24.64 128.22 22.9C128.56 21.69 128.76 20.15 128.81 18.27H127.21L127.11 17.86C126.94 18.07 126.72 18.17 126.46 18.17C126.18 18.15 125.93 18.02 125.68 17.78C125.61 16.64 125.17 15.4 124.36 14.06V20.91C124.39 23.05 124.46 25.07 124.57 26.98C124.47 27.19 124.23 27.38 123.85 27.55C123.45 27.74 123.06 27.83 122.66 27.83C122.45 27.83 122.29 27.78 122.16 27.67C122.03 27.57 121.97 27.45 121.97 27.31C121.97 27.19 121.97 27.02 122 26.79C122.12 24.74 122.2 22.69 122.23 20.64V17.05C121.37 18.82 120.29 20.44 119 21.88L118.64 21.57C120.1 18.99 121.18 15.42 121.87 10.87H121.02C120.59 10.89 120.12 11.01 119.62 11.23L118.95 9.90998C119.55 10.01 120.29 10.08 121.17 10.12H122.23V9.02998C122.23 6.85998 122.12 5.08998 121.89 3.72998C123.46 4.13998 124.42 4.44998 124.78 4.65998C125.06 4.82998 125.06 4.99998 124.81 5.17998L124.37 5.45998V10.11H124.71L125.2 9.22998C125.23 9.17998 125.28 9.09998 125.33 8.99998C125.57 8.56998 125.75 8.34998 125.87 8.34998C126.03 8.34998 126.37 8.64998 126.9 9.24998C127.43 9.84998 127.7 10.25 127.7 10.44C127.65 10.72 127.44 10.85 127.08 10.85H124.37V13.36C125.64 14 126.53 14.75 127.03 15.61C127.43 16.32 127.51 16.95 127.29 17.5H133.91C133.79 16.91 133.65 16.16 133.5 15.23C133.34 15.52 133.12 15.7 132.83 15.75C132.52 15.8 132.22 15.68 131.93 15.39C131.89 14.98 131.82 14.55 131.7 14.12C131.08 14.43 129.99 14.93 128.44 15.62C128.32 15.91 128.12 16.09 127.85 16.16L126.74 13.86C126.96 13.86 127.43 13.83 128.14 13.78C128.29 13.76 128.42 13.75 128.5 13.75C128.91 12.82 129.33 11.77 129.74 10.6C129.38 10.96 128.94 10.95 128.42 10.57C128.33 10.1 128.12 9.57998 127.77 8.98998C127.48 8.46998 127.14 8.02998 126.76 7.64998L127.04 7.46998C127.47 7.56998 127.88 7.69998 128.25 7.85998C128.66 6.13998 128.9 4.78998 128.95 3.82998C130.26 4.28998 131.08 4.64998 131.41 4.88998C131.65 5.05998 131.63 5.19998 131.36 5.29998L130.89 5.50998C130.05 6.76998 129.4 7.66998 128.95 8.21998C129.64 8.64998 130 9.15998 130.04 9.73998C130.33 8.90998 130.57 8.03998 130.76 7.12998L132.93 8.15998C132.9 6.32998 132.88 4.92998 132.88 3.94998C134.29 4.06998 135.17 4.19998 135.52 4.33998C135.78 4.43998 135.78 4.58998 135.52 4.77998L135.08 5.05998C134.99 10.35 135.29 14.49 135.98 17.49H139.24L139.76 16.71C139.81 16.64 139.88 16.55 139.97 16.43C140.19 16.09 140.36 15.91 140.46 15.91C140.61 15.91 140.98 16.18 141.56 16.72C142.14 17.26 142.43 17.63 142.43 17.82C142.36 18.1 142.15 18.23 141.78 18.23H136.2C136.51 19.28 136.83 20.18 137.16 20.92L137.7 19.55C137.73 19.46 137.78 19.34 137.83 19.19C138.11 18.5 138.3 18.16 138.42 18.16C138.61 18.16 139.11 18.37 139.92 18.78C140.76 19.23 141.19 19.54 141.19 19.71C141.07 19.97 140.75 20.07 140.23 20.02C139.61 21.09 138.96 22.01 138.29 22.78C138.74 23.38 139.27 23.93 139.89 24.41C140.08 24.6 140.23 24.69 140.33 24.67C140.43 24.65 140.55 24.51 140.67 24.26C141.07 23.47 141.45 22.46 141.83 21.24L142.11 21.29L141.67 25.37C142.32 26.4 142.51 27.08 142.24 27.41C141.88 27.84 141.34 27.94 140.61 27.69L140.6 27.73ZM129.26 13.73C129.52 13.7 129.92 13.66 130.47 13.63C130.92 13.58 131.26 13.54 131.5 13.53C131.28 12.94 131.02 12.38 130.72 11.85L131 11.7C132.03 12.18 132.79 12.77 133.27 13.46C133.13 12.17 133.02 10.63 132.93 8.85998C132.84 8.88998 132.71 8.90998 132.52 8.90998C131.4 10.75 130.31 12.36 129.24 13.74L129.26 13.73ZM137.91 16.93C137.82 16.59 137.66 16.23 137.43 15.87C137.2 15.51 136.94 15.23 136.67 15.04C136.57 15.14 136.45 15.2 136.31 15.22L135.46 12.92H136C136.34 12.9 136.62 12.89 136.83 12.89C137.16 12.22 137.48 11.49 137.81 10.69C137.45 10.93 137.05 10.88 136.62 10.53C136.57 10.07 136.4 9.54998 136.1 8.97998C135.82 8.44998 135.51 7.99998 135.17 7.63998L135.43 7.45998C135.71 7.52998 136.07 7.64998 136.52 7.81998C136.92 6.35998 137.17 5.00998 137.27 3.78998C138.61 4.30998 139.45 4.68998 139.78 4.92998C140.02 5.11998 140 5.25998 139.7 5.33998L139.23 5.49998C138.52 6.49998 137.82 7.38998 137.11 8.15998C137.78 8.61998 138.15 9.12998 138.22 9.67998C138.68 8.50998 139 7.53998 139.18 6.75998C140.39 7.28998 141.13 7.67998 141.4 7.91998C141.62 8.10998 141.6 8.24998 141.32 8.32998L140.85 8.47998C139.75 10.17 138.71 11.62 137.72 12.82C138.2 12.79 138.99 12.73 140.1 12.66C139.86 11.95 139.58 11.36 139.27 10.88L139.58 10.75C140.56 11.27 141.28 11.85 141.72 12.51C142.08 13.08 142.23 13.61 142.16 14.11C142.11 14.59 141.91 14.9 141.55 15.04C141.2 15.18 140.85 15.07 140.5 14.7C140.5 14.34 140.42 13.86 140.27 13.28C139.12 13.78 138 14.24 136.94 14.65C136.89 14.75 136.84 14.83 136.79 14.88L136.89 14.8C137.82 14.82 138.53 14.98 139.01 15.29C139.39 15.57 139.57 15.89 139.55 16.27C139.52 16.61 139.33 16.86 139.01 17.02C138.67 17.19 138.29 17.15 137.9 16.89L137.91 16.93Z" fill="#595757"/>
<path d="M150.76 27.8602C150.54 27.8602 150.36 27.8102 150.22 27.7102C150.08 27.6102 150.01 27.4902 150.01 27.3502C150.01 27.2302 150.01 27.0602 150.04 26.8302C150.16 24.7802 150.24 22.7302 150.27 20.6802V17.0602C149.46 18.8302 148.39 20.4602 147.07 21.9402L146.71 21.6002C148.21 18.9502 149.26 15.3802 149.86 10.9002H148.93C148.45 10.9202 147.93 11.0402 147.38 11.2602L146.73 9.94016C147.4 10.0402 148.21 10.1102 149.16 10.1502H150.27V8.96016C150.27 6.79016 150.16 5.02016 149.93 3.66016C151.51 4.06016 152.5 4.36016 152.88 4.56016C153.17 4.73016 153.19 4.90016 152.93 5.08016L152.49 5.39016V10.1502H152.96L153.48 9.30016C153.51 9.25016 153.57 9.16016 153.66 9.04016C153.92 8.64016 154.1 8.45016 154.2 8.45016C154.36 8.45016 154.73 8.74016 155.32 9.33016C155.91 9.92016 156.21 10.3002 156.21 10.4902C156.16 10.7702 155.94 10.9002 155.56 10.9002H152.48V12.9702C153.65 13.4502 154.53 14.0302 155.12 14.7002C155.6 15.2702 155.83 15.8302 155.79 16.3802C155.77 16.8802 155.57 17.2202 155.18 17.3902C154.79 17.5602 154.39 17.4702 153.98 17.1102C153.81 16.0802 153.31 14.9002 152.48 13.5702V20.9402C152.51 23.0802 152.58 25.1002 152.69 27.0102C152.59 27.2202 152.33 27.4102 151.93 27.5902C151.53 27.7702 151.13 27.8602 150.75 27.8602H150.76ZM156.39 27.8102C156.06 27.8102 155.9 27.6402 155.9 27.2902C155.97 26.5502 156.02 25.6002 156.06 24.4502V22.7402H155.36C155.02 22.7602 154.67 22.8802 154.33 23.1002L153.68 21.7802C154.13 21.8802 154.68 21.9502 155.33 21.9902H156.05V19.2002H155.61C155.42 19.2202 155.23 19.3402 155.04 19.5602L154.37 18.2402C154.7 18.3402 155.09 18.4102 155.56 18.4502H156.05C156.05 16.5702 155.96 15.0702 155.77 13.9502L158.35 15.1102H160.88V13.2202H158.81C157.6 13.2402 156.35 13.3602 155.04 13.5802L154.37 12.2902C155.11 12.3902 155.99 12.4602 157.01 12.5002H158.25V10.2502H157.53C157.19 10.2702 156.82 10.3902 156.44 10.6102L155.77 9.29016C156.25 9.39016 156.82 9.46016 157.48 9.50016H158.26V7.41016H157.28C156.75 7.43016 156.18 7.55016 155.57 7.77016L154.92 6.45016C155.54 6.55016 156.3 6.62016 157.19 6.66016H158.25C158.25 5.59016 158.2 4.67016 158.1 3.89016C159.48 4.25016 160.34 4.54016 160.68 4.74016C160.94 4.89016 160.95 5.05016 160.71 5.21016L160.32 5.47016V6.66016H163.16C163.16 5.59016 163.11 4.67016 163.01 3.89016C164.41 4.27016 165.27 4.56016 165.59 4.77016C165.85 4.92016 165.86 5.09016 165.62 5.26016L165.23 5.52016V6.66016H166.44L166.96 5.91016C166.99 5.86016 167.05 5.78016 167.14 5.68016C167.4 5.34016 167.58 5.16016 167.68 5.16016C167.85 5.16016 168.24 5.42016 168.83 5.94016C169.42 6.46016 169.72 6.81016 169.72 7.00016C169.65 7.28016 169.44 7.41016 169.07 7.41016H165.22V9.50016H166.18L166.65 8.80016C166.68 8.75016 166.74 8.68016 166.8 8.59016C167.04 8.26016 167.21 8.10016 167.32 8.10016C167.49 8.10016 167.85 8.34016 168.39 8.82016C168.93 9.30016 169.2 9.64016 169.2 9.83016C169.15 10.1102 168.94 10.2402 168.58 10.2402H165.22V12.4902H166.85L167.37 11.7402C167.4 11.6902 167.46 11.6002 167.55 11.4802C167.79 11.1402 167.96 10.9602 168.07 10.9602C168.24 10.9602 168.62 11.2202 169.19 11.7402C169.77 12.2602 170.06 12.6102 170.06 12.8002C170.01 13.0802 169.79 13.2102 169.41 13.2102H162.95V15.1002H165.53L166 14.4502C166.05 14.4002 166.11 14.3202 166.18 14.2202C166.39 13.9402 166.54 13.8102 166.65 13.8102C166.82 13.8102 167.26 14.0802 167.97 14.6202C168.68 15.1602 169.03 15.5302 169.03 15.7202C168.81 15.9802 168.44 16.1602 167.94 16.2602V17.9902L168.22 17.5002C168.22 17.5002 168.27 17.4102 168.32 17.3502C168.46 17.1302 168.58 17.0102 168.68 17.0102C168.83 17.0102 169.14 17.2602 169.58 17.7502C170.03 18.2402 170.25 18.5802 170.25 18.7702C170.2 19.0502 169.99 19.1802 169.63 19.1802H167.92V21.6602L168.28 21.0402C168.31 20.9902 168.37 20.9102 168.44 20.8102C168.59 20.5302 168.72 20.4002 168.83 20.4002C168.99 20.4002 169.3 20.6702 169.76 21.2102C170.22 21.7502 170.46 22.1202 170.46 22.3102C170.41 22.5902 170.2 22.7202 169.84 22.7202H167.93V25.1502C167.93 25.9902 167.77 26.5902 167.44 26.9302C167.04 27.3802 166.25 27.6602 165.06 27.7802C165.03 27.0702 164.88 26.5902 164.62 26.3302C164.26 25.9902 163.66 25.7502 162.81 25.6302V25.2402C163.65 25.2902 164.49 25.3402 165.32 25.4002C165.61 25.4002 165.76 25.2402 165.76 24.9102V22.7102H158.21V24.1602C158.21 24.3802 158.21 24.6702 158.24 25.0102C158.27 25.8402 158.31 26.4702 158.34 26.9002C158.27 27.0902 158.05 27.2802 157.67 27.4702C157.24 27.6802 156.81 27.7802 156.38 27.7802L156.39 27.8102ZM158.22 18.4602H160.88V15.8802H158.22V18.4602ZM158.22 22.0002H160.88V19.2102H158.22V22.0002ZM160.32 9.51016H163.16V7.42016H160.32V9.51016ZM160.32 12.5102H163.16V10.2602H160.32V12.5102ZM162.95 18.4602H165.77V15.8802H162.95V18.4602ZM162.95 22.0002H165.77V19.2102H162.95V22.0002Z" fill="#595757"/>
<path d="M50.7602 31.4102V0.720215H28.0602V6.11022H41.7102V13.3502H14.4302V18.7402H41.7102V26.0202H28.0602V31.4102H50.7602Z" fill="#595757"/>
<path d="M9.05 13.7402V6.11022H22.7V0.720215H0V31.4102H22.7V26.0202H9.05V19.1402V13.7402Z" fill="#595757"/>
</svg>
