<svg width="176" height="30" viewBox="0 0 176 30" fill="none" xmlns="http://www.w3.org/2000/svg">
<path d="M20.5499 0H8.73987L0.859863 7.33V14.66H8.73987V7.33H32.3699L27.3799 2.68C25.5299 0.95 23.0899 0 20.5599 0L20.5499 0Z" fill="#595757"/>
<path d="M8.73975 14.6802V22.0102H32.3697L27.3797 17.3602C25.5297 15.6302 23.0897 14.6802 20.5597 14.6802H8.74974H8.73975Z" fill="#595757"/>
<path d="M32.3696 7.33984L37.3596 11.9898C39.2096 13.7198 41.6496 14.6698 44.1796 14.6698H48.1196V7.33984H32.3696Z" fill="#595757"/>
<path d="M32.3696 21.9902L37.3596 26.6402C39.2096 28.3702 41.6496 29.3202 44.1796 29.3202H48.1196V21.9902H32.3696Z" fill="#595757"/>
<path d="M70.5302 25.48C68.1602 25.69 65.8802 25.84 63.7202 25.98C63.5402 25.98 63.4602 25.91 63.4602 25.68C63.6102 24.79 63.7202 23.89 63.7202 23.04C63.7202 22.19 63.7203 20.51 63.5103 19.54L61.0602 20.47C61.3502 21.01 61.5202 22.19 61.5202 23.46C61.4502 24.8 59.9403 26.61 59.2603 26.95L60.9503 28.62C60.9503 28.62 62.0402 27.85 62.4402 27.7C62.7302 27.55 63.6102 27.44 65.0802 27.36C66.1002 27.29 67.6602 27.25 69.7502 27.25L70.5403 25.48H70.5302Z" fill="#595757"/>
<path d="M80.5201 24.79C79.1301 24.45 77.6201 23.82 76.0101 22.93C74.1401 21.96 72.6001 21.26 71.4201 20.73C71.4201 20.3 71.8701 19.45 72.1301 19.09L71.0901 18.51C71.8301 18.47 78.15 18.41 79.8 18.36V16.53C78.11 16.53 64.6301 16.97 63.9401 16.97C63.9401 16.9 63.9801 16.82 63.9801 16.71C63.9801 16.34 63.9401 15.97 63.9401 15.52C64.7601 15.08 73.7501 14.78 75.8401 14.7V13.12C74.2701 13.08 65.2601 13.45 63.9001 13.7C63.9001 13.33 63.86 12.96 63.86 12.55C64.05 12.03 73.71 11.73 75.83 11.66V10.19C75.83 10.19 66.4201 10.35 63.8201 10.73C63.8201 10.17 63.7801 9.58004 63.7801 8.98004C64.2201 8.63004 73.96 8.44004 75.83 8.43004V6.79004C75.74 6.79004 67.8901 7.01004 64.5901 7.16004C64.1901 7.16004 63.7901 7.23004 63.3901 7.31004L61.4801 9.30004C61.4801 9.30004 61.5001 9.34004 61.5101 9.36004C61.8001 9.81004 61.9501 10.96 61.9501 12.82C62.0201 14.16 62.0601 15.46 61.9901 16.77C61.9901 16.88 61.9901 16.99 62.0601 17.14C60.2701 17.29 57.7601 17.4 56.3101 17.5V19.6C59.1201 18.8 67.7701 18.55 70.0201 18.55C70.0201 20.17 68.5401 21.7 67.8201 22.23C67.7901 22.24 67.7701 22.26 67.7401 22.27L69.1301 23.68C69.2801 23.58 69.44 23.45 69.61 23.27C69.94 22.82 70.2701 22.45 70.6401 22.15C71.0401 22.15 72.1101 22.71 73.8701 23.75C74.6001 24.27 75.4801 24.9 76.4801 25.57C77.5101 26.24 78.31 26.84 78.83 27.28C79.24 27.63 79.6301 27.91 80.0001 28.12L84.3101 25.28C82.9601 25.23 81.6901 25.08 80.5201 24.78V24.79Z" fill="#595757"/>
<path d="M97.9302 16.1496C96.9002 16.3696 95.1802 16.5196 94.1502 16.5996V16.4896C94.1502 16.1496 94.1902 15.7096 94.2602 15.1896C94.3302 14.8896 94.4102 14.5196 94.4802 14.1096C94.9902 14.1096 96.6202 14.0896 97.2002 14.0796V12.6196C97.2002 12.6196 96.0402 12.6196 95.9902 12.6196C94.3802 12.6596 92.6902 12.7296 91.0002 12.8096C90.7502 12.8096 89.4802 12.8296 89.2402 12.8596V14.3896C89.3402 14.3696 90.4702 14.3596 90.6002 14.3396C91.0002 14.3396 91.5902 14.2996 92.3302 14.2296C92.3302 14.2696 92.3302 14.2996 92.3702 14.3796C92.4802 14.6796 92.5502 14.9796 92.5502 15.2696C92.5502 15.9396 92.5102 16.4196 92.4402 16.7596C91.5602 16.8796 89.0502 16.9196 88.4502 16.8996V18.7096C88.9502 18.5896 91.4102 18.4896 92.2602 18.3596C94.2602 18.1496 96.6502 17.8296 97.9502 17.4496V16.1696L97.9302 16.1496Z" fill="#595757"/>
<path d="M94.6004 12.0198L96.1704 10.7598C96.0204 10.5498 95.2404 9.5398 95.0504 9.3398C95.6204 9.3398 97.6004 9.3098 98.1704 9.2698V7.5998C96.8204 7.5998 93.6204 7.6698 92.4104 7.8198C92.4104 7.5998 92.4504 7.2998 92.4504 6.9598C92.4504 6.8098 92.4204 6.6798 92.3904 6.5498H89.8004C90.0004 6.6698 90.1804 7.2598 90.1404 7.4798C90.1404 8.0798 89.8804 8.66981 89.4104 9.2698C88.6804 9.9798 87.6004 10.4198 86.9004 10.4198L87.2404 12.2898C88.4104 12.1798 89.5104 11.7398 90.5804 10.9098C91.0904 10.5398 91.5304 10.0898 91.8604 9.4998C92.1904 9.4998 92.5604 9.4598 92.9604 9.4298C93.2504 9.9498 94.5604 11.9398 94.6104 12.0298L94.6004 12.0198Z" fill="#595757"/>
<path d="M108.39 10.1996C108.27 10.0596 107.47 9.14957 107.32 9.00957C108.23 9.00957 109.7 8.97957 110.71 8.97957C110.71 8.97957 110.71 7.50957 110.71 7.48957C110.71 7.46957 104.5 7.59957 103.96 7.59957C103.85 7.59957 103.74 7.63957 103.59 7.63957C103.59 7.41957 103.63 7.11957 103.63 6.81957C103.63 6.72957 103.62 6.63957 103.61 6.55957H101.05C101.27 6.65957 101.36 7.11957 101.36 7.33957C101.36 8.90957 99.6804 9.39957 98.4204 9.39957L98.6504 11.1996C100.04 11.1996 101.31 10.7196 102.09 10.0996C102.38 9.87957 102.68 9.61957 102.93 9.27957C103.34 9.14957 104.27 9.12957 105.15 9.08957C105.48 9.56957 106.87 11.3396 106.9 11.3996L108.39 10.1996Z" fill="#595757"/>
<path d="M111.33 16.36C111.15 16.44 110.96 16.52 110.79 16.6C110.31 16.82 109.91 16.9 109.54 16.9C107.82 16.9 106.97 16.27 106.97 14.96C106.97 14.61 107.3 13.5 108.41 13.03L107.1 11.73C106.49 11.76 104.75 11.76 103.52 11.76C102.26 11.83 99.6003 11.86 98.5903 11.9V13.49C98.5903 13.49 99.6404 13.46 100.89 13.46C101.42 13.46 101.39 14.82 101.39 14.82C100.71 14.85 99.1503 14.88 98.5903 14.91V16.25C99.1503 16.2 100.64 16.16 101.21 16.16C101.21 16.92 100.63 17.41 100.07 17.83C100.05 17.85 100.04 17.86 100.03 17.88C100.03 17.88 101.48 19.21 101.52 19.25C101.63 19.35 102.86 18.01 102.86 16.2H104.33C104.33 16.2 104.33 14.84 104.33 14.83C104.33 14.81 103.26 14.82 102.86 14.82L102.82 13.33C103.66 13.33 104.36 13.29 104.88 13.29C105.21 13.33 105.39 13.44 105.39 13.66C105.39 17.42 106.53 19 109.75 19.12L111.33 16.36Z" fill="#595757"/>
<path d="M110.28 23.5897L112.65 20.2097C111.91 20.2897 111.21 20.3197 110.54 20.3197C107.5 20.3197 102.53 20.0997 99.5502 20.0997C99.5502 19.9497 99.5902 19.0497 99.6202 18.8997C99.6402 18.7497 99.6602 18.6197 99.6802 18.4897H97.2902C97.4102 18.7597 97.5002 19.7697 97.5002 20.1297C96.8002 20.1697 90.1502 20.5797 88.3702 20.6997C88.3702 20.6997 86.1902 23.8197 86.2002 23.8197C86.7902 23.5597 94.4502 22.0397 97.4702 21.8497C97.4702 23.7897 97.4002 27.3497 97.3202 29.2397C97.3202 29.2697 97.3202 29.2897 97.3302 29.3197H99.4102C99.4502 27.5497 99.4802 23.9497 99.4802 21.7697C99.9902 21.7697 100.51 21.7297 101.06 21.7297C103.79 21.7297 105.63 21.8197 108.23 22.7697C109.22 23.1797 109.85 23.4397 110.14 23.5497C110.18 23.5697 110.24 23.5697 110.29 23.5797L110.28 23.5897Z" fill="#595757"/>
<path d="M92.9103 23.8198C92.1803 24.8198 90.2203 26.1898 89.3403 26.5498L89.6303 27.4598C90.4203 27.4298 92.9503 27.4598 95.3103 25.6998L92.9103 23.8198Z" fill="#595757"/>
<path d="M108.29 25.8896C108.29 25.8896 108.29 25.8896 108.28 25.8896C106.83 25.3096 104.53 24.1596 103.42 23.6396L102.42 26.3696C104.29 26.9797 106.89 26.6696 108.29 26.4196V25.8996V25.8896Z" fill="#595757"/>
<path d="M124.55 24.0596C123.98 25.3196 122.16 27.2496 121.28 27.8496L121.8 28.7696C122.65 28.5596 125.41 27.9996 127.58 25.5496L124.55 24.0596Z" fill="#595757"/>
<path d="M140.4 27.6596C140.4 27.6596 140.4 27.6596 140.39 27.6496C138.97 26.6796 136.78 24.8896 135.71 24.0596L133.99 26.7496C135.85 27.8596 138.71 28.1496 140.27 28.2196L140.39 27.6596H140.4Z" fill="#595757"/>
<path d="M121.22 18.5495C121.22 18.5495 121.22 19.4595 121.22 19.4795H122.77C122.79 19.3995 122.83 18.0095 122.83 17.5995C123.76 17.5195 124.96 17.4695 125.69 17.4395V15.9295C125.69 15.9295 123.01 16.1095 122.86 16.1095C122.86 15.4395 122.9 14.7295 122.9 13.9495C123.8 13.8895 124.97 13.8295 125.69 13.8095V12.0795C124.83 12.2095 122.94 12.3495 122.79 12.3495C122.72 11.4195 122.61 10.6395 122.46 10.0095C123.55 9.93947 124.87 9.86947 125.69 9.85947V8.05947C125.58 8.03947 121.95 8.36947 121.69 8.40947C121.69 8.40947 121.68 8.40947 121.67 8.39947L119.25 10.1095C119.99 10.8495 120.51 12.2495 120.62 12.9195C120.99 14.5595 121.21 16.2495 121.21 18.5595L121.22 18.5495Z" fill="#595757"/>
<path d="M146.05 20.0098C143.62 20.3298 141.17 20.0398 138.74 19.9198C136.2 19.7998 133.66 19.7598 131.11 19.7598C126.94 19.7598 122.8 20.3598 118.69 20.9898L116.44 24.2198C121.04 22.4698 125.87 21.5398 130.79 21.5398C134.68 21.5398 138.51 21.5998 142.28 22.6898C142.91 22.8998 143.87 23.1198 143.87 23.1198L146.06 19.9898L146.05 20.0098Z" fill="#595757"/>
<path d="M135.71 9.86937C136.33 9.77937 138.34 9.71938 139.11 9.67938C139.62 9.67938 139.88 9.78937 139.88 9.97937C139.84 10.7194 139.81 11.4694 139.81 12.2494C139.55 12.2094 136.27 12.1994 135.71 12.2494V13.7194C135.71 13.7194 138.93 13.6994 139.74 13.6294C139.7 14.4094 139.67 15.1894 139.63 15.9694C139.45 15.9694 139.26 16.0094 139.12 16.0094C138.68 16.0094 135.72 15.9694 135.72 15.9694V17.5794C135.94 17.5494 138.98 17.3794 139.6 17.3094C139.56 17.6794 139.53 18.5494 139.53 18.8494H141.29C141.36 17.5494 141.44 14.9194 141.58 12.9094C141.75 11.4294 141.86 10.2994 141.93 9.51938L140.11 7.85938C140.04 7.87937 139.97 7.88937 139.89 7.91937C139.56 8.06937 136.58 8.28937 135.72 8.28937V9.86937H135.71Z" fill="#595757"/>
<path d="M128.15 7.73957L126.41 9.19957C126.63 9.80957 126.74 10.4196 126.74 11.0496C126.74 11.9396 126.74 13.1696 126.67 14.7296C126.57 16.0496 126.5 17.6996 126.46 18.7096H128.07C128.2 16.9796 128.24 15.5196 128.25 13.7896C128.25 13.4096 128.04 9.04957 128.21 8.99957C129.69 8.56957 131.31 8.51957 132.83 8.51957C133.12 8.51957 133.27 8.62957 133.27 8.81957C133.27 10.4996 133.37 18.0196 133.43 18.7196C133.43 18.7196 135.02 18.7596 135.03 18.7196C135.03 17.8296 134.99 16.2696 134.99 15.2596V9.03957C134.99 8.75957 135.05 8.49957 135.16 8.28957C134.48 7.79957 133.8 7.30957 133.13 6.80957C133.16 6.82957 132.04 7.29957 131.94 7.31957C130.66 7.38957 129.43 7.55957 128.16 7.72957H128.14L128.15 7.73957Z" fill="#595757"/>
<path d="M132.8 10.2195C131.87 10.3195 128.84 10.4895 128.68 10.5195V11.8795C128.76 11.8595 128.83 11.8195 128.91 11.7595C129.35 11.5495 132.28 11.3495 132.8 11.2595V10.2095V10.2195Z" fill="#595757"/>
<path d="M132.63 16.4395C132.59 16.3395 132.58 16.2295 132.58 16.1095C132.58 15.6495 132.61 14.7295 132.69 14.3995L131.77 12.7095C131.56 12.8095 131.36 12.8795 131.15 12.8795C130.93 12.9495 130.75 12.9495 130.56 12.9495C130.27 12.9495 130.05 12.9095 129.86 12.7995L128.74 13.9795C128.82 14.1195 128.87 14.2795 128.87 14.4695C128.87 14.8395 128.83 15.7295 128.83 16.0595C128.83 16.2795 128.78 16.4595 128.7 16.6195L129.81 18.0295C129.88 17.9895 129.97 17.9495 130.09 17.9195C130.46 17.8495 130.71 17.8095 130.9 17.7695C131.1 17.7695 131.33 17.7895 131.63 17.8195L132.64 16.4295L132.63 16.4395ZM131.07 16.7395C130.78 16.8095 130.56 16.8495 130.34 16.8495C130.12 16.8495 130.05 16.7795 130.05 16.6295C130.12 15.9595 130.16 14.8495 130.16 14.3295C130.16 14.1795 130.27 14.0695 130.53 13.9895C130.75 13.9195 130.93 13.8795 131.08 13.8795C131.3 13.8795 131.45 13.9895 131.45 14.1395C131.45 14.6595 131.41 15.8095 131.38 16.3995C131.38 16.6195 131.27 16.7395 131.09 16.7395H131.07Z" fill="#595757"/>
<path d="M155.1 24.8999C154.37 25.8999 152.41 27.2699 151.53 27.6299L151.82 28.5399C152.61 28.5099 155.14 28.5399 157.5 26.7799L155.1 24.8999Z" fill="#595757"/>
<path d="M169.05 6.0498C168.64 7.0998 167.24 8.7598 166.55 9.2898L167.01 10.0098C167.69 9.7998 169.91 9.2198 171.57 7.1298L169.04 6.0498H169.05Z" fill="#595757"/>
<path d="M151.59 6.83984C152.19 7.65984 153.78 8.76984 154.5 9.06984L154.26 9.80984C153.62 9.78984 151.55 9.80984 149.63 8.37984L151.58 6.84984L151.59 6.83984Z" fill="#595757"/>
<path d="M171.15 26.7798C171.15 26.7798 171.15 26.7798 171.14 26.7798C169.69 26.1998 167.39 25.0498 166.28 24.5298L165.28 27.2598C167.15 27.8698 169.75 27.5598 171.15 27.3098V26.7898V26.7798Z" fill="#595757"/>
<path d="M173.3 14.2298L175.66 10.8598C171.94 11.2598 168.07 10.9298 164.34 10.8298C164.34 10.2298 164.38 8.1598 164.45 7.2598C164.52 6.7898 164.59 6.2998 164.66 5.7998H162.52C162.58 6.0198 162.62 6.2498 162.62 6.4798C162.62 7.8598 162.55 10.1998 162.47 10.8698C161.33 10.9398 160.16 10.9798 158.98 10.9798C159.05 10.3498 159.09 8.1998 159.09 7.1498C159.03 6.6198 158.96 6.1698 158.87 5.7998H156.57C156.63 5.8798 156.69 5.9698 156.74 6.0698C156.92 6.3698 157.03 6.6998 157.11 7.0398C157.36 8.2898 157.34 9.6198 157.4 10.8998C157.4 10.9498 157.4 10.9998 157.38 11.0298C157.35 11.0698 157.29 11.0798 157.23 11.0798C155.12 11.1898 151.97 11.5398 149.86 11.7198L147.78 14.6998C148.34 14.4198 148.9 14.2098 149.46 14.0298C152.47 13.0798 156.66 12.6698 159.81 12.5398C163.43 12.3998 167.42 12.2198 170.91 13.4298C171.97 13.7998 172.75 14.0498 173.31 14.2198L173.3 14.2298Z" fill="#595757"/>
<path d="M161.91 17.08C164.19 17.01 167.16 16.97 169.64 16.97V15.38C169.48 15.38 166.57 15.44 165.61 15.44C165.67 15.29 166.47 13.62 166.55 13.46L164.75 12.71C164.73 12.82 163.98 14.46 163.96 14.59C163.92 14.66 163.89 14.81 163.81 15C163.74 15.19 163.66 15.37 163.59 15.52C161.68 15.59 157.97 15.78 157.97 15.78C157.97 14.87 157.36 12.87 157.21 12.96L155.48 14.03C155.57 14.24 156.25 15.58 156.32 15.85C155.48 15.89 152.96 15.97 152.85 15.98V17.69C153.15 17.65 153.5 17.6 153.9 17.53C155.07 17.46 157.24 17.34 159.52 17.19C159.56 17.56 159.59 18.01 159.67 18.53H159.63C157.76 18.67 155.42 18.77 154.07 18.87V20.68C155.44 20.49 157.84 20.33 159.81 20.2C159.81 20.65 159.85 21.13 159.85 21.73C159.52 21.73 159.19 21.77 158.9 21.77C156.05 21.95 153.63 22.13 151.57 22.28V24.22C153.71 23.94 156.31 23.73 159.45 23.52C159.56 23.52 159.71 23.52 159.85 23.48C159.85 25.28 159.87 28.36 159.92 29.32H161.72V23.37C164.01 23.27 167.06 23.2 169.64 23.14V21.43C168.66 21.37 166.84 21.39 165.36 21.48C164.19 21.55 162.97 21.59 161.69 21.67V20.07C163.22 20.01 165.91 19.95 167.62 19.88V18.27C166.97 18.25 162.57 18.43 161.76 18.43C161.8 17.98 161.83 17.54 161.91 17.16V17.09V17.08Z" fill="#595757"/>
</svg>
