<svg width="860" height="49" viewBox="0 0 860 49" fill="none" xmlns="http://www.w3.org/2000/svg">
<g clip-path="url(#clip0_493_1451)">
<path fill-rule="evenodd" clip-rule="evenodd" d="M612.806 28.3532V35.986L612.45 36.6984H619.706L619.35 35.986V15.1636L619.706 14.4512H596.584L596.94 15.1636V35.986L596.584 36.6984H603.83L603.474 35.986V28.3532C603.474 25.9106 605.367 23.6615 608.176 23.6513C610.812 23.6513 612.806 25.8089 612.806 28.3532Z" fill="#B41D24"/>
<path d="M630.311 19.0004H632.855L633.903 17.8606L635.246 18.8376C635.399 18.9699 635.481 19.1124 635.481 19.2243C635.481 19.4381 635.369 19.5398 635.175 19.5398H633.761V35.3755C633.761 35.5688 633.679 35.7113 633.527 35.8029C633.282 35.864 633.028 35.9047 632.784 35.9047C632.438 35.9047 632.265 35.8029 632.265 35.6096L632.346 32.475V30.8874C631.44 31.3351 630.473 31.7728 629.415 32.1595L629.242 32.821C629.201 32.994 629.13 33.0754 628.977 33.0754C628.825 33.0754 628.713 32.9737 628.672 32.7396L628 30.9382C628.407 30.8975 628.804 30.8365 629.191 30.7652V19.5704C628.845 19.6111 628.54 19.6314 628.234 19.6721L627.848 18.7562C628.672 18.9088 629.496 18.9903 630.321 18.9903L630.311 19.0004ZM632.336 22.6846V19.55H630.534V22.6846H632.336ZM632.336 26.501V23.2138H630.534V26.501H632.336ZM632.336 30.2869V27.0302H630.534V30.582C631.145 30.5006 631.746 30.409 632.336 30.2869ZM638.157 18.7867C638.35 18.8681 638.462 18.9597 638.462 19.0819C638.462 19.2752 638.177 19.4177 637.638 19.4788C637.16 20.1606 636.549 20.9443 635.796 21.8297C635.877 21.9111 635.969 21.9823 636.04 22.0231C636.386 22.3385 636.58 22.6337 636.58 22.9085C636.58 23.4784 636.335 23.7532 635.837 23.7532C635.704 23.7532 635.592 23.631 635.491 23.3766C635.145 22.6744 634.687 21.9722 634.117 21.2191L634.504 21.0053C634.829 21.1987 635.114 21.3819 635.348 21.5142C635.582 20.9239 635.755 20.4558 635.898 20.0792C636.142 19.3973 636.356 18.7257 636.508 18.0845L638.157 18.7867ZM639.46 21.4124C639.633 21.4938 639.724 21.5651 639.724 21.6872C639.724 21.8806 639.48 22.0231 638.981 22.0638C638.33 22.9492 637.506 23.9465 636.508 25.066C636.62 25.066 636.743 25.066 636.854 25.0457C637.485 25.005 638.025 24.9439 638.462 24.9032C638.35 24.6284 638.218 24.3333 638.076 24.0585L638.462 23.8244C638.92 24.2111 639.307 24.608 639.612 24.9642C639.877 25.3408 640.03 25.6461 640.03 25.9005C640.03 26.4705 639.796 26.7453 639.358 26.7453C639.124 26.7453 638.971 26.5722 638.9 26.1957C638.819 25.9616 638.768 25.7072 638.686 25.4731C638.3 25.6258 637.842 25.809 637.312 26.0023C636.508 26.3178 635.918 26.5112 635.531 26.5926L635.308 27.1422C635.226 27.2948 635.134 27.3559 635.023 27.3559C634.87 27.3559 634.778 27.2338 634.758 26.9793L634.28 25.2187C634.778 25.1983 635.297 25.1576 635.806 25.1169C636.223 24.374 636.569 23.7837 636.824 23.3359C637.262 22.4505 637.628 21.5956 637.933 20.7713L639.46 21.4226V21.4124ZM636.111 27.8749C636.376 27.9156 636.508 28.0276 636.508 28.1904C636.508 28.2922 636.427 28.3634 636.315 28.4245L636.071 28.567V31.0909H637.791C637.831 30.7042 637.872 30.2665 637.872 29.7984V29.4117C637.872 29.0351 637.811 28.2515 637.72 27.0404L639.429 27.2948C639.775 27.3355 639.969 27.4678 639.969 27.6714C639.969 27.8444 639.735 28.0276 639.297 28.2006V29.8086C639.297 30.6329 639.205 31.3555 639.053 32.0272C638.9 32.6378 638.686 33.167 638.381 33.5945C638.055 34.0626 637.638 34.4595 637.119 34.8056C636.58 35.1821 635.796 35.5281 634.799 35.864L634.666 35.3958C635.318 35.1007 635.837 34.7852 636.183 34.4392C636.6 34.083 636.946 33.6759 637.221 33.2077C637.435 32.8312 637.608 32.3427 637.72 31.7422C637.72 31.7015 637.74 31.6812 637.74 31.6608H636.091V32.4241C636.091 32.6175 635.979 32.7803 635.786 32.8922C635.572 32.994 635.379 33.0347 635.196 33.0347C634.911 33.0347 634.758 32.9126 634.758 32.6378L634.819 30.8161V29.5847C634.819 28.4855 634.758 27.8546 634.687 27.6815L636.142 27.8953L636.111 27.8749ZM643.846 18.858C644.04 18.9394 644.151 19.031 644.151 19.1531C644.151 19.3465 643.867 19.4889 643.327 19.55C642.828 20.2319 642.218 21.0359 641.455 21.962C641.546 22.0434 641.648 22.1146 641.739 22.1757C642.086 22.4505 642.279 22.7253 642.279 22.9797C642.279 23.5496 642.035 23.8244 641.536 23.8244C641.404 23.8244 641.292 23.7023 641.17 23.4682C640.824 22.7965 640.386 22.135 639.806 21.4531L640.193 21.2191C640.498 21.3921 640.773 21.5549 640.997 21.6669C641.241 21.0359 641.434 20.5474 641.587 20.1606C641.821 19.4788 642.024 18.8071 642.197 18.1659L643.846 18.8681V18.858ZM645.352 21.4124C645.546 21.4938 645.637 21.5651 645.637 21.6872C645.637 21.8806 645.393 22.0231 644.894 22.0638C644.243 22.8474 643.439 23.7532 642.482 24.7709C642.554 24.7709 642.615 24.7505 642.676 24.7505C643.327 24.6895 643.866 24.6284 644.324 24.5775C644.213 24.3434 644.111 24.1297 643.999 23.916L644.365 23.6819C644.864 24.089 645.281 24.4859 645.627 24.8727C645.932 25.2492 646.085 25.5545 646.085 25.8293C646.085 26.4603 645.841 26.7554 645.342 26.7554C645.098 26.7554 644.945 26.5621 644.864 26.1652C644.782 25.809 644.671 25.4833 644.538 25.1271C644.151 25.3001 643.693 25.5036 643.164 25.697C642.442 26.0125 641.882 26.2059 641.536 26.2873L641.302 26.8368C641.22 26.9895 641.129 27.0506 641.017 27.0506C640.864 27.0506 640.773 26.9284 640.752 26.674L640.274 24.9134C640.773 24.893 641.251 24.8523 641.729 24.8116C642.147 24.1399 642.493 23.6005 642.727 23.1832C643.185 22.3589 643.551 21.5549 643.856 20.7713L645.373 21.4226L645.352 21.4124ZM642.045 27.4678C642.35 27.5085 642.503 27.6205 642.503 27.8037C642.503 27.936 642.421 28.0377 642.269 28.0988L641.963 28.2718V31.0909H643.816L643.836 30.7143V29.8696C643.836 28.6891 643.775 27.9869 643.683 27.7935L645.22 28.0276C645.485 28.0683 645.637 28.1802 645.637 28.3431C645.637 28.4652 645.556 28.5568 645.444 28.6178L645.179 28.7909V32.3936C645.179 32.5869 645.067 32.7498 644.874 32.8617C644.66 32.9635 644.467 33.0042 644.294 33.0042C643.948 33.0042 643.775 32.8617 643.755 32.5564L643.795 31.6303H641.953V35.1414C641.953 35.3755 641.821 35.5485 641.587 35.6706C641.353 35.7927 641.129 35.8436 640.915 35.8436C640.63 35.8436 640.478 35.691 640.457 35.3755L640.539 33.3909V29.3302C640.539 28.0988 640.478 27.3762 640.386 27.1727L642.035 27.4475L642.045 27.4678Z" fill="#221715"/>
<path d="M651.448 19.6009H653.249L654.298 18.4407L655.641 19.4381C655.794 19.5602 655.875 19.6925 655.875 19.8146C655.875 20.0284 655.763 20.1301 655.57 20.1301H652.74C652.374 21.7992 652.028 23.1324 651.692 24.1094C651.58 24.486 651.448 24.832 651.326 25.1475L651.763 25.4019H653.178L654.002 24.5572L655.112 25.4426C655.305 25.5851 655.417 25.697 655.417 25.7988C655.417 25.9311 655.336 26.0329 655.224 26.094L654.745 26.328V32.302L654.827 33.9914C654.827 34.1237 654.735 34.2458 654.583 34.3476C654.43 34.4697 654.236 34.5206 654.002 34.5206C653.544 34.5206 653.331 34.3782 653.331 34.1441V33.1467H651.763V34.4392C651.763 34.714 651.631 34.887 651.356 35.0091C651.163 35.0906 650.939 35.1313 650.705 35.1313C650.42 35.1313 650.267 34.9786 650.267 34.6835C650.267 34.2967 650.288 33.6454 650.349 32.6887V27.2236C650.308 27.3254 650.267 27.3966 650.237 27.4373C649.779 28.2617 649.321 28.9232 648.863 29.4728L648.629 29.0962C648.873 28.6688 649.148 28.0378 649.433 27.2134C649.799 26.1143 650.125 24.9236 650.39 23.6616C650.624 22.6032 650.848 21.4328 651.041 20.1505C650.491 20.1708 649.932 20.2116 649.372 20.2828L648.985 19.3567C649.809 19.5093 650.634 19.5908 651.458 19.5908L651.448 19.6009ZM653.331 32.6175V25.9515H651.763V32.6175H653.331ZM660.465 33.0653C660.638 33.1874 660.729 33.3197 660.729 33.452C660.729 33.625 660.424 33.7268 659.834 33.7472C658.918 34.2764 657.982 34.7242 657.025 35.1007C656.435 35.3145 655.529 35.5892 654.308 35.9047L654.074 35.5078C655.183 34.9583 656.089 34.4697 656.771 34.0423C657.595 33.452 658.358 32.8312 659.091 32.1392L660.465 33.0653ZM658.552 18.9801H663.793L664.902 17.6876L666.398 18.7868C666.551 18.9394 666.632 19.0819 666.632 19.2142C666.632 19.4279 666.541 19.5297 666.347 19.5297H661.808C661.391 20.466 660.872 21.3921 660.272 22.2775H663.488L664.383 21.3514L665.492 22.2877C665.686 22.4302 665.798 22.5421 665.798 22.6643C665.798 22.7966 665.716 22.8983 665.604 22.9594L665.126 23.1935V30.0936L665.207 31.783C665.207 31.9356 665.106 32.0781 664.963 32.1901C664.811 32.3224 664.617 32.3834 664.383 32.3834C663.884 32.3834 663.64 32.2613 663.64 31.9865V31.5387H658.256V31.8542C658.256 32.0883 658.144 32.241 657.931 32.3224C657.707 32.475 657.473 32.5361 657.208 32.5361C656.862 32.5361 656.689 32.3631 656.689 31.9865L656.771 30.0834V22.7355C656.771 22.074 656.71 21.616 656.618 21.4226L658.267 22.2673H659.641L660.16 19.5195H658.552C657.86 19.5195 657.157 19.5806 656.465 19.6518L656.079 18.746C656.903 18.8987 657.727 18.9598 658.552 18.9598V18.9801ZM663.64 25.1169V22.8271H658.256V25.1169H663.64ZM663.64 27.936V25.6462H658.256V27.936H663.64ZM663.64 31.0095V28.4856H658.256V31.0095H663.64ZM665.594 33.5233C666.378 33.9304 666.785 34.3883 666.785 34.9175C666.785 35.4468 666.5 35.7622 665.961 35.7622C665.808 35.7622 665.615 35.6299 665.391 35.3857C664.505 34.5206 663.345 33.6556 661.92 32.76L662.154 32.3834C663.589 32.7193 664.739 33.0857 665.604 33.5233H665.594Z" fill="#221715"/>
<path d="M672.109 23.7124V19.6416C672.109 19.438 672.069 19.0615 672.028 18.461L673.778 18.7256C674.104 18.7663 674.277 18.8885 674.277 19.0818C674.277 19.3057 674.023 19.4787 673.524 19.6416V23.7124H673.911L674.816 22.6947L676.028 23.6005C676.16 23.7226 676.241 23.8447 676.241 23.9363C676.241 24.1602 676.16 24.262 676.007 24.262H673.524V30.3174C673.717 30.236 673.911 30.1546 674.104 30.0732C674.816 29.7678 675.437 29.4523 675.936 29.1063L676.017 29.5847C675.61 30.0019 675.173 30.409 674.684 30.7856C674.145 31.2232 673.473 31.6913 672.639 32.1696C672.14 32.4546 671.672 32.6887 671.275 32.8719L671.061 33.4113C670.97 33.6962 670.827 33.8082 670.674 33.8082C670.562 33.7878 670.461 33.6657 670.4 33.4316L669.921 31.3657C670.481 31.3046 671.173 31.1418 671.987 30.8873C672.028 30.8873 672.069 30.867 672.099 30.8466V24.2518C671.448 24.2722 670.827 24.3332 670.206 24.4147L669.84 23.4682C670.593 23.631 671.346 23.7124 672.099 23.7124H672.109ZM684.902 22.766L685.889 21.6668L687.395 22.6642C687.589 22.8067 687.701 22.9491 687.701 23.0611C687.701 23.2239 687.375 23.4377 686.714 23.7023C686.408 27.305 686.215 29.3302 686.113 29.778C685.96 30.1953 685.726 30.4802 685.421 30.6431C685.095 30.8873 684.648 30.9789 684.067 30.9789C684.006 30.2563 683.894 29.8594 683.701 29.7373L682.795 29.259L682.877 28.801L684.23 29.1063C684.383 29.1063 684.515 29.0656 684.637 28.9638C684.749 28.8824 684.831 28.6992 684.892 28.4245C684.973 28.0988 685.085 26.4196 685.279 23.3562L682.348 24.3332V31.0705C682.348 31.3148 682.215 31.4878 681.981 31.6099C681.747 31.732 681.523 31.7727 681.31 31.7727C680.963 31.7727 680.79 31.5896 680.77 31.2334L680.852 29.1063V24.8421L678.592 25.6054V33.1772C678.592 33.5945 678.867 33.8591 679.417 33.9405C679.956 34.0626 681.055 34.1237 682.673 34.1237C684.291 34.1237 685.197 34.0626 685.655 33.9201C686.021 33.8387 686.276 33.6759 686.388 33.4418L687.161 30.9993H687.548V33.1874C687.548 33.4316 687.66 33.625 687.894 33.7878C688.047 33.9506 688.149 34.1644 688.149 34.4493C688.149 34.7139 687.996 34.9073 687.721 35.0498C687.446 35.233 686.988 35.3755 686.337 35.467C685.513 35.5485 684.312 35.6095 682.755 35.6095C680.902 35.6095 679.63 35.5281 678.938 35.3856C678.317 35.3042 677.839 35.1007 677.534 34.7648C677.228 34.429 677.086 33.9812 677.086 33.4214V26.1244L676.526 26.3076L675.427 26.847L675.04 25.7479L676.251 25.6868L677.076 25.4018V21.7584C677.076 20.9137 677.035 20.3947 676.994 20.1911L678.918 20.4354C679.193 20.4761 679.325 20.5779 679.325 20.7407C679.325 20.8832 679.233 21.0053 679.04 21.0766L678.582 21.3615V24.9337L680.841 24.1908V20.3642C680.841 19.0208 680.78 18.2371 680.689 18.0031L682.419 18.288C682.724 18.3491 682.877 18.4712 682.877 18.6442C682.877 18.7867 682.795 18.9088 682.643 18.9801L682.337 19.1836V23.6921L684.953 22.827L684.892 22.7863L684.902 22.766Z" fill="#221715"/>
<path d="M693.766 26.3993C693.766 28.8011 693.501 30.7551 692.982 32.2613C692.534 33.625 691.883 34.8056 691.069 35.7928L690.794 35.4773C691.201 34.6529 691.557 33.6759 691.832 32.4852C692.147 31.1215 692.31 29.086 692.31 26.3891V25.4731C692.31 24.8829 692.27 24.3944 692.239 24.028L693.654 24.9439H705.286L706.457 23.5802L707.942 24.7302C708.095 24.8829 708.187 25.0254 708.187 25.178C708.187 25.3714 708.054 25.4731 707.83 25.4731H693.766V26.3891V26.3993ZM700.93 18.0133C701.266 18.0744 701.449 18.1863 701.449 18.3797C701.449 18.6137 701.205 18.8275 700.727 18.9903V19.7536H704.788L705.866 18.4611L707.291 19.5704C707.444 19.7027 707.535 19.8452 707.535 19.9775C707.535 20.1912 707.444 20.293 707.261 20.293H703.342L704.401 20.8629C704.604 20.9647 704.716 21.097 704.716 21.27C704.716 21.4634 704.421 21.5651 703.841 21.5855C703.434 21.8603 703.007 22.0943 702.599 22.3081C703.007 22.4607 703.383 22.6235 703.678 22.7558C704.268 23.0306 704.574 23.3767 704.574 23.7939C704.574 24.2621 704.33 24.4961 703.851 24.4961C703.739 24.4961 703.464 24.374 703.057 24.1094C702.518 23.7532 701.867 23.3868 701.124 23.0205C700.31 23.3767 699.434 23.6616 698.488 23.8957C697.613 24.1501 696.32 24.4045 694.57 24.6386L694.417 24.1908C695.455 23.9771 696.198 23.8041 696.646 23.682C697.501 23.4479 698.264 23.1935 698.925 22.878C699.261 22.7457 699.577 22.5828 699.872 22.4302C698.539 21.8603 697.328 21.4328 696.239 21.1377L696.513 20.8222C698.142 21.097 699.597 21.3921 700.859 21.7381C700.9 21.7585 700.951 21.7788 700.991 21.7788L701.439 21.4837C701.999 21.097 702.477 20.6797 702.884 20.293H694.57C693.888 20.293 693.216 20.354 692.544 20.4253L692.178 19.5297C692.972 19.6823 693.776 19.7434 694.57 19.7434H699.282V18.8987C699.282 18.7257 699.241 18.3491 699.21 17.769L700.941 18.0031L700.93 18.0133ZM697.867 26.6741C698.071 26.7555 698.183 26.8878 698.183 27.0811C698.183 27.2541 697.938 27.3966 697.46 27.4679C697.216 27.936 696.992 28.3228 696.809 28.679H699.923V27.0811C699.923 26.9081 699.882 26.5316 699.852 25.9515L701.582 26.1855C701.918 26.2466 702.101 26.3586 702.101 26.5519C702.101 26.786 701.856 26.9997 701.378 27.1626V28.6891H704.421L705.439 27.478L706.813 28.5365C706.965 28.6688 707.037 28.8113 707.037 28.9232C707.037 29.1369 706.925 29.2387 706.742 29.2387H701.378V31.5286H704.065L705.062 30.2971L706.436 31.3555C706.589 31.4878 706.66 31.6303 706.66 31.7626C706.66 31.956 706.569 32.0578 706.385 32.0578H701.378V34.7344H705.439L706.538 33.4419L707.963 34.5308C708.115 34.6631 708.187 34.8056 708.187 34.9583C708.187 35.1516 708.095 35.2534 707.912 35.2534H695.862C695.19 35.2534 694.509 35.2941 693.837 35.406L693.471 34.4901C694.264 34.6428 695.068 34.7242 695.862 34.7242H699.923V32.0476H698.183C697.511 32.0476 696.829 32.1087 696.157 32.2002L695.791 31.2843C696.585 31.437 697.389 31.5184 698.183 31.5184H699.923V29.2285H696.493C696.269 29.5847 696.066 29.8697 695.883 30.1445C695.496 30.6533 694.936 31.2538 694.193 31.9662L693.837 31.7525C694.427 30.8162 694.875 29.9511 695.19 29.1776C695.557 28.3228 695.893 27.2847 696.229 26.1143L697.857 26.6842L697.867 26.6741Z" fill="#221715"/>
<path d="M348.995 19.0005H355.915C355.915 19.0005 356.078 18.8275 356.373 18.5018C356.77 18.0235 357.024 17.769 357.146 17.769C357.269 17.769 357.635 18.054 358.246 18.5832C358.602 18.9191 358.816 19.1226 358.816 19.2142C358.816 19.3974 358.704 19.489 358.52 19.489H348.944V21.4532H354.276C354.276 21.4532 354.46 21.2496 354.816 20.8222C355.304 20.2421 355.64 19.9368 355.783 19.9368C355.925 19.9368 356.353 20.2624 357.055 20.9138C357.492 21.3209 357.727 21.5549 357.727 21.6669C357.727 21.8501 357.594 21.9519 357.381 21.9519H348.944V23.8957H354.348C354.348 23.8957 354.531 23.6921 354.908 23.2851C355.386 22.7457 355.722 22.4505 355.864 22.4505C355.996 22.4505 356.393 22.766 357.096 23.3665C357.492 23.7634 357.727 24.0076 357.727 24.0891C357.727 24.2926 357.594 24.3842 357.381 24.3842H348.944V26.5519H356.79C356.851 26.5316 357.065 26.2466 357.452 25.7479C357.93 25.1373 358.235 24.8116 358.307 24.8116C358.571 24.8116 358.958 25.1169 359.508 25.697C360.067 26.2873 360.342 26.6435 360.342 26.7656C360.342 26.9794 360.21 27.0608 359.976 27.0608H351.895C352.241 27.8444 352.699 28.5466 353.289 29.198C353.666 29.6458 354.124 30.0732 354.653 30.4498C354.948 30.1852 355.233 29.89 355.528 29.544C356.058 28.9436 356.495 28.3228 356.861 27.6409C357.503 28.0378 358.123 28.4245 358.683 28.74C359.202 29.1267 359.477 29.4015 359.477 29.5745C359.477 29.7679 359.345 29.8697 359.1 29.8697L358.022 29.7883C357.33 30.1343 356.404 30.4803 355.233 30.806C355.447 30.9485 355.691 31.1011 355.946 31.2029C357.299 31.8949 358.816 32.4343 360.485 32.8211L360.413 33.2688C359.823 33.4724 359.436 33.7472 359.273 34.0932C359.07 34.541 358.907 34.7751 358.765 34.7751C358.5 34.7751 358.001 34.5817 357.299 34.2051C356.495 33.8184 355.62 33.2892 354.714 32.587C354.012 32.0781 353.361 31.3657 352.811 30.4905C352.241 29.6967 351.763 28.5466 351.386 27.071H348.954V31.671C350.206 31.5184 351.407 31.325 352.557 31.1011L352.699 31.3963C350.755 32.6277 348.71 33.4927 346.552 34.0423C346.318 34.083 346.196 34.1543 346.196 34.2662C346.165 34.3374 346.135 34.4189 346.114 34.5206C346.053 34.6936 345.962 34.7751 345.85 34.7751C345.565 34.7751 345.26 34.2967 344.903 33.3808C344.802 33.1264 344.608 32.6989 344.384 32.1087C345.26 32.0476 346.104 31.9763 346.918 31.9153V27.071H346.267C345.219 27.071 344.476 27.0913 344.038 27.1218L343.743 26.4196C344.333 26.5214 345.168 26.5621 346.267 26.5621H346.918V21.7381C346.918 20.1912 346.837 19.0107 346.684 18.2067C347.356 18.3593 348.109 18.6239 348.995 19.0005Z" fill="#585757"/>
<path d="M366.286 19.5704H367.945C367.945 19.5704 368.199 19.3567 368.535 18.9496C368.932 18.4713 369.197 18.2169 369.268 18.2169C369.471 18.2169 369.807 18.4509 370.245 18.9293C370.682 19.4076 370.896 19.6926 370.896 19.7842C371.008 19.2957 371.1 18.8071 371.202 18.2779C371.721 18.4611 372.189 18.624 372.667 18.797C373.115 18.9802 373.359 19.1633 373.359 19.3669C373.359 19.4585 373.247 19.5094 373.013 19.5297C372.799 19.5603 372.667 19.601 372.626 19.6417C372.107 20.3846 371.517 21.0665 370.835 21.6975C371.049 21.7585 371.222 21.8603 371.364 21.9214C371.659 22.1554 371.822 22.3895 371.822 22.6745C371.822 22.9289 371.7 23.1528 371.507 23.3767C371.354 23.5395 371.181 23.6108 370.947 23.6108C370.713 23.6108 370.55 23.4276 370.398 23.0612C370.184 22.532 369.807 22.0231 369.288 21.5244L369.441 21.3006C369.787 21.3718 370.102 21.4736 370.367 21.555C370.54 21.0563 370.682 20.5373 370.825 20.0182C370.764 20.0793 370.703 20.0996 370.601 20.0996H367.721C367.273 21.9824 366.876 23.3869 366.53 24.2926C366.489 24.4046 366.428 24.5165 366.388 24.5878L366.652 24.7099H367.131C367.355 24.4351 367.568 24.201 367.792 23.9771C367.935 23.794 368.067 23.7024 368.209 23.7024C368.321 23.7024 368.637 23.8448 369.125 24.14C369.675 24.5165 369.94 24.7811 369.94 24.9134C369.94 25.0254 369.909 25.1373 369.838 25.2086C370.214 25.2086 370.56 25.2086 370.886 25.1882C371.659 23.7329 372.26 22.1758 372.677 20.5169C373.166 20.6797 373.624 20.8528 374.061 20.9952C374.122 21.0359 374.173 21.0563 374.234 21.0767C374.173 19.5603 374.122 18.5018 374.041 17.8708C374.601 17.9624 375.171 18.0439 375.72 18.1456C376.331 18.2271 376.646 18.3594 376.646 18.5222C376.646 18.6647 376.504 18.7868 376.239 18.8886C375.944 19.0209 375.781 19.1125 375.781 19.1633V20.4966C376.025 20.578 376.239 20.6289 376.422 20.6899C376.728 19.8757 376.982 19.0005 377.145 18.0744C377.654 18.2576 378.142 18.4204 378.621 18.6036C379.068 18.7868 379.313 18.9802 379.313 19.1633C379.313 19.2753 379.201 19.3364 378.987 19.3465C378.763 19.3872 378.631 19.4178 378.59 19.4687C378.112 19.9775 377.583 20.466 376.952 20.9036C377.114 20.9851 377.257 21.0665 377.369 21.1377C377.654 21.382 377.796 21.6568 377.796 21.9824C377.796 22.1961 377.705 22.4099 377.522 22.6236C377.369 22.7762 377.206 22.8475 377.003 22.8475C376.819 22.8475 376.646 22.6541 376.514 22.2674C376.351 21.7992 376.107 21.3718 375.791 20.9647C375.822 22.3284 375.883 23.5293 375.944 24.5572C376.209 24.5572 376.463 24.5572 376.718 24.5267C377.603 23.1528 378.254 21.6771 378.743 20.1098C379.252 20.293 379.73 20.466 380.208 20.6289C380.656 20.812 380.9 20.9851 380.9 21.1886C380.9 21.2904 380.778 21.3514 380.565 21.3718C380.341 21.4023 380.208 21.4329 380.178 21.4837C379.374 22.5727 378.407 23.5701 377.338 24.4758C378.061 24.4249 378.743 24.3537 379.384 24.2316C379.292 23.9263 379.191 23.6108 379.038 23.2953L379.191 23.1528C379.811 23.4785 380.259 23.7736 380.514 24.0382C380.809 24.3842 380.982 24.6895 380.982 24.9338C380.982 25.2696 380.911 25.5444 380.768 25.7276C380.565 25.9312 380.33 26.0227 380.117 26.0227C379.954 26.0227 379.832 25.9922 379.771 25.8904C379.669 25.8396 379.608 25.5648 379.557 25.0763C379.537 24.9847 379.526 24.8829 379.506 24.7608C379.099 25.0661 378.672 25.3205 378.254 25.5241C378.539 25.6157 378.743 25.6869 378.885 25.7683C379.15 25.9413 379.262 26.1143 379.262 26.3179C379.262 26.5825 379.14 26.8369 378.916 27.0812C378.763 27.2542 378.56 27.3152 378.326 27.3152C378.173 27.3152 378.051 27.1626 377.949 26.8369C377.837 26.5011 377.695 26.1754 377.471 25.8599C377.369 25.9006 377.267 25.9413 377.186 25.9719C377.064 25.9922 377.013 26.0227 377.013 26.1042C376.992 26.1347 376.982 26.2059 376.962 26.2874C376.931 26.3993 376.88 26.4502 376.809 26.4502C376.616 26.4502 376.402 26.1347 376.148 25.4732C376.107 25.3918 376.056 25.2595 376.005 25.117C376.046 25.5953 376.097 26.0329 376.148 26.4298C376.178 26.8675 376.26 27.2542 376.331 27.6002H378.906C378.906 27.6002 379.079 27.417 379.343 27.1219C379.659 26.7759 379.842 26.5927 379.923 26.5927C380.066 26.5927 380.33 26.7657 380.676 27.1422C381.022 27.5188 381.216 27.7529 381.216 27.8343C381.216 28.0175 381.134 28.1091 380.992 28.1091H376.422C376.616 28.9436 376.84 29.6255 377.114 30.1547C377.481 29.6255 377.776 29.0759 378.041 28.4754C378.56 28.7808 378.936 28.9741 379.16 29.0861C379.71 29.4117 379.984 29.6356 379.984 29.7781C379.984 29.8901 379.832 29.9511 379.577 29.9511C379.303 29.9817 379.16 30.0631 379.109 30.1343C378.672 30.6737 378.285 31.1317 377.918 31.5082C378.346 32.0985 378.753 32.3835 379.109 32.3835C379.252 32.3835 379.445 32.1596 379.649 31.722C379.872 31.2843 380.127 30.806 380.402 30.2666L380.697 30.4193C380.554 31.0197 380.432 31.4879 380.371 31.783C380.28 32.3428 380.249 32.6888 380.249 32.8007C380.249 32.8923 380.31 33.0552 380.453 33.3605C380.656 33.6149 380.768 33.8184 380.768 33.9711C380.768 34.4494 380.503 34.6937 380.035 34.6937C378.926 34.6937 377.837 33.9508 376.779 32.5158C376.056 33.045 375.323 33.4114 374.601 33.7167C373.695 34.0831 372.759 34.3884 371.751 34.6224L371.609 34.3985C372.901 33.8083 373.949 33.218 374.753 32.6583C375.201 32.3428 375.639 31.9662 376.066 31.4777C375.527 30.5923 375.15 29.5542 374.916 28.3838C374.875 28.2923 374.845 28.2007 374.845 28.1192H373.044C373.003 28.6281 372.952 29.0555 372.921 29.4525C373.542 29.656 373.99 29.8595 374.285 30.0529C374.611 30.3073 374.784 30.6025 374.784 30.9485C374.784 31.2131 374.672 31.4777 374.458 31.7118C374.306 31.8848 374.102 31.956 373.858 31.956C373.614 31.956 373.41 31.7525 373.247 31.3149C373.135 30.9892 372.972 30.6737 372.789 30.3582C372.759 30.5312 372.698 30.7042 372.657 30.8467C372.484 31.4268 372.28 31.956 372.016 32.4038C371.761 32.8313 371.405 33.2282 370.988 33.5742C370.448 34.022 369.848 34.3884 369.186 34.7039L369.034 34.3375C369.329 34.0932 369.644 33.7574 369.96 33.3401C370.265 32.933 370.499 32.4751 370.723 31.9153C370.917 31.4166 371.069 30.8976 371.171 30.3582C371.283 29.7272 371.334 28.9843 371.344 28.1294C370.754 28.1498 370.326 28.1701 370.062 28.2108L369.767 27.4883C370.326 27.6002 371.181 27.6307 372.301 27.6307H374.784C374.692 27.1829 374.621 26.7555 374.56 26.3077C374.54 26.3382 374.519 26.3688 374.509 26.3891C374.326 26.6028 374.102 26.6843 373.878 26.6843C373.725 26.6843 373.624 26.6436 373.563 26.552C373.491 26.5011 373.42 26.2161 373.39 25.748V25.7276C372.677 26.2161 371.965 26.5621 371.212 26.786C371.09 26.7962 371.059 26.8369 371.059 26.9183C371.039 26.9692 371.018 27.0506 371.008 27.1321C370.978 27.2847 370.906 27.3356 370.845 27.3356C370.621 27.3356 370.387 26.9794 370.113 26.2568C370.041 26.0838 369.909 25.8192 369.767 25.4121H369.736C369.614 25.575 369.563 25.7378 369.563 25.9108V30.6737C369.563 31.1724 369.573 31.8339 369.624 32.6786C369.624 32.9025 369.349 33.0552 368.8 33.1366C368.545 33.1773 368.362 33.1976 368.26 33.1976C367.955 33.1976 367.823 33.0246 367.823 32.6684V32.1697H366.825V33.4622C366.825 33.6658 366.551 33.8184 366.032 33.9202C365.787 33.9508 365.624 33.9813 365.512 33.9813C365.126 33.9813 364.943 33.7981 364.943 33.4622C365.044 32.7295 365.085 31.956 365.085 31.152V27.071C364.698 27.6002 364.291 28.048 363.864 28.4144L363.803 28.2007C364.21 27.356 364.576 26.2466 364.943 24.9033C365.289 23.5293 365.584 21.9417 365.848 20.1404C365.044 20.1505 364.444 20.1811 364.078 20.2116L363.803 19.4992C364.373 19.5806 365.197 19.6213 366.306 19.6213L366.286 19.5704ZM367.802 31.6304V25.2086H366.805V31.6304H367.802ZM374.295 22.7762C374.275 22.3895 374.275 22.0537 374.275 21.7382C374.112 21.7687 374.021 21.7891 374 21.8196C373.278 23.0307 372.443 24.1502 371.497 25.178C372.128 25.178 372.728 25.1475 373.278 25.1068C373.196 24.7099 373.074 24.3333 372.921 23.9263L373.064 23.7838C373.654 24.1196 374.051 24.4148 374.285 24.6794C374.326 24.7506 374.356 24.7811 374.397 24.8218C374.326 24.1502 374.285 23.4886 374.285 22.7966L374.295 22.7762Z" fill="#585757"/>
<path d="M399.697 34.6936C399.269 34.5613 398.842 34.2967 398.404 33.91C397.844 33.452 397.356 32.9228 396.928 32.3224C395.656 33.391 394.15 34.1543 392.41 34.6122L392.278 34.3578C393.804 33.6454 395.137 32.6175 396.277 31.2843C395.799 30.3989 395.402 29.3099 395.076 28.0276H393C392.98 28.3635 392.929 28.8316 392.858 29.4117C393.59 29.5949 394.13 29.8697 394.496 30.2462C394.801 30.5617 394.934 30.8874 394.893 31.2334C394.852 31.5591 394.7 31.783 394.435 31.9051C394.16 32.0272 393.855 31.9764 393.539 31.7423C393.468 31.2131 393.193 30.6228 392.725 29.9918C392.247 32.0272 391.107 33.6149 389.285 34.7445L389.051 34.4901C389.957 33.5843 390.598 32.5157 390.965 31.2843C391.209 30.4396 391.351 29.3506 391.382 28.0276H390.252L390.181 27.7325C390.059 27.875 389.906 27.9462 389.723 27.9462C389.53 27.936 389.346 27.8444 389.173 27.6714C389.123 26.8674 388.817 25.9922 388.247 25.0457V29.8697C388.268 31.3759 388.319 32.8007 388.39 34.1441C388.319 34.2866 388.146 34.4189 387.881 34.541C387.606 34.6733 387.321 34.7445 387.046 34.7445C386.904 34.7445 386.782 34.7038 386.69 34.6326C386.599 34.5613 386.558 34.4799 386.558 34.3782C386.558 34.2967 386.558 34.1746 386.578 34.0118C386.66 32.5666 386.721 31.1215 386.741 29.6763V27.1422C386.131 28.394 385.377 29.5237 384.461 30.5414L384.207 30.3277C385.235 28.5059 385.998 25.9922 386.487 22.7966H385.886C385.581 22.8067 385.255 22.8983 384.899 23.051L384.421 22.1249C384.848 22.1961 385.367 22.247 385.988 22.2673H386.731V21.5041C386.731 19.9775 386.65 18.7359 386.497 17.769C387.596 18.0642 388.278 18.2779 388.532 18.4204C388.726 18.5425 388.736 18.6646 388.553 18.7868L388.247 18.9903V22.2673H388.481L388.827 21.6465C388.827 21.6465 388.878 21.5549 388.919 21.4837C389.092 21.1784 389.214 21.0257 389.306 21.0257C389.418 21.0257 389.662 21.2395 390.039 21.6669C390.415 22.0943 390.598 22.3691 390.598 22.5014C390.558 22.6948 390.415 22.7966 390.161 22.7966H388.247V24.5572C389.143 25.005 389.774 25.5342 390.12 26.1448C390.395 26.6435 390.456 27.0811 390.303 27.478H394.964C394.883 27.0608 394.781 26.5316 394.669 25.8802C394.557 26.0838 394.405 26.2059 394.191 26.2466C393.977 26.2873 393.763 26.1957 393.55 25.9922C393.529 25.697 393.468 25.4019 393.387 25.0966C392.949 25.3103 392.186 25.6665 391.097 26.155C391.016 26.3586 390.873 26.4909 390.68 26.5418L389.896 24.9236C390.049 24.9236 390.385 24.9032 390.883 24.8727C390.995 24.8625 391.077 24.8523 391.138 24.8523C391.433 24.201 391.718 23.4581 392.013 22.6337C391.758 22.8882 391.453 22.878 391.087 22.6134C391.026 22.2877 390.873 21.9111 390.629 21.5041C390.425 21.1377 390.181 20.8222 389.916 20.5576L390.12 20.4253C390.425 20.4965 390.71 20.5881 390.975 20.7001C391.27 19.489 391.433 18.5425 391.463 17.8606C392.389 18.1863 392.959 18.4407 393.193 18.6036C393.366 18.7257 393.346 18.8173 393.153 18.8987L392.827 19.0412C392.237 19.9266 391.779 20.5678 391.463 20.9545C391.952 21.2598 392.206 21.616 392.227 22.0333C392.43 21.4532 392.603 20.8425 392.735 20.1912L394.262 20.924C394.242 19.6416 394.221 18.6443 394.221 17.9522C395.219 18.0336 395.84 18.1252 396.074 18.227C396.257 18.2983 396.257 18.4 396.074 18.5323L395.768 18.7359C395.707 22.4607 395.921 25.3816 396.409 27.4882H398.699L399.066 26.9387C399.066 26.9387 399.147 26.8267 399.208 26.7351C399.361 26.4909 399.483 26.3687 399.554 26.3687C399.666 26.3687 399.921 26.5621 400.328 26.9387C400.735 27.3254 400.938 27.5798 400.938 27.7121C400.887 27.9055 400.735 28.0073 400.48 28.0073H396.552C396.766 28.7502 397 29.3812 397.224 29.9002L397.61 28.9334C397.631 28.8723 397.661 28.7909 397.702 28.679C397.895 28.1904 398.038 27.9462 398.119 27.9462C398.252 27.9462 398.608 28.0887 399.178 28.3838C399.768 28.6993 400.073 28.913 400.073 29.0352C399.992 29.2183 399.768 29.2896 399.402 29.2489C398.964 30.002 398.506 30.6533 398.038 31.1927C398.353 31.6201 398.73 31.9967 399.167 32.3427C399.3 32.475 399.402 32.5361 399.473 32.5259C399.544 32.5157 399.625 32.414 399.707 32.2308C399.982 31.671 400.256 30.9586 400.521 30.1038L400.725 30.1445L400.419 33.0246C400.877 33.7574 401.01 34.2357 400.816 34.4596C400.562 34.7649 400.175 34.826 399.666 34.6631L399.697 34.6936ZM391.708 24.8218C391.891 24.8015 392.176 24.7709 392.562 24.7506C392.878 24.7099 393.122 24.6895 393.295 24.6793C393.143 24.2621 392.959 23.8753 392.746 23.4988L392.949 23.3868C393.682 23.7227 394.211 24.1399 394.547 24.6284C394.445 23.7227 394.374 22.6337 394.313 21.3921C394.252 21.4125 394.15 21.4328 394.018 21.4328C393.224 22.7355 392.461 23.8652 391.708 24.832V24.8218ZM397.804 27.0811C397.743 26.8369 397.631 26.5926 397.468 26.3382C397.305 26.0838 397.122 25.8904 396.928 25.7581C396.857 25.8293 396.766 25.8701 396.674 25.8904L396.074 24.2722H396.46C396.705 24.2621 396.898 24.2519 397.04 24.2519C397.275 23.7736 397.498 23.2647 397.732 22.705C397.478 22.878 397.203 22.8373 396.898 22.593C396.857 22.2673 396.735 21.901 396.532 21.5041C396.338 21.1275 396.114 20.812 395.88 20.5576L396.063 20.4253C396.257 20.4762 396.511 20.5576 396.827 20.6797C397.102 19.6518 397.285 18.7053 397.356 17.8403C398.302 18.2067 398.893 18.4713 399.117 18.6443C399.29 18.7766 399.269 18.8784 399.066 18.9394L398.74 19.0514C398.241 19.7536 397.743 20.3846 397.244 20.924C397.722 21.2496 397.977 21.6058 398.028 22.0027C398.353 21.1784 398.577 20.4965 398.699 19.947C399.544 20.3235 400.073 20.5983 400.267 20.7611C400.419 20.8934 400.409 20.9952 400.216 21.0563L399.89 21.1682C399.117 22.3589 398.384 23.3767 397.692 24.2214C398.028 24.201 398.587 24.1603 399.371 24.1094C399.198 23.6107 399.005 23.1935 398.791 22.8576L399.005 22.766C399.697 23.1324 400.195 23.5395 400.511 24.0076C400.765 24.4045 400.867 24.7811 400.816 25.1373C400.775 25.4731 400.633 25.697 400.389 25.7886C400.144 25.8904 399.89 25.809 399.656 25.5546C399.656 25.3001 399.605 24.9643 399.493 24.5572C398.679 24.9134 397.895 25.2289 397.142 25.524C397.102 25.5953 397.071 25.6563 397.03 25.6869L397.101 25.636C397.753 25.6462 398.252 25.7683 398.598 25.982C398.862 26.1754 398.994 26.4094 398.984 26.6741C398.964 26.9183 398.832 27.0913 398.598 27.2033C398.353 27.3254 398.089 27.2949 397.814 27.1117L397.804 27.0811Z" fill="#585757"/>
<path d="M406.852 34.7852C406.689 34.7852 406.567 34.7445 406.465 34.6733C406.363 34.602 406.323 34.5104 406.323 34.4188C406.323 34.3374 406.323 34.2153 406.343 34.0525C406.425 32.6073 406.486 31.1621 406.506 29.717V27.1727C405.936 28.4245 405.183 29.5643 404.247 30.6126L403.992 30.3785C405.051 28.5059 405.783 26.0023 406.211 22.8474H405.559C405.224 22.8576 404.857 22.9492 404.471 23.1018L404.013 22.1757C404.491 22.247 405.061 22.2978 405.722 22.3182H406.506V21.4837C406.506 19.9571 406.425 18.7155 406.272 17.7487C407.391 18.0234 408.083 18.2372 408.348 18.3898C408.552 18.5119 408.562 18.6341 408.389 18.7562L408.083 18.9699V22.3182H408.409L408.775 21.7177C408.775 21.7177 408.847 21.616 408.908 21.5346C409.091 21.2598 409.213 21.1173 409.295 21.1173C409.406 21.1173 409.671 21.3208 410.088 21.7381C410.506 22.1554 410.719 22.42 410.719 22.5523C410.679 22.7456 410.526 22.8474 410.261 22.8474H408.094V24.3027C408.918 24.6386 409.539 25.0457 409.946 25.524C410.282 25.9209 410.445 26.3178 410.424 26.7046C410.414 27.0608 410.271 27.2948 409.997 27.417C409.722 27.5391 409.437 27.4678 409.152 27.2134C409.03 26.4807 408.674 25.6563 408.094 24.72V29.9104C408.114 31.4166 408.165 32.8414 408.236 34.1848C408.165 34.3272 407.982 34.4697 407.697 34.5918C407.412 34.7241 407.137 34.7852 406.872 34.7852H406.852ZM410.821 34.7445C410.587 34.7445 410.475 34.6224 410.475 34.3781C410.526 33.8591 410.556 33.1874 410.587 32.3732V31.1723H410.098C409.854 31.1825 409.61 31.2741 409.366 31.4267L408.908 30.5006C409.223 30.5719 409.61 30.6228 410.068 30.6431H410.577V28.6789H410.272C410.139 28.6891 410.007 28.7807 409.875 28.9333L409.396 28.0072C409.63 28.0785 409.905 28.1294 410.231 28.1497H410.577C410.577 26.8267 410.506 25.7683 410.373 24.9846L412.195 25.7988H413.976V24.4656H412.521C411.676 24.4758 410.78 24.5673 409.864 24.72L409.386 23.8142C409.905 23.8855 410.526 23.9364 411.238 23.9567H412.114V22.3691H411.605C411.36 22.3793 411.106 22.4709 410.841 22.6235L410.363 21.6974C410.699 21.7686 411.106 21.8195 411.564 21.8399H412.114V20.3642H411.422C411.045 20.3744 410.648 20.466 410.221 20.6186L409.763 19.6925C410.2 19.7637 410.729 19.8146 411.36 19.835H412.103C412.103 19.0819 412.063 18.4305 411.991 17.8911C412.958 18.1456 413.569 18.3491 413.813 18.4916C413.996 18.6035 413.996 18.7053 413.834 18.8173L413.559 19.0004V19.835H415.564C415.564 19.0819 415.523 18.4305 415.452 17.8911C416.439 18.1557 417.039 18.3695 417.273 18.5119C417.457 18.6239 417.457 18.7358 417.294 18.858L417.019 19.0412V19.8452H417.874L418.24 19.3159C418.24 19.3159 418.311 19.2243 418.373 19.1531C418.556 18.9089 418.678 18.7867 418.759 18.7867C418.881 18.7867 419.146 18.9699 419.573 19.3363C419.991 19.7027 420.204 19.9469 420.204 20.0792C420.154 20.2726 420.001 20.3744 419.746 20.3744H417.029V21.85H417.701L418.026 21.3615C418.026 21.3615 418.088 21.2801 418.138 21.2191C418.311 20.985 418.434 20.873 418.505 20.873C418.627 20.873 418.881 21.0461 419.258 21.3819C419.645 21.7177 419.828 21.962 419.828 22.0943C419.787 22.2877 419.645 22.3894 419.39 22.3894H417.019V23.9771H418.169L418.535 23.4479C418.535 23.4479 418.607 23.3461 418.668 23.2647C418.841 23.0204 418.963 22.8983 419.034 22.8983C419.156 22.8983 419.421 23.0815 419.828 23.4479C420.235 23.8142 420.438 24.0585 420.438 24.1908C420.398 24.3842 420.245 24.4859 419.981 24.4859H415.431V25.8191H417.253L417.579 25.3612C417.579 25.3612 417.66 25.2696 417.711 25.1983C417.853 25.005 417.965 24.9032 418.037 24.9032C418.159 24.9032 418.464 25.0966 418.963 25.4731C419.461 25.8598 419.706 26.1143 419.706 26.2466C419.543 26.4298 419.288 26.5519 418.942 26.6333V27.8546L419.146 27.5085C419.146 27.5085 419.187 27.4475 419.217 27.3966C419.319 27.2439 419.4 27.1625 419.472 27.1625C419.584 27.1625 419.797 27.3355 420.113 27.6816C420.428 28.0276 420.591 28.2718 420.591 28.4041C420.55 28.5975 420.408 28.6993 420.154 28.6993H418.953V30.4497L419.207 30.0121C419.207 30.0121 419.268 29.9205 419.319 29.8493C419.431 29.6559 419.523 29.5542 419.594 29.5542C419.706 29.5542 419.919 29.7475 420.245 30.1241C420.571 30.5006 420.734 30.7652 420.734 30.8975C420.693 31.0909 420.55 31.1927 420.296 31.1927H418.953V32.9024C418.953 33.4927 418.841 33.9202 418.607 34.1542C418.332 34.4697 417.772 34.6733 416.927 34.7547C416.907 34.256 416.795 33.9202 416.622 33.737C416.368 33.4927 415.94 33.3299 415.35 33.2485V32.9737C415.94 33.0144 416.53 33.0449 417.111 33.0856C417.314 33.0856 417.416 32.9737 417.416 32.7396V31.1927H412.103V32.2104C412.103 32.3732 412.103 32.5666 412.124 32.8108C412.144 33.3909 412.175 33.8387 412.195 34.1441C412.144 34.2764 411.991 34.4087 411.717 34.541C411.411 34.6834 411.106 34.7547 410.811 34.7547L410.821 34.7445ZM412.114 28.1599H413.986V26.3382H412.114V28.1599ZM412.114 30.6533H413.986V28.6891H412.114V30.6533ZM413.589 21.8602H415.594V20.3845H413.589V21.8602ZM413.589 23.9669H415.594V22.3793H413.589V23.9669ZM415.441 28.1599H417.426V26.3382H415.441V28.1599ZM415.441 30.6533H417.426V28.6891H415.441V30.6533Z" fill="#585757"/>
<path d="M336.415 37.2785V15.6622H320.427V19.4583H330.045V24.5571H310.83V28.3633H330.045V33.4824H320.427V37.2785H336.415Z" fill="#585757"/>
<path d="M307.034 24.842V19.4583H316.651V15.6622H300.663V37.2785H316.651V33.4824H307.034V28.6381V24.842Z" fill="#585757"/>
<path d="M462.358 14.4513H454.033L448.486 19.6112V24.771H454.033V19.6112H470.683L467.161 16.3341C465.859 15.123 464.139 14.4412 462.358 14.4412V14.4513Z" fill="#585757"/>
<path d="M454.033 24.7913V29.9511H470.683L467.162 26.6741C465.859 25.463 464.139 24.7811 462.358 24.7811H454.033V24.7913Z" fill="#585757"/>
<path d="M470.682 19.6212L474.203 22.8983C475.506 24.1093 477.226 24.7912 479.007 24.7912H481.785V19.6314H470.692L470.682 19.6212Z" fill="#585757"/>
<path d="M470.682 29.9409L474.203 33.218C475.506 34.429 477.226 35.1109 479.007 35.1109H481.785V29.9511H470.692L470.682 29.9409Z" fill="#585757"/>
<path d="M497.56 32.4038C495.891 32.5565 494.283 32.6582 492.756 32.76C492.624 32.76 492.573 32.7091 492.573 32.5463C492.675 31.9153 492.756 31.2843 492.756 30.6839C492.756 30.0834 492.756 28.9029 492.603 28.2108L490.883 28.8622C491.087 29.2387 491.209 30.0732 491.209 30.9688C491.158 31.9153 490.1 33.1874 489.611 33.4317L490.802 34.6122C490.802 34.6122 491.565 34.0729 491.85 33.9609C492.054 33.8591 492.675 33.7777 493.713 33.7268C494.425 33.6759 495.524 33.6556 497 33.6454L497.56 32.4038Z" fill="#585757"/>
<path d="M504.592 31.9153C503.605 31.6812 502.547 31.2334 501.417 30.6024C500.094 29.9206 499.015 29.4219 498.191 29.0555C498.191 28.7502 498.506 28.1497 498.689 27.8953L497.957 27.4882C498.476 27.4577 502.933 27.417 504.094 27.3864V26.0939C502.903 26.0939 493.408 26.3993 492.919 26.3993C492.919 26.3484 492.95 26.2975 492.95 26.2161C492.95 25.9515 492.919 25.6869 492.919 25.3815C493.499 25.0661 499.829 24.8625 501.305 24.8116V23.6921C500.206 23.6616 493.855 23.9262 492.899 24.0992C492.899 23.8346 492.868 23.57 492.868 23.285C493 22.9187 499.799 22.705 501.305 22.6541V21.616C501.305 21.616 494.68 21.7279 492.848 21.9926C492.848 21.5956 492.817 21.1784 492.817 20.7611C493.133 20.5169 499.982 20.3744 501.305 20.3744V19.2244C501.244 19.2244 495.718 19.377 493.387 19.4788C493.102 19.4788 492.827 19.5297 492.542 19.5806L491.199 20.985C491.199 20.985 491.209 21.0155 491.219 21.0257C491.423 21.3412 491.525 22.1554 491.525 23.4682C491.576 24.4147 491.606 25.3307 491.555 26.2466C491.555 26.328 491.555 26.3993 491.606 26.5112C490.344 26.613 488.573 26.6944 487.556 26.7656V28.2413C489.54 27.6714 495.626 27.4984 497.214 27.4984C497.214 28.6382 496.176 29.717 495.667 30.0936C495.647 30.0936 495.636 30.1139 495.616 30.1241L496.593 31.1215C496.695 31.0502 496.807 30.9586 496.939 30.8365C497.173 30.521 497.407 30.2564 497.662 30.0529C497.947 30.0529 498.7 30.4498 499.941 31.1825C500.46 31.5489 501.081 31.9967 501.773 32.4648C502.496 32.933 503.066 33.3604 503.432 33.6657C503.717 33.91 503.992 34.1034 504.256 34.256L507.289 32.2613C506.343 32.2308 505.447 32.1188 504.623 31.9051L504.592 31.9153Z" fill="#585757"/>
<path d="M516.856 25.8293C516.133 25.982 514.922 26.0939 514.2 26.1448V26.0634C514.2 25.8293 514.23 25.5138 514.281 25.1475C514.332 24.9337 514.383 24.6793 514.434 24.3842C514.79 24.3842 515.94 24.374 516.347 24.3638V23.3359C516.347 23.3359 515.523 23.3359 515.492 23.3359C514.352 23.3665 513.162 23.4174 511.981 23.4682C511.808 23.4682 510.912 23.4784 510.739 23.4988V24.5775C510.811 24.5674 511.605 24.5572 511.696 24.5368C511.981 24.5368 512.398 24.5063 512.907 24.4554C512.907 24.486 512.907 24.5063 512.938 24.5572C513.019 24.7709 513.07 24.9745 513.07 25.1882C513.07 25.6563 513.039 26.0024 512.989 26.2364C512.368 26.3178 510.597 26.3484 510.18 26.3382V27.6103C510.536 27.5289 512.266 27.4577 512.866 27.3661C514.271 27.2134 515.96 26.9895 516.866 26.7249V25.8192L516.856 25.8293Z" fill="#585757"/>
<path d="M514.516 22.9187L515.615 22.0333C515.513 21.8807 514.963 21.1784 514.821 21.036C515.218 21.036 516.622 21.0156 517.019 20.9851V19.8045C516.063 19.8045 513.813 19.8554 512.959 19.9572C512.959 19.8045 512.989 19.5908 512.989 19.3567C512.989 19.255 512.969 19.1532 512.948 19.0718H511.127C511.269 19.1532 511.391 19.5705 511.361 19.7231C511.361 20.1404 511.178 20.5576 510.842 20.9851C510.323 21.4838 509.57 21.7993 509.081 21.7993L509.325 23.1121C510.15 23.0307 510.923 22.7254 511.676 22.1351C512.043 21.8705 512.348 21.555 512.582 21.1377C512.816 21.1377 513.071 21.1072 513.355 21.0869C513.559 21.4532 514.485 22.8577 514.516 22.9187Z" fill="#585757"/>
<path d="M524.224 21.6364C524.143 21.5346 523.573 20.8935 523.471 20.8019C524.112 20.8019 525.15 20.7815 525.863 20.7815C525.863 20.7815 525.863 19.7435 525.863 19.7333C525.863 19.7231 521.486 19.8045 521.11 19.8045C521.028 19.8045 520.957 19.8351 520.855 19.8351C520.855 19.6824 520.886 19.4687 520.886 19.255C520.886 19.1939 520.886 19.1328 520.866 19.0718H519.054C519.207 19.143 519.278 19.4687 519.278 19.6213C519.278 20.7307 518.097 21.0665 517.212 21.0665L517.375 22.3285C518.352 22.3285 519.247 21.9926 519.797 21.555C520 21.4023 520.214 21.2192 520.387 20.9749C520.682 20.8833 521.334 20.8731 521.954 20.8426C522.189 21.1784 523.166 22.4302 523.186 22.4709L524.234 21.6262L524.224 21.6364Z" fill="#585757"/>
<path d="M526.301 25.9719C526.169 26.033 526.046 26.0838 525.914 26.1449C525.578 26.2976 525.293 26.3586 525.039 26.3586C523.828 26.3586 523.227 25.9108 523.227 24.9949C523.227 24.7506 523.461 23.967 524.235 23.6312L523.319 22.7152C522.892 22.7356 521.67 22.7356 520.795 22.7356C519.91 22.7865 518.037 22.8068 517.325 22.8272V23.9466C517.325 23.9466 518.068 23.9263 518.943 23.9263C519.319 23.9263 519.289 24.8829 519.289 24.8829C518.81 24.9033 517.711 24.9237 517.314 24.944V25.8905C517.711 25.8498 518.76 25.8294 519.157 25.8294C519.157 26.3688 518.749 26.7148 518.353 27.01C518.342 27.0201 518.332 27.0303 518.322 27.0405C518.322 27.0405 519.34 27.9768 519.37 28.0073C519.452 28.0786 520.317 27.1321 520.317 25.86H521.355V24.9033C521.355 24.8931 520.602 24.9033 520.317 24.9033L520.286 23.8551C520.876 23.8551 521.375 23.8245 521.731 23.8245C521.965 23.8551 522.098 23.9263 522.098 24.0891C522.098 26.7352 522.902 27.8547 525.171 27.9361L526.281 25.9923L526.301 25.9719Z" fill="#585757"/>
<path d="M525.558 31.0705L527.227 28.6891C526.708 28.7399 526.21 28.7705 525.741 28.7705C523.604 28.7705 520.103 28.6178 518.007 28.6178C518.007 28.5161 518.037 27.8749 518.058 27.7731C518.078 27.6713 518.088 27.5798 518.098 27.4882H516.409C516.49 27.6815 516.551 28.3939 516.551 28.6484C516.063 28.6789 511.381 28.9638 510.119 29.0453C510.119 29.0453 508.583 31.2435 508.593 31.2435C509.01 31.0603 514.404 29.9917 516.531 29.8493C516.531 31.213 516.48 33.7166 516.429 35.06C516.429 35.0803 516.429 35.1007 516.429 35.121H517.895C517.915 33.8692 517.946 31.3453 517.946 29.7984C518.312 29.7984 518.668 29.7678 519.055 29.7678C520.978 29.7678 522.281 29.8289 524.103 30.5006C524.805 30.7856 525.243 30.9687 525.446 31.0502C525.477 31.0603 525.517 31.0603 525.548 31.0705H525.558Z" fill="#585757"/>
<path d="M513.324 31.2334C512.805 31.9356 511.431 32.9025 510.811 33.1569L511.014 33.798C511.564 33.7777 513.355 33.798 515.014 32.5666L513.324 31.2436V31.2334Z" fill="#585757"/>
<path d="M524.153 32.6887C523.135 32.2816 521.507 31.4675 520.733 31.1011L520.031 33.0246C521.354 33.452 523.176 33.2383 524.163 33.0551V32.6887H524.153Z" fill="#585757"/>
<path d="M535.612 31.3962C535.205 32.2817 533.923 33.6454 533.312 34.0728L533.679 34.714C534.279 34.5613 536.223 34.1746 537.75 32.4445L535.623 31.3962H535.612Z" fill="#585757"/>
<path d="M546.777 33.9405C545.78 33.2586 544.233 31.9966 543.48 31.4064L542.269 33.2993C543.581 34.083 545.596 34.2865 546.696 34.3374L546.777 33.9405Z" fill="#585757"/>
<path d="M533.261 27.5187C533.261 27.5187 533.261 28.1598 533.261 28.17H534.35C534.36 28.1191 534.391 27.1319 534.391 26.847C535.052 26.7961 535.887 26.7554 536.406 26.735V25.6766C536.406 25.6766 534.523 25.8089 534.411 25.8089C534.411 25.3408 534.442 24.8421 534.442 24.2925C535.073 24.2518 535.907 24.2111 536.406 24.1907V22.9695C535.795 23.0611 534.462 23.1628 534.36 23.1628C534.309 22.5115 534.228 21.9619 534.126 21.5141C534.889 21.4633 535.826 21.4124 536.406 21.4124V20.1402C536.335 20.1301 533.77 20.3539 533.587 20.3845C533.587 20.3845 533.587 20.3845 533.577 20.3845L531.877 21.5854C532.396 22.1044 532.762 23.0916 532.844 23.5699C533.098 24.7199 533.261 25.9107 533.261 27.539V27.5187Z" fill="#585757"/>
<path d="M550.746 28.5465C549.036 28.7704 547.316 28.5669 545.596 28.4855C543.805 28.3939 542.014 28.3735 540.223 28.3735C537.282 28.3735 534.371 28.7908 531.47 29.2386L529.883 31.5183C533.129 30.2868 536.518 29.6355 539.989 29.6355C542.726 29.6355 545.423 29.6762 548.08 30.4497C548.527 30.6023 549.199 30.755 549.199 30.755L550.736 28.5567L550.746 28.5465Z" fill="#585757"/>
<path d="M543.469 21.4022C543.907 21.3412 545.321 21.2903 545.861 21.2699C546.227 21.2699 546.4 21.3513 546.4 21.4836C546.37 22.0128 546.349 22.5319 546.349 23.0814C546.166 23.0509 543.856 23.0509 543.459 23.0814V24.1093C543.459 24.1093 545.728 24.0992 546.298 24.0483C546.268 24.5978 546.248 25.1474 546.217 25.697C546.085 25.697 545.963 25.7275 545.851 25.7275C545.545 25.7275 543.459 25.697 543.459 25.697V26.8266C543.612 26.8063 545.749 26.6842 546.197 26.6333C546.166 26.8979 546.146 27.5085 546.146 27.7222H547.387C547.438 26.8063 547.489 24.954 547.591 23.5394C547.713 22.4912 547.784 21.6974 547.835 21.1478L546.553 19.9774C546.553 19.9774 546.451 19.9978 546.4 20.0181C546.166 20.1199 544.07 20.2726 543.459 20.2726V21.3819L543.469 21.4022Z" fill="#585757"/>
<path d="M538.146 19.9061L536.925 20.934C537.077 21.3614 537.159 21.7889 537.159 22.2367C537.159 22.8677 537.159 23.7327 537.108 24.8318C537.037 25.7681 536.986 26.9182 536.965 27.6306H538.105C538.197 26.4093 538.227 25.3814 538.227 24.1601C538.227 23.8955 538.085 20.822 538.197 20.7915C539.235 20.4862 540.375 20.4455 541.454 20.4455C541.657 20.4455 541.759 20.5269 541.759 20.6592C541.759 21.8398 541.83 27.1319 541.871 27.6306C541.871 27.6306 542.99 27.6611 543.001 27.6306C543.001 26.9996 542.97 25.9004 542.97 25.1982V20.822C542.97 20.6287 543.011 20.4455 543.092 20.2928C542.614 19.9468 542.135 19.6008 541.657 19.2548C541.677 19.2751 540.884 19.6008 540.823 19.6211C539.917 19.672 539.052 19.784 538.156 19.9061H538.136H538.146Z" fill="#585757"/>
<path d="M541.424 21.6465C540.773 21.7177 538.635 21.8297 538.523 21.8602V22.8169C538.574 22.7965 538.635 22.7761 538.686 22.7354C539.002 22.5828 541.058 22.4505 541.424 22.3792V21.6465Z" fill="#585757"/>
<path d="M541.301 26.0328C541.271 25.9616 541.271 25.8802 541.271 25.7987C541.271 25.4731 541.291 24.8319 541.352 24.5978L540.701 23.4071C540.558 23.4783 540.406 23.5292 540.263 23.5292C540.111 23.5801 539.978 23.5801 539.846 23.5801C539.643 23.5801 539.48 23.5496 539.358 23.4783L538.564 24.3129C538.625 24.4146 538.655 24.5266 538.655 24.6589C538.655 24.9235 538.625 25.5443 538.625 25.7784C538.625 25.931 538.584 26.0532 538.533 26.1753L539.317 27.1727C539.317 27.1727 539.429 27.1218 539.51 27.0912C539.765 27.0403 539.948 27.0098 540.08 26.9895C540.212 26.9895 540.385 26.9996 540.589 27.02L541.301 26.043V26.0328ZM540.202 26.2465C539.999 26.2974 539.836 26.3279 539.683 26.3279C539.531 26.3279 539.48 26.2771 539.48 26.1753C539.531 25.7071 539.561 24.9235 539.561 24.5571C539.561 24.4554 539.643 24.3739 539.816 24.323C539.968 24.2722 540.1 24.2416 540.202 24.2416C540.355 24.2416 540.457 24.323 540.457 24.4248C540.457 24.7912 540.426 25.5952 540.406 26.0226C540.406 26.1753 540.324 26.2567 540.202 26.2567V26.2465Z" fill="#585757"/>
<path d="M557.127 31.9967C556.608 32.6989 555.234 33.6658 554.613 33.9202L554.817 34.5613C555.366 34.541 557.158 34.5613 558.816 33.3299L557.127 32.0069V31.9967Z" fill="#585757"/>
<path d="M566.949 18.7156C566.664 19.4585 565.677 20.6289 565.188 20.9953L565.514 21.5041C565.992 21.3515 567.56 20.9444 568.73 19.4687L566.949 18.7156Z" fill="#585757"/>
<path d="M554.654 19.2753C555.071 19.8452 556.201 20.639 556.71 20.8425L556.547 21.3616C556.099 21.3412 554.644 21.3616 553.29 20.354L554.664 19.2753H554.654Z" fill="#585757"/>
<path d="M568.434 33.3197C567.417 32.9126 565.788 32.0984 565.015 31.7321L564.312 33.6555C565.636 34.083 567.457 33.8693 568.444 33.6861V33.3197H568.434Z" fill="#585757"/>
<path d="M569.95 24.4759L571.609 22.1046C568.984 22.3794 566.266 22.1555 563.63 22.0843C563.63 21.667 563.661 20.2015 563.712 19.5705C563.763 19.2346 563.814 18.8988 563.854 18.5426H562.348C562.389 18.6953 562.419 18.8581 562.419 19.0209C562.419 19.9878 562.368 21.6365 562.318 22.1148C561.514 22.1657 560.689 22.1962 559.865 22.1962C559.916 21.7484 559.946 20.232 559.946 19.4993C559.906 19.1227 559.855 18.8072 559.794 18.5528H558.175C558.216 18.6037 558.267 18.6749 558.298 18.7461C558.43 18.9599 558.501 19.1939 558.552 19.428C558.725 20.3134 558.715 21.2497 558.756 22.1453C558.756 22.1758 558.756 22.2166 558.735 22.2369C558.715 22.2674 558.674 22.2674 558.633 22.2776C557.148 22.359 554.929 22.6033 553.443 22.7356L551.978 24.8321C552.374 24.6387 552.771 24.4861 553.158 24.3639C555.275 23.6922 558.226 23.4073 560.445 23.3157C562.999 23.2139 565.808 23.0918 568.261 23.9467C569.014 24.2113 569.554 24.3843 569.95 24.5064V24.4759Z" fill="#585757"/>
<path d="M561.93 26.4909C563.538 26.44 565.625 26.4095 567.375 26.4095V25.29C567.263 25.29 565.207 25.3307 564.536 25.3307C564.576 25.2289 565.136 24.0484 565.197 23.9364L563.925 23.4072C563.905 23.4886 563.386 24.6387 563.376 24.7303C563.345 24.7811 563.325 24.8829 563.274 25.0152C563.223 25.1475 563.172 25.2798 563.121 25.3816C561.778 25.4325 559.162 25.5648 559.162 25.5648C559.162 24.9236 558.735 23.5192 558.633 23.5802L557.412 24.3333C557.473 24.4758 557.951 25.4223 558.002 25.6157C557.412 25.6462 555.631 25.6971 555.56 25.7073V26.9082C555.773 26.8776 556.017 26.8471 556.292 26.7962C557.117 26.7453 558.643 26.6639 560.251 26.5621C560.282 26.8268 560.302 27.1422 560.353 27.5086H560.322C559.01 27.6002 557.361 27.6816 556.404 27.7529V29.025C557.371 28.8927 559.06 28.7808 560.445 28.6892C560.445 29.0047 560.475 29.3405 560.475 29.7679C560.241 29.7679 560.007 29.7985 559.803 29.7985C557.798 29.9206 556.089 30.0529 554.644 30.1547V31.5184C556.15 31.3251 557.982 31.1724 560.19 31.0197C560.272 31.0197 560.373 31.0197 560.475 30.9892C560.475 32.2512 560.495 34.4291 560.526 35.1008H561.798V30.9078C563.416 30.8365 565.564 30.7958 567.375 30.745V29.5339C566.683 29.4932 565.401 29.5033 564.363 29.5644C563.538 29.6153 562.684 29.6458 561.778 29.6967V28.567C562.857 28.5263 564.749 28.4754 565.961 28.4347V27.3051C565.503 27.2949 562.399 27.417 561.839 27.417C561.869 27.1015 561.89 26.786 561.941 26.5214V26.4705L561.93 26.4909Z" fill="#585757"/>
<path d="M737.487 20.3846V13.1893H741.955V13.8712H738.261V16.4053H741.416V17.0974H738.261V19.6925H741.955V20.3846H737.487Z" fill="#251714"/>
<path d="M745.099 20.3845H744.448L742.626 15.4078H743.41L744.763 19.3973L746.127 15.4078H746.911L745.079 20.3845H745.099Z" fill="#251714"/>
<path d="M748.306 18.0845C748.306 19.1734 748.825 19.8044 749.771 19.8044C750.351 19.8044 750.677 19.6314 751.074 19.2345L751.572 19.6721C751.064 20.1809 750.595 20.4354 749.751 20.4354C748.438 20.4354 747.583 19.6517 747.583 17.8911C747.583 16.2831 748.356 15.3468 749.629 15.3468C750.901 15.3468 751.674 16.2729 751.674 17.7486V18.0845H748.316H748.306ZM750.779 16.7105C750.585 16.2526 750.137 15.9574 749.618 15.9574C749.099 15.9574 748.652 16.2526 748.458 16.7105C748.346 16.9853 748.326 17.138 748.306 17.5349H750.931C750.911 17.1278 750.891 16.9751 750.779 16.7105Z" fill="#251714"/>
<path d="M755.988 16.3645C755.714 16.0897 755.51 15.9981 755.133 15.9981C754.411 15.9981 753.943 16.5782 753.943 17.3313V20.3845H753.21V15.4079H753.943V16.0185C754.218 15.6012 754.757 15.3468 755.337 15.3468C755.815 15.3468 756.172 15.4588 756.528 15.815L755.988 16.3645Z" fill="#251714"/>
<path d="M758.696 21.5854C758.594 21.8602 758.482 22.0433 758.339 22.1756C758.075 22.4301 757.719 22.5217 757.373 22.5217H757.057V21.8703H757.281C757.79 21.8703 757.943 21.7075 758.095 21.2495L758.451 20.2827L756.66 15.4078H757.444L758.808 19.3973L760.161 15.4078H760.945L758.685 21.5854H758.696Z" fill="#251714"/>
<path d="M765.901 20.3845C765.056 20.3845 764.629 19.7841 764.629 19.0513V15.9982H763.998V15.4385H764.629V13.8813H765.352V15.4385H766.41V15.9982H765.352V19.031C765.352 19.489 765.565 19.7536 766.023 19.7536H766.41V20.3845H765.891H765.901Z" fill="#251714"/>
<path d="M770.98 19.8757C770.634 20.2217 770.166 20.4456 769.555 20.4456C768.944 20.4456 768.476 20.2217 768.13 19.8757C767.621 19.3566 767.52 18.6646 767.52 17.8911C767.52 17.1177 767.621 16.4256 768.13 15.9066C768.476 15.5606 768.944 15.3367 769.555 15.3367C770.166 15.3367 770.634 15.5606 770.98 15.9066C771.489 16.4256 771.59 17.1177 771.59 17.8911C771.59 18.6646 771.489 19.3566 770.98 19.8757ZM770.461 16.3646C770.227 16.1305 769.901 15.9982 769.555 15.9982C769.209 15.9982 768.883 16.1305 768.659 16.3646C768.293 16.7309 768.252 17.3416 768.252 17.9013C768.252 18.4611 768.293 19.0717 768.659 19.4381C768.894 19.6721 769.209 19.8044 769.555 19.8044C769.901 19.8044 770.237 19.6721 770.461 19.4381C770.827 19.0717 770.858 18.4611 770.858 17.9013C770.858 17.3416 770.827 16.7309 770.461 16.3646Z" fill="#251714"/>
<path d="M779.53 20.3845V17.3212C779.53 16.4459 779.051 15.9981 778.308 15.9981C777.565 15.9981 777.067 16.4561 777.067 17.2398V20.3845H776.344V17.3212C776.344 16.4459 775.866 15.9981 775.123 15.9981C774.38 15.9981 773.881 16.4561 773.881 17.3212V20.3845H773.148V15.4079H773.881V15.9574C774.237 15.5503 774.726 15.3468 775.286 15.3468C775.967 15.3468 776.507 15.6318 776.812 16.1813C777.199 15.6318 777.749 15.3468 778.451 15.3468C778.99 15.3468 779.428 15.5198 779.733 15.815C780.089 16.161 780.272 16.6189 780.272 17.199V20.3845H779.55H779.53Z" fill="#251714"/>
<path d="M785.228 19.8757C784.882 20.2217 784.414 20.4456 783.803 20.4456C783.192 20.4456 782.724 20.2217 782.378 19.8757C781.869 19.3566 781.768 18.6646 781.768 17.8911C781.768 17.1177 781.869 16.4256 782.378 15.9066C782.724 15.5606 783.192 15.3367 783.803 15.3367C784.414 15.3367 784.882 15.5606 785.228 15.9066C785.737 16.4256 785.838 17.1177 785.838 17.8911C785.838 18.6646 785.737 19.3566 785.228 19.8757ZM784.709 16.3646C784.475 16.1305 784.149 15.9982 783.803 15.9982C783.457 15.9982 783.131 16.1305 782.907 16.3646C782.541 16.7309 782.5 17.3416 782.5 17.9013C782.5 18.4611 782.541 19.0717 782.907 19.4381C783.142 19.6721 783.457 19.8044 783.803 19.8044C784.149 19.8044 784.485 19.6721 784.709 19.4381C785.075 19.0717 785.106 18.4611 785.106 17.9013C785.106 17.3416 785.075 16.7309 784.709 16.3646Z" fill="#251714"/>
<path d="M790.174 16.3645C789.899 16.0897 789.696 15.9981 789.319 15.9981C788.596 15.9981 788.128 16.5782 788.128 17.3313V20.3845H787.396V15.4079H788.128V16.0185C788.403 15.6012 788.942 15.3468 789.523 15.3468C790.001 15.3468 790.357 15.4588 790.713 15.815L790.174 16.3645Z" fill="#251714"/>
<path d="M794.428 16.3645C794.153 16.0897 793.949 15.9981 793.573 15.9981C792.85 15.9981 792.382 16.5782 792.382 17.3313V20.3845H791.649V15.4079H792.382V16.0185C792.657 15.6012 793.196 15.3468 793.776 15.3468C794.255 15.3468 794.611 15.4588 794.967 15.815L794.428 16.3645Z" fill="#251714"/>
<path d="M798.753 19.8757C798.407 20.2217 797.939 20.4456 797.328 20.4456C796.718 20.4456 796.25 20.2217 795.904 19.8757C795.395 19.3566 795.293 18.6646 795.293 17.8911C795.293 17.1177 795.395 16.4256 795.904 15.9066C796.25 15.5606 796.718 15.3367 797.328 15.3367C797.939 15.3367 798.407 15.5606 798.753 15.9066C799.262 16.4256 799.364 17.1177 799.364 17.8911C799.364 18.6646 799.262 19.3566 798.753 19.8757ZM798.244 16.3646C798.01 16.1305 797.695 15.9982 797.339 15.9982C796.982 15.9982 796.667 16.1305 796.443 16.3646C796.077 16.7309 796.036 17.3416 796.036 17.9013C796.036 18.4611 796.077 19.0717 796.443 19.4381C796.677 19.6721 796.993 19.8044 797.339 19.8044C797.685 19.8044 798.01 19.6721 798.244 19.4381C798.611 19.0717 798.641 18.4611 798.641 17.9013C798.641 17.3416 798.611 16.7309 798.244 16.3646Z" fill="#251714"/>
<path d="M805.603 20.3845H804.921L803.618 16.5273L802.326 20.3845H801.644L800.066 15.4078H800.85L801.99 19.3973L803.293 15.4078H803.924L805.236 19.3973L806.366 15.4078H807.16L805.593 20.3845H805.603Z" fill="#251714"/>
<path d="M814.06 20.008C813.795 20.2726 813.347 20.4456 812.849 20.4456C812.299 20.4456 811.851 20.3133 811.444 19.7841V20.3846H810.722V13.1893H811.444V15.988C811.851 15.469 812.299 15.3469 812.849 15.3469C813.358 15.3469 813.795 15.5199 814.06 15.7845C814.569 16.2934 814.67 17.1177 814.67 17.9014C814.67 18.685 814.569 19.5093 814.06 20.0182V20.008ZM812.696 15.9982C811.617 15.9982 811.444 16.9243 811.444 17.9014C811.444 18.8784 811.617 19.8045 812.696 19.8045C813.775 19.8045 813.938 18.8784 813.938 17.9014C813.938 16.9243 813.775 15.9982 812.696 15.9982Z" fill="#251714"/>
<path d="M816.677 18.0845C816.677 19.1734 817.196 19.8044 818.142 19.8044C818.722 19.8044 819.048 19.6314 819.445 19.2345L819.944 19.6721C819.435 20.1809 818.967 20.4354 818.122 20.4354C816.809 20.4354 815.954 19.6517 815.954 17.8911C815.954 16.2831 816.728 15.3468 818 15.3468C819.272 15.3468 820.045 16.2729 820.045 17.7486V18.0845H816.687H816.677ZM819.16 16.7105C818.967 16.2526 818.519 15.9574 818 15.9574C817.481 15.9574 817.033 16.2526 816.84 16.7105C816.728 16.9853 816.707 17.138 816.687 17.5349H819.313C819.292 17.1278 819.272 16.9751 819.16 16.7105Z" fill="#251714"/>
<path d="M823.178 22.6642C822.435 22.6642 822.018 22.4709 821.488 21.9925L821.967 21.5244C822.333 21.85 822.588 22.0231 823.157 22.0231C824.114 22.0231 824.521 21.3412 824.521 20.4965V19.723C824.114 20.2421 823.666 20.3744 823.127 20.3744C822.618 20.3744 822.191 20.1912 821.926 19.9266C821.427 19.4279 821.315 18.6646 821.315 17.8504C821.315 17.0363 821.427 16.273 821.926 15.7743C822.191 15.5097 822.638 15.3367 823.137 15.3367C823.687 15.3367 824.124 15.4588 824.531 15.988V15.3977H825.254V20.527C825.254 21.7585 824.48 22.6642 823.178 22.6642ZM823.29 15.9982C822.211 15.9982 822.048 16.9243 822.048 17.8606C822.048 18.7969 822.211 19.723 823.29 19.723C824.369 19.723 824.521 18.7969 824.521 17.8606C824.521 16.9243 824.369 15.9982 823.29 15.9982Z" fill="#251714"/>
<path d="M827.036 13.9932V13.1791H827.85V13.9932H827.036ZM827.077 20.3845V15.4079H827.799V20.3845H827.077Z" fill="#251714"/>
<path d="M832.816 20.3845V17.3212C832.816 16.4459 832.338 15.9981 831.595 15.9981C830.852 15.9981 830.364 16.4561 830.364 17.3212V20.3845H829.631V15.4079H830.364V15.9574C830.72 15.5503 831.198 15.3468 831.758 15.3468C832.318 15.3468 832.725 15.5096 833.03 15.815C833.386 16.161 833.549 16.6189 833.549 17.199V20.3845H832.827H832.816Z" fill="#251714"/>
<path d="M836.887 20.4456C836.053 20.4456 835.391 20.2523 834.842 19.7231L835.33 19.2346C835.727 19.6518 836.256 19.8146 836.877 19.8146C837.691 19.8146 838.2 19.5195 838.2 18.9394C838.2 18.5018 837.946 18.2575 837.376 18.2168L836.562 18.1456C835.595 18.0642 835.076 17.6266 835.076 16.8124C835.076 15.9066 835.849 15.3571 836.908 15.3571C837.62 15.3571 838.251 15.5301 838.699 15.8964L838.221 16.3748C837.864 16.1 837.417 15.9779 836.898 15.9779C836.175 15.9779 835.788 16.2934 835.788 16.792C835.788 17.2195 836.033 17.4739 836.663 17.5146L837.468 17.5859C838.333 17.6673 838.933 18.0031 838.933 18.9292C838.933 19.8554 838.119 20.4456 836.908 20.4456H836.887Z" fill="#251714"/>
<path d="M847.584 20.3845H846.902L845.599 16.5273L844.307 20.3845H843.635L842.058 15.4078H842.851L843.991 19.3973L845.294 15.4078H845.925L847.238 19.3973L848.367 15.4078H849.161L847.594 20.3845H847.584Z" fill="#251714"/>
<path d="M850.128 13.9932V13.1791H850.942V13.9932H850.128ZM850.169 20.3845V15.4079H850.901V20.3845H850.169Z" fill="#251714"/>
<path d="M854.127 20.3845C853.282 20.3845 852.855 19.7841 852.855 19.0513V15.9982H852.224V15.4385H852.855V13.8813H853.577V15.4385H854.636V15.9982H853.577V19.031C853.577 19.489 853.791 19.7536 854.259 19.7536H854.646V20.3845H854.127Z" fill="#251714"/>
<path d="M859.277 20.3846V17.3111C859.277 16.446 858.809 15.9982 858.066 15.9982C857.323 15.9982 856.824 16.4562 856.824 17.3111V20.3846H856.102V13.1893H856.824V15.9575C857.19 15.5403 857.659 15.3469 858.218 15.3469C859.338 15.3469 860.01 16.0695 860.01 17.189V20.3846H859.287H859.277Z" fill="#251714"/>
<path d="M740.185 34.8159V34.3376C739.778 34.7446 739.411 34.877 738.75 34.877C738.088 34.877 737.661 34.7446 737.345 34.419C737.101 34.1747 736.969 33.7982 736.969 33.4114C736.969 32.5464 737.579 31.9765 738.689 31.9765H740.185V31.4981C740.185 30.7654 739.818 30.4092 738.913 30.4092C738.282 30.4092 737.956 30.5618 737.661 30.9791L737.162 30.5211C737.61 29.941 738.109 29.7782 738.923 29.7782C740.256 29.7782 740.917 30.3583 740.917 31.4371V34.8159H740.195H740.185ZM740.185 32.5159H738.79C738.048 32.5159 737.681 32.8212 737.681 33.3911C737.681 33.961 738.037 34.2358 738.821 34.2358C739.248 34.2358 739.625 34.2053 739.93 33.8999C740.103 33.7371 740.185 33.4521 740.185 33.0451V32.5057V32.5159Z" fill="#251714"/>
<path d="M748.539 34.4393C748.275 34.7039 747.827 34.877 747.328 34.877C746.779 34.877 746.331 34.7446 745.924 34.2256V37.0345H745.201V29.8393H745.924V30.4295C746.331 29.9003 746.779 29.7782 747.328 29.7782C747.837 29.7782 748.275 29.9512 748.539 30.2158C749.048 30.7247 749.15 31.549 749.15 32.3327C749.15 33.1163 749.048 33.9407 748.539 34.4495V34.4393ZM747.176 30.4295C746.097 30.4295 745.924 31.3557 745.924 32.3327C745.924 33.3097 746.097 34.2358 747.176 34.2358C748.254 34.2358 748.417 33.3097 748.417 32.3327C748.417 31.3557 748.254 30.4295 747.176 30.4295Z" fill="#251714"/>
<path d="M751.959 34.8157C751.084 34.8157 750.697 34.2458 750.697 33.4927V27.6205H751.42V33.4622C751.42 33.9507 751.583 34.1847 752.092 34.1847H752.488V34.8157H751.959Z" fill="#251714"/>
<path d="M756.539 34.8159V34.3376C756.132 34.7446 755.766 34.877 755.104 34.877C754.443 34.877 754.015 34.7446 753.7 34.419C753.456 34.1747 753.323 33.7982 753.323 33.4114C753.323 32.5464 753.934 31.9765 755.043 31.9765H756.539V31.4981C756.539 30.7654 756.173 30.4092 755.267 30.4092C754.636 30.4092 754.31 30.5618 754.015 30.9791L753.517 30.5211C753.964 29.941 754.463 29.7782 755.277 29.7782C756.61 29.7782 757.272 30.3583 757.272 31.4371V34.8159H756.549H756.539ZM756.539 32.5159H755.145C754.402 32.5159 754.036 32.8212 754.036 33.3911C754.036 33.961 754.392 34.2358 755.175 34.2358C755.603 34.2358 755.979 34.2053 756.285 33.8999C756.458 33.7371 756.539 33.4521 756.539 33.0451V32.5057V32.5159Z" fill="#251714"/>
<path d="M760.966 34.8767C759.714 34.8767 758.768 34.032 758.768 32.3324C758.768 30.6328 759.714 29.7881 760.966 29.7881C761.658 29.7881 762.085 29.9713 762.604 30.531L762.106 30.9992C761.729 30.5819 761.434 30.4394 760.966 30.4394C760.498 30.4394 760.08 30.6328 759.816 31.0093C759.582 31.335 759.49 31.7217 759.49 32.3425C759.49 32.9634 759.582 33.3501 759.816 33.6758C760.08 34.0523 760.477 34.2457 760.966 34.2457C761.454 34.2457 761.739 34.093 762.106 33.6758L762.604 34.1541C762.085 34.7138 761.658 34.897 760.966 34.897V34.8767Z" fill="#251714"/>
<path d="M764.293 32.5159C764.293 33.6048 764.812 34.2358 765.758 34.2358C766.338 34.2358 766.664 34.0628 767.061 33.6659L767.56 34.1035C767.051 34.6123 766.583 34.8668 765.738 34.8668C764.425 34.8668 763.57 34.0831 763.57 32.3225C763.57 30.7145 764.344 29.7782 765.616 29.7782C766.888 29.7782 767.661 30.7043 767.661 32.18V32.5159H764.303H764.293ZM766.766 31.1419C766.573 30.684 766.125 30.3888 765.606 30.3888C765.087 30.3888 764.639 30.684 764.446 31.1419C764.334 31.4167 764.313 31.5694 764.293 31.9663H766.919C766.898 31.5592 766.878 31.4065 766.766 31.1419Z" fill="#251714"/>
<path d="M776.446 34.8157H775.764L774.462 30.9586L773.169 34.8157H772.497L770.92 29.8391H771.714L772.854 33.8286L774.156 29.8391H774.787L776.1 33.8286L777.23 29.8391H778.024L776.456 34.8157H776.446Z" fill="#251714"/>
<path d="M779.437 32.5159C779.437 33.6048 779.956 34.2358 780.902 34.2358C781.482 34.2358 781.808 34.0628 782.205 33.6659L782.704 34.1035C782.195 34.6123 781.737 34.8668 780.882 34.8668C779.569 34.8668 778.704 34.0831 778.704 32.3225C778.704 30.7145 779.488 29.7782 780.75 29.7782C782.012 29.7782 782.795 30.7043 782.795 32.18V32.5159H779.437ZM781.92 31.1419C781.727 30.684 781.289 30.3888 780.76 30.3888C780.231 30.3888 779.783 30.684 779.6 31.1419C779.488 31.4167 779.467 31.5694 779.447 31.9663H782.073C782.052 31.5592 782.032 31.4065 781.92 31.1419Z" fill="#251714"/>
<path d="M788.8 34.8767C787.548 34.8767 786.602 34.032 786.602 32.3324C786.602 30.6328 787.548 29.7881 788.8 29.7881C789.492 29.7881 789.919 29.9713 790.438 30.531L789.94 30.9992C789.563 30.5819 789.268 30.4394 788.8 30.4394C788.332 30.4394 787.914 30.6328 787.65 31.0093C787.416 31.335 787.324 31.7217 787.324 32.3425C787.324 32.9634 787.416 33.3501 787.65 33.6758C787.914 34.0523 788.311 34.2457 788.8 34.2457C789.288 34.2457 789.573 34.093 789.94 33.6758L790.438 34.1541C789.919 34.7138 789.492 34.897 788.8 34.897V34.8767Z" fill="#251714"/>
<path d="M794.519 34.8159V34.3376C794.112 34.7446 793.745 34.877 793.084 34.877C792.422 34.877 791.995 34.7446 791.679 34.419C791.435 34.1747 791.303 33.7982 791.303 33.4114C791.303 32.5464 791.913 31.9765 793.023 31.9765H794.519V31.4981C794.519 30.7654 794.152 30.4092 793.247 30.4092C792.616 30.4092 792.29 30.5618 791.995 30.9791L791.496 30.5211C791.944 29.941 792.443 29.7782 793.257 29.7782C794.59 29.7782 795.251 30.3583 795.251 31.4371V34.8159H794.529H794.519ZM794.519 32.5159H793.124C792.381 32.5159 792.015 32.8212 792.015 33.3911C792.015 33.961 792.371 34.2358 793.155 34.2358C793.582 34.2358 793.959 34.2053 794.264 33.8999C794.437 33.7371 794.519 33.4521 794.519 33.0451V32.5057V32.5159Z" fill="#251714"/>
<path d="M798.265 34.8157C797.39 34.8157 797.003 34.2458 797.003 33.4927V27.6205H797.726V33.4622C797.726 33.9507 797.888 34.1847 798.397 34.1847H798.794V34.8157H798.265Z" fill="#251714"/>
<path d="M801.268 34.8157C800.393 34.8157 800.006 34.2458 800.006 33.4927V27.6205H800.728V33.4622C800.728 33.9507 800.891 34.1847 801.4 34.1847H801.797V34.8157H801.268Z" fill="#251714"/>
<path d="M808.727 34.8157V31.7422C808.727 30.8772 808.259 30.4294 807.516 30.4294C806.773 30.4294 806.274 30.8874 806.274 31.7422V34.8157H805.552V27.6205H806.274V30.3887C806.641 29.9714 807.109 29.778 807.669 29.778C808.788 29.778 809.46 30.5006 809.46 31.6201V34.8157H808.737H808.727Z" fill="#251714"/>
<path d="M814.426 34.307C814.08 34.653 813.612 34.8769 813.001 34.8769C812.391 34.8769 811.923 34.653 811.576 34.307C811.068 33.7879 810.966 33.0959 810.966 32.3224C810.966 31.5489 811.068 30.8569 811.576 30.3379C811.923 29.9918 812.391 29.7679 813.001 29.7679C813.612 29.7679 814.08 29.9918 814.426 30.3379C814.935 30.8569 815.037 31.5489 815.037 32.3224C815.037 33.0959 814.935 33.7879 814.426 34.307ZM813.907 30.7958C813.673 30.5618 813.357 30.4295 813.001 30.4295C812.645 30.4295 812.33 30.5618 812.106 30.7958C811.739 31.1622 811.699 31.7728 811.699 32.3326C811.699 32.8923 811.739 33.503 812.106 33.8693C812.34 34.1034 812.655 34.2357 813.001 34.2357C813.347 34.2357 813.673 34.1034 813.907 33.8693C814.273 33.503 814.304 32.8923 814.304 32.3326C814.304 31.7728 814.273 31.1622 813.907 30.7958Z" fill="#251714"/>
<path d="M822.974 34.8159V31.7526C822.974 30.8773 822.496 30.4295 821.753 30.4295C821.01 30.4295 820.512 30.8875 820.512 31.6711V34.8159H819.789V31.7526C819.789 30.8773 819.311 30.4295 818.568 30.4295C817.825 30.4295 817.326 30.8875 817.326 31.7526V34.8159H816.604V29.8393H817.326V30.3888C817.682 29.9817 818.171 29.7782 818.731 29.7782C819.423 29.7782 819.952 30.0632 820.257 30.6127C820.644 30.0632 821.193 29.7782 821.896 29.7782C822.435 29.7782 822.873 29.9512 823.178 30.2463C823.534 30.5924 823.717 31.0503 823.717 31.6304V34.8159H822.995H822.974Z" fill="#251714"/>
<path d="M825.936 32.5159C825.936 33.6048 826.456 34.2358 827.402 34.2358C827.982 34.2358 828.308 34.0628 828.705 33.6659L829.203 34.1035C828.694 34.6123 828.226 34.8668 827.382 34.8668C826.069 34.8668 825.214 34.0831 825.214 32.3225C825.214 30.7145 825.987 29.7782 827.259 29.7782C828.532 29.7782 829.305 30.7043 829.305 32.18V32.5159H825.947H825.936ZM828.41 31.1419C828.216 30.684 827.768 30.3888 827.249 30.3888C826.73 30.3888 826.283 30.684 826.089 31.1419C825.977 31.4167 825.957 31.5694 825.936 31.9663H828.562C828.542 31.5592 828.521 31.4065 828.41 31.1419Z" fill="#251714"/>
<path d="M830.821 34.8157V33.8693H831.768V34.8157H830.821Z" fill="#251714"/>
<path d="M20.4255 0.905362L14.9401 0.172607C14.421 2.99168 13.5865 5.75986 12.5383 8.37539H0V47.3335H35.274V8.37539H18.1255C19.1229 6.07536 19.9065 3.57178 20.4255 0.905362ZM30.3076 42.5299H4.96645V30.8364H30.3177V42.5299H30.3076ZM30.3076 13.0772V26.1345H4.96645V13.0772H30.3177H30.3076Z" fill="black"/>
<path d="M56.5748 17.5756V14.96H60.7067V10.2073H56.5748V0.386353H51.7712V10.2073H46.2857V14.96H51.3132L44.4131 30.6125L48.1685 32.2714L51.7712 24.1093V24.8828V48.5446H56.5748V23.0509C57.5111 24.669 58.5593 26.6536 59.8111 29.0045L62.4775 25.0863C60.493 22.369 58.5593 19.8654 56.5748 17.5654V17.5756Z" fill="black"/>
<path d="M87.2897 36.3219H93.2942V32.4546H76.736C77.2042 31.7218 77.7334 30.9382 78.3542 30.1036H91.0451V21.0154H79.9724V18.6136H89.8951V12.8635H93.2942V8.84357H89.8951V3.04259H79.9724V0.386353H75.3723V3.05277H65.5004V8.85374H62.2641V12.8737H65.5004V18.6238H75.3723V21.0256H64.3504V30.1138H73.4386C72.9196 30.8466 72.3904 31.6302 71.8713 32.4647H62.1522V36.3321H69.0523C68.1669 37.533 67.2204 38.7848 66.1823 40.0976C68.7978 40.7286 71.3523 41.4003 73.9678 42.2348C70.6196 43.3339 66.4978 44.1685 61.4805 44.6875L63.3124 48.6566C70.1005 47.8221 75.5351 46.3057 79.6162 44.1074C83.3206 45.4101 87.0353 46.9265 90.7398 48.5955L93.4062 45.1455C90.007 43.7919 86.6689 42.5299 83.4326 41.4919C85.1525 40.0264 86.4654 38.3064 87.2999 36.3219H87.2897ZM79.9825 6.49264H85.5189V9.31172H79.9825V6.49264ZM79.9825 12.4463H85.5189V15.2654H79.9825V12.4463ZM79.9825 24.0991H86.6689V26.8164H79.9825V24.0991ZM69.897 6.49264H75.3825V9.31172H69.897V6.49264ZM69.897 15.2755V12.4565H75.3825V15.2755H69.897ZM68.747 26.8164V24.0991H75.3825V26.8164H68.747ZM78.7816 40.0874C76.5325 39.4056 74.3444 38.8356 72.2479 38.4184C72.7669 37.7874 73.2961 37.0648 73.9169 36.3321H82.7507C81.9162 37.6856 80.5525 38.9476 78.7816 40.0976V40.0874Z" fill="black"/>
<path d="M166.885 9.94288L166.926 10.0955L170.661 8.31454L170.64 8.21276C170.121 6.19769 168.442 3.28702 167.16 1.41443L167.109 1.33301L163.526 2.83923L163.608 2.96135C165.043 5.13926 166.427 8.08046 166.895 9.94288H166.885Z" fill="black"/>
<path d="M194.434 37.5432V33.4723H179.84C179.962 32.5971 180.023 31.7015 180.023 30.6634V30.4701H191.442V26.501H180.023V23.7125H193.07V19.6925H186.954L188.867 15.2145L188.938 15.0721L188.816 15.0415L186.119 14.3393H193.915V10.1565H184.43V0.152344H180.094V10.1565H176.308V0.152344H172.024V10.1565H162.854V14.3393H171.26L168.655 15.0924L168.513 15.1331L168.574 15.2654L170.009 19.6925H163.577V23.7125H175.362V26.501H165.195V30.4701H175.362V30.6024C175.362 31.4064 175.331 32.3732 175.118 33.4622H162.518V37.533H173.51C171.301 40.6269 167.169 42.9473 160.88 44.6265L160.666 44.6774L160.829 44.83C161.786 45.7256 163.068 47.2319 163.587 48.1987L163.638 48.2903L163.74 48.2597C171.444 45.8274 176.329 42.3163 178.659 37.5229H194.424L194.434 37.5432ZM173.408 14.3393H184.124C183.626 15.8455 182.842 17.9929 182.018 19.6925H175.087L173.408 14.3393Z" fill="black"/>
<path d="M180.573 38.1437L180.502 38.1132L177.429 41.0238L177.602 41.0951C182.466 43.2526 188.501 46.6314 191.361 48.7788L191.453 48.8399L194.516 45.6646L194.618 45.5527L194.496 45.4712C191.483 43.3646 185.377 40.1384 180.594 38.1233L180.573 38.1437Z" fill="black"/>
<path d="M188.949 9.81045L189.01 9.72903C189.987 8.38565 191.076 6.54358 192.216 4.58957C192.552 4.02982 192.877 3.4599 193.213 2.91034L193.284 2.78821L189.051 1.17004L189 1.28199C188.175 3.41919 186.72 6.41128 185.601 8.23299L185.529 8.35511L188.857 9.76974L188.949 9.81045Z" fill="black"/>
<path d="M218.341 34.2865L216.997 29.89L216.956 29.7475L216.824 29.8086C216.091 30.1749 215.369 30.5311 214.646 30.8772C213.985 31.2028 213.323 31.5285 212.652 31.8644V17.5247H217.109V12.6702H212.652V0.783325H207.848V12.6804H202.719V17.5349H207.848V34.2051C205.741 35.2228 203.848 36.0675 202.423 36.6781L202.312 36.729L204.133 41.7158L204.184 41.8481L204.306 41.7871C207.95 39.9654 212.641 37.4618 218.249 34.3476L218.341 34.2967V34.2865Z" fill="black"/>
<path d="M219.165 16.395V32.0475H234.146V16.395H219.165ZM223.134 27.9766V20.4659H230.075V27.9766H223.134Z" fill="black"/>
<path d="M251.152 39.1412C250.185 38.7035 248.699 37.6756 247.743 36.5562L247.529 36.3119V36.6376C247.427 39.6195 247.183 43.5886 246.124 43.5886C244.659 43.5886 243.224 40.5863 242.165 35.3553C245.239 30.3277 247.681 24.252 249.442 17.2908L249.473 17.1585L244.995 16.2934L244.883 16.2731L244.852 16.385C243.794 20.7917 242.522 24.5777 240.954 27.9666C240.354 22.9595 239.947 17.5351 239.753 12.2429H250.338V7.59198H239.601C239.601 6.83887 239.601 6.07559 239.591 5.30212C239.591 3.68396 239.57 2.00473 239.601 0.325495V0.203369H234.685V0.325495C234.685 2.68659 234.736 5.07823 234.787 7.39862V7.59198H217.659V12.2429H234.95C235.286 21.4024 236.029 28.964 237.138 34.7243C236.426 35.7522 235.683 36.7292 234.919 37.6451L234.461 33.6353L234.441 33.4928L234.299 33.5234C227.622 35.2637 220.661 36.9429 216.122 37.9301L216 37.9606L217.242 42.7032L217.272 42.8253L217.394 42.7846C219.755 42.1027 222.473 41.3598 225.353 40.566C228.406 39.7213 231.571 38.8562 234.634 37.9708C232.324 40.6881 229.78 42.9169 226.94 44.7081L226.778 44.8098L226.93 44.9218C227.928 45.6037 229.709 47.232 230.421 47.9953L230.492 48.0767L230.584 48.0156C233.515 45.9395 236.191 43.4054 238.532 40.4744C240.364 45.8479 242.634 48.4634 245.493 48.4634C249.147 48.4634 250.48 46.3161 251.223 39.2836V39.192L251.152 39.1513V39.1412Z" fill="black"/>
<path d="M133.371 15.5605C133.371 8.6299 128.639 4.29443 121.759 4.29443C114.88 4.29443 110.096 8.80291 110.096 15.6216H115.846C115.846 11.1131 118.716 9.42372 121.759 9.42372C125.474 9.42372 127.621 11.9069 127.621 15.5097C127.621 17.5349 127.001 19.0004 125.484 20.8628L110.045 39.6295V44.7588H133.371V39.6295H117.027L129.596 24.2417C132.079 21.1987 133.371 19.1124 133.371 15.5605Z" fill="black"/>
<path d="M163.272 42.6826L162.377 38.7949L162.346 38.683L156.922 39.9348V23.7633H161.054V19.0716H156.922V8.15153H161.634V3.3988H146.612V8.15153H152.271V19.0716H146.765V23.7633H152.271V41.0136L146.276 42.3977L146.154 42.4282L147.05 46.3159L147.08 46.4278L163.15 42.7131L163.272 42.6826Z" fill="black"/>
<path d="M248.578 0.264282H243.011V5.83118H248.578V0.264282Z" fill="black"/>
</g>
<defs>
<clipPath id="clip0_493_1451">
<rect width="860" height="48.6977" fill="white" transform="translate(0 0.152344)"/>
</clipPath>
</defs>
</svg>
