<svg width="25" height="25" viewBox="0 0 25 25" fill="none" xmlns="http://www.w3.org/2000/svg">
<path d="M4.15257 24.9919V24.6095C4.15257 23.21 4.15257 21.8187 4.15257 20.4192C4.15257 20.1589 4.08487 19.988 3.87332 19.8009C1.73239 17.9132 0.403836 15.5862 0.0822743 12.7873C-0.323909 9.28053 0.77617 6.21312 3.33174 3.68271C5.97193 1.07093 9.24678 -0.182069 13.004 0.0213402C18.132 0.297977 21.9569 2.64125 24.0471 7.21389C26.0188 11.5343 24.8594 16.4975 21.2292 19.6951C17.8782 22.6486 13.9348 23.568 9.50064 22.673C9.30601 22.6323 9.06907 22.6567 8.89137 22.7381C7.41896 23.4297 5.96347 24.1375 4.49952 24.8373C4.39797 24.8861 4.28796 24.9349 4.14411 25L4.15257 24.9919ZM11.3031 8.34485C9.2637 10.4196 7.25818 12.47 5.24418 14.5122C5.37958 14.5285 5.47266 14.4878 5.55728 14.439C7.15663 13.5847 8.75597 12.7304 10.3469 11.8598C10.5838 11.7296 10.7192 11.7296 10.9138 11.933C11.7177 12.7873 12.547 13.6335 13.3678 14.4797C13.4609 14.5773 13.5456 14.6831 13.6556 14.8133C15.7119 12.6734 17.7174 10.5824 19.7229 8.48317C19.706 8.46689 19.6891 8.45062 19.6806 8.44248C17.9205 9.39444 16.1519 10.3383 14.3833 11.2902C13.3594 10.3057 12.3439 9.33749 11.3031 8.33671V8.34485Z" fill="#E1554B"/>
</svg>
