<svg xmlns="http://www.w3.org/2000/svg" width="25" height="25" fill: #E1554B; viewBox="0 0 25 25" fill="none">
  <path d="M19.8074 0C20.1674 0 20.5364 4.40036e-06 21.0133 0.116995C21.4993 0.233985 21.9762 0.359997 22.2192 0.476988C22.8222 0.719968 23.4251 1.43989 24.1541 2.6548C24.757 3.74371 25 4.83262 25 5.92154C25 6.28151 25 6.52449 24.883 6.88446C24.883 7.24444 24.766 7.48742 24.64 7.84739C24.523 8.20736 24.397 8.45035 24.397 8.69333C24.2801 8.93631 24.1541 9.17929 24.0371 9.65625C23.9201 10.1422 23.7941 10.3852 23.6771 10.5022C23.3171 11.7081 22.8312 12.68 22.2282 13.6429C21.2653 15.0918 20.0504 16.6667 18.3585 18.3585C16.6667 20.0504 15.2178 21.2563 13.6429 22.2282C12.68 22.8312 11.7081 23.3172 10.5022 23.6771C10.3852 23.6771 10.1422 23.7941 9.65622 24.0371C9.17026 24.1541 8.81029 24.2801 8.6933 24.3971C8.45032 24.5141 8.20734 24.514 7.84737 24.64C7.4874 24.757 7.11843 24.757 6.88444 24.883C6.52447 24.883 6.28149 25 5.92152 25C4.83261 25 3.7437 24.757 2.65478 24.1541C1.44888 23.5511 0.719941 22.8222 0.476961 22.2192C0.35997 21.9762 0.233979 21.4903 0.116988 21.0133C-2.47491e-06 20.5274 0 20.0504 0 19.8074V19.4475C0.116991 19.2045 0.485957 18.9615 1.33189 18.4845C1.57487 18.3675 1.93484 18.1245 2.29481 17.9985C2.65478 17.7556 3.14074 17.5126 3.38372 17.3956C3.6267 17.2786 3.98668 17.0357 4.34665 16.7927C4.34665 16.7927 4.58963 16.6757 4.83261 16.4327C5.07559 16.3157 5.31857 16.1897 5.43556 16.0727C5.55255 15.9557 5.79553 15.9557 5.92152 15.9557C6.1645 15.9557 6.40748 16.0727 6.76746 16.4417C7.12743 16.8017 7.4964 17.1706 7.73038 17.5306C7.97336 17.8906 8.33333 18.2595 8.6933 18.6195C9.05327 18.9795 9.29626 19.1055 9.53924 19.1055C9.65623 19.1055 9.78222 19.1055 9.89921 18.9885C10.0162 18.9885 10.1422 18.8715 10.2592 18.8715C10.3762 18.8715 10.5022 18.7545 10.7451 18.6285C10.9881 18.5115 11.1051 18.3856 11.1051 18.3856C12.68 17.5396 14.1289 16.4507 15.2178 15.2448C16.4237 14.0389 17.3956 12.707 18.3585 11.1321C18.3585 11.1321 18.4755 11.0151 18.6015 10.7722C18.7185 10.5292 18.8445 10.4122 18.8445 10.2862C18.8445 10.1602 18.9615 10.0432 18.9615 9.92622C18.9615 9.80923 19.0785 9.68322 19.0785 9.56623C19.0785 9.32325 18.9615 9.08027 18.5925 8.7203C18.2325 8.36032 17.8636 8.11739 17.5036 7.75742C17.1436 7.51444 16.7747 7.15446 16.4147 6.79449C16.0547 6.43452 15.9287 6.19154 15.9287 5.94856C15.9287 5.83157 15.9287 5.58855 16.0457 5.46256C16.1627 5.34557 16.2887 5.10261 16.4057 4.85963C16.5227 4.61665 16.6487 4.49968 16.7657 4.37369C16.8826 4.13071 17.1256 3.77073 17.3686 3.41076C17.6116 3.05079 17.7286 2.6818 17.9716 2.32183C18.2145 1.96186 18.3315 1.59288 18.4575 1.3589C18.8175 0.512967 19.1865 0.0270242 19.4204 0.0270242H19.7804L19.8074 0Z" fill="#E1554B"/>
</svg>