<svg width="387" height="76" viewBox="0 0 387 76" fill="none" xmlns="http://www.w3.org/2000/svg">
<g clip-path="url(#clip0_493_1673)">
<path d="M31.6101 1.70866L23.1209 0.573242C22.3176 4.94145 21.0261 9.23082 19.4039 13.2836H0V73.6501H54.5892V13.2836H28.0506C29.5941 9.71968 30.8068 5.84033 31.6101 1.70866ZM46.9032 66.2068H7.68595V48.0874H46.919V66.2068H46.9032ZM46.9032 20.5692V40.8018H7.68595V20.5692H46.919H46.9032Z" fill="black"/>
<path d="M87.554 27.5403V23.4875H93.9485V16.1231H87.554V0.905273H80.1201V16.1231H71.6309V23.4875H79.4113L68.7329 47.7413L74.5446 50.3118L80.1201 37.6645V38.863V75.5276H87.554V36.0244C89.003 38.5318 90.6253 41.6069 92.5625 45.2497L96.689 39.1784C93.6178 34.9679 90.6253 31.0885 87.554 27.5246V27.5403Z" fill="black"/>
<path d="M135.087 56.5882H144.38V50.5957H118.755C119.479 49.4602 120.298 48.246 121.259 46.9529H140.899V32.8705H123.763V29.1488H139.119V20.239H144.38V14.0099H139.119V5.02117H123.763V0.905273H116.644V5.03694H101.367V14.0257H96.3583V20.2547H101.367V29.1646H116.644V32.8863H99.587V46.9686H113.652C112.848 48.1041 112.029 49.3183 111.226 50.6114H96.185V56.6039H106.863C105.493 58.4648 104.028 60.4044 102.422 62.4387C106.47 63.4165 110.423 64.4573 114.471 65.7504C109.289 67.4535 102.91 68.7466 95.1455 69.5509L97.9805 75.7011C108.486 74.408 116.896 72.0583 123.212 68.652C128.945 70.6705 134.694 73.0202 140.426 75.6064L144.553 70.2605C139.292 68.1631 134.127 66.2077 129.118 64.5992C131.78 62.3283 133.812 59.6633 135.103 56.5882H135.087ZM123.779 10.3671H132.347V14.7353H123.779V10.3671ZM123.779 19.5924H132.347V23.9606H123.779V19.5924ZM123.779 37.6487H134.127V41.8592H123.779V37.6487ZM108.171 10.3671H116.66V14.7353H108.171V10.3671ZM108.171 23.9764V19.6082H116.66V23.9764H108.171ZM106.391 41.8592V37.6487H116.66V41.8592H106.391ZM121.92 62.423C118.44 61.3664 115.053 60.4833 111.809 59.8367C112.612 58.859 113.431 57.7394 114.392 56.6039H128.063C126.771 58.7013 124.661 60.6568 121.92 62.4387V62.423Z" fill="black"/>
<path d="M258.267 15.7123L258.33 15.9488L264.111 13.1891L264.079 13.0314C263.276 9.90902 260.677 5.39888 258.693 2.49725L258.614 2.37109L253.07 4.70501L253.196 4.89425C255.417 8.26897 257.559 12.8264 258.283 15.7123H258.267Z" fill="black"/>
<path d="M300.901 58.48V52.1721H278.316C278.505 50.8159 278.599 49.4281 278.599 47.8196V47.52H296.271V41.3698H278.599V37.0489H298.791V30.8199H289.325L292.286 23.8812L292.396 23.6604L292.207 23.6131L288.034 22.525H300.098V16.0436H285.419V0.541992H278.71V16.0436H272.851V0.541992H266.22V16.0436H252.029V22.525H265.039L261.007 23.6919L260.786 23.755L260.881 23.96L263.101 30.8199H253.148V37.0489H271.386V41.3698H255.652V47.52H271.386V47.725C271.386 48.9708 271.339 50.4689 271.008 52.1563H251.51V58.4642H268.519C265.102 63.2582 258.707 66.8537 248.974 69.4557L248.643 69.5345L248.895 69.7711C250.376 71.1588 252.36 73.4927 253.163 74.9909L253.242 75.1328L253.4 75.0855C265.322 71.3165 272.882 65.876 276.489 58.4484H300.885L300.901 58.48ZM268.362 22.525H284.947C284.175 24.8589 282.962 28.1863 281.686 30.8199H270.961L268.362 22.525Z" fill="black"/>
<path d="M279.451 59.4106L279.34 59.3633L274.584 63.8734L274.852 63.9838C282.38 67.327 291.72 72.5625 296.146 75.8899L296.287 75.9846L301.028 71.0644L301.186 70.891L300.997 70.7648C296.335 67.5005 286.885 62.5015 279.482 59.3791L279.451 59.4106Z" fill="black"/>
<path d="M292.412 15.5076L292.507 15.3815C294.019 13.2999 295.704 10.4456 297.468 7.41777C297.988 6.55043 298.492 5.66733 299.011 4.81576L299.122 4.62653L292.57 2.11914L292.491 2.29261C291.215 5.60425 288.963 10.2405 287.23 13.0633L287.12 13.2526L292.27 15.4446L292.412 15.5076Z" fill="black"/>
<path d="M337.898 53.4335L335.819 46.6209L335.756 46.4002L335.552 46.4948C334.418 47.0625 333.299 47.6144 332.181 48.1506C331.157 48.6552 330.134 49.1599 329.094 49.6803V27.4607H335.993V19.9386H329.094V1.51953H321.66V19.9543H313.722V27.4765H321.66V53.3073C318.4 54.8843 315.471 56.1932 313.266 57.1393L313.092 57.2182L315.912 64.9454L315.99 65.1504L316.179 65.0557C321.818 62.233 329.078 58.3536 337.757 53.5281L337.898 53.4492V53.4335Z" fill="black"/>
<path d="M339.174 25.71V49.9638H362.358V25.71H339.174ZM345.317 43.6559V32.0178H356.058V43.6559H345.317Z" fill="black"/>
<path d="M388.677 60.9561C387.18 60.278 384.881 58.6852 383.4 56.9505L383.07 56.5721V57.0767C382.912 61.6972 382.534 67.8474 380.896 67.8474C378.628 67.8474 376.407 63.1953 374.769 55.0897C379.526 47.2995 383.306 37.8849 386.031 27.0985L386.078 26.8934L379.148 25.553L378.975 25.5215L378.927 25.6949C377.289 32.5232 375.321 38.3896 372.895 43.6409C371.966 35.8822 371.336 27.4769 371.037 19.2767H387.417V12.0699H370.8C370.8 10.903 370.8 9.72022 370.785 8.52172C370.785 6.01434 370.753 3.41233 370.8 0.81033V0.621094H363.193V0.81033C363.193 4.46891 363.272 8.17479 363.351 11.7703V12.0699H336.844V19.2767H363.603C364.122 33.4694 365.272 45.1863 366.989 54.112C365.886 55.7047 364.737 57.2186 363.555 58.6379L362.847 52.4246L362.815 52.2039L362.595 52.2512C352.263 54.9478 341.49 57.5498 334.465 59.0795L334.276 59.1268L336.198 66.4755L336.245 66.6647L336.434 66.6016C340.088 65.545 344.293 64.3938 348.751 63.1638C353.475 61.8549 358.374 60.5145 363.114 59.1425C359.539 63.353 355.602 66.8066 351.208 69.5821L350.956 69.7398L351.192 69.9133C352.735 70.9698 355.491 73.493 356.594 74.6757L356.704 74.8019L356.846 74.7072C361.382 71.4902 365.524 67.5636 369.147 63.0219C371.982 71.3483 375.494 75.4011 379.92 75.4011C385.574 75.4011 387.637 72.0737 388.787 61.1768V61.0349L388.677 60.9718V60.9561Z" fill="black"/>
<path d="M206.402 24.417C206.402 13.6779 199.079 6.95996 188.432 6.95996C177.785 6.95996 170.382 13.9459 170.382 24.5117H179.281C179.281 17.5257 183.723 14.9079 188.432 14.9079C194.181 14.9079 197.504 18.7557 197.504 24.3382C197.504 27.4764 196.543 29.7472 194.196 32.6331L170.304 61.7124V69.6604H206.402V61.7124H181.108L200.559 37.8686C204.402 33.1535 206.402 29.9207 206.402 24.417Z" fill="black"/>
<path d="M252.676 66.4434L251.29 60.4194L251.243 60.2459L242.848 62.1856V37.1275H249.242V29.8576H242.848V12.9367H250.14V5.57227H226.893V12.9367H235.65V29.8576H227.13V37.1275H235.65V63.8572L226.374 66.0018L226.185 66.0492L227.571 72.0732L227.618 72.2467L252.487 66.4907L252.676 66.4434Z" fill="black"/>
<path d="M384.692 0.71582H376.077V9.34186H384.692V0.71582Z" fill="black"/>
</g>
<defs>
<clipPath id="clip0_493_1673">
<rect width="387" height="76" fill="white"/>
</clipPath>
</defs>
</svg>
